<?xml version="1.0" encoding="utf-8" standalone="no"?>
<!DOCTYPE svg PUBLIC "-//W3C//DTD SVG 1.1//EN"
  "http://www.w3.org/Graphics/SVG/1.1/DTD/svg11.dtd">
<!-- Created with matplotlib (http://matplotlib.org/) -->
<svg height="345pt" version="1.1" viewBox="0 0 460 345" width="460pt" xmlns="http://www.w3.org/2000/svg" xmlns:xlink="http://www.w3.org/1999/xlink">
 <defs>
  <style type="text/css">
*{stroke-linecap:butt;stroke-linejoin:round;}
  </style>
 </defs>
 <g id="figure_1">
  <g id="patch_1">
   <path d="M 0 345.6 
L 460.8 345.6 
L 460.8 0 
L 0 0 
z
" style="fill:#ffffff;"/>
  </g>
  <g id="axes_1">
   <g id="patch_2">
    <path d="M 57.6 307.584 
L 414.72 307.584 
L 414.72 41.472 
L 57.6 41.472 
z
" style="fill:#ffffff;"/>
   </g>
   <g id="matplotlib.axis_1">
    <g id="xtick_1">
     <g id="line2d_1">
      <defs>
       <path d="M 0 0 
L 0 3.5 
" id="meba71e4f49" style="stroke:#000000;stroke-width:0.8;"/>
      </defs>
      <g>
       <use style="stroke:#000000;stroke-width:0.8;" x="73.832727" xlink:href="#meba71e4f49" y="307.584"/>
      </g>
     </g>
     <g id="text_1">
      <!-- 0 -->
      <defs>
       <path d="M 31.78125 66.40625 
Q 24.171875 66.40625 20.328125 58.90625 
Q 16.5 51.421875 16.5 36.375 
Q 16.5 21.390625 20.328125 13.890625 
Q 24.171875 6.390625 31.78125 6.390625 
Q 39.453125 6.390625 43.28125 13.890625 
Q 47.125 21.390625 47.125 36.375 
Q 47.125 51.421875 43.28125 58.90625 
Q 39.453125 66.40625 31.78125 66.40625 
z
M 31.78125 74.21875 
Q 44.046875 74.21875 50.515625 64.515625 
Q 56.984375 54.828125 56.984375 36.375 
Q 56.984375 17.96875 50.515625 8.265625 
Q 44.046875 -1.421875 31.78125 -1.421875 
Q 19.53125 -1.421875 13.0625 8.265625 
Q 6.59375 17.96875 6.59375 36.375 
Q 6.59375 54.828125 13.0625 64.515625 
Q 19.53125 74.21875 31.78125 74.21875 
z
" id="DejaVuSans-30"/>
      </defs>
      <g transform="translate(70.651477 322.182437)scale(0.1 -0.1)">
       <use xlink:href="#DejaVuSans-30"/>
      </g>
     </g>
    </g>
    <g id="xtick_2">
     <g id="line2d_2">
      <g>
       <use style="stroke:#000000;stroke-width:0.8;" x="114.618474" xlink:href="#meba71e4f49" y="307.584"/>
      </g>
     </g>
     <g id="text_2">
      <!-- 25 -->
      <defs>
       <path d="M 19.1875 8.296875 
L 53.609375 8.296875 
L 53.609375 0 
L 7.328125 0 
L 7.328125 8.296875 
Q 12.9375 14.109375 22.625 23.890625 
Q 32.328125 33.6875 34.8125 36.53125 
Q 39.546875 41.84375 41.421875 45.53125 
Q 43.3125 49.21875 43.3125 52.78125 
Q 43.3125 58.59375 39.234375 62.25 
Q 35.15625 65.921875 28.609375 65.921875 
Q 23.96875 65.921875 18.8125 64.3125 
Q 13.671875 62.703125 7.8125 59.421875 
L 7.8125 69.390625 
Q 13.765625 71.78125 18.9375 73 
Q 24.125 74.21875 28.421875 74.21875 
Q 39.75 74.21875 46.484375 68.546875 
Q 53.21875 62.890625 53.21875 53.421875 
Q 53.21875 48.921875 51.53125 44.890625 
Q 49.859375 40.875 45.40625 35.40625 
Q 44.1875 33.984375 37.640625 27.21875 
Q 31.109375 20.453125 19.1875 8.296875 
z
" id="DejaVuSans-32"/>
       <path d="M 10.796875 72.90625 
L 49.515625 72.90625 
L 49.515625 64.59375 
L 19.828125 64.59375 
L 19.828125 46.734375 
Q 21.96875 47.46875 24.109375 47.828125 
Q 26.265625 48.1875 28.421875 48.1875 
Q 40.625 48.1875 47.75 41.5 
Q 54.890625 34.8125 54.890625 23.390625 
Q 54.890625 11.625 47.5625 5.09375 
Q 40.234375 -1.421875 26.90625 -1.421875 
Q 22.3125 -1.421875 17.546875 -0.640625 
Q 12.796875 0.140625 7.71875 1.703125 
L 7.71875 11.625 
Q 12.109375 9.234375 16.796875 8.0625 
Q 21.484375 6.890625 26.703125 6.890625 
Q 35.15625 6.890625 40.078125 11.328125 
Q 45.015625 15.765625 45.015625 23.390625 
Q 45.015625 31 40.078125 35.4375 
Q 35.15625 39.890625 26.703125 39.890625 
Q 22.75 39.890625 18.8125 39.015625 
Q 14.890625 38.140625 10.796875 36.28125 
z
" id="DejaVuSans-35"/>
      </defs>
      <g transform="translate(108.255974 322.182437)scale(0.1 -0.1)">
       <use xlink:href="#DejaVuSans-32"/>
       <use x="63.623047" xlink:href="#DejaVuSans-35"/>
      </g>
     </g>
    </g>
    <g id="xtick_3">
     <g id="line2d_3">
      <g>
       <use style="stroke:#000000;stroke-width:0.8;" x="155.404221" xlink:href="#meba71e4f49" y="307.584"/>
      </g>
     </g>
     <g id="text_3">
      <!-- 50 -->
      <g transform="translate(149.041721 322.182437)scale(0.1 -0.1)">
       <use xlink:href="#DejaVuSans-35"/>
       <use x="63.623047" xlink:href="#DejaVuSans-30"/>
      </g>
     </g>
    </g>
    <g id="xtick_4">
     <g id="line2d_4">
      <g>
       <use style="stroke:#000000;stroke-width:0.8;" x="196.189968" xlink:href="#meba71e4f49" y="307.584"/>
      </g>
     </g>
     <g id="text_4">
      <!-- 75 -->
      <defs>
       <path d="M 8.203125 72.90625 
L 55.078125 72.90625 
L 55.078125 68.703125 
L 28.609375 0 
L 18.3125 0 
L 43.21875 64.59375 
L 8.203125 64.59375 
z
" id="DejaVuSans-37"/>
      </defs>
      <g transform="translate(189.827468 322.182437)scale(0.1 -0.1)">
       <use xlink:href="#DejaVuSans-37"/>
       <use x="63.623047" xlink:href="#DejaVuSans-35"/>
      </g>
     </g>
    </g>
    <g id="xtick_5">
     <g id="line2d_5">
      <g>
       <use style="stroke:#000000;stroke-width:0.8;" x="236.975715" xlink:href="#meba71e4f49" y="307.584"/>
      </g>
     </g>
     <g id="text_5">
      <!-- 100 -->
      <defs>
       <path d="M 12.40625 8.296875 
L 28.515625 8.296875 
L 28.515625 63.921875 
L 10.984375 60.40625 
L 10.984375 69.390625 
L 28.421875 72.90625 
L 38.28125 72.90625 
L 38.28125 8.296875 
L 54.390625 8.296875 
L 54.390625 0 
L 12.40625 0 
z
" id="DejaVuSans-31"/>
      </defs>
      <g transform="translate(227.431965 322.182437)scale(0.1 -0.1)">
       <use xlink:href="#DejaVuSans-31"/>
       <use x="63.623047" xlink:href="#DejaVuSans-30"/>
       <use x="127.246094" xlink:href="#DejaVuSans-30"/>
      </g>
     </g>
    </g>
    <g id="xtick_6">
     <g id="line2d_6">
      <g>
       <use style="stroke:#000000;stroke-width:0.8;" x="277.761462" xlink:href="#meba71e4f49" y="307.584"/>
      </g>
     </g>
     <g id="text_6">
      <!-- 125 -->
      <g transform="translate(268.217712 322.182437)scale(0.1 -0.1)">
       <use xlink:href="#DejaVuSans-31"/>
       <use x="63.623047" xlink:href="#DejaVuSans-32"/>
       <use x="127.246094" xlink:href="#DejaVuSans-35"/>
      </g>
     </g>
    </g>
    <g id="xtick_7">
     <g id="line2d_7">
      <g>
       <use style="stroke:#000000;stroke-width:0.8;" x="318.547209" xlink:href="#meba71e4f49" y="307.584"/>
      </g>
     </g>
     <g id="text_7">
      <!-- 150 -->
      <g transform="translate(309.003459 322.182437)scale(0.1 -0.1)">
       <use xlink:href="#DejaVuSans-31"/>
       <use x="63.623047" xlink:href="#DejaVuSans-35"/>
       <use x="127.246094" xlink:href="#DejaVuSans-30"/>
      </g>
     </g>
    </g>
    <g id="xtick_8">
     <g id="line2d_8">
      <g>
       <use style="stroke:#000000;stroke-width:0.8;" x="359.332956" xlink:href="#meba71e4f49" y="307.584"/>
      </g>
     </g>
     <g id="text_8">
      <!-- 175 -->
      <g transform="translate(349.789206 322.182437)scale(0.1 -0.1)">
       <use xlink:href="#DejaVuSans-31"/>
       <use x="63.623047" xlink:href="#DejaVuSans-37"/>
       <use x="127.246094" xlink:href="#DejaVuSans-35"/>
      </g>
     </g>
    </g>
    <g id="xtick_9">
     <g id="line2d_9">
      <g>
       <use style="stroke:#000000;stroke-width:0.8;" x="400.118703" xlink:href="#meba71e4f49" y="307.584"/>
      </g>
     </g>
     <g id="text_9">
      <!-- 200 -->
      <g transform="translate(390.574953 322.182437)scale(0.1 -0.1)">
       <use xlink:href="#DejaVuSans-32"/>
       <use x="63.623047" xlink:href="#DejaVuSans-30"/>
       <use x="127.246094" xlink:href="#DejaVuSans-30"/>
      </g>
     </g>
    </g>
    <g id="text_10">
     <!-- epoch -->
     <defs>
      <path d="M 56.203125 29.59375 
L 56.203125 25.203125 
L 14.890625 25.203125 
Q 15.484375 15.921875 20.484375 11.0625 
Q 25.484375 6.203125 34.421875 6.203125 
Q 39.59375 6.203125 44.453125 7.46875 
Q 49.3125 8.734375 54.109375 11.28125 
L 54.109375 2.78125 
Q 49.265625 0.734375 44.1875 -0.34375 
Q 39.109375 -1.421875 33.890625 -1.421875 
Q 20.796875 -1.421875 13.15625 6.1875 
Q 5.515625 13.8125 5.515625 26.8125 
Q 5.515625 40.234375 12.765625 48.109375 
Q 20.015625 56 32.328125 56 
Q 43.359375 56 49.78125 48.890625 
Q 56.203125 41.796875 56.203125 29.59375 
z
M 47.21875 32.234375 
Q 47.125 39.59375 43.09375 43.984375 
Q 39.0625 48.390625 32.421875 48.390625 
Q 24.90625 48.390625 20.390625 44.140625 
Q 15.875 39.890625 15.1875 32.171875 
z
" id="DejaVuSans-65"/>
      <path d="M 18.109375 8.203125 
L 18.109375 -20.796875 
L 9.078125 -20.796875 
L 9.078125 54.6875 
L 18.109375 54.6875 
L 18.109375 46.390625 
Q 20.953125 51.265625 25.265625 53.625 
Q 29.59375 56 35.59375 56 
Q 45.5625 56 51.78125 48.09375 
Q 58.015625 40.1875 58.015625 27.296875 
Q 58.015625 14.40625 51.78125 6.484375 
Q 45.5625 -1.421875 35.59375 -1.421875 
Q 29.59375 -1.421875 25.265625 0.953125 
Q 20.953125 3.328125 18.109375 8.203125 
z
M 48.6875 27.296875 
Q 48.6875 37.203125 44.609375 42.84375 
Q 40.53125 48.484375 33.40625 48.484375 
Q 26.265625 48.484375 22.1875 42.84375 
Q 18.109375 37.203125 18.109375 27.296875 
Q 18.109375 17.390625 22.1875 11.75 
Q 26.265625 6.109375 33.40625 6.109375 
Q 40.53125 6.109375 44.609375 11.75 
Q 48.6875 17.390625 48.6875 27.296875 
z
" id="DejaVuSans-70"/>
      <path d="M 30.609375 48.390625 
Q 23.390625 48.390625 19.1875 42.75 
Q 14.984375 37.109375 14.984375 27.296875 
Q 14.984375 17.484375 19.15625 11.84375 
Q 23.34375 6.203125 30.609375 6.203125 
Q 37.796875 6.203125 41.984375 11.859375 
Q 46.1875 17.53125 46.1875 27.296875 
Q 46.1875 37.015625 41.984375 42.703125 
Q 37.796875 48.390625 30.609375 48.390625 
z
M 30.609375 56 
Q 42.328125 56 49.015625 48.375 
Q 55.71875 40.765625 55.71875 27.296875 
Q 55.71875 13.875 49.015625 6.21875 
Q 42.328125 -1.421875 30.609375 -1.421875 
Q 18.84375 -1.421875 12.171875 6.21875 
Q 5.515625 13.875 5.515625 27.296875 
Q 5.515625 40.765625 12.171875 48.375 
Q 18.84375 56 30.609375 56 
z
" id="DejaVuSans-6f"/>
      <path d="M 48.78125 52.59375 
L 48.78125 44.1875 
Q 44.96875 46.296875 41.140625 47.34375 
Q 37.3125 48.390625 33.40625 48.390625 
Q 24.65625 48.390625 19.8125 42.84375 
Q 14.984375 37.3125 14.984375 27.296875 
Q 14.984375 17.28125 19.8125 11.734375 
Q 24.65625 6.203125 33.40625 6.203125 
Q 37.3125 6.203125 41.140625 7.25 
Q 44.96875 8.296875 48.78125 10.40625 
L 48.78125 2.09375 
Q 45.015625 0.34375 40.984375 -0.53125 
Q 36.96875 -1.421875 32.421875 -1.421875 
Q 20.0625 -1.421875 12.78125 6.34375 
Q 5.515625 14.109375 5.515625 27.296875 
Q 5.515625 40.671875 12.859375 48.328125 
Q 20.21875 56 33.015625 56 
Q 37.15625 56 41.109375 55.140625 
Q 45.0625 54.296875 48.78125 52.59375 
z
" id="DejaVuSans-63"/>
      <path d="M 54.890625 33.015625 
L 54.890625 0 
L 45.90625 0 
L 45.90625 32.71875 
Q 45.90625 40.484375 42.875 44.328125 
Q 39.84375 48.1875 33.796875 48.1875 
Q 26.515625 48.1875 22.3125 43.546875 
Q 18.109375 38.921875 18.109375 30.90625 
L 18.109375 0 
L 9.078125 0 
L 9.078125 75.984375 
L 18.109375 75.984375 
L 18.109375 46.1875 
Q 21.34375 51.125 25.703125 53.5625 
Q 30.078125 56 35.796875 56 
Q 45.21875 56 50.046875 50.171875 
Q 54.890625 44.34375 54.890625 33.015625 
z
" id="DejaVuSans-68"/>
     </defs>
     <g transform="translate(220.931875 335.860562)scale(0.1 -0.1)">
      <use xlink:href="#DejaVuSans-65"/>
      <use x="61.523438" xlink:href="#DejaVuSans-70"/>
      <use x="125" xlink:href="#DejaVuSans-6f"/>
      <use x="186.181641" xlink:href="#DejaVuSans-63"/>
      <use x="241.162109" xlink:href="#DejaVuSans-68"/>
     </g>
    </g>
   </g>
   <g id="matplotlib.axis_2">
    <g id="ytick_1">
     <g id="line2d_10">
      <defs>
       <path d="M 0 0 
L -3.5 0 
" id="m6678277a23" style="stroke:#000000;stroke-width:0.8;"/>
      </defs>
      <g>
       <use style="stroke:#000000;stroke-width:0.8;" x="57.6" xlink:href="#m6678277a23" y="295.213947"/>
      </g>
     </g>
     <g id="text_11">
      <!-- 35 -->
      <defs>
       <path d="M 40.578125 39.3125 
Q 47.65625 37.796875 51.625 33 
Q 55.609375 28.21875 55.609375 21.1875 
Q 55.609375 10.40625 48.1875 4.484375 
Q 40.765625 -1.421875 27.09375 -1.421875 
Q 22.515625 -1.421875 17.65625 -0.515625 
Q 12.796875 0.390625 7.625 2.203125 
L 7.625 11.71875 
Q 11.71875 9.328125 16.59375 8.109375 
Q 21.484375 6.890625 26.8125 6.890625 
Q 36.078125 6.890625 40.9375 10.546875 
Q 45.796875 14.203125 45.796875 21.1875 
Q 45.796875 27.640625 41.28125 31.265625 
Q 36.765625 34.90625 28.71875 34.90625 
L 20.21875 34.90625 
L 20.21875 43.015625 
L 29.109375 43.015625 
Q 36.375 43.015625 40.234375 45.921875 
Q 44.09375 48.828125 44.09375 54.296875 
Q 44.09375 59.90625 40.109375 62.90625 
Q 36.140625 65.921875 28.71875 65.921875 
Q 24.65625 65.921875 20.015625 65.03125 
Q 15.375 64.15625 9.8125 62.3125 
L 9.8125 71.09375 
Q 15.4375 72.65625 20.34375 73.4375 
Q 25.25 74.21875 29.59375 74.21875 
Q 40.828125 74.21875 47.359375 69.109375 
Q 53.90625 64.015625 53.90625 55.328125 
Q 53.90625 49.265625 50.4375 45.09375 
Q 46.96875 40.921875 40.578125 39.3125 
z
" id="DejaVuSans-33"/>
      </defs>
      <g transform="translate(37.875 299.013166)scale(0.1 -0.1)">
       <use xlink:href="#DejaVuSans-33"/>
       <use x="63.623047" xlink:href="#DejaVuSans-35"/>
      </g>
     </g>
    </g>
    <g id="ytick_2">
     <g id="line2d_11">
      <g>
       <use style="stroke:#000000;stroke-width:0.8;" x="57.6" xlink:href="#m6678277a23" y="260.957363"/>
      </g>
     </g>
     <g id="text_12">
      <!-- 40 -->
      <defs>
       <path d="M 37.796875 64.3125 
L 12.890625 25.390625 
L 37.796875 25.390625 
z
M 35.203125 72.90625 
L 47.609375 72.90625 
L 47.609375 25.390625 
L 58.015625 25.390625 
L 58.015625 17.1875 
L 47.609375 17.1875 
L 47.609375 0 
L 37.796875 0 
L 37.796875 17.1875 
L 4.890625 17.1875 
L 4.890625 26.703125 
z
" id="DejaVuSans-34"/>
      </defs>
      <g transform="translate(37.875 264.756582)scale(0.1 -0.1)">
       <use xlink:href="#DejaVuSans-34"/>
       <use x="63.623047" xlink:href="#DejaVuSans-30"/>
      </g>
     </g>
    </g>
    <g id="ytick_3">
     <g id="line2d_12">
      <g>
       <use style="stroke:#000000;stroke-width:0.8;" x="57.6" xlink:href="#m6678277a23" y="226.700778"/>
      </g>
     </g>
     <g id="text_13">
      <!-- 45 -->
      <g transform="translate(37.875 230.499997)scale(0.1 -0.1)">
       <use xlink:href="#DejaVuSans-34"/>
       <use x="63.623047" xlink:href="#DejaVuSans-35"/>
      </g>
     </g>
    </g>
    <g id="ytick_4">
     <g id="line2d_13">
      <g>
       <use style="stroke:#000000;stroke-width:0.8;" x="57.6" xlink:href="#m6678277a23" y="192.444194"/>
      </g>
     </g>
     <g id="text_14">
      <!-- 50 -->
      <g transform="translate(37.875 196.243412)scale(0.1 -0.1)">
       <use xlink:href="#DejaVuSans-35"/>
       <use x="63.623047" xlink:href="#DejaVuSans-30"/>
      </g>
     </g>
    </g>
    <g id="ytick_5">
     <g id="line2d_14">
      <g>
       <use style="stroke:#000000;stroke-width:0.8;" x="57.6" xlink:href="#m6678277a23" y="158.187609"/>
      </g>
     </g>
     <g id="text_15">
      <!-- 55 -->
      <g transform="translate(37.875 161.986828)scale(0.1 -0.1)">
       <use xlink:href="#DejaVuSans-35"/>
       <use x="63.623047" xlink:href="#DejaVuSans-35"/>
      </g>
     </g>
    </g>
    <g id="ytick_6">
     <g id="line2d_15">
      <g>
       <use style="stroke:#000000;stroke-width:0.8;" x="57.6" xlink:href="#m6678277a23" y="123.931025"/>
      </g>
     </g>
     <g id="text_16">
      <!-- 60 -->
      <defs>
       <path d="M 33.015625 40.375 
Q 26.375 40.375 22.484375 35.828125 
Q 18.609375 31.296875 18.609375 23.390625 
Q 18.609375 15.53125 22.484375 10.953125 
Q 26.375 6.390625 33.015625 6.390625 
Q 39.65625 6.390625 43.53125 10.953125 
Q 47.40625 15.53125 47.40625 23.390625 
Q 47.40625 31.296875 43.53125 35.828125 
Q 39.65625 40.375 33.015625 40.375 
z
M 52.59375 71.296875 
L 52.59375 62.3125 
Q 48.875 64.0625 45.09375 64.984375 
Q 41.3125 65.921875 37.59375 65.921875 
Q 27.828125 65.921875 22.671875 59.328125 
Q 17.53125 52.734375 16.796875 39.40625 
Q 19.671875 43.65625 24.015625 45.921875 
Q 28.375 48.1875 33.59375 48.1875 
Q 44.578125 48.1875 50.953125 41.515625 
Q 57.328125 34.859375 57.328125 23.390625 
Q 57.328125 12.15625 50.6875 5.359375 
Q 44.046875 -1.421875 33.015625 -1.421875 
Q 20.359375 -1.421875 13.671875 8.265625 
Q 6.984375 17.96875 6.984375 36.375 
Q 6.984375 53.65625 15.1875 63.9375 
Q 23.390625 74.21875 37.203125 74.21875 
Q 40.921875 74.21875 44.703125 73.484375 
Q 48.484375 72.75 52.59375 71.296875 
z
" id="DejaVuSans-36"/>
      </defs>
      <g transform="translate(37.875 127.730243)scale(0.1 -0.1)">
       <use xlink:href="#DejaVuSans-36"/>
       <use x="63.623047" xlink:href="#DejaVuSans-30"/>
      </g>
     </g>
    </g>
    <g id="ytick_7">
     <g id="line2d_16">
      <g>
       <use style="stroke:#000000;stroke-width:0.8;" x="57.6" xlink:href="#m6678277a23" y="89.67444"/>
      </g>
     </g>
     <g id="text_17">
      <!-- 65 -->
      <g transform="translate(37.875 93.473659)scale(0.1 -0.1)">
       <use xlink:href="#DejaVuSans-36"/>
       <use x="63.623047" xlink:href="#DejaVuSans-35"/>
      </g>
     </g>
    </g>
    <g id="ytick_8">
     <g id="line2d_17">
      <g>
       <use style="stroke:#000000;stroke-width:0.8;" x="57.6" xlink:href="#m6678277a23" y="55.417856"/>
      </g>
     </g>
     <g id="text_18">
      <!-- 70 -->
      <g transform="translate(37.875 59.217074)scale(0.1 -0.1)">
       <use xlink:href="#DejaVuSans-37"/>
       <use x="63.623047" xlink:href="#DejaVuSans-30"/>
      </g>
     </g>
    </g>
    <g id="text_19">
     <!-- accuracy -->
     <defs>
      <path d="M 34.28125 27.484375 
Q 23.390625 27.484375 19.1875 25 
Q 14.984375 22.515625 14.984375 16.5 
Q 14.984375 11.71875 18.140625 8.90625 
Q 21.296875 6.109375 26.703125 6.109375 
Q 34.1875 6.109375 38.703125 11.40625 
Q 43.21875 16.703125 43.21875 25.484375 
L 43.21875 27.484375 
z
M 52.203125 31.203125 
L 52.203125 0 
L 43.21875 0 
L 43.21875 8.296875 
Q 40.140625 3.328125 35.546875 0.953125 
Q 30.953125 -1.421875 24.3125 -1.421875 
Q 15.921875 -1.421875 10.953125 3.296875 
Q 6 8.015625 6 15.921875 
Q 6 25.140625 12.171875 29.828125 
Q 18.359375 34.515625 30.609375 34.515625 
L 43.21875 34.515625 
L 43.21875 35.40625 
Q 43.21875 41.609375 39.140625 45 
Q 35.0625 48.390625 27.6875 48.390625 
Q 23 48.390625 18.546875 47.265625 
Q 14.109375 46.140625 10.015625 43.890625 
L 10.015625 52.203125 
Q 14.9375 54.109375 19.578125 55.046875 
Q 24.21875 56 28.609375 56 
Q 40.484375 56 46.34375 49.84375 
Q 52.203125 43.703125 52.203125 31.203125 
z
" id="DejaVuSans-61"/>
      <path d="M 8.5 21.578125 
L 8.5 54.6875 
L 17.484375 54.6875 
L 17.484375 21.921875 
Q 17.484375 14.15625 20.5 10.265625 
Q 23.53125 6.390625 29.59375 6.390625 
Q 36.859375 6.390625 41.078125 11.03125 
Q 45.3125 15.671875 45.3125 23.6875 
L 45.3125 54.6875 
L 54.296875 54.6875 
L 54.296875 0 
L 45.3125 0 
L 45.3125 8.40625 
Q 42.046875 3.421875 37.71875 1 
Q 33.40625 -1.421875 27.6875 -1.421875 
Q 18.265625 -1.421875 13.375 4.4375 
Q 8.5 10.296875 8.5 21.578125 
z
M 31.109375 56 
z
" id="DejaVuSans-75"/>
      <path d="M 41.109375 46.296875 
Q 39.59375 47.171875 37.8125 47.578125 
Q 36.03125 48 33.890625 48 
Q 26.265625 48 22.1875 43.046875 
Q 18.109375 38.09375 18.109375 28.8125 
L 18.109375 0 
L 9.078125 0 
L 9.078125 54.6875 
L 18.109375 54.6875 
L 18.109375 46.1875 
Q 20.953125 51.171875 25.484375 53.578125 
Q 30.03125 56 36.53125 56 
Q 37.453125 56 38.578125 55.875 
Q 39.703125 55.765625 41.0625 55.515625 
z
" id="DejaVuSans-72"/>
      <path d="M 32.171875 -5.078125 
Q 28.375 -14.84375 24.75 -17.8125 
Q 21.140625 -20.796875 15.09375 -20.796875 
L 7.90625 -20.796875 
L 7.90625 -13.28125 
L 13.1875 -13.28125 
Q 16.890625 -13.28125 18.9375 -11.515625 
Q 21 -9.765625 23.484375 -3.21875 
L 25.09375 0.875 
L 2.984375 54.6875 
L 12.5 54.6875 
L 29.59375 11.921875 
L 46.6875 54.6875 
L 56.203125 54.6875 
z
" id="DejaVuSans-79"/>
     </defs>
     <g transform="translate(31.795312 197.087375)rotate(-90)scale(0.1 -0.1)">
      <use xlink:href="#DejaVuSans-61"/>
      <use x="61.279297" xlink:href="#DejaVuSans-63"/>
      <use x="116.259766" xlink:href="#DejaVuSans-63"/>
      <use x="171.240234" xlink:href="#DejaVuSans-75"/>
      <use x="234.619141" xlink:href="#DejaVuSans-72"/>
      <use x="275.732422" xlink:href="#DejaVuSans-61"/>
      <use x="337.011719" xlink:href="#DejaVuSans-63"/>
      <use x="391.992188" xlink:href="#DejaVuSans-79"/>
     </g>
    </g>
   </g>
   <g id="line2d_18">
    <path clip-path="url(#p08a57c923e)" d="M 73.832727 256.092928 
L 75.464157 217.108935 
L 77.095587 195.732826 
L 81.989877 157.091398 
L 83.621307 147.156989 
L 86.884166 130.645315 
L 88.515596 126.054933 
L 90.147026 119.409155 
L 91.778456 113.928102 
L 96.672746 103.103021 
L 98.304175 100.9106 
L 99.935605 98.238586 
L 101.567035 96.183191 
L 103.198465 94.675901 
L 104.829895 92.414967 
L 106.461325 90.839164 
L 108.092755 88.852282 
L 109.724185 87.139453 
L 111.355614 85.906216 
L 112.987044 85.015545 
L 114.618474 84.535952 
L 116.249904 83.165689 
L 117.881334 83.165689 
L 119.512764 82.275018 
L 121.144194 80.493675 
L 122.775624 79.191925 
L 124.407053 78.780846 
L 126.038483 77.958688 
L 127.669913 76.725451 
L 129.301343 76.314372 
L 130.932773 75.355188 
L 132.564203 75.766267 
L 135.827063 74.396003 
L 137.458492 73.162766 
L 139.089922 72.751687 
L 140.721352 71.792503 
L 142.352782 71.586963 
L 143.984212 71.51845 
L 145.615642 71.998042 
L 147.247072 71.51845 
L 148.878502 70.011161 
L 150.509931 69.942647 
L 152.141361 69.737108 
L 153.772791 68.640897 
L 155.404221 68.366845 
L 157.035651 67.476173 
L 158.667081 67.065094 
L 160.298511 66.037397 
L 161.929941 66.10591 
L 163.56137 65.694831 
L 165.1928 65.078212 
L 166.82423 64.941186 
L 168.45566 65.009699 
L 171.71852 64.256054 
L 173.34995 64.530107 
L 174.98138 64.050515 
L 178.244239 63.844975 
L 179.875669 63.228357 
L 181.507099 63.022817 
L 184.769959 62.885791 
L 186.401389 62.543225 
L 188.032819 62.474712 
L 189.664249 62.543225 
L 192.927108 62.337686 
L 194.558538 61.78958 
L 199.452828 62.611738 
L 201.084258 62.132146 
L 202.715688 62.337686 
L 204.347117 61.99512 
L 205.978547 62.200659 
L 209.241407 61.99512 
L 210.872837 61.172962 
L 212.504267 61.515528 
L 214.135697 61.104449 
L 215.767127 61.035935 
L 217.398556 61.241475 
L 219.029986 60.69337 
L 220.661416 60.48783 
L 222.292846 60.761883 
L 225.555706 60.48783 
L 227.187136 60.624856 
L 230.449995 59.939725 
L 232.081425 59.939725 
L 233.712855 59.117567 
L 236.975715 58.500948 
L 238.607145 58.706488 
L 240.238575 58.500948 
L 241.870005 58.158382 
L 243.501434 58.021356 
L 246.764294 58.021356 
L 248.395724 57.747303 
L 251.658584 57.541764 
L 253.290014 58.089869 
L 254.921444 58.089869 
L 256.552873 57.747303 
L 258.184303 57.952843 
L 259.815733 58.500948 
L 263.078593 58.912027 
L 264.710023 58.912027 
L 266.341453 59.049054 
L 267.972883 59.460133 
L 269.604312 60.076751 
L 271.235742 60.008238 
L 272.867172 60.48783 
L 274.498602 60.556343 
L 277.761462 59.665672 
L 279.392892 59.734185 
L 281.024322 59.939725 
L 282.655751 59.597159 
L 284.287181 59.528646 
L 285.918611 59.939725 
L 287.550041 60.008238 
L 289.181471 60.419317 
L 290.812901 60.48783 
L 292.444331 60.69337 
L 294.075761 60.761883 
L 295.70719 60.967422 
L 297.33862 60.830396 
L 300.60148 61.378501 
L 303.86434 61.309988 
L 305.49577 60.967422 
L 308.75863 60.624856 
L 310.390059 60.761883 
L 312.021489 60.624856 
L 315.284349 60.967422 
L 316.915779 60.761883 
L 320.178639 61.309988 
L 321.810069 61.447014 
L 323.441498 61.447014 
L 325.072928 61.652554 
L 326.704358 61.652554 
L 328.335788 61.378501 
L 329.967218 61.652554 
L 331.598648 61.584041 
L 333.230078 61.858093 
L 334.861508 61.858093 
L 336.492937 61.721067 
L 338.124367 62.200659 
L 339.755797 62.063633 
L 341.387227 62.474712 
L 343.018657 62.406199 
L 344.650087 62.474712 
L 346.281517 62.748765 
L 351.175806 62.406199 
L 352.807236 62.474712 
L 354.438666 62.269172 
L 356.070096 62.474712 
L 357.701526 63.091331 
L 359.332956 63.365383 
L 360.964386 63.433896 
L 365.858675 64.324568 
L 367.490105 64.187541 
L 369.121535 64.80416 
L 370.752965 64.324568 
L 372.384395 64.872673 
L 374.015825 64.59862 
L 377.278684 65.489291 
L 378.910114 65.009699 
L 382.172974 65.489291 
L 383.804404 65.420778 
L 387.067264 65.90037 
L 388.698693 66.242936 
L 390.330123 66.311449 
L 391.961553 66.654015 
L 395.224413 66.791042 
L 398.487273 66.585502 
L 398.487273 66.585502 
" style="fill:none;stroke:#1f77b4;stroke-linecap:square;stroke-width:1.5;"/>
   </g>
   <g id="line2d_19">
    <path clip-path="url(#p08a57c923e)" d="M 73.832727 295.488 
L 75.464157 258.833455 
L 78.727017 221.97337 
L 80.358447 208.750328 
L 81.989877 200.049155 
L 83.621307 192.855273 
L 88.515596 176.001033 
L 90.147026 172.506862 
L 91.778456 167.231347 
L 93.409886 162.366912 
L 95.041316 157.98207 
L 96.672746 154.350872 
L 98.304175 151.267779 
L 99.935605 147.431042 
L 104.829895 138.455816 
L 108.092755 131.947065 
L 109.724185 129.549105 
L 111.355614 126.808578 
L 112.987044 124.410617 
L 114.618474 122.629274 
L 116.249904 120.642393 
L 117.881334 116.805655 
L 119.512764 113.859589 
L 121.144194 111.530141 
L 122.775624 108.584075 
L 124.407053 107.419351 
L 126.038483 105.638008 
L 127.669913 104.541798 
L 129.301343 103.240048 
L 130.932773 101.047626 
L 132.564203 99.951415 
L 134.195633 98.307099 
L 135.827063 96.457244 
L 137.458492 94.333336 
L 139.089922 92.48348 
L 140.721352 90.907677 
L 142.352782 88.989308 
L 143.984212 87.550532 
L 145.615642 86.522834 
L 147.247072 85.221084 
L 148.878502 84.330413 
L 150.509931 84.05636 
L 152.141361 82.96015 
L 153.772791 81.24732 
L 157.035651 80.014083 
L 158.667081 79.054899 
L 160.298511 78.780846 
L 161.929941 78.164228 
L 163.56137 76.451398 
L 165.1928 75.697754 
L 166.82423 75.218161 
L 168.45566 73.916411 
L 170.08709 73.436819 
L 173.34995 70.970345 
L 174.98138 70.353726 
L 176.61281 69.463055 
L 178.244239 69.394542 
L 181.507099 69.051976 
L 183.138529 68.572384 
L 184.769959 67.6132 
L 188.032819 67.133607 
L 192.927108 65.215239 
L 194.558538 65.146726 
L 196.189968 64.530107 
L 197.821398 64.735647 
L 199.452828 64.530107 
L 201.084258 64.050515 
L 202.715688 63.29687 
L 205.978547 62.200659 
L 209.241407 61.858093 
L 210.872837 61.104449 
L 212.504267 60.556343 
L 214.135697 60.145264 
L 217.398556 60.213777 
L 219.029986 59.802698 
L 222.292846 58.569461 
L 223.924276 58.089869 
L 225.555706 57.747303 
L 227.187136 57.267711 
L 228.818566 58.021356 
L 230.449995 58.432435 
L 233.712855 58.637975 
L 235.344285 58.98054 
L 236.975715 58.775001 
L 238.607145 58.363922 
L 240.238575 58.226895 
L 241.870005 58.226895 
L 243.501434 58.363922 
L 245.132864 58.637975 
L 250.027154 58.363922 
L 251.658584 57.473251 
L 256.552873 56.856632 
L 258.184303 56.788119 
L 263.078593 57.062172 
L 264.710023 57.267711 
L 266.341453 57.336224 
L 269.604312 56.925145 
L 272.867172 56.719606 
L 274.498602 56.582579 
L 276.130032 56.925145 
L 277.761462 56.582579 
L 279.392892 56.514066 
L 281.024322 56.788119 
L 282.655751 56.582579 
L 284.287181 56.034474 
L 285.918611 55.760421 
L 287.550041 55.623395 
L 289.181471 55.280829 
L 290.812901 55.212316 
L 292.444331 55.897448 
L 297.33862 55.965961 
L 298.97005 56.102987 
L 300.60148 55.897448 
L 302.23291 55.349342 
L 303.86434 55.143803 
L 307.1272 55.07529 
L 308.75863 55.07529 
L 310.390059 54.86975 
L 313.652919 55.212316 
L 315.284349 55.554882 
L 316.915779 55.349342 
L 318.547209 54.938263 
L 320.178639 54.732724 
L 323.441498 54.664211 
L 325.072928 54.527184 
L 326.704358 54.664211 
L 328.335788 54.458671 
L 329.967218 54.527184 
L 331.598648 54.390158 
L 333.230078 54.390158 
L 336.492937 54.86975 
L 341.387227 54.801237 
L 347.912947 54.527184 
L 349.544376 54.184619 
L 354.438666 54.253132 
L 356.070096 54.047592 
L 357.701526 53.979079 
L 359.332956 54.116105 
L 360.964386 54.047592 
L 362.595815 54.390158 
L 364.227245 54.527184 
L 367.490105 54.321645 
L 370.752965 54.801237 
L 372.384395 54.664211 
L 374.015825 54.116105 
L 380.541544 54.047592 
L 383.804404 53.568 
L 385.435834 53.77354 
L 387.067264 54.116105 
L 388.698693 54.184619 
L 390.330123 54.116105 
L 395.224413 54.595698 
L 396.855843 54.458671 
L 398.487273 54.527184 
L 398.487273 54.527184 
" style="fill:none;stroke:#ff7f0e;stroke-linecap:square;stroke-width:1.5;"/>
   </g>
   <g id="line2d_20">
    <path clip-path="url(#p08a57c923e)" d="M 73.832727 285.348051 
L 75.464157 259.929665 
L 77.095587 242.253268 
L 78.727017 227.38591 
L 80.358447 214.162868 
L 81.989877 202.721169 
L 85.252736 188.675969 
L 88.515596 177.850889 
L 90.147026 173.945638 
L 91.778456 170.382953 
L 93.409886 164.627847 
L 95.041316 159.831925 
L 96.672746 157.159912 
L 98.304175 155.515596 
L 99.935605 150.171568 
L 101.567035 146.608884 
L 103.198465 141.812962 
L 106.461325 138.113251 
L 108.092755 134.961645 
L 109.724185 130.919368 
L 111.355614 128.658433 
L 112.987044 125.575341 
L 114.618474 123.656972 
L 116.249904 120.916445 
L 117.881334 118.792537 
L 119.512764 116.25755 
L 121.144194 114.202155 
L 122.775624 112.352299 
L 124.407053 111.119062 
L 126.038483 109.269206 
L 127.669913 106.32314 
L 129.301343 103.651127 
L 130.932773 101.732758 
L 134.195633 99.129257 
L 135.827063 96.457244 
L 137.458492 96.320218 
L 139.089922 95.635086 
L 140.721352 94.401849 
L 142.352782 93.374151 
L 143.984212 92.209427 
L 145.615642 90.907677 
L 147.247072 89.126335 
L 148.878502 88.509716 
L 150.509931 86.933913 
L 152.141361 85.56365 
L 155.404221 84.2619 
L 157.035651 83.919334 
L 160.298511 81.726912 
L 161.929941 80.15111 
L 163.56137 78.849359 
L 165.1928 78.095715 
L 166.82423 77.684636 
L 168.45566 77.068017 
L 170.08709 76.314372 
L 171.71852 75.423701 
L 174.98138 74.53303 
L 176.61281 73.505332 
L 178.244239 71.792503 
L 179.875669 71.312911 
L 181.507099 70.42224 
L 183.138529 69.805621 
L 184.769959 69.600082 
L 186.401389 69.600082 
L 188.032819 69.120489 
L 189.664249 68.229818 
L 191.295678 68.092792 
L 194.558538 67.339147 
L 196.189968 65.968884 
L 197.821398 66.10591 
L 199.452828 65.694831 
L 201.084258 65.420778 
L 202.715688 65.352265 
L 204.347117 65.489291 
L 209.241407 64.80416 
L 212.504267 64.119028 
L 214.135697 64.187541 
L 215.767127 63.707949 
L 217.398556 63.022817 
L 219.029986 62.680251 
L 220.661416 62.132146 
L 227.187136 61.858093 
L 228.818566 62.063633 
L 230.449995 61.515528 
L 232.081425 60.830396 
L 235.344285 60.48783 
L 236.975715 59.802698 
L 238.607145 59.597159 
L 240.238575 59.117567 
L 243.501434 59.117567 
L 245.132864 58.843514 
L 246.764294 58.98054 
L 248.395724 58.912027 
L 250.027154 58.637975 
L 251.658584 58.637975 
L 253.290014 58.226895 
L 254.921444 58.295409 
L 256.552873 58.500948 
L 258.184303 58.432435 
L 259.815733 58.706488 
L 263.078593 58.637975 
L 264.710023 58.226895 
L 266.341453 58.089869 
L 267.972883 58.158382 
L 271.235742 57.88433 
L 272.867172 57.404737 
L 274.498602 57.473251 
L 276.130032 56.925145 
L 277.761462 56.514066 
L 279.392892 56.308527 
L 281.024322 56.37704 
L 282.655751 56.308527 
L 284.287181 56.37704 
L 285.918611 56.1715 
L 290.812901 56.240014 
L 292.444331 56.445553 
L 295.70719 56.308527 
L 297.33862 56.651093 
L 300.60148 56.788119 
L 302.23291 56.514066 
L 303.86434 56.788119 
L 305.49577 56.651093 
L 312.021489 56.719606 
L 315.284349 56.856632 
L 316.915779 56.582579 
L 318.547209 57.199198 
L 320.178639 56.788119 
L 323.441498 56.788119 
L 325.072928 56.925145 
L 326.704358 57.267711 
L 329.967218 56.925145 
L 331.598648 57.199198 
L 336.492937 56.856632 
L 339.755797 57.199198 
L 343.018657 56.788119 
L 347.912947 57.130685 
L 349.544376 57.130685 
L 352.807236 56.651093 
L 354.438666 56.719606 
L 356.070096 56.445553 
L 357.701526 56.034474 
L 359.332956 56.240014 
L 365.858675 55.760421 
L 369.121535 56.102987 
L 370.752965 55.965961 
L 372.384395 56.102987 
L 374.015825 56.37704 
L 375.647254 56.514066 
L 377.278684 56.445553 
L 378.910114 56.582579 
L 380.541544 56.582579 
L 382.172974 56.445553 
L 383.804404 56.514066 
L 385.435834 56.034474 
L 388.698693 56.1715 
L 390.330123 56.034474 
L 391.961553 56.240014 
L 393.592983 56.102987 
L 395.224413 56.308527 
L 396.855843 56.034474 
L 398.487273 56.034474 
L 398.487273 56.034474 
" style="fill:none;stroke:#2ca02c;stroke-linecap:square;stroke-width:1.5;"/>
   </g>
   <g id="patch_3">
    <path d="M 57.6 307.584 
L 57.6 41.472 
" style="fill:none;stroke:#000000;stroke-linecap:square;stroke-linejoin:miter;stroke-width:0.8;"/>
   </g>
   <g id="patch_4">
    <path d="M 414.72 307.584 
L 414.72 41.472 
" style="fill:none;stroke:#000000;stroke-linecap:square;stroke-linejoin:miter;stroke-width:0.8;"/>
   </g>
   <g id="patch_5">
    <path d="M 57.6 307.584 
L 414.72 307.584 
" style="fill:none;stroke:#000000;stroke-linecap:square;stroke-linejoin:miter;stroke-width:0.8;"/>
   </g>
   <g id="patch_6">
    <path d="M 57.6 41.472 
L 414.72 41.472 
" style="fill:none;stroke:#000000;stroke-linecap:square;stroke-linejoin:miter;stroke-width:0.8;"/>
   </g>
   <g id="text_20">
    <!-- Comparison - CIFAR10 - 3-layer-CNN -->
    <defs>
     <path d="M 64.40625 67.28125 
L 64.40625 56.890625 
Q 59.421875 61.53125 53.78125 63.8125 
Q 48.140625 66.109375 41.796875 66.109375 
Q 29.296875 66.109375 22.65625 58.46875 
Q 16.015625 50.828125 16.015625 36.375 
Q 16.015625 21.96875 22.65625 14.328125 
Q 29.296875 6.6875 41.796875 6.6875 
Q 48.140625 6.6875 53.78125 8.984375 
Q 59.421875 11.28125 64.40625 15.921875 
L 64.40625 5.609375 
Q 59.234375 2.09375 53.4375 0.328125 
Q 47.65625 -1.421875 41.21875 -1.421875 
Q 24.65625 -1.421875 15.125 8.703125 
Q 5.609375 18.84375 5.609375 36.375 
Q 5.609375 53.953125 15.125 64.078125 
Q 24.65625 74.21875 41.21875 74.21875 
Q 47.75 74.21875 53.53125 72.484375 
Q 59.328125 70.75 64.40625 67.28125 
z
" id="DejaVuSans-43"/>
     <path d="M 52 44.1875 
Q 55.375 50.25 60.0625 53.125 
Q 64.75 56 71.09375 56 
Q 79.640625 56 84.28125 50.015625 
Q 88.921875 44.046875 88.921875 33.015625 
L 88.921875 0 
L 79.890625 0 
L 79.890625 32.71875 
Q 79.890625 40.578125 77.09375 44.375 
Q 74.3125 48.1875 68.609375 48.1875 
Q 61.625 48.1875 57.5625 43.546875 
Q 53.515625 38.921875 53.515625 30.90625 
L 53.515625 0 
L 44.484375 0 
L 44.484375 32.71875 
Q 44.484375 40.625 41.703125 44.40625 
Q 38.921875 48.1875 33.109375 48.1875 
Q 26.21875 48.1875 22.15625 43.53125 
Q 18.109375 38.875 18.109375 30.90625 
L 18.109375 0 
L 9.078125 0 
L 9.078125 54.6875 
L 18.109375 54.6875 
L 18.109375 46.1875 
Q 21.1875 51.21875 25.484375 53.609375 
Q 29.78125 56 35.6875 56 
Q 41.65625 56 45.828125 52.96875 
Q 50 49.953125 52 44.1875 
z
" id="DejaVuSans-6d"/>
     <path d="M 9.421875 54.6875 
L 18.40625 54.6875 
L 18.40625 0 
L 9.421875 0 
z
M 9.421875 75.984375 
L 18.40625 75.984375 
L 18.40625 64.59375 
L 9.421875 64.59375 
z
" id="DejaVuSans-69"/>
     <path d="M 44.28125 53.078125 
L 44.28125 44.578125 
Q 40.484375 46.53125 36.375 47.5 
Q 32.28125 48.484375 27.875 48.484375 
Q 21.1875 48.484375 17.84375 46.4375 
Q 14.5 44.390625 14.5 40.28125 
Q 14.5 37.15625 16.890625 35.375 
Q 19.28125 33.59375 26.515625 31.984375 
L 29.59375 31.296875 
Q 39.15625 29.25 43.1875 25.515625 
Q 47.21875 21.78125 47.21875 15.09375 
Q 47.21875 7.46875 41.1875 3.015625 
Q 35.15625 -1.421875 24.609375 -1.421875 
Q 20.21875 -1.421875 15.453125 -0.5625 
Q 10.6875 0.296875 5.421875 2 
L 5.421875 11.28125 
Q 10.40625 8.6875 15.234375 7.390625 
Q 20.0625 6.109375 24.8125 6.109375 
Q 31.15625 6.109375 34.5625 8.28125 
Q 37.984375 10.453125 37.984375 14.40625 
Q 37.984375 18.0625 35.515625 20.015625 
Q 33.0625 21.96875 24.703125 23.78125 
L 21.578125 24.515625 
Q 13.234375 26.265625 9.515625 29.90625 
Q 5.8125 33.546875 5.8125 39.890625 
Q 5.8125 47.609375 11.28125 51.796875 
Q 16.75 56 26.8125 56 
Q 31.78125 56 36.171875 55.265625 
Q 40.578125 54.546875 44.28125 53.078125 
z
" id="DejaVuSans-73"/>
     <path d="M 54.890625 33.015625 
L 54.890625 0 
L 45.90625 0 
L 45.90625 32.71875 
Q 45.90625 40.484375 42.875 44.328125 
Q 39.84375 48.1875 33.796875 48.1875 
Q 26.515625 48.1875 22.3125 43.546875 
Q 18.109375 38.921875 18.109375 30.90625 
L 18.109375 0 
L 9.078125 0 
L 9.078125 54.6875 
L 18.109375 54.6875 
L 18.109375 46.1875 
Q 21.34375 51.125 25.703125 53.5625 
Q 30.078125 56 35.796875 56 
Q 45.21875 56 50.046875 50.171875 
Q 54.890625 44.34375 54.890625 33.015625 
z
" id="DejaVuSans-6e"/>
     <path id="DejaVuSans-20"/>
     <path d="M 4.890625 31.390625 
L 31.203125 31.390625 
L 31.203125 23.390625 
L 4.890625 23.390625 
z
" id="DejaVuSans-2d"/>
     <path d="M 9.8125 72.90625 
L 19.671875 72.90625 
L 19.671875 0 
L 9.8125 0 
z
" id="DejaVuSans-49"/>
     <path d="M 9.8125 72.90625 
L 51.703125 72.90625 
L 51.703125 64.59375 
L 19.671875 64.59375 
L 19.671875 43.109375 
L 48.578125 43.109375 
L 48.578125 34.8125 
L 19.671875 34.8125 
L 19.671875 0 
L 9.8125 0 
z
" id="DejaVuSans-46"/>
     <path d="M 34.1875 63.1875 
L 20.796875 26.90625 
L 47.609375 26.90625 
z
M 28.609375 72.90625 
L 39.796875 72.90625 
L 67.578125 0 
L 57.328125 0 
L 50.6875 18.703125 
L 17.828125 18.703125 
L 11.1875 0 
L 0.78125 0 
z
" id="DejaVuSans-41"/>
     <path d="M 44.390625 34.1875 
Q 47.5625 33.109375 50.5625 29.59375 
Q 53.5625 26.078125 56.59375 19.921875 
L 66.609375 0 
L 56 0 
L 46.6875 18.703125 
Q 43.0625 26.03125 39.671875 28.421875 
Q 36.28125 30.8125 30.421875 30.8125 
L 19.671875 30.8125 
L 19.671875 0 
L 9.8125 0 
L 9.8125 72.90625 
L 32.078125 72.90625 
Q 44.578125 72.90625 50.734375 67.671875 
Q 56.890625 62.453125 56.890625 51.90625 
Q 56.890625 45.015625 53.6875 40.46875 
Q 50.484375 35.9375 44.390625 34.1875 
z
M 19.671875 64.796875 
L 19.671875 38.921875 
L 32.078125 38.921875 
Q 39.203125 38.921875 42.84375 42.21875 
Q 46.484375 45.515625 46.484375 51.90625 
Q 46.484375 58.296875 42.84375 61.546875 
Q 39.203125 64.796875 32.078125 64.796875 
z
" id="DejaVuSans-52"/>
     <path d="M 9.421875 75.984375 
L 18.40625 75.984375 
L 18.40625 0 
L 9.421875 0 
z
" id="DejaVuSans-6c"/>
     <path d="M 9.8125 72.90625 
L 23.09375 72.90625 
L 55.421875 11.921875 
L 55.421875 72.90625 
L 64.984375 72.90625 
L 64.984375 0 
L 51.703125 0 
L 19.390625 60.984375 
L 19.390625 0 
L 9.8125 0 
z
" id="DejaVuSans-4e"/>
    </defs>
    <g transform="translate(126.606562 35.472)scale(0.12 -0.12)">
     <use xlink:href="#DejaVuSans-43"/>
     <use x="69.824219" xlink:href="#DejaVuSans-6f"/>
     <use x="131.005859" xlink:href="#DejaVuSans-6d"/>
     <use x="228.417969" xlink:href="#DejaVuSans-70"/>
     <use x="291.894531" xlink:href="#DejaVuSans-61"/>
     <use x="353.173828" xlink:href="#DejaVuSans-72"/>
     <use x="394.287109" xlink:href="#DejaVuSans-69"/>
     <use x="422.070312" xlink:href="#DejaVuSans-73"/>
     <use x="474.169922" xlink:href="#DejaVuSans-6f"/>
     <use x="535.351562" xlink:href="#DejaVuSans-6e"/>
     <use x="598.730469" xlink:href="#DejaVuSans-20"/>
     <use x="630.517578" xlink:href="#DejaVuSans-2d"/>
     <use x="666.601562" xlink:href="#DejaVuSans-20"/>
     <use x="698.388672" xlink:href="#DejaVuSans-43"/>
     <use x="768.212891" xlink:href="#DejaVuSans-49"/>
     <use x="797.705078" xlink:href="#DejaVuSans-46"/>
     <use x="855.083984" xlink:href="#DejaVuSans-41"/>
     <use x="923.492188" xlink:href="#DejaVuSans-52"/>
     <use x="992.974609" xlink:href="#DejaVuSans-31"/>
     <use x="1056.597656" xlink:href="#DejaVuSans-30"/>
     <use x="1120.220703" xlink:href="#DejaVuSans-20"/>
     <use x="1152.007812" xlink:href="#DejaVuSans-2d"/>
     <use x="1188.091797" xlink:href="#DejaVuSans-20"/>
     <use x="1219.878906" xlink:href="#DejaVuSans-33"/>
     <use x="1283.501953" xlink:href="#DejaVuSans-2d"/>
     <use x="1319.585938" xlink:href="#DejaVuSans-6c"/>
     <use x="1347.369141" xlink:href="#DejaVuSans-61"/>
     <use x="1408.648438" xlink:href="#DejaVuSans-79"/>
     <use x="1467.828125" xlink:href="#DejaVuSans-65"/>
     <use x="1529.351562" xlink:href="#DejaVuSans-72"/>
     <use x="1570.371094" xlink:href="#DejaVuSans-2d"/>
     <use x="1606.455078" xlink:href="#DejaVuSans-43"/>
     <use x="1676.279297" xlink:href="#DejaVuSans-4e"/>
     <use x="1751.083984" xlink:href="#DejaVuSans-4e"/>
    </g>
   </g>
   <g id="legend_1">
    <g id="patch_7">
     <path d="M 270.080938 302.584 
L 407.72 302.584 
Q 409.72 302.584 409.72 300.584 
L 409.72 257.549625 
Q 409.72 255.549625 407.72 255.549625 
L 270.080938 255.549625 
Q 268.080938 255.549625 268.080938 257.549625 
L 268.080938 300.584 
Q 268.080938 302.584 270.080938 302.584 
z
" style="fill:#ffffff;opacity:0.8;stroke:#cccccc;stroke-linejoin:miter;"/>
    </g>
    <g id="line2d_21">
     <path d="M 272.080938 263.648062 
L 292.080938 263.648062 
" style="fill:none;stroke:#1f77b4;stroke-linecap:square;stroke-width:1.5;"/>
    </g>
    <g id="line2d_22"/>
    <g id="text_21">
     <!-- MAXpool -->
     <defs>
      <path d="M 9.8125 72.90625 
L 24.515625 72.90625 
L 43.109375 23.296875 
L 61.8125 72.90625 
L 76.515625 72.90625 
L 76.515625 0 
L 66.890625 0 
L 66.890625 64.015625 
L 48.09375 14.015625 
L 38.1875 14.015625 
L 19.390625 64.015625 
L 19.390625 0 
L 9.8125 0 
z
" id="DejaVuSans-4d"/>
      <path d="M 6.296875 72.90625 
L 16.890625 72.90625 
L 35.015625 45.796875 
L 53.21875 72.90625 
L 63.8125 72.90625 
L 40.375 37.890625 
L 65.375 0 
L 54.78125 0 
L 34.28125 31 
L 13.625 0 
L 2.984375 0 
L 29 38.921875 
z
" id="DejaVuSans-58"/>
     </defs>
     <g transform="translate(300.080938 267.148062)scale(0.1 -0.1)">
      <use xlink:href="#DejaVuSans-4d"/>
      <use x="86.279297" xlink:href="#DejaVuSans-41"/>
      <use x="154.6875" xlink:href="#DejaVuSans-58"/>
      <use x="223.193359" xlink:href="#DejaVuSans-70"/>
      <use x="286.669922" xlink:href="#DejaVuSans-6f"/>
      <use x="347.851562" xlink:href="#DejaVuSans-6f"/>
      <use x="409.033203" xlink:href="#DejaVuSans-6c"/>
     </g>
    </g>
    <g id="line2d_23">
     <path d="M 272.080938 278.326188 
L 292.080938 278.326188 
" style="fill:none;stroke:#ff7f0e;stroke-linecap:square;stroke-width:1.5;"/>
    </g>
    <g id="line2d_24"/>
    <g id="text_22">
     <!-- SExpLog -->
     <defs>
      <path d="M 53.515625 70.515625 
L 53.515625 60.890625 
Q 47.90625 63.578125 42.921875 64.890625 
Q 37.9375 66.21875 33.296875 66.21875 
Q 25.25 66.21875 20.875 63.09375 
Q 16.5 59.96875 16.5 54.203125 
Q 16.5 49.359375 19.40625 46.890625 
Q 22.3125 44.4375 30.421875 42.921875 
L 36.375 41.703125 
Q 47.40625 39.59375 52.65625 34.296875 
Q 57.90625 29 57.90625 20.125 
Q 57.90625 9.515625 50.796875 4.046875 
Q 43.703125 -1.421875 29.984375 -1.421875 
Q 24.8125 -1.421875 18.96875 -0.25 
Q 13.140625 0.921875 6.890625 3.21875 
L 6.890625 13.375 
Q 12.890625 10.015625 18.65625 8.296875 
Q 24.421875 6.59375 29.984375 6.59375 
Q 38.421875 6.59375 43.015625 9.90625 
Q 47.609375 13.234375 47.609375 19.390625 
Q 47.609375 24.75 44.3125 27.78125 
Q 41.015625 30.8125 33.5 32.328125 
L 27.484375 33.5 
Q 16.453125 35.6875 11.515625 40.375 
Q 6.59375 45.0625 6.59375 53.421875 
Q 6.59375 63.09375 13.40625 68.65625 
Q 20.21875 74.21875 32.171875 74.21875 
Q 37.3125 74.21875 42.625 73.28125 
Q 47.953125 72.359375 53.515625 70.515625 
z
" id="DejaVuSans-53"/>
      <path d="M 9.8125 72.90625 
L 55.90625 72.90625 
L 55.90625 64.59375 
L 19.671875 64.59375 
L 19.671875 43.015625 
L 54.390625 43.015625 
L 54.390625 34.71875 
L 19.671875 34.71875 
L 19.671875 8.296875 
L 56.78125 8.296875 
L 56.78125 0 
L 9.8125 0 
z
" id="DejaVuSans-45"/>
      <path d="M 54.890625 54.6875 
L 35.109375 28.078125 
L 55.90625 0 
L 45.3125 0 
L 29.390625 21.484375 
L 13.484375 0 
L 2.875 0 
L 24.125 28.609375 
L 4.6875 54.6875 
L 15.28125 54.6875 
L 29.78125 35.203125 
L 44.28125 54.6875 
z
" id="DejaVuSans-78"/>
      <path d="M 9.8125 72.90625 
L 19.671875 72.90625 
L 19.671875 8.296875 
L 55.171875 8.296875 
L 55.171875 0 
L 9.8125 0 
z
" id="DejaVuSans-4c"/>
      <path d="M 45.40625 27.984375 
Q 45.40625 37.75 41.375 43.109375 
Q 37.359375 48.484375 30.078125 48.484375 
Q 22.859375 48.484375 18.828125 43.109375 
Q 14.796875 37.75 14.796875 27.984375 
Q 14.796875 18.265625 18.828125 12.890625 
Q 22.859375 7.515625 30.078125 7.515625 
Q 37.359375 7.515625 41.375 12.890625 
Q 45.40625 18.265625 45.40625 27.984375 
z
M 54.390625 6.78125 
Q 54.390625 -7.171875 48.1875 -13.984375 
Q 42 -20.796875 29.203125 -20.796875 
Q 24.46875 -20.796875 20.265625 -20.09375 
Q 16.0625 -19.390625 12.109375 -17.921875 
L 12.109375 -9.1875 
Q 16.0625 -11.328125 19.921875 -12.34375 
Q 23.78125 -13.375 27.78125 -13.375 
Q 36.625 -13.375 41.015625 -8.765625 
Q 45.40625 -4.15625 45.40625 5.171875 
L 45.40625 9.625 
Q 42.625 4.78125 38.28125 2.390625 
Q 33.9375 0 27.875 0 
Q 17.828125 0 11.671875 7.65625 
Q 5.515625 15.328125 5.515625 27.984375 
Q 5.515625 40.671875 11.671875 48.328125 
Q 17.828125 56 27.875 56 
Q 33.9375 56 38.28125 53.609375 
Q 42.625 51.21875 45.40625 46.390625 
L 45.40625 54.6875 
L 54.390625 54.6875 
z
" id="DejaVuSans-67"/>
     </defs>
     <g transform="translate(300.080938 281.826188)scale(0.1 -0.1)">
      <use xlink:href="#DejaVuSans-53"/>
      <use x="63.476562" xlink:href="#DejaVuSans-45"/>
      <use x="126.660156" xlink:href="#DejaVuSans-78"/>
      <use x="185.839844" xlink:href="#DejaVuSans-70"/>
      <use x="249.316406" xlink:href="#DejaVuSans-4c"/>
      <use x="305.013672" xlink:href="#DejaVuSans-6f"/>
      <use x="366.195312" xlink:href="#DejaVuSans-67"/>
     </g>
    </g>
    <g id="line2d_25">
     <path d="M 272.080938 293.004312 
L 292.080938 293.004312 
" style="fill:none;stroke:#2ca02c;stroke-linecap:square;stroke-width:1.5;"/>
    </g>
    <g id="line2d_26"/>
    <g id="text_23">
     <!-- spatialSExpLog (avg) -->
     <defs>
      <path d="M 18.3125 70.21875 
L 18.3125 54.6875 
L 36.8125 54.6875 
L 36.8125 47.703125 
L 18.3125 47.703125 
L 18.3125 18.015625 
Q 18.3125 11.328125 20.140625 9.421875 
Q 21.96875 7.515625 27.59375 7.515625 
L 36.8125 7.515625 
L 36.8125 0 
L 27.59375 0 
Q 17.1875 0 13.234375 3.875 
Q 9.28125 7.765625 9.28125 18.015625 
L 9.28125 47.703125 
L 2.6875 47.703125 
L 2.6875 54.6875 
L 9.28125 54.6875 
L 9.28125 70.21875 
z
" id="DejaVuSans-74"/>
      <path d="M 31 75.875 
Q 24.46875 64.65625 21.28125 53.65625 
Q 18.109375 42.671875 18.109375 31.390625 
Q 18.109375 20.125 21.3125 9.0625 
Q 24.515625 -2 31 -13.1875 
L 23.1875 -13.1875 
Q 15.875 -1.703125 12.234375 9.375 
Q 8.59375 20.453125 8.59375 31.390625 
Q 8.59375 42.28125 12.203125 53.3125 
Q 15.828125 64.359375 23.1875 75.875 
z
" id="DejaVuSans-28"/>
      <path d="M 2.984375 54.6875 
L 12.5 54.6875 
L 29.59375 8.796875 
L 46.6875 54.6875 
L 56.203125 54.6875 
L 35.6875 0 
L 23.484375 0 
z
" id="DejaVuSans-76"/>
      <path d="M 8.015625 75.875 
L 15.828125 75.875 
Q 23.140625 64.359375 26.78125 53.3125 
Q 30.421875 42.28125 30.421875 31.390625 
Q 30.421875 20.453125 26.78125 9.375 
Q 23.140625 -1.703125 15.828125 -13.1875 
L 8.015625 -13.1875 
Q 14.5 -2 17.703125 9.0625 
Q 20.90625 20.125 20.90625 31.390625 
Q 20.90625 42.671875 17.703125 53.65625 
Q 14.5 64.65625 8.015625 75.875 
z
" id="DejaVuSans-29"/>
     </defs>
     <g transform="translate(300.080938 296.504312)scale(0.1 -0.1)">
      <use xlink:href="#DejaVuSans-73"/>
      <use x="52.099609" xlink:href="#DejaVuSans-70"/>
      <use x="115.576172" xlink:href="#DejaVuSans-61"/>
      <use x="176.855469" xlink:href="#DejaVuSans-74"/>
      <use x="216.064453" xlink:href="#DejaVuSans-69"/>
      <use x="243.847656" xlink:href="#DejaVuSans-61"/>
      <use x="305.126953" xlink:href="#DejaVuSans-6c"/>
      <use x="332.910156" xlink:href="#DejaVuSans-53"/>
      <use x="396.386719" xlink:href="#DejaVuSans-45"/>
      <use x="459.570312" xlink:href="#DejaVuSans-78"/>
      <use x="518.75" xlink:href="#DejaVuSans-70"/>
      <use x="582.226562" xlink:href="#DejaVuSans-4c"/>
      <use x="637.923828" xlink:href="#DejaVuSans-6f"/>
      <use x="699.105469" xlink:href="#DejaVuSans-67"/>
      <use x="762.582031" xlink:href="#DejaVuSans-20"/>
      <use x="794.369141" xlink:href="#DejaVuSans-28"/>
      <use x="833.382812" xlink:href="#DejaVuSans-61"/>
      <use x="894.662109" xlink:href="#DejaVuSans-76"/>
      <use x="953.841797" xlink:href="#DejaVuSans-67"/>
      <use x="1017.318359" xlink:href="#DejaVuSans-29"/>
     </g>
    </g>
   </g>
  </g>
 </g>
 <defs>
  <clipPath id="p08a57c923e">
   <rect height="266.112" width="357.12" x="57.6" y="41.472"/>
  </clipPath>
 </defs>
</svg>
