<?xml version="1.0" encoding="utf-8" standalone="no"?>
<!DOCTYPE svg PUBLIC "-//W3C//DTD SVG 1.1//EN"
  "http://www.w3.org/Graphics/SVG/1.1/DTD/svg11.dtd">
<!-- Created with matplotlib (http://matplotlib.org/) -->
<svg height="345pt" version="1.1" viewBox="0 0 460 345" width="460pt" xmlns="http://www.w3.org/2000/svg" xmlns:xlink="http://www.w3.org/1999/xlink">
 <defs>
  <style type="text/css">
*{stroke-linecap:butt;stroke-linejoin:round;}
  </style>
 </defs>
 <g id="figure_1">
  <g id="patch_1">
   <path d="M 0 345.6 
L 460.8 345.6 
L 460.8 0 
L 0 0 
z
" style="fill:#ffffff;"/>
  </g>
  <g id="axes_1">
   <g id="patch_2">
    <path d="M 57.6 307.584 
L 414.72 307.584 
L 414.72 41.472 
L 57.6 41.472 
z
" style="fill:#ffffff;"/>
   </g>
   <g id="matplotlib.axis_1">
    <g id="xtick_1">
     <g id="line2d_1">
      <defs>
       <path d="M 0 0 
L 0 3.5 
" id="m88cb87773b" style="stroke:#000000;stroke-width:0.8;"/>
      </defs>
      <g>
       <use style="stroke:#000000;stroke-width:0.8;" x="73.832727" xlink:href="#m88cb87773b" y="307.584"/>
      </g>
     </g>
     <g id="text_1">
      <!-- 0 -->
      <defs>
       <path d="M 31.78125 66.40625 
Q 24.171875 66.40625 20.328125 58.90625 
Q 16.5 51.421875 16.5 36.375 
Q 16.5 21.390625 20.328125 13.890625 
Q 24.171875 6.390625 31.78125 6.390625 
Q 39.453125 6.390625 43.28125 13.890625 
Q 47.125 21.390625 47.125 36.375 
Q 47.125 51.421875 43.28125 58.90625 
Q 39.453125 66.40625 31.78125 66.40625 
z
M 31.78125 74.21875 
Q 44.046875 74.21875 50.515625 64.515625 
Q 56.984375 54.828125 56.984375 36.375 
Q 56.984375 17.96875 50.515625 8.265625 
Q 44.046875 -1.421875 31.78125 -1.421875 
Q 19.53125 -1.421875 13.0625 8.265625 
Q 6.59375 17.96875 6.59375 36.375 
Q 6.59375 54.828125 13.0625 64.515625 
Q 19.53125 74.21875 31.78125 74.21875 
z
" id="DejaVuSans-30"/>
      </defs>
      <g transform="translate(70.651477 322.182437)scale(0.1 -0.1)">
       <use xlink:href="#DejaVuSans-30"/>
      </g>
     </g>
    </g>
    <g id="xtick_2">
     <g id="line2d_2">
      <g>
       <use style="stroke:#000000;stroke-width:0.8;" x="139.419504" xlink:href="#m88cb87773b" y="307.584"/>
      </g>
     </g>
     <g id="text_2">
      <!-- 20 -->
      <defs>
       <path d="M 19.1875 8.296875 
L 53.609375 8.296875 
L 53.609375 0 
L 7.328125 0 
L 7.328125 8.296875 
Q 12.9375 14.109375 22.625 23.890625 
Q 32.328125 33.6875 34.8125 36.53125 
Q 39.546875 41.84375 41.421875 45.53125 
Q 43.3125 49.21875 43.3125 52.78125 
Q 43.3125 58.59375 39.234375 62.25 
Q 35.15625 65.921875 28.609375 65.921875 
Q 23.96875 65.921875 18.8125 64.3125 
Q 13.671875 62.703125 7.8125 59.421875 
L 7.8125 69.390625 
Q 13.765625 71.78125 18.9375 73 
Q 24.125 74.21875 28.421875 74.21875 
Q 39.75 74.21875 46.484375 68.546875 
Q 53.21875 62.890625 53.21875 53.421875 
Q 53.21875 48.921875 51.53125 44.890625 
Q 49.859375 40.875 45.40625 35.40625 
Q 44.1875 33.984375 37.640625 27.21875 
Q 31.109375 20.453125 19.1875 8.296875 
z
" id="DejaVuSans-32"/>
      </defs>
      <g transform="translate(133.057004 322.182437)scale(0.1 -0.1)">
       <use xlink:href="#DejaVuSans-32"/>
       <use x="63.623047" xlink:href="#DejaVuSans-30"/>
      </g>
     </g>
    </g>
    <g id="xtick_3">
     <g id="line2d_3">
      <g>
       <use style="stroke:#000000;stroke-width:0.8;" x="205.006281" xlink:href="#m88cb87773b" y="307.584"/>
      </g>
     </g>
     <g id="text_3">
      <!-- 40 -->
      <defs>
       <path d="M 37.796875 64.3125 
L 12.890625 25.390625 
L 37.796875 25.390625 
z
M 35.203125 72.90625 
L 47.609375 72.90625 
L 47.609375 25.390625 
L 58.015625 25.390625 
L 58.015625 17.1875 
L 47.609375 17.1875 
L 47.609375 0 
L 37.796875 0 
L 37.796875 17.1875 
L 4.890625 17.1875 
L 4.890625 26.703125 
z
" id="DejaVuSans-34"/>
      </defs>
      <g transform="translate(198.643781 322.182437)scale(0.1 -0.1)">
       <use xlink:href="#DejaVuSans-34"/>
       <use x="63.623047" xlink:href="#DejaVuSans-30"/>
      </g>
     </g>
    </g>
    <g id="xtick_4">
     <g id="line2d_4">
      <g>
       <use style="stroke:#000000;stroke-width:0.8;" x="270.593058" xlink:href="#m88cb87773b" y="307.584"/>
      </g>
     </g>
     <g id="text_4">
      <!-- 60 -->
      <defs>
       <path d="M 33.015625 40.375 
Q 26.375 40.375 22.484375 35.828125 
Q 18.609375 31.296875 18.609375 23.390625 
Q 18.609375 15.53125 22.484375 10.953125 
Q 26.375 6.390625 33.015625 6.390625 
Q 39.65625 6.390625 43.53125 10.953125 
Q 47.40625 15.53125 47.40625 23.390625 
Q 47.40625 31.296875 43.53125 35.828125 
Q 39.65625 40.375 33.015625 40.375 
z
M 52.59375 71.296875 
L 52.59375 62.3125 
Q 48.875 64.0625 45.09375 64.984375 
Q 41.3125 65.921875 37.59375 65.921875 
Q 27.828125 65.921875 22.671875 59.328125 
Q 17.53125 52.734375 16.796875 39.40625 
Q 19.671875 43.65625 24.015625 45.921875 
Q 28.375 48.1875 33.59375 48.1875 
Q 44.578125 48.1875 50.953125 41.515625 
Q 57.328125 34.859375 57.328125 23.390625 
Q 57.328125 12.15625 50.6875 5.359375 
Q 44.046875 -1.421875 33.015625 -1.421875 
Q 20.359375 -1.421875 13.671875 8.265625 
Q 6.984375 17.96875 6.984375 36.375 
Q 6.984375 53.65625 15.1875 63.9375 
Q 23.390625 74.21875 37.203125 74.21875 
Q 40.921875 74.21875 44.703125 73.484375 
Q 48.484375 72.75 52.59375 71.296875 
z
" id="DejaVuSans-36"/>
      </defs>
      <g transform="translate(264.230558 322.182437)scale(0.1 -0.1)">
       <use xlink:href="#DejaVuSans-36"/>
       <use x="63.623047" xlink:href="#DejaVuSans-30"/>
      </g>
     </g>
    </g>
    <g id="xtick_5">
     <g id="line2d_5">
      <g>
       <use style="stroke:#000000;stroke-width:0.8;" x="336.179835" xlink:href="#m88cb87773b" y="307.584"/>
      </g>
     </g>
     <g id="text_5">
      <!-- 80 -->
      <defs>
       <path d="M 31.78125 34.625 
Q 24.75 34.625 20.71875 30.859375 
Q 16.703125 27.09375 16.703125 20.515625 
Q 16.703125 13.921875 20.71875 10.15625 
Q 24.75 6.390625 31.78125 6.390625 
Q 38.8125 6.390625 42.859375 10.171875 
Q 46.921875 13.96875 46.921875 20.515625 
Q 46.921875 27.09375 42.890625 30.859375 
Q 38.875 34.625 31.78125 34.625 
z
M 21.921875 38.8125 
Q 15.578125 40.375 12.03125 44.71875 
Q 8.5 49.078125 8.5 55.328125 
Q 8.5 64.0625 14.71875 69.140625 
Q 20.953125 74.21875 31.78125 74.21875 
Q 42.671875 74.21875 48.875 69.140625 
Q 55.078125 64.0625 55.078125 55.328125 
Q 55.078125 49.078125 51.53125 44.71875 
Q 48 40.375 41.703125 38.8125 
Q 48.828125 37.15625 52.796875 32.3125 
Q 56.78125 27.484375 56.78125 20.515625 
Q 56.78125 9.90625 50.3125 4.234375 
Q 43.84375 -1.421875 31.78125 -1.421875 
Q 19.734375 -1.421875 13.25 4.234375 
Q 6.78125 9.90625 6.78125 20.515625 
Q 6.78125 27.484375 10.78125 32.3125 
Q 14.796875 37.15625 21.921875 38.8125 
z
M 18.3125 54.390625 
Q 18.3125 48.734375 21.84375 45.5625 
Q 25.390625 42.390625 31.78125 42.390625 
Q 38.140625 42.390625 41.71875 45.5625 
Q 45.3125 48.734375 45.3125 54.390625 
Q 45.3125 60.0625 41.71875 63.234375 
Q 38.140625 66.40625 31.78125 66.40625 
Q 25.390625 66.40625 21.84375 63.234375 
Q 18.3125 60.0625 18.3125 54.390625 
z
" id="DejaVuSans-38"/>
      </defs>
      <g transform="translate(329.817335 322.182437)scale(0.1 -0.1)">
       <use xlink:href="#DejaVuSans-38"/>
       <use x="63.623047" xlink:href="#DejaVuSans-30"/>
      </g>
     </g>
    </g>
    <g id="xtick_6">
     <g id="line2d_6">
      <g>
       <use style="stroke:#000000;stroke-width:0.8;" x="401.766612" xlink:href="#m88cb87773b" y="307.584"/>
      </g>
     </g>
     <g id="text_6">
      <!-- 100 -->
      <defs>
       <path d="M 12.40625 8.296875 
L 28.515625 8.296875 
L 28.515625 63.921875 
L 10.984375 60.40625 
L 10.984375 69.390625 
L 28.421875 72.90625 
L 38.28125 72.90625 
L 38.28125 8.296875 
L 54.390625 8.296875 
L 54.390625 0 
L 12.40625 0 
z
" id="DejaVuSans-31"/>
      </defs>
      <g transform="translate(392.222862 322.182437)scale(0.1 -0.1)">
       <use xlink:href="#DejaVuSans-31"/>
       <use x="63.623047" xlink:href="#DejaVuSans-30"/>
       <use x="127.246094" xlink:href="#DejaVuSans-30"/>
      </g>
     </g>
    </g>
    <g id="text_7">
     <!-- epoch -->
     <defs>
      <path d="M 56.203125 29.59375 
L 56.203125 25.203125 
L 14.890625 25.203125 
Q 15.484375 15.921875 20.484375 11.0625 
Q 25.484375 6.203125 34.421875 6.203125 
Q 39.59375 6.203125 44.453125 7.46875 
Q 49.3125 8.734375 54.109375 11.28125 
L 54.109375 2.78125 
Q 49.265625 0.734375 44.1875 -0.34375 
Q 39.109375 -1.421875 33.890625 -1.421875 
Q 20.796875 -1.421875 13.15625 6.1875 
Q 5.515625 13.8125 5.515625 26.8125 
Q 5.515625 40.234375 12.765625 48.109375 
Q 20.015625 56 32.328125 56 
Q 43.359375 56 49.78125 48.890625 
Q 56.203125 41.796875 56.203125 29.59375 
z
M 47.21875 32.234375 
Q 47.125 39.59375 43.09375 43.984375 
Q 39.0625 48.390625 32.421875 48.390625 
Q 24.90625 48.390625 20.390625 44.140625 
Q 15.875 39.890625 15.1875 32.171875 
z
" id="DejaVuSans-65"/>
      <path d="M 18.109375 8.203125 
L 18.109375 -20.796875 
L 9.078125 -20.796875 
L 9.078125 54.6875 
L 18.109375 54.6875 
L 18.109375 46.390625 
Q 20.953125 51.265625 25.265625 53.625 
Q 29.59375 56 35.59375 56 
Q 45.5625 56 51.78125 48.09375 
Q 58.015625 40.1875 58.015625 27.296875 
Q 58.015625 14.40625 51.78125 6.484375 
Q 45.5625 -1.421875 35.59375 -1.421875 
Q 29.59375 -1.421875 25.265625 0.953125 
Q 20.953125 3.328125 18.109375 8.203125 
z
M 48.6875 27.296875 
Q 48.6875 37.203125 44.609375 42.84375 
Q 40.53125 48.484375 33.40625 48.484375 
Q 26.265625 48.484375 22.1875 42.84375 
Q 18.109375 37.203125 18.109375 27.296875 
Q 18.109375 17.390625 22.1875 11.75 
Q 26.265625 6.109375 33.40625 6.109375 
Q 40.53125 6.109375 44.609375 11.75 
Q 48.6875 17.390625 48.6875 27.296875 
z
" id="DejaVuSans-70"/>
      <path d="M 30.609375 48.390625 
Q 23.390625 48.390625 19.1875 42.75 
Q 14.984375 37.109375 14.984375 27.296875 
Q 14.984375 17.484375 19.15625 11.84375 
Q 23.34375 6.203125 30.609375 6.203125 
Q 37.796875 6.203125 41.984375 11.859375 
Q 46.1875 17.53125 46.1875 27.296875 
Q 46.1875 37.015625 41.984375 42.703125 
Q 37.796875 48.390625 30.609375 48.390625 
z
M 30.609375 56 
Q 42.328125 56 49.015625 48.375 
Q 55.71875 40.765625 55.71875 27.296875 
Q 55.71875 13.875 49.015625 6.21875 
Q 42.328125 -1.421875 30.609375 -1.421875 
Q 18.84375 -1.421875 12.171875 6.21875 
Q 5.515625 13.875 5.515625 27.296875 
Q 5.515625 40.765625 12.171875 48.375 
Q 18.84375 56 30.609375 56 
z
" id="DejaVuSans-6f"/>
      <path d="M 48.78125 52.59375 
L 48.78125 44.1875 
Q 44.96875 46.296875 41.140625 47.34375 
Q 37.3125 48.390625 33.40625 48.390625 
Q 24.65625 48.390625 19.8125 42.84375 
Q 14.984375 37.3125 14.984375 27.296875 
Q 14.984375 17.28125 19.8125 11.734375 
Q 24.65625 6.203125 33.40625 6.203125 
Q 37.3125 6.203125 41.140625 7.25 
Q 44.96875 8.296875 48.78125 10.40625 
L 48.78125 2.09375 
Q 45.015625 0.34375 40.984375 -0.53125 
Q 36.96875 -1.421875 32.421875 -1.421875 
Q 20.0625 -1.421875 12.78125 6.34375 
Q 5.515625 14.109375 5.515625 27.296875 
Q 5.515625 40.671875 12.859375 48.328125 
Q 20.21875 56 33.015625 56 
Q 37.15625 56 41.109375 55.140625 
Q 45.0625 54.296875 48.78125 52.59375 
z
" id="DejaVuSans-63"/>
      <path d="M 54.890625 33.015625 
L 54.890625 0 
L 45.90625 0 
L 45.90625 32.71875 
Q 45.90625 40.484375 42.875 44.328125 
Q 39.84375 48.1875 33.796875 48.1875 
Q 26.515625 48.1875 22.3125 43.546875 
Q 18.109375 38.921875 18.109375 30.90625 
L 18.109375 0 
L 9.078125 0 
L 9.078125 75.984375 
L 18.109375 75.984375 
L 18.109375 46.1875 
Q 21.34375 51.125 25.703125 53.5625 
Q 30.078125 56 35.796875 56 
Q 45.21875 56 50.046875 50.171875 
Q 54.890625 44.34375 54.890625 33.015625 
z
" id="DejaVuSans-68"/>
     </defs>
     <g transform="translate(220.931875 335.860562)scale(0.1 -0.1)">
      <use xlink:href="#DejaVuSans-65"/>
      <use x="61.523438" xlink:href="#DejaVuSans-70"/>
      <use x="125" xlink:href="#DejaVuSans-6f"/>
      <use x="186.181641" xlink:href="#DejaVuSans-63"/>
      <use x="241.162109" xlink:href="#DejaVuSans-68"/>
     </g>
    </g>
   </g>
   <g id="matplotlib.axis_2">
    <g id="ytick_1">
     <g id="line2d_7">
      <defs>
       <path d="M 0 0 
L -3.5 0 
" id="m791bf0b3bd" style="stroke:#000000;stroke-width:0.8;"/>
      </defs>
      <g>
       <use style="stroke:#000000;stroke-width:0.8;" x="57.6" xlink:href="#m791bf0b3bd" y="301.446102"/>
      </g>
     </g>
     <g id="text_8">
      <!-- 0.8 -->
      <defs>
       <path d="M 10.6875 12.40625 
L 21 12.40625 
L 21 0 
L 10.6875 0 
z
" id="DejaVuSans-2e"/>
      </defs>
      <g transform="translate(34.696875 305.245321)scale(0.1 -0.1)">
       <use xlink:href="#DejaVuSans-30"/>
       <use x="63.623047" xlink:href="#DejaVuSans-2e"/>
       <use x="95.410156" xlink:href="#DejaVuSans-38"/>
      </g>
     </g>
    </g>
    <g id="ytick_2">
     <g id="line2d_8">
      <g>
       <use style="stroke:#000000;stroke-width:0.8;" x="57.6" xlink:href="#m791bf0b3bd" y="271.650935"/>
      </g>
     </g>
     <g id="text_9">
      <!-- 1.0 -->
      <g transform="translate(34.696875 275.450154)scale(0.1 -0.1)">
       <use xlink:href="#DejaVuSans-31"/>
       <use x="63.623047" xlink:href="#DejaVuSans-2e"/>
       <use x="95.410156" xlink:href="#DejaVuSans-30"/>
      </g>
     </g>
    </g>
    <g id="ytick_3">
     <g id="line2d_9">
      <g>
       <use style="stroke:#000000;stroke-width:0.8;" x="57.6" xlink:href="#m791bf0b3bd" y="241.855767"/>
      </g>
     </g>
     <g id="text_10">
      <!-- 1.2 -->
      <g transform="translate(34.696875 245.654986)scale(0.1 -0.1)">
       <use xlink:href="#DejaVuSans-31"/>
       <use x="63.623047" xlink:href="#DejaVuSans-2e"/>
       <use x="95.410156" xlink:href="#DejaVuSans-32"/>
      </g>
     </g>
    </g>
    <g id="ytick_4">
     <g id="line2d_10">
      <g>
       <use style="stroke:#000000;stroke-width:0.8;" x="57.6" xlink:href="#m791bf0b3bd" y="212.0606"/>
      </g>
     </g>
     <g id="text_11">
      <!-- 1.4 -->
      <g transform="translate(34.696875 215.859819)scale(0.1 -0.1)">
       <use xlink:href="#DejaVuSans-31"/>
       <use x="63.623047" xlink:href="#DejaVuSans-2e"/>
       <use x="95.410156" xlink:href="#DejaVuSans-34"/>
      </g>
     </g>
    </g>
    <g id="ytick_5">
     <g id="line2d_11">
      <g>
       <use style="stroke:#000000;stroke-width:0.8;" x="57.6" xlink:href="#m791bf0b3bd" y="182.265433"/>
      </g>
     </g>
     <g id="text_12">
      <!-- 1.6 -->
      <g transform="translate(34.696875 186.064651)scale(0.1 -0.1)">
       <use xlink:href="#DejaVuSans-31"/>
       <use x="63.623047" xlink:href="#DejaVuSans-2e"/>
       <use x="95.410156" xlink:href="#DejaVuSans-36"/>
      </g>
     </g>
    </g>
    <g id="ytick_6">
     <g id="line2d_12">
      <g>
       <use style="stroke:#000000;stroke-width:0.8;" x="57.6" xlink:href="#m791bf0b3bd" y="152.470265"/>
      </g>
     </g>
     <g id="text_13">
      <!-- 1.8 -->
      <g transform="translate(34.696875 156.269484)scale(0.1 -0.1)">
       <use xlink:href="#DejaVuSans-31"/>
       <use x="63.623047" xlink:href="#DejaVuSans-2e"/>
       <use x="95.410156" xlink:href="#DejaVuSans-38"/>
      </g>
     </g>
    </g>
    <g id="ytick_7">
     <g id="line2d_13">
      <g>
       <use style="stroke:#000000;stroke-width:0.8;" x="57.6" xlink:href="#m791bf0b3bd" y="122.675098"/>
      </g>
     </g>
     <g id="text_14">
      <!-- 2.0 -->
      <g transform="translate(34.696875 126.474316)scale(0.1 -0.1)">
       <use xlink:href="#DejaVuSans-32"/>
       <use x="63.623047" xlink:href="#DejaVuSans-2e"/>
       <use x="95.410156" xlink:href="#DejaVuSans-30"/>
      </g>
     </g>
    </g>
    <g id="ytick_8">
     <g id="line2d_14">
      <g>
       <use style="stroke:#000000;stroke-width:0.8;" x="57.6" xlink:href="#m791bf0b3bd" y="92.87993"/>
      </g>
     </g>
     <g id="text_15">
      <!-- 2.2 -->
      <g transform="translate(34.696875 96.679149)scale(0.1 -0.1)">
       <use xlink:href="#DejaVuSans-32"/>
       <use x="63.623047" xlink:href="#DejaVuSans-2e"/>
       <use x="95.410156" xlink:href="#DejaVuSans-32"/>
      </g>
     </g>
    </g>
    <g id="ytick_9">
     <g id="line2d_15">
      <g>
       <use style="stroke:#000000;stroke-width:0.8;" x="57.6" xlink:href="#m791bf0b3bd" y="63.084763"/>
      </g>
     </g>
     <g id="text_16">
      <!-- 2.4 -->
      <g transform="translate(34.696875 66.883981)scale(0.1 -0.1)">
       <use xlink:href="#DejaVuSans-32"/>
       <use x="63.623047" xlink:href="#DejaVuSans-2e"/>
       <use x="95.410156" xlink:href="#DejaVuSans-34"/>
      </g>
     </g>
    </g>
    <g id="text_17">
     <!-- loss -->
     <defs>
      <path d="M 9.421875 75.984375 
L 18.40625 75.984375 
L 18.40625 0 
L 9.421875 0 
z
" id="DejaVuSans-6c"/>
      <path d="M 44.28125 53.078125 
L 44.28125 44.578125 
Q 40.484375 46.53125 36.375 47.5 
Q 32.28125 48.484375 27.875 48.484375 
Q 21.1875 48.484375 17.84375 46.4375 
Q 14.5 44.390625 14.5 40.28125 
Q 14.5 37.15625 16.890625 35.375 
Q 19.28125 33.59375 26.515625 31.984375 
L 29.59375 31.296875 
Q 39.15625 29.25 43.1875 25.515625 
Q 47.21875 21.78125 47.21875 15.09375 
Q 47.21875 7.46875 41.1875 3.015625 
Q 35.15625 -1.421875 24.609375 -1.421875 
Q 20.21875 -1.421875 15.453125 -0.5625 
Q 10.6875 0.296875 5.421875 2 
L 5.421875 11.28125 
Q 10.40625 8.6875 15.234375 7.390625 
Q 20.0625 6.109375 24.8125 6.109375 
Q 31.15625 6.109375 34.5625 8.28125 
Q 37.984375 10.453125 37.984375 14.40625 
Q 37.984375 18.0625 35.515625 20.015625 
Q 33.0625 21.96875 24.703125 23.78125 
L 21.578125 24.515625 
Q 13.234375 26.265625 9.515625 29.90625 
Q 5.8125 33.546875 5.8125 39.890625 
Q 5.8125 47.609375 11.28125 51.796875 
Q 16.75 56 26.8125 56 
Q 31.78125 56 36.171875 55.265625 
Q 40.578125 54.546875 44.28125 53.078125 
z
" id="DejaVuSans-73"/>
     </defs>
     <g transform="translate(28.617188 184.185812)rotate(-90)scale(0.1 -0.1)">
      <use xlink:href="#DejaVuSans-6c"/>
      <use x="27.783203" xlink:href="#DejaVuSans-6f"/>
      <use x="88.964844" xlink:href="#DejaVuSans-73"/>
      <use x="141.064453" xlink:href="#DejaVuSans-73"/>
     </g>
    </g>
   </g>
   <g id="line2d_16">
    <path clip-path="url(#p97fa368fb6)" d="M 73.832727 167.568966 
L 77.112066 190.47307 
L 80.391405 195.737504 
L 83.670744 200.017766 
L 86.950083 202.369722 
L 90.229421 194.722606 
L 93.50876 206.825962 
L 96.788099 207.236576 
L 100.067438 204.869723 
L 103.346777 210.401382 
L 106.626116 213.945144 
L 109.905455 218.704922 
L 113.184793 213.354828 
L 116.464132 213.168608 
L 119.743471 220.595984 
L 123.02281 216.358553 
L 126.302149 214.203059 
L 129.581488 215.327826 
L 132.860826 221.818517 
L 136.140165 222.418145 
L 139.419504 221.688163 
L 142.698843 229.285 
L 145.978182 220.804551 
L 149.257521 214.880899 
L 152.53686 210.539184 
L 155.816198 222.312 
L 159.095537 215.992631 
L 162.374876 207.588532 
L 165.654215 220.562465 
L 168.933554 211.813859 
L 172.212893 214.845517 
L 175.492231 214.760787 
L 178.77157 217.075499 
L 182.050909 218.723544 
L 185.330248 218.475872 
L 188.609587 216.428385 
L 191.888926 215.428385 
L 195.168264 225.327829 
L 198.447603 224.406973 
L 201.726942 225.444217 
L 205.006281 222.57457 
L 208.28562 223.701199 
L 211.564959 220.997288 
L 214.844298 219.605295 
L 218.123636 222.767307 
L 221.402975 213.020563 
L 224.682314 224.327829 
L 227.961653 212.388347 
L 231.240992 217.170471 
L 234.520331 196.006591 
L 237.799669 227.47215 
L 241.079008 222.191888 
L 244.358347 224.526153 
L 247.637686 222.665817 
L 250.917025 225.587606 
L 254.196364 230.779414 
L 257.475702 216.636952 
L 260.755041 222.172335 
L 264.03438 229.92001 
L 267.313719 226.341796 
L 270.593058 225.513118 
L 273.872397 219.164885 
L 277.151736 223.335278 
L 280.431074 225.477736 
L 283.710413 219.876245 
L 286.989752 220.509392 
L 290.269091 228.492635 
L 293.54843 230.313864 
L 296.827769 220.930249 
L 300.107107 221.514979 
L 303.386446 239.764519 
L 306.665785 225.880902 
L 309.945124 214.93304 
L 313.224463 229.773827 
L 316.503802 228.676061 
L 319.78314 223.636023 
L 323.062479 228.393938 
L 326.341818 232.217031 
L 329.621157 235.555952 
L 332.900496 218.154643 
L 336.179835 226.935837 
L 339.459174 210.763579 
L 342.738512 227.974013 
L 346.017851 230.23379 
L 349.29719 222.774756 
L 352.576529 219.51591 
L 355.855868 222.703992 
L 359.135207 219.767306 
L 362.414545 220.86321 
L 365.693884 214.190954 
L 368.973223 209.363206 
L 372.252562 223.051292 
L 375.531901 222.504737 
L 378.81124 213.801755 
L 382.090579 214.210508 
L 385.369917 218.786859 
L 388.649256 212.860414 
L 391.928595 221.129504 
L 395.207934 212.728198 
L 398.487273 211.016838 
" style="fill:none;stroke:#1f77b4;stroke-linecap:square;stroke-width:1.5;"/>
   </g>
   <g id="line2d_17">
    <path clip-path="url(#p97fa368fb6)" d="M 73.832727 238.372526 
L 77.112066 261.095066 
L 80.391405 269.735664 
L 83.670744 278.394885 
L 86.950083 282.731013 
L 90.229421 285.910716 
L 93.50876 288.043864 
L 96.788099 289.228222 
L 100.067438 288.191908 
L 103.346777 287.164906 
L 106.626116 285.830641 
L 109.905455 283.966581 
L 113.184793 284.130455 
L 116.464132 284.514998 
L 119.743471 283.173285 
L 123.02281 282.569002 
L 126.302149 280.837158 
L 129.581488 279.258945 
L 132.860826 276.163041 
L 136.140165 273.496373 
L 139.419504 271.555963 
L 142.698843 268.230077 
L 145.978182 265.758009 
L 149.257521 264.520579 
L 152.53686 262.435848 
L 155.816198 259.549441 
L 159.095537 256.901396 
L 162.374876 254.399533 
L 165.654215 252.271041 
L 168.933554 251.373461 
L 172.212893 248.55968 
L 175.492231 246.431188 
L 178.77157 243.973087 
L 182.050909 241.724483 
L 185.330248 240.407909 
L 188.609587 239.444221 
L 191.888926 235.728205 
L 195.168264 232.887422 
L 198.447603 230.110885 
L 201.726942 226.343658 
L 205.006281 221.442353 
L 208.28562 218.379038 
L 211.564959 214.909763 
L 214.844298 213.257993 
L 218.123636 210.234715 
L 221.402975 205.18909 
L 224.682314 202.372515 
L 227.961653 198.263575 
L 231.240992 198.230056 
L 234.520331 200.42838 
L 237.799669 198.152774 
L 241.079008 194.217019 
L 244.358347 192.268229 
L 247.637686 190.703983 
L 250.917025 188.342716 
L 254.196364 185.200257 
L 257.475702 182.78871 
L 260.755041 183.656494 
L 264.03438 180.558728 
L 267.313719 173.770085 
L 270.593058 168.187216 
L 273.872397 165.923714 
L 277.151736 164.199319 
L 280.431074 161.813843 
L 283.710413 161.042893 
L 286.989752 160.902297 
L 290.269091 156.707697 
L 293.54843 151.357602 
L 296.827769 153.721662 
L 300.107107 147.340841 
L 303.386446 144.923708 
L 306.665785 142.196519 
L 309.945124 139.47771 
L 313.224463 138.987021 
L 316.503802 133.150892 
L 319.78314 133.313835 
L 323.062479 129.313833 
L 326.341818 127.081058 
L 329.621157 123.204893 
L 332.900496 121.189064 
L 336.179835 115.192786 
L 339.459174 112.048465 
L 342.738512 112.664852 
L 346.017851 105.598742 
L 349.29719 100.380864 
L 352.576529 95.59967 
L 355.855868 93.568943 
L 359.135207 83.973037 
L 362.414545 80.002831 
L 365.693884 80.730951 
L 368.973223 73.264468 
L 372.252562 72.874337 
L 375.531901 71.558695 
L 378.81124 71.12294 
L 382.090579 67.655528 
L 385.369917 65.62387 
L 388.649256 59.90506 
L 391.928595 59.122005 
L 395.207934 59.349194 
L 398.487273 53.568 
" style="fill:none;stroke:#ff7f0e;stroke-linecap:square;stroke-width:1.5;"/>
   </g>
   <g id="line2d_18">
    <path clip-path="url(#p97fa368fb6)" d="M 73.832727 166.226321 
L 77.112066 201.771025 
L 80.391405 213.798031 
L 83.670744 221.975873 
L 86.950083 228.858557 
L 90.229421 234.968428 
L 93.50876 240.717965 
L 96.788099 246.243106 
L 100.067438 251.227279 
L 103.346777 255.801768 
L 106.626116 259.833427 
L 109.905455 263.199349 
L 113.184793 265.941436 
L 116.464132 268.363224 
L 119.743471 270.475888 
L 123.02281 272.250563 
L 126.302149 273.777565 
L 129.581488 275.158385 
L 132.860826 276.334363 
L 136.140165 277.385574 
L 139.419504 278.363228 
L 142.698843 279.249634 
L 145.978182 280.035481 
L 149.257521 280.76267 
L 152.53686 281.433992 
L 155.816198 282.095072 
L 159.095537 282.671422 
L 162.374876 283.250566 
L 165.654215 283.767326 
L 168.933554 284.301777 
L 172.212893 284.774775 
L 175.492231 285.274775 
L 178.77157 285.731014 
L 182.050909 286.148146 
L 185.330248 286.542001 
L 188.609587 286.974962 
L 191.888926 287.357644 
L 195.168264 287.719841 
L 198.447603 288.069003 
L 201.726942 288.339022 
L 205.006281 288.665838 
L 208.28562 288.918166 
L 211.564959 289.160251 
L 214.844298 289.417235 
L 218.123636 289.669562 
L 221.402975 289.866955 
L 224.682314 290.120214 
L 227.961653 290.332505 
L 231.240992 290.549451 
L 234.520331 290.731015 
L 237.799669 290.921891 
L 241.079008 291.078315 
L 244.358347 291.247775 
L 247.637686 291.417235 
L 250.917025 291.617422 
L 254.196364 291.781295 
L 257.475702 291.956342 
L 260.755041 292.142561 
L 264.03438 292.293399 
L 267.313719 292.366025 
L 270.593058 292.521519 
L 273.872397 292.639768 
L 277.151736 292.788744 
L 280.431074 292.927478 
L 283.710413 293.106249 
L 286.989752 293.236603 
L 290.269091 293.347403 
L 293.54843 293.467515 
L 296.827769 293.560625 
L 300.107107 293.670495 
L 303.386446 293.780364 
L 306.665785 293.875337 
L 309.945124 293.961929 
L 313.224463 294.082041 
L 316.503802 294.177013 
L 319.78314 294.264536 
L 323.062479 294.340886 
L 326.341818 294.435858 
L 329.621157 294.527106 
L 332.900496 294.641631 
L 336.179835 294.704946 
L 339.459174 294.769192 
L 342.738512 294.81854 
L 346.017851 294.889303 
L 349.29719 294.957274 
L 352.576529 295.017795 
L 355.855868 295.063419 
L 359.135207 295.110905 
L 362.414545 295.136976 
L 365.693884 295.171426 
L 368.973223 295.230086 
L 372.252562 295.26733 
L 375.531901 295.329713 
L 378.81124 295.372544 
L 382.090579 295.407925 
L 385.369917 295.43679 
L 388.649256 295.451687 
L 391.928595 295.458205 
L 395.207934 295.488 
L 398.487273 295.473102 
" style="fill:none;stroke:#2ca02c;stroke-linecap:square;stroke-width:1.5;"/>
   </g>
   <g id="line2d_19">
    <path clip-path="url(#p97fa368fb6)" d="M 73.832727 130.007502 
L 77.112066 146.570822 
L 80.391405 170.660215 
L 83.670744 190.589457 
L 86.950083 201.119256 
L 90.229421 207.676986 
L 93.50876 212.710507 
L 96.788099 217.199335 
L 100.067438 221.621124 
L 103.346777 226.221684 
L 106.626116 230.990773 
L 109.905455 235.941427 
L 113.184793 240.579231 
L 116.464132 244.542919 
L 119.743471 247.954466 
L 123.02281 251.288731 
L 126.302149 254.31201 
L 129.581488 257.010335 
L 132.860826 259.547579 
L 136.140165 261.987059 
L 139.419504 264.115551 
L 142.698843 266.120207 
L 145.978182 267.966576 
L 149.257521 269.665832 
L 152.53686 271.088551 
L 155.816198 272.356708 
L 159.095537 273.549446 
L 162.374876 274.790601 
L 165.654215 276.046653 
L 168.933554 277.075518 
L 172.212893 278.043861 
L 175.492231 278.981477 
L 178.77157 279.816673 
L 182.050909 280.784085 
L 185.330248 281.544793 
L 188.609587 282.278499 
L 191.888926 282.933992 
L 195.168264 283.555035 
L 198.447603 284.043862 
L 201.726942 284.605315 
L 205.006281 285.072727 
L 208.28562 285.489859 
L 211.564959 285.888369 
L 214.844298 286.173286 
L 218.123636 286.484273 
L 221.402975 286.796191 
L 224.682314 287.097867 
L 227.961653 287.311089 
L 231.240992 287.569003 
L 234.520331 287.729152 
L 237.799669 287.857644 
L 241.079008 288.004757 
L 244.358347 288.133249 
L 247.637686 288.310158 
L 250.917025 288.45634 
L 254.196364 288.577383 
L 257.475702 288.65932 
L 260.755041 288.808296 
L 264.03438 288.944236 
L 267.313719 289.038277 
L 270.593058 289.158389 
L 273.872397 289.271052 
L 277.151736 289.332505 
L 280.431074 289.376266 
L 283.710413 289.368817 
L 286.989752 289.400475 
L 290.269091 289.48986 
L 293.54843 289.530829 
L 296.827769 289.604386 
L 300.107107 289.694702 
L 303.386446 289.787812 
L 306.665785 289.830643 
L 309.945124 289.91351 
L 313.224463 289.933995 
L 316.503802 289.929339 
L 319.78314 289.888371 
L 323.062479 289.848333 
L 326.341818 289.867887 
L 329.621157 289.943306 
L 332.900496 289.958203 
L 336.179835 289.920028 
L 339.459174 289.885577 
L 342.738512 289.897682 
L 346.017851 289.856713 
L 349.29719 289.910717 
L 352.576529 289.886509 
L 355.855868 289.809227 
L 359.135207 289.755224 
L 362.414545 289.690047 
L 365.693884 289.584832 
L 368.973223 289.565279 
L 372.252562 289.472169 
L 375.531901 289.484274 
L 378.81124 289.428408 
L 382.090579 289.366024 
L 385.369917 289.313883 
L 388.649256 289.204013 
L 391.928595 289.140698 
L 395.207934 289.038277 
L 398.487273 288.931201 
" style="fill:none;stroke:#d62728;stroke-linecap:square;stroke-width:1.5;"/>
   </g>
   <g id="line2d_20">
    <path clip-path="url(#p97fa368fb6)" d="M 73.832727 81.691845 
L 77.112066 87.417172 
L 80.391405 95.883655 
L 83.670744 105.524254 
L 86.950083 113.771929 
L 90.229421 119.492601 
L 93.50876 123.230964 
L 96.788099 125.974912 
L 100.067438 128.230034 
L 103.346777 130.213275 
L 106.626116 132.042884 
L 109.905455 133.790557 
L 113.184793 135.517746 
L 116.464132 137.271005 
L 119.743471 139.091304 
L 123.02281 141.021472 
L 126.302149 143.099685 
L 129.581488 145.322218 
L 132.860826 147.714211 
L 136.140165 150.273803 
L 139.419504 152.979576 
L 142.698843 155.81291 
L 145.978182 158.711422 
L 149.257521 161.617381 
L 152.53686 164.492615 
L 155.816198 167.285912 
L 159.095537 169.971202 
L 162.374876 172.527999 
L 165.654215 174.942339 
L 168.933554 177.202116 
L 172.212893 179.312918 
L 175.492231 181.284054 
L 178.77157 183.122975 
L 182.050909 184.83899 
L 185.330248 186.44886 
L 188.609587 187.957241 
L 191.888926 189.376235 
L 195.168264 190.712363 
L 198.447603 191.982382 
L 201.726942 193.189086 
L 205.006281 194.332475 
L 208.28562 195.425586 
L 211.564959 196.467485 
L 214.844298 197.464692 
L 218.123636 198.422793 
L 221.402975 199.339926 
L 224.682314 200.221676 
L 227.961653 201.068977 
L 231.240992 201.883688 
L 234.520331 202.676053 
L 237.799669 203.44421 
L 241.079008 204.19002 
L 244.358347 204.915346 
L 247.637686 205.621119 
L 250.917025 206.31665 
L 254.196364 206.997284 
L 257.475702 207.661157 
L 260.755041 208.312927 
L 264.03438 208.959109 
L 267.313719 209.589463 
L 270.593058 210.214231 
L 273.872397 210.819445 
L 277.151736 211.420935 
L 280.431074 212.018701 
L 283.710413 212.609017 
L 286.989752 213.197472 
L 290.269091 213.777547 
L 293.54843 214.351104 
L 296.827769 214.916281 
L 300.107107 215.474009 
L 303.386446 216.023357 
L 306.665785 216.566188 
L 309.945124 217.105294 
L 313.224463 217.646263 
L 316.503802 218.176058 
L 319.78314 218.705853 
L 323.062479 219.2282 
L 326.341818 219.743098 
L 329.621157 220.258927 
L 332.900496 220.775686 
L 336.179835 221.283135 
L 339.459174 221.788722 
L 342.738512 222.287791 
L 346.017851 222.789654 
L 349.29719 223.287792 
L 352.576529 223.78593 
L 355.855868 224.281274 
L 359.135207 224.773826 
L 362.414545 225.258928 
L 365.693884 225.746824 
L 368.973223 226.23472 
L 372.252562 226.728202 
L 375.531901 227.214236 
L 378.81124 227.702132 
L 382.090579 228.193752 
L 385.369917 228.681648 
L 388.649256 229.167682 
L 391.928595 229.658371 
L 395.207934 230.152784 
L 398.487273 230.649991 
" style="fill:none;stroke:#9467bd;stroke-linecap:square;stroke-width:1.5;"/>
   </g>
   <g id="line2d_21">
    <path clip-path="url(#p97fa368fb6)" d="M 73.832727 77.259814 
L 77.112066 77.609907 
L 80.391405 77.95162 
L 83.670744 78.294265 
L 86.950083 78.632254 
L 90.229421 78.97676 
L 93.50876 79.322198 
L 96.788099 79.675084 
L 100.067438 80.037282 
L 103.346777 80.411584 
L 106.626116 80.79799 
L 109.905455 81.201156 
L 113.184793 81.621081 
L 116.464132 82.056836 
L 119.743471 82.514005 
L 123.02281 82.995383 
L 126.302149 83.496315 
L 129.581488 84.022386 
L 132.860826 84.570803 
L 136.140165 85.147153 
L 139.419504 85.74585 
L 142.698843 86.367824 
L 145.978182 87.017731 
L 149.257521 87.690916 
L 152.53686 88.387378 
L 155.816198 89.102462 
L 159.095537 89.840823 
L 162.374876 90.597807 
L 165.654215 91.37155 
L 168.933554 92.158328 
L 172.212893 92.960936 
L 175.492231 93.770992 
L 178.77157 94.587566 
L 182.050909 95.411588 
L 185.330248 96.237473 
L 188.609587 97.068944 
L 191.888926 97.892967 
L 195.168264 98.716059 
L 198.447603 99.536357 
L 201.726942 100.349206 
L 205.006281 101.159262 
L 208.28562 101.96187 
L 211.564959 102.755166 
L 214.844298 103.544738 
L 218.123636 104.324999 
L 221.402975 105.098742 
L 224.682314 105.865968 
L 227.961653 106.627607 
L 231.240992 107.383659 
L 234.520331 108.133194 
L 237.799669 108.877142 
L 241.079008 109.617365 
L 244.358347 110.349209 
L 247.637686 111.07826 
L 250.917025 111.799862 
L 254.196364 112.514014 
L 257.475702 113.223512 
L 260.755041 113.921836 
L 264.03438 114.612712 
L 267.313719 115.294276 
L 270.593058 115.959081 
L 273.872397 116.613643 
L 277.151736 117.250515 
L 280.431074 117.871558 
L 283.710413 118.472117 
L 286.989752 119.054985 
L 290.269091 119.6183 
L 293.54843 120.159268 
L 296.827769 120.680684 
L 300.107107 121.183477 
L 303.386446 121.66858 
L 306.665785 122.136922 
L 309.945124 122.585712 
L 313.224463 123.017742 
L 316.503802 123.433943 
L 319.78314 123.834316 
L 323.062479 124.221653 
L 326.341818 124.595024 
L 329.621157 124.95629 
L 332.900496 125.305452 
L 336.179835 125.646234 
L 339.459174 125.974912 
L 342.738512 126.294279 
L 346.017851 126.602473 
L 349.29719 126.90508 
L 352.576529 127.197445 
L 355.855868 127.487017 
L 359.135207 127.766347 
L 362.414545 128.041021 
L 365.693884 128.310109 
L 368.973223 128.572679 
L 372.252562 128.829662 
L 375.531901 129.081059 
L 378.81124 129.331524 
L 382.090579 129.576403 
L 385.369917 129.813834 
L 388.649256 130.050333 
L 391.928595 130.283107 
L 395.207934 130.508433 
L 398.487273 130.736553 
" style="fill:none;stroke:#8c564b;stroke-linecap:square;stroke-width:1.5;"/>
   </g>
   <g id="patch_3">
    <path d="M 57.6 307.584 
L 57.6 41.472 
" style="fill:none;stroke:#000000;stroke-linecap:square;stroke-linejoin:miter;stroke-width:0.8;"/>
   </g>
   <g id="patch_4">
    <path d="M 414.72 307.584 
L 414.72 41.472 
" style="fill:none;stroke:#000000;stroke-linecap:square;stroke-linejoin:miter;stroke-width:0.8;"/>
   </g>
   <g id="patch_5">
    <path d="M 57.6 307.584 
L 414.72 307.584 
" style="fill:none;stroke:#000000;stroke-linecap:square;stroke-linejoin:miter;stroke-width:0.8;"/>
   </g>
   <g id="patch_6">
    <path d="M 57.6 41.472 
L 414.72 41.472 
" style="fill:none;stroke:#000000;stroke-linecap:square;stroke-linejoin:miter;stroke-width:0.8;"/>
   </g>
   <g id="text_18">
    <!-- MAXpool - CIFAR10 - 3-layer-CNN -->
    <defs>
     <path d="M 9.8125 72.90625 
L 24.515625 72.90625 
L 43.109375 23.296875 
L 61.8125 72.90625 
L 76.515625 72.90625 
L 76.515625 0 
L 66.890625 0 
L 66.890625 64.015625 
L 48.09375 14.015625 
L 38.1875 14.015625 
L 19.390625 64.015625 
L 19.390625 0 
L 9.8125 0 
z
" id="DejaVuSans-4d"/>
     <path d="M 34.1875 63.1875 
L 20.796875 26.90625 
L 47.609375 26.90625 
z
M 28.609375 72.90625 
L 39.796875 72.90625 
L 67.578125 0 
L 57.328125 0 
L 50.6875 18.703125 
L 17.828125 18.703125 
L 11.1875 0 
L 0.78125 0 
z
" id="DejaVuSans-41"/>
     <path d="M 6.296875 72.90625 
L 16.890625 72.90625 
L 35.015625 45.796875 
L 53.21875 72.90625 
L 63.8125 72.90625 
L 40.375 37.890625 
L 65.375 0 
L 54.78125 0 
L 34.28125 31 
L 13.625 0 
L 2.984375 0 
L 29 38.921875 
z
" id="DejaVuSans-58"/>
     <path id="DejaVuSans-20"/>
     <path d="M 4.890625 31.390625 
L 31.203125 31.390625 
L 31.203125 23.390625 
L 4.890625 23.390625 
z
" id="DejaVuSans-2d"/>
     <path d="M 64.40625 67.28125 
L 64.40625 56.890625 
Q 59.421875 61.53125 53.78125 63.8125 
Q 48.140625 66.109375 41.796875 66.109375 
Q 29.296875 66.109375 22.65625 58.46875 
Q 16.015625 50.828125 16.015625 36.375 
Q 16.015625 21.96875 22.65625 14.328125 
Q 29.296875 6.6875 41.796875 6.6875 
Q 48.140625 6.6875 53.78125 8.984375 
Q 59.421875 11.28125 64.40625 15.921875 
L 64.40625 5.609375 
Q 59.234375 2.09375 53.4375 0.328125 
Q 47.65625 -1.421875 41.21875 -1.421875 
Q 24.65625 -1.421875 15.125 8.703125 
Q 5.609375 18.84375 5.609375 36.375 
Q 5.609375 53.953125 15.125 64.078125 
Q 24.65625 74.21875 41.21875 74.21875 
Q 47.75 74.21875 53.53125 72.484375 
Q 59.328125 70.75 64.40625 67.28125 
z
" id="DejaVuSans-43"/>
     <path d="M 9.8125 72.90625 
L 19.671875 72.90625 
L 19.671875 0 
L 9.8125 0 
z
" id="DejaVuSans-49"/>
     <path d="M 9.8125 72.90625 
L 51.703125 72.90625 
L 51.703125 64.59375 
L 19.671875 64.59375 
L 19.671875 43.109375 
L 48.578125 43.109375 
L 48.578125 34.8125 
L 19.671875 34.8125 
L 19.671875 0 
L 9.8125 0 
z
" id="DejaVuSans-46"/>
     <path d="M 44.390625 34.1875 
Q 47.5625 33.109375 50.5625 29.59375 
Q 53.5625 26.078125 56.59375 19.921875 
L 66.609375 0 
L 56 0 
L 46.6875 18.703125 
Q 43.0625 26.03125 39.671875 28.421875 
Q 36.28125 30.8125 30.421875 30.8125 
L 19.671875 30.8125 
L 19.671875 0 
L 9.8125 0 
L 9.8125 72.90625 
L 32.078125 72.90625 
Q 44.578125 72.90625 50.734375 67.671875 
Q 56.890625 62.453125 56.890625 51.90625 
Q 56.890625 45.015625 53.6875 40.46875 
Q 50.484375 35.9375 44.390625 34.1875 
z
M 19.671875 64.796875 
L 19.671875 38.921875 
L 32.078125 38.921875 
Q 39.203125 38.921875 42.84375 42.21875 
Q 46.484375 45.515625 46.484375 51.90625 
Q 46.484375 58.296875 42.84375 61.546875 
Q 39.203125 64.796875 32.078125 64.796875 
z
" id="DejaVuSans-52"/>
     <path d="M 40.578125 39.3125 
Q 47.65625 37.796875 51.625 33 
Q 55.609375 28.21875 55.609375 21.1875 
Q 55.609375 10.40625 48.1875 4.484375 
Q 40.765625 -1.421875 27.09375 -1.421875 
Q 22.515625 -1.421875 17.65625 -0.515625 
Q 12.796875 0.390625 7.625 2.203125 
L 7.625 11.71875 
Q 11.71875 9.328125 16.59375 8.109375 
Q 21.484375 6.890625 26.8125 6.890625 
Q 36.078125 6.890625 40.9375 10.546875 
Q 45.796875 14.203125 45.796875 21.1875 
Q 45.796875 27.640625 41.28125 31.265625 
Q 36.765625 34.90625 28.71875 34.90625 
L 20.21875 34.90625 
L 20.21875 43.015625 
L 29.109375 43.015625 
Q 36.375 43.015625 40.234375 45.921875 
Q 44.09375 48.828125 44.09375 54.296875 
Q 44.09375 59.90625 40.109375 62.90625 
Q 36.140625 65.921875 28.71875 65.921875 
Q 24.65625 65.921875 20.015625 65.03125 
Q 15.375 64.15625 9.8125 62.3125 
L 9.8125 71.09375 
Q 15.4375 72.65625 20.34375 73.4375 
Q 25.25 74.21875 29.59375 74.21875 
Q 40.828125 74.21875 47.359375 69.109375 
Q 53.90625 64.015625 53.90625 55.328125 
Q 53.90625 49.265625 50.4375 45.09375 
Q 46.96875 40.921875 40.578125 39.3125 
z
" id="DejaVuSans-33"/>
     <path d="M 34.28125 27.484375 
Q 23.390625 27.484375 19.1875 25 
Q 14.984375 22.515625 14.984375 16.5 
Q 14.984375 11.71875 18.140625 8.90625 
Q 21.296875 6.109375 26.703125 6.109375 
Q 34.1875 6.109375 38.703125 11.40625 
Q 43.21875 16.703125 43.21875 25.484375 
L 43.21875 27.484375 
z
M 52.203125 31.203125 
L 52.203125 0 
L 43.21875 0 
L 43.21875 8.296875 
Q 40.140625 3.328125 35.546875 0.953125 
Q 30.953125 -1.421875 24.3125 -1.421875 
Q 15.921875 -1.421875 10.953125 3.296875 
Q 6 8.015625 6 15.921875 
Q 6 25.140625 12.171875 29.828125 
Q 18.359375 34.515625 30.609375 34.515625 
L 43.21875 34.515625 
L 43.21875 35.40625 
Q 43.21875 41.609375 39.140625 45 
Q 35.0625 48.390625 27.6875 48.390625 
Q 23 48.390625 18.546875 47.265625 
Q 14.109375 46.140625 10.015625 43.890625 
L 10.015625 52.203125 
Q 14.9375 54.109375 19.578125 55.046875 
Q 24.21875 56 28.609375 56 
Q 40.484375 56 46.34375 49.84375 
Q 52.203125 43.703125 52.203125 31.203125 
z
" id="DejaVuSans-61"/>
     <path d="M 32.171875 -5.078125 
Q 28.375 -14.84375 24.75 -17.8125 
Q 21.140625 -20.796875 15.09375 -20.796875 
L 7.90625 -20.796875 
L 7.90625 -13.28125 
L 13.1875 -13.28125 
Q 16.890625 -13.28125 18.9375 -11.515625 
Q 21 -9.765625 23.484375 -3.21875 
L 25.09375 0.875 
L 2.984375 54.6875 
L 12.5 54.6875 
L 29.59375 11.921875 
L 46.6875 54.6875 
L 56.203125 54.6875 
z
" id="DejaVuSans-79"/>
     <path d="M 41.109375 46.296875 
Q 39.59375 47.171875 37.8125 47.578125 
Q 36.03125 48 33.890625 48 
Q 26.265625 48 22.1875 43.046875 
Q 18.109375 38.09375 18.109375 28.8125 
L 18.109375 0 
L 9.078125 0 
L 9.078125 54.6875 
L 18.109375 54.6875 
L 18.109375 46.1875 
Q 20.953125 51.171875 25.484375 53.578125 
Q 30.03125 56 36.53125 56 
Q 37.453125 56 38.578125 55.875 
Q 39.703125 55.765625 41.0625 55.515625 
z
" id="DejaVuSans-72"/>
     <path d="M 9.8125 72.90625 
L 23.09375 72.90625 
L 55.421875 11.921875 
L 55.421875 72.90625 
L 64.984375 72.90625 
L 64.984375 0 
L 51.703125 0 
L 19.390625 60.984375 
L 19.390625 0 
L 9.8125 0 
z
" id="DejaVuSans-4e"/>
    </defs>
    <g transform="translate(136.320938 35.472)scale(0.12 -0.12)">
     <use xlink:href="#DejaVuSans-4d"/>
     <use x="86.279297" xlink:href="#DejaVuSans-41"/>
     <use x="154.6875" xlink:href="#DejaVuSans-58"/>
     <use x="223.193359" xlink:href="#DejaVuSans-70"/>
     <use x="286.669922" xlink:href="#DejaVuSans-6f"/>
     <use x="347.851562" xlink:href="#DejaVuSans-6f"/>
     <use x="409.033203" xlink:href="#DejaVuSans-6c"/>
     <use x="436.816406" xlink:href="#DejaVuSans-20"/>
     <use x="468.603516" xlink:href="#DejaVuSans-2d"/>
     <use x="504.6875" xlink:href="#DejaVuSans-20"/>
     <use x="536.474609" xlink:href="#DejaVuSans-43"/>
     <use x="606.298828" xlink:href="#DejaVuSans-49"/>
     <use x="635.791016" xlink:href="#DejaVuSans-46"/>
     <use x="693.169922" xlink:href="#DejaVuSans-41"/>
     <use x="761.578125" xlink:href="#DejaVuSans-52"/>
     <use x="831.060547" xlink:href="#DejaVuSans-31"/>
     <use x="894.683594" xlink:href="#DejaVuSans-30"/>
     <use x="958.306641" xlink:href="#DejaVuSans-20"/>
     <use x="990.09375" xlink:href="#DejaVuSans-2d"/>
     <use x="1026.177734" xlink:href="#DejaVuSans-20"/>
     <use x="1057.964844" xlink:href="#DejaVuSans-33"/>
     <use x="1121.587891" xlink:href="#DejaVuSans-2d"/>
     <use x="1157.671875" xlink:href="#DejaVuSans-6c"/>
     <use x="1185.455078" xlink:href="#DejaVuSans-61"/>
     <use x="1246.734375" xlink:href="#DejaVuSans-79"/>
     <use x="1305.914062" xlink:href="#DejaVuSans-65"/>
     <use x="1367.4375" xlink:href="#DejaVuSans-72"/>
     <use x="1408.457031" xlink:href="#DejaVuSans-2d"/>
     <use x="1444.541016" xlink:href="#DejaVuSans-43"/>
     <use x="1514.365234" xlink:href="#DejaVuSans-4e"/>
     <use x="1589.169922" xlink:href="#DejaVuSans-4e"/>
    </g>
   </g>
   <g id="legend_1">
    <g id="patch_7">
     <path d="M 315.568438 220.062375 
L 407.72 220.062375 
Q 409.72 220.062375 409.72 218.062375 
L 409.72 130.993625 
Q 409.72 128.993625 407.72 128.993625 
L 315.568438 128.993625 
Q 313.568438 128.993625 313.568438 130.993625 
L 313.568438 218.062375 
Q 313.568438 220.062375 315.568438 220.062375 
z
" style="fill:#ffffff;opacity:0.8;stroke:#cccccc;stroke-linejoin:miter;"/>
    </g>
    <g id="line2d_22">
     <path d="M 317.568438 137.092062 
L 337.568438 137.092062 
" style="fill:none;stroke:#1f77b4;stroke-linecap:square;stroke-width:1.5;"/>
    </g>
    <g id="line2d_23"/>
    <g id="text_19">
     <!-- adam .01 -->
     <defs>
      <path d="M 45.40625 46.390625 
L 45.40625 75.984375 
L 54.390625 75.984375 
L 54.390625 0 
L 45.40625 0 
L 45.40625 8.203125 
Q 42.578125 3.328125 38.25 0.953125 
Q 33.9375 -1.421875 27.875 -1.421875 
Q 17.96875 -1.421875 11.734375 6.484375 
Q 5.515625 14.40625 5.515625 27.296875 
Q 5.515625 40.1875 11.734375 48.09375 
Q 17.96875 56 27.875 56 
Q 33.9375 56 38.25 53.625 
Q 42.578125 51.265625 45.40625 46.390625 
z
M 14.796875 27.296875 
Q 14.796875 17.390625 18.875 11.75 
Q 22.953125 6.109375 30.078125 6.109375 
Q 37.203125 6.109375 41.296875 11.75 
Q 45.40625 17.390625 45.40625 27.296875 
Q 45.40625 37.203125 41.296875 42.84375 
Q 37.203125 48.484375 30.078125 48.484375 
Q 22.953125 48.484375 18.875 42.84375 
Q 14.796875 37.203125 14.796875 27.296875 
z
" id="DejaVuSans-64"/>
      <path d="M 52 44.1875 
Q 55.375 50.25 60.0625 53.125 
Q 64.75 56 71.09375 56 
Q 79.640625 56 84.28125 50.015625 
Q 88.921875 44.046875 88.921875 33.015625 
L 88.921875 0 
L 79.890625 0 
L 79.890625 32.71875 
Q 79.890625 40.578125 77.09375 44.375 
Q 74.3125 48.1875 68.609375 48.1875 
Q 61.625 48.1875 57.5625 43.546875 
Q 53.515625 38.921875 53.515625 30.90625 
L 53.515625 0 
L 44.484375 0 
L 44.484375 32.71875 
Q 44.484375 40.625 41.703125 44.40625 
Q 38.921875 48.1875 33.109375 48.1875 
Q 26.21875 48.1875 22.15625 43.53125 
Q 18.109375 38.875 18.109375 30.90625 
L 18.109375 0 
L 9.078125 0 
L 9.078125 54.6875 
L 18.109375 54.6875 
L 18.109375 46.1875 
Q 21.1875 51.21875 25.484375 53.609375 
Q 29.78125 56 35.6875 56 
Q 41.65625 56 45.828125 52.96875 
Q 50 49.953125 52 44.1875 
z
" id="DejaVuSans-6d"/>
     </defs>
     <g transform="translate(345.568438 140.592062)scale(0.1 -0.1)">
      <use xlink:href="#DejaVuSans-61"/>
      <use x="61.279297" xlink:href="#DejaVuSans-64"/>
      <use x="124.755859" xlink:href="#DejaVuSans-61"/>
      <use x="186.035156" xlink:href="#DejaVuSans-6d"/>
      <use x="283.447266" xlink:href="#DejaVuSans-20"/>
      <use x="315.234375" xlink:href="#DejaVuSans-2e"/>
      <use x="347.021484" xlink:href="#DejaVuSans-30"/>
      <use x="410.644531" xlink:href="#DejaVuSans-31"/>
     </g>
    </g>
    <g id="line2d_24">
     <path d="M 317.568438 151.770187 
L 337.568438 151.770187 
" style="fill:none;stroke:#ff7f0e;stroke-linecap:square;stroke-width:1.5;"/>
    </g>
    <g id="line2d_25"/>
    <g id="text_20">
     <!-- adam .001 -->
     <g transform="translate(345.568438 155.270187)scale(0.1 -0.1)">
      <use xlink:href="#DejaVuSans-61"/>
      <use x="61.279297" xlink:href="#DejaVuSans-64"/>
      <use x="124.755859" xlink:href="#DejaVuSans-61"/>
      <use x="186.035156" xlink:href="#DejaVuSans-6d"/>
      <use x="283.447266" xlink:href="#DejaVuSans-20"/>
      <use x="315.234375" xlink:href="#DejaVuSans-2e"/>
      <use x="347.021484" xlink:href="#DejaVuSans-30"/>
      <use x="410.644531" xlink:href="#DejaVuSans-30"/>
      <use x="474.267578" xlink:href="#DejaVuSans-31"/>
     </g>
    </g>
    <g id="line2d_26">
     <path d="M 317.568438 166.448312 
L 337.568438 166.448312 
" style="fill:none;stroke:#2ca02c;stroke-linecap:square;stroke-width:1.5;"/>
    </g>
    <g id="line2d_27"/>
    <g id="text_21">
     <!-- adam .0001 -->
     <g transform="translate(345.568438 169.948312)scale(0.1 -0.1)">
      <use xlink:href="#DejaVuSans-61"/>
      <use x="61.279297" xlink:href="#DejaVuSans-64"/>
      <use x="124.755859" xlink:href="#DejaVuSans-61"/>
      <use x="186.035156" xlink:href="#DejaVuSans-6d"/>
      <use x="283.447266" xlink:href="#DejaVuSans-20"/>
      <use x="315.234375" xlink:href="#DejaVuSans-2e"/>
      <use x="347.021484" xlink:href="#DejaVuSans-30"/>
      <use x="410.644531" xlink:href="#DejaVuSans-30"/>
      <use x="474.267578" xlink:href="#DejaVuSans-30"/>
      <use x="537.890625" xlink:href="#DejaVuSans-31"/>
     </g>
    </g>
    <g id="line2d_28">
     <path d="M 317.568438 181.126438 
L 337.568438 181.126438 
" style="fill:none;stroke:#d62728;stroke-linecap:square;stroke-width:1.5;"/>
    </g>
    <g id="line2d_29"/>
    <g id="text_22">
     <!-- SGD .01 -->
     <defs>
      <path d="M 53.515625 70.515625 
L 53.515625 60.890625 
Q 47.90625 63.578125 42.921875 64.890625 
Q 37.9375 66.21875 33.296875 66.21875 
Q 25.25 66.21875 20.875 63.09375 
Q 16.5 59.96875 16.5 54.203125 
Q 16.5 49.359375 19.40625 46.890625 
Q 22.3125 44.4375 30.421875 42.921875 
L 36.375 41.703125 
Q 47.40625 39.59375 52.65625 34.296875 
Q 57.90625 29 57.90625 20.125 
Q 57.90625 9.515625 50.796875 4.046875 
Q 43.703125 -1.421875 29.984375 -1.421875 
Q 24.8125 -1.421875 18.96875 -0.25 
Q 13.140625 0.921875 6.890625 3.21875 
L 6.890625 13.375 
Q 12.890625 10.015625 18.65625 8.296875 
Q 24.421875 6.59375 29.984375 6.59375 
Q 38.421875 6.59375 43.015625 9.90625 
Q 47.609375 13.234375 47.609375 19.390625 
Q 47.609375 24.75 44.3125 27.78125 
Q 41.015625 30.8125 33.5 32.328125 
L 27.484375 33.5 
Q 16.453125 35.6875 11.515625 40.375 
Q 6.59375 45.0625 6.59375 53.421875 
Q 6.59375 63.09375 13.40625 68.65625 
Q 20.21875 74.21875 32.171875 74.21875 
Q 37.3125 74.21875 42.625 73.28125 
Q 47.953125 72.359375 53.515625 70.515625 
z
" id="DejaVuSans-53"/>
      <path d="M 59.515625 10.40625 
L 59.515625 29.984375 
L 43.40625 29.984375 
L 43.40625 38.09375 
L 69.28125 38.09375 
L 69.28125 6.78125 
Q 63.578125 2.734375 56.6875 0.65625 
Q 49.8125 -1.421875 42 -1.421875 
Q 24.90625 -1.421875 15.25 8.5625 
Q 5.609375 18.5625 5.609375 36.375 
Q 5.609375 54.25 15.25 64.234375 
Q 24.90625 74.21875 42 74.21875 
Q 49.125 74.21875 55.546875 72.453125 
Q 61.96875 70.703125 67.390625 67.28125 
L 67.390625 56.78125 
Q 61.921875 61.421875 55.765625 63.765625 
Q 49.609375 66.109375 42.828125 66.109375 
Q 29.4375 66.109375 22.71875 58.640625 
Q 16.015625 51.171875 16.015625 36.375 
Q 16.015625 21.625 22.71875 14.15625 
Q 29.4375 6.6875 42.828125 6.6875 
Q 48.046875 6.6875 52.140625 7.59375 
Q 56.25 8.5 59.515625 10.40625 
z
" id="DejaVuSans-47"/>
      <path d="M 19.671875 64.796875 
L 19.671875 8.109375 
L 31.59375 8.109375 
Q 46.6875 8.109375 53.6875 14.9375 
Q 60.6875 21.78125 60.6875 36.53125 
Q 60.6875 51.171875 53.6875 57.984375 
Q 46.6875 64.796875 31.59375 64.796875 
z
M 9.8125 72.90625 
L 30.078125 72.90625 
Q 51.265625 72.90625 61.171875 64.09375 
Q 71.09375 55.28125 71.09375 36.53125 
Q 71.09375 17.671875 61.125 8.828125 
Q 51.171875 0 30.078125 0 
L 9.8125 0 
z
" id="DejaVuSans-44"/>
     </defs>
     <g transform="translate(345.568438 184.626438)scale(0.1 -0.1)">
      <use xlink:href="#DejaVuSans-53"/>
      <use x="63.476562" xlink:href="#DejaVuSans-47"/>
      <use x="140.966797" xlink:href="#DejaVuSans-44"/>
      <use x="217.96875" xlink:href="#DejaVuSans-20"/>
      <use x="249.755859" xlink:href="#DejaVuSans-2e"/>
      <use x="281.542969" xlink:href="#DejaVuSans-30"/>
      <use x="345.166016" xlink:href="#DejaVuSans-31"/>
     </g>
    </g>
    <g id="line2d_30">
     <path d="M 317.568438 195.804563 
L 337.568438 195.804563 
" style="fill:none;stroke:#9467bd;stroke-linecap:square;stroke-width:1.5;"/>
    </g>
    <g id="line2d_31"/>
    <g id="text_23">
     <!-- SGD .001 -->
     <g transform="translate(345.568438 199.304563)scale(0.1 -0.1)">
      <use xlink:href="#DejaVuSans-53"/>
      <use x="63.476562" xlink:href="#DejaVuSans-47"/>
      <use x="140.966797" xlink:href="#DejaVuSans-44"/>
      <use x="217.96875" xlink:href="#DejaVuSans-20"/>
      <use x="249.755859" xlink:href="#DejaVuSans-2e"/>
      <use x="281.542969" xlink:href="#DejaVuSans-30"/>
      <use x="345.166016" xlink:href="#DejaVuSans-30"/>
      <use x="408.789062" xlink:href="#DejaVuSans-31"/>
     </g>
    </g>
    <g id="line2d_32">
     <path d="M 317.568438 210.482687 
L 337.568438 210.482687 
" style="fill:none;stroke:#8c564b;stroke-linecap:square;stroke-width:1.5;"/>
    </g>
    <g id="line2d_33"/>
    <g id="text_24">
     <!-- SGD .0001 -->
     <g transform="translate(345.568438 213.982687)scale(0.1 -0.1)">
      <use xlink:href="#DejaVuSans-53"/>
      <use x="63.476562" xlink:href="#DejaVuSans-47"/>
      <use x="140.966797" xlink:href="#DejaVuSans-44"/>
      <use x="217.96875" xlink:href="#DejaVuSans-20"/>
      <use x="249.755859" xlink:href="#DejaVuSans-2e"/>
      <use x="281.542969" xlink:href="#DejaVuSans-30"/>
      <use x="345.166016" xlink:href="#DejaVuSans-30"/>
      <use x="408.789062" xlink:href="#DejaVuSans-30"/>
      <use x="472.412109" xlink:href="#DejaVuSans-31"/>
     </g>
    </g>
   </g>
  </g>
 </g>
 <defs>
  <clipPath id="p97fa368fb6">
   <rect height="266.112" width="357.12" x="57.6" y="41.472"/>
  </clipPath>
 </defs>
</svg>
