<?xml version="1.0" encoding="utf-8" standalone="no"?>
<!DOCTYPE svg PUBLIC "-//W3C//DTD SVG 1.1//EN"
  "http://www.w3.org/Graphics/SVG/1.1/DTD/svg11.dtd">
<!-- Created with matplotlib (http://matplotlib.org/) -->
<svg height="345pt" version="1.1" viewBox="0 0 460 345" width="460pt" xmlns="http://www.w3.org/2000/svg" xmlns:xlink="http://www.w3.org/1999/xlink">
 <defs>
  <style type="text/css">
*{stroke-linecap:butt;stroke-linejoin:round;}
  </style>
 </defs>
 <g id="figure_1">
  <g id="patch_1">
   <path d="M 0 345.6 
L 460.8 345.6 
L 460.8 0 
L 0 0 
z
" style="fill:#ffffff;"/>
  </g>
  <g id="axes_1">
   <g id="patch_2">
    <path d="M 57.6 307.584 
L 414.72 307.584 
L 414.72 41.472 
L 57.6 41.472 
z
" style="fill:#ffffff;"/>
   </g>
   <g id="matplotlib.axis_1">
    <g id="xtick_1">
     <g id="line2d_1">
      <defs>
       <path d="M 0 0 
L 0 3.5 
" id="m4b0c752519" style="stroke:#000000;stroke-width:0.8;"/>
      </defs>
      <g>
       <use style="stroke:#000000;stroke-width:0.8;" x="73.832727" xlink:href="#m4b0c752519" y="307.584"/>
      </g>
     </g>
     <g id="text_1">
      <!-- 0 -->
      <defs>
       <path d="M 31.78125 66.40625 
Q 24.171875 66.40625 20.328125 58.90625 
Q 16.5 51.421875 16.5 36.375 
Q 16.5 21.390625 20.328125 13.890625 
Q 24.171875 6.390625 31.78125 6.390625 
Q 39.453125 6.390625 43.28125 13.890625 
Q 47.125 21.390625 47.125 36.375 
Q 47.125 51.421875 43.28125 58.90625 
Q 39.453125 66.40625 31.78125 66.40625 
z
M 31.78125 74.21875 
Q 44.046875 74.21875 50.515625 64.515625 
Q 56.984375 54.828125 56.984375 36.375 
Q 56.984375 17.96875 50.515625 8.265625 
Q 44.046875 -1.421875 31.78125 -1.421875 
Q 19.53125 -1.421875 13.0625 8.265625 
Q 6.59375 17.96875 6.59375 36.375 
Q 6.59375 54.828125 13.0625 64.515625 
Q 19.53125 74.21875 31.78125 74.21875 
z
" id="DejaVuSans-30"/>
      </defs>
      <g transform="translate(70.651477 322.182437)scale(0.1 -0.1)">
       <use xlink:href="#DejaVuSans-30"/>
      </g>
     </g>
    </g>
    <g id="xtick_2">
     <g id="line2d_2">
      <g>
       <use style="stroke:#000000;stroke-width:0.8;" x="139.419504" xlink:href="#m4b0c752519" y="307.584"/>
      </g>
     </g>
     <g id="text_2">
      <!-- 20 -->
      <defs>
       <path d="M 19.1875 8.296875 
L 53.609375 8.296875 
L 53.609375 0 
L 7.328125 0 
L 7.328125 8.296875 
Q 12.9375 14.109375 22.625 23.890625 
Q 32.328125 33.6875 34.8125 36.53125 
Q 39.546875 41.84375 41.421875 45.53125 
Q 43.3125 49.21875 43.3125 52.78125 
Q 43.3125 58.59375 39.234375 62.25 
Q 35.15625 65.921875 28.609375 65.921875 
Q 23.96875 65.921875 18.8125 64.3125 
Q 13.671875 62.703125 7.8125 59.421875 
L 7.8125 69.390625 
Q 13.765625 71.78125 18.9375 73 
Q 24.125 74.21875 28.421875 74.21875 
Q 39.75 74.21875 46.484375 68.546875 
Q 53.21875 62.890625 53.21875 53.421875 
Q 53.21875 48.921875 51.53125 44.890625 
Q 49.859375 40.875 45.40625 35.40625 
Q 44.1875 33.984375 37.640625 27.21875 
Q 31.109375 20.453125 19.1875 8.296875 
z
" id="DejaVuSans-32"/>
      </defs>
      <g transform="translate(133.057004 322.182437)scale(0.1 -0.1)">
       <use xlink:href="#DejaVuSans-32"/>
       <use x="63.623047" xlink:href="#DejaVuSans-30"/>
      </g>
     </g>
    </g>
    <g id="xtick_3">
     <g id="line2d_3">
      <g>
       <use style="stroke:#000000;stroke-width:0.8;" x="205.006281" xlink:href="#m4b0c752519" y="307.584"/>
      </g>
     </g>
     <g id="text_3">
      <!-- 40 -->
      <defs>
       <path d="M 37.796875 64.3125 
L 12.890625 25.390625 
L 37.796875 25.390625 
z
M 35.203125 72.90625 
L 47.609375 72.90625 
L 47.609375 25.390625 
L 58.015625 25.390625 
L 58.015625 17.1875 
L 47.609375 17.1875 
L 47.609375 0 
L 37.796875 0 
L 37.796875 17.1875 
L 4.890625 17.1875 
L 4.890625 26.703125 
z
" id="DejaVuSans-34"/>
      </defs>
      <g transform="translate(198.643781 322.182437)scale(0.1 -0.1)">
       <use xlink:href="#DejaVuSans-34"/>
       <use x="63.623047" xlink:href="#DejaVuSans-30"/>
      </g>
     </g>
    </g>
    <g id="xtick_4">
     <g id="line2d_4">
      <g>
       <use style="stroke:#000000;stroke-width:0.8;" x="270.593058" xlink:href="#m4b0c752519" y="307.584"/>
      </g>
     </g>
     <g id="text_4">
      <!-- 60 -->
      <defs>
       <path d="M 33.015625 40.375 
Q 26.375 40.375 22.484375 35.828125 
Q 18.609375 31.296875 18.609375 23.390625 
Q 18.609375 15.53125 22.484375 10.953125 
Q 26.375 6.390625 33.015625 6.390625 
Q 39.65625 6.390625 43.53125 10.953125 
Q 47.40625 15.53125 47.40625 23.390625 
Q 47.40625 31.296875 43.53125 35.828125 
Q 39.65625 40.375 33.015625 40.375 
z
M 52.59375 71.296875 
L 52.59375 62.3125 
Q 48.875 64.0625 45.09375 64.984375 
Q 41.3125 65.921875 37.59375 65.921875 
Q 27.828125 65.921875 22.671875 59.328125 
Q 17.53125 52.734375 16.796875 39.40625 
Q 19.671875 43.65625 24.015625 45.921875 
Q 28.375 48.1875 33.59375 48.1875 
Q 44.578125 48.1875 50.953125 41.515625 
Q 57.328125 34.859375 57.328125 23.390625 
Q 57.328125 12.15625 50.6875 5.359375 
Q 44.046875 -1.421875 33.015625 -1.421875 
Q 20.359375 -1.421875 13.671875 8.265625 
Q 6.984375 17.96875 6.984375 36.375 
Q 6.984375 53.65625 15.1875 63.9375 
Q 23.390625 74.21875 37.203125 74.21875 
Q 40.921875 74.21875 44.703125 73.484375 
Q 48.484375 72.75 52.59375 71.296875 
z
" id="DejaVuSans-36"/>
      </defs>
      <g transform="translate(264.230558 322.182437)scale(0.1 -0.1)">
       <use xlink:href="#DejaVuSans-36"/>
       <use x="63.623047" xlink:href="#DejaVuSans-30"/>
      </g>
     </g>
    </g>
    <g id="xtick_5">
     <g id="line2d_5">
      <g>
       <use style="stroke:#000000;stroke-width:0.8;" x="336.179835" xlink:href="#m4b0c752519" y="307.584"/>
      </g>
     </g>
     <g id="text_5">
      <!-- 80 -->
      <defs>
       <path d="M 31.78125 34.625 
Q 24.75 34.625 20.71875 30.859375 
Q 16.703125 27.09375 16.703125 20.515625 
Q 16.703125 13.921875 20.71875 10.15625 
Q 24.75 6.390625 31.78125 6.390625 
Q 38.8125 6.390625 42.859375 10.171875 
Q 46.921875 13.96875 46.921875 20.515625 
Q 46.921875 27.09375 42.890625 30.859375 
Q 38.875 34.625 31.78125 34.625 
z
M 21.921875 38.8125 
Q 15.578125 40.375 12.03125 44.71875 
Q 8.5 49.078125 8.5 55.328125 
Q 8.5 64.0625 14.71875 69.140625 
Q 20.953125 74.21875 31.78125 74.21875 
Q 42.671875 74.21875 48.875 69.140625 
Q 55.078125 64.0625 55.078125 55.328125 
Q 55.078125 49.078125 51.53125 44.71875 
Q 48 40.375 41.703125 38.8125 
Q 48.828125 37.15625 52.796875 32.3125 
Q 56.78125 27.484375 56.78125 20.515625 
Q 56.78125 9.90625 50.3125 4.234375 
Q 43.84375 -1.421875 31.78125 -1.421875 
Q 19.734375 -1.421875 13.25 4.234375 
Q 6.78125 9.90625 6.78125 20.515625 
Q 6.78125 27.484375 10.78125 32.3125 
Q 14.796875 37.15625 21.921875 38.8125 
z
M 18.3125 54.390625 
Q 18.3125 48.734375 21.84375 45.5625 
Q 25.390625 42.390625 31.78125 42.390625 
Q 38.140625 42.390625 41.71875 45.5625 
Q 45.3125 48.734375 45.3125 54.390625 
Q 45.3125 60.0625 41.71875 63.234375 
Q 38.140625 66.40625 31.78125 66.40625 
Q 25.390625 66.40625 21.84375 63.234375 
Q 18.3125 60.0625 18.3125 54.390625 
z
" id="DejaVuSans-38"/>
      </defs>
      <g transform="translate(329.817335 322.182437)scale(0.1 -0.1)">
       <use xlink:href="#DejaVuSans-38"/>
       <use x="63.623047" xlink:href="#DejaVuSans-30"/>
      </g>
     </g>
    </g>
    <g id="xtick_6">
     <g id="line2d_6">
      <g>
       <use style="stroke:#000000;stroke-width:0.8;" x="401.766612" xlink:href="#m4b0c752519" y="307.584"/>
      </g>
     </g>
     <g id="text_6">
      <!-- 100 -->
      <defs>
       <path d="M 12.40625 8.296875 
L 28.515625 8.296875 
L 28.515625 63.921875 
L 10.984375 60.40625 
L 10.984375 69.390625 
L 28.421875 72.90625 
L 38.28125 72.90625 
L 38.28125 8.296875 
L 54.390625 8.296875 
L 54.390625 0 
L 12.40625 0 
z
" id="DejaVuSans-31"/>
      </defs>
      <g transform="translate(392.222862 322.182437)scale(0.1 -0.1)">
       <use xlink:href="#DejaVuSans-31"/>
       <use x="63.623047" xlink:href="#DejaVuSans-30"/>
       <use x="127.246094" xlink:href="#DejaVuSans-30"/>
      </g>
     </g>
    </g>
    <g id="text_7">
     <!-- epoch -->
     <defs>
      <path d="M 56.203125 29.59375 
L 56.203125 25.203125 
L 14.890625 25.203125 
Q 15.484375 15.921875 20.484375 11.0625 
Q 25.484375 6.203125 34.421875 6.203125 
Q 39.59375 6.203125 44.453125 7.46875 
Q 49.3125 8.734375 54.109375 11.28125 
L 54.109375 2.78125 
Q 49.265625 0.734375 44.1875 -0.34375 
Q 39.109375 -1.421875 33.890625 -1.421875 
Q 20.796875 -1.421875 13.15625 6.1875 
Q 5.515625 13.8125 5.515625 26.8125 
Q 5.515625 40.234375 12.765625 48.109375 
Q 20.015625 56 32.328125 56 
Q 43.359375 56 49.78125 48.890625 
Q 56.203125 41.796875 56.203125 29.59375 
z
M 47.21875 32.234375 
Q 47.125 39.59375 43.09375 43.984375 
Q 39.0625 48.390625 32.421875 48.390625 
Q 24.90625 48.390625 20.390625 44.140625 
Q 15.875 39.890625 15.1875 32.171875 
z
" id="DejaVuSans-65"/>
      <path d="M 18.109375 8.203125 
L 18.109375 -20.796875 
L 9.078125 -20.796875 
L 9.078125 54.6875 
L 18.109375 54.6875 
L 18.109375 46.390625 
Q 20.953125 51.265625 25.265625 53.625 
Q 29.59375 56 35.59375 56 
Q 45.5625 56 51.78125 48.09375 
Q 58.015625 40.1875 58.015625 27.296875 
Q 58.015625 14.40625 51.78125 6.484375 
Q 45.5625 -1.421875 35.59375 -1.421875 
Q 29.59375 -1.421875 25.265625 0.953125 
Q 20.953125 3.328125 18.109375 8.203125 
z
M 48.6875 27.296875 
Q 48.6875 37.203125 44.609375 42.84375 
Q 40.53125 48.484375 33.40625 48.484375 
Q 26.265625 48.484375 22.1875 42.84375 
Q 18.109375 37.203125 18.109375 27.296875 
Q 18.109375 17.390625 22.1875 11.75 
Q 26.265625 6.109375 33.40625 6.109375 
Q 40.53125 6.109375 44.609375 11.75 
Q 48.6875 17.390625 48.6875 27.296875 
z
" id="DejaVuSans-70"/>
      <path d="M 30.609375 48.390625 
Q 23.390625 48.390625 19.1875 42.75 
Q 14.984375 37.109375 14.984375 27.296875 
Q 14.984375 17.484375 19.15625 11.84375 
Q 23.34375 6.203125 30.609375 6.203125 
Q 37.796875 6.203125 41.984375 11.859375 
Q 46.1875 17.53125 46.1875 27.296875 
Q 46.1875 37.015625 41.984375 42.703125 
Q 37.796875 48.390625 30.609375 48.390625 
z
M 30.609375 56 
Q 42.328125 56 49.015625 48.375 
Q 55.71875 40.765625 55.71875 27.296875 
Q 55.71875 13.875 49.015625 6.21875 
Q 42.328125 -1.421875 30.609375 -1.421875 
Q 18.84375 -1.421875 12.171875 6.21875 
Q 5.515625 13.875 5.515625 27.296875 
Q 5.515625 40.765625 12.171875 48.375 
Q 18.84375 56 30.609375 56 
z
" id="DejaVuSans-6f"/>
      <path d="M 48.78125 52.59375 
L 48.78125 44.1875 
Q 44.96875 46.296875 41.140625 47.34375 
Q 37.3125 48.390625 33.40625 48.390625 
Q 24.65625 48.390625 19.8125 42.84375 
Q 14.984375 37.3125 14.984375 27.296875 
Q 14.984375 17.28125 19.8125 11.734375 
Q 24.65625 6.203125 33.40625 6.203125 
Q 37.3125 6.203125 41.140625 7.25 
Q 44.96875 8.296875 48.78125 10.40625 
L 48.78125 2.09375 
Q 45.015625 0.34375 40.984375 -0.53125 
Q 36.96875 -1.421875 32.421875 -1.421875 
Q 20.0625 -1.421875 12.78125 6.34375 
Q 5.515625 14.109375 5.515625 27.296875 
Q 5.515625 40.671875 12.859375 48.328125 
Q 20.21875 56 33.015625 56 
Q 37.15625 56 41.109375 55.140625 
Q 45.0625 54.296875 48.78125 52.59375 
z
" id="DejaVuSans-63"/>
      <path d="M 54.890625 33.015625 
L 54.890625 0 
L 45.90625 0 
L 45.90625 32.71875 
Q 45.90625 40.484375 42.875 44.328125 
Q 39.84375 48.1875 33.796875 48.1875 
Q 26.515625 48.1875 22.3125 43.546875 
Q 18.109375 38.921875 18.109375 30.90625 
L 18.109375 0 
L 9.078125 0 
L 9.078125 75.984375 
L 18.109375 75.984375 
L 18.109375 46.1875 
Q 21.34375 51.125 25.703125 53.5625 
Q 30.078125 56 35.796875 56 
Q 45.21875 56 50.046875 50.171875 
Q 54.890625 44.34375 54.890625 33.015625 
z
" id="DejaVuSans-68"/>
     </defs>
     <g transform="translate(220.931875 335.860562)scale(0.1 -0.1)">
      <use xlink:href="#DejaVuSans-65"/>
      <use x="61.523438" xlink:href="#DejaVuSans-70"/>
      <use x="125" xlink:href="#DejaVuSans-6f"/>
      <use x="186.181641" xlink:href="#DejaVuSans-63"/>
      <use x="241.162109" xlink:href="#DejaVuSans-68"/>
     </g>
    </g>
   </g>
   <g id="matplotlib.axis_2">
    <g id="ytick_1">
     <g id="line2d_7">
      <defs>
       <path d="M 0 0 
L -3.5 0 
" id="mee150f4559" style="stroke:#000000;stroke-width:0.8;"/>
      </defs>
      <g>
       <use style="stroke:#000000;stroke-width:0.8;" x="57.6" xlink:href="#mee150f4559" y="295.73183"/>
      </g>
     </g>
     <g id="text_8">
      <!-- 10 -->
      <g transform="translate(37.875 299.531049)scale(0.1 -0.1)">
       <use xlink:href="#DejaVuSans-31"/>
       <use x="63.623047" xlink:href="#DejaVuSans-30"/>
      </g>
     </g>
    </g>
    <g id="ytick_2">
     <g id="line2d_8">
      <g>
       <use style="stroke:#000000;stroke-width:0.8;" x="57.6" xlink:href="#mee150f4559" y="255.093496"/>
      </g>
     </g>
     <g id="text_9">
      <!-- 20 -->
      <g transform="translate(37.875 258.892715)scale(0.1 -0.1)">
       <use xlink:href="#DejaVuSans-32"/>
       <use x="63.623047" xlink:href="#DejaVuSans-30"/>
      </g>
     </g>
    </g>
    <g id="ytick_3">
     <g id="line2d_9">
      <g>
       <use style="stroke:#000000;stroke-width:0.8;" x="57.6" xlink:href="#mee150f4559" y="214.455163"/>
      </g>
     </g>
     <g id="text_10">
      <!-- 30 -->
      <defs>
       <path d="M 40.578125 39.3125 
Q 47.65625 37.796875 51.625 33 
Q 55.609375 28.21875 55.609375 21.1875 
Q 55.609375 10.40625 48.1875 4.484375 
Q 40.765625 -1.421875 27.09375 -1.421875 
Q 22.515625 -1.421875 17.65625 -0.515625 
Q 12.796875 0.390625 7.625 2.203125 
L 7.625 11.71875 
Q 11.71875 9.328125 16.59375 8.109375 
Q 21.484375 6.890625 26.8125 6.890625 
Q 36.078125 6.890625 40.9375 10.546875 
Q 45.796875 14.203125 45.796875 21.1875 
Q 45.796875 27.640625 41.28125 31.265625 
Q 36.765625 34.90625 28.71875 34.90625 
L 20.21875 34.90625 
L 20.21875 43.015625 
L 29.109375 43.015625 
Q 36.375 43.015625 40.234375 45.921875 
Q 44.09375 48.828125 44.09375 54.296875 
Q 44.09375 59.90625 40.109375 62.90625 
Q 36.140625 65.921875 28.71875 65.921875 
Q 24.65625 65.921875 20.015625 65.03125 
Q 15.375 64.15625 9.8125 62.3125 
L 9.8125 71.09375 
Q 15.4375 72.65625 20.34375 73.4375 
Q 25.25 74.21875 29.59375 74.21875 
Q 40.828125 74.21875 47.359375 69.109375 
Q 53.90625 64.015625 53.90625 55.328125 
Q 53.90625 49.265625 50.4375 45.09375 
Q 46.96875 40.921875 40.578125 39.3125 
z
" id="DejaVuSans-33"/>
      </defs>
      <g transform="translate(37.875 218.254382)scale(0.1 -0.1)">
       <use xlink:href="#DejaVuSans-33"/>
       <use x="63.623047" xlink:href="#DejaVuSans-30"/>
      </g>
     </g>
    </g>
    <g id="ytick_4">
     <g id="line2d_10">
      <g>
       <use style="stroke:#000000;stroke-width:0.8;" x="57.6" xlink:href="#mee150f4559" y="173.816829"/>
      </g>
     </g>
     <g id="text_11">
      <!-- 40 -->
      <g transform="translate(37.875 177.616048)scale(0.1 -0.1)">
       <use xlink:href="#DejaVuSans-34"/>
       <use x="63.623047" xlink:href="#DejaVuSans-30"/>
      </g>
     </g>
    </g>
    <g id="ytick_5">
     <g id="line2d_11">
      <g>
       <use style="stroke:#000000;stroke-width:0.8;" x="57.6" xlink:href="#mee150f4559" y="133.178496"/>
      </g>
     </g>
     <g id="text_12">
      <!-- 50 -->
      <defs>
       <path d="M 10.796875 72.90625 
L 49.515625 72.90625 
L 49.515625 64.59375 
L 19.828125 64.59375 
L 19.828125 46.734375 
Q 21.96875 47.46875 24.109375 47.828125 
Q 26.265625 48.1875 28.421875 48.1875 
Q 40.625 48.1875 47.75 41.5 
Q 54.890625 34.8125 54.890625 23.390625 
Q 54.890625 11.625 47.5625 5.09375 
Q 40.234375 -1.421875 26.90625 -1.421875 
Q 22.3125 -1.421875 17.546875 -0.640625 
Q 12.796875 0.140625 7.71875 1.703125 
L 7.71875 11.625 
Q 12.109375 9.234375 16.796875 8.0625 
Q 21.484375 6.890625 26.703125 6.890625 
Q 35.15625 6.890625 40.078125 11.328125 
Q 45.015625 15.765625 45.015625 23.390625 
Q 45.015625 31 40.078125 35.4375 
Q 35.15625 39.890625 26.703125 39.890625 
Q 22.75 39.890625 18.8125 39.015625 
Q 14.890625 38.140625 10.796875 36.28125 
z
" id="DejaVuSans-35"/>
      </defs>
      <g transform="translate(37.875 136.977714)scale(0.1 -0.1)">
       <use xlink:href="#DejaVuSans-35"/>
       <use x="63.623047" xlink:href="#DejaVuSans-30"/>
      </g>
     </g>
    </g>
    <g id="ytick_6">
     <g id="line2d_12">
      <g>
       <use style="stroke:#000000;stroke-width:0.8;" x="57.6" xlink:href="#mee150f4559" y="92.540162"/>
      </g>
     </g>
     <g id="text_13">
      <!-- 60 -->
      <g transform="translate(37.875 96.339381)scale(0.1 -0.1)">
       <use xlink:href="#DejaVuSans-36"/>
       <use x="63.623047" xlink:href="#DejaVuSans-30"/>
      </g>
     </g>
    </g>
    <g id="ytick_7">
     <g id="line2d_13">
      <g>
       <use style="stroke:#000000;stroke-width:0.8;" x="57.6" xlink:href="#mee150f4559" y="51.901828"/>
      </g>
     </g>
     <g id="text_14">
      <!-- 70 -->
      <defs>
       <path d="M 8.203125 72.90625 
L 55.078125 72.90625 
L 55.078125 68.703125 
L 28.609375 0 
L 18.3125 0 
L 43.21875 64.59375 
L 8.203125 64.59375 
z
" id="DejaVuSans-37"/>
      </defs>
      <g transform="translate(37.875 55.701047)scale(0.1 -0.1)">
       <use xlink:href="#DejaVuSans-37"/>
       <use x="63.623047" xlink:href="#DejaVuSans-30"/>
      </g>
     </g>
    </g>
    <g id="text_15">
     <!-- accuracy -->
     <defs>
      <path d="M 34.28125 27.484375 
Q 23.390625 27.484375 19.1875 25 
Q 14.984375 22.515625 14.984375 16.5 
Q 14.984375 11.71875 18.140625 8.90625 
Q 21.296875 6.109375 26.703125 6.109375 
Q 34.1875 6.109375 38.703125 11.40625 
Q 43.21875 16.703125 43.21875 25.484375 
L 43.21875 27.484375 
z
M 52.203125 31.203125 
L 52.203125 0 
L 43.21875 0 
L 43.21875 8.296875 
Q 40.140625 3.328125 35.546875 0.953125 
Q 30.953125 -1.421875 24.3125 -1.421875 
Q 15.921875 -1.421875 10.953125 3.296875 
Q 6 8.015625 6 15.921875 
Q 6 25.140625 12.171875 29.828125 
Q 18.359375 34.515625 30.609375 34.515625 
L 43.21875 34.515625 
L 43.21875 35.40625 
Q 43.21875 41.609375 39.140625 45 
Q 35.0625 48.390625 27.6875 48.390625 
Q 23 48.390625 18.546875 47.265625 
Q 14.109375 46.140625 10.015625 43.890625 
L 10.015625 52.203125 
Q 14.9375 54.109375 19.578125 55.046875 
Q 24.21875 56 28.609375 56 
Q 40.484375 56 46.34375 49.84375 
Q 52.203125 43.703125 52.203125 31.203125 
z
" id="DejaVuSans-61"/>
      <path d="M 8.5 21.578125 
L 8.5 54.6875 
L 17.484375 54.6875 
L 17.484375 21.921875 
Q 17.484375 14.15625 20.5 10.265625 
Q 23.53125 6.390625 29.59375 6.390625 
Q 36.859375 6.390625 41.078125 11.03125 
Q 45.3125 15.671875 45.3125 23.6875 
L 45.3125 54.6875 
L 54.296875 54.6875 
L 54.296875 0 
L 45.3125 0 
L 45.3125 8.40625 
Q 42.046875 3.421875 37.71875 1 
Q 33.40625 -1.421875 27.6875 -1.421875 
Q 18.265625 -1.421875 13.375 4.4375 
Q 8.5 10.296875 8.5 21.578125 
z
M 31.109375 56 
z
" id="DejaVuSans-75"/>
      <path d="M 41.109375 46.296875 
Q 39.59375 47.171875 37.8125 47.578125 
Q 36.03125 48 33.890625 48 
Q 26.265625 48 22.1875 43.046875 
Q 18.109375 38.09375 18.109375 28.8125 
L 18.109375 0 
L 9.078125 0 
L 9.078125 54.6875 
L 18.109375 54.6875 
L 18.109375 46.1875 
Q 20.953125 51.171875 25.484375 53.578125 
Q 30.03125 56 36.53125 56 
Q 37.453125 56 38.578125 55.875 
Q 39.703125 55.765625 41.0625 55.515625 
z
" id="DejaVuSans-72"/>
      <path d="M 32.171875 -5.078125 
Q 28.375 -14.84375 24.75 -17.8125 
Q 21.140625 -20.796875 15.09375 -20.796875 
L 7.90625 -20.796875 
L 7.90625 -13.28125 
L 13.1875 -13.28125 
Q 16.890625 -13.28125 18.9375 -11.515625 
Q 21 -9.765625 23.484375 -3.21875 
L 25.09375 0.875 
L 2.984375 54.6875 
L 12.5 54.6875 
L 29.59375 11.921875 
L 46.6875 54.6875 
L 56.203125 54.6875 
z
" id="DejaVuSans-79"/>
     </defs>
     <g transform="translate(31.795312 197.087375)rotate(-90)scale(0.1 -0.1)">
      <use xlink:href="#DejaVuSans-61"/>
      <use x="61.279297" xlink:href="#DejaVuSans-63"/>
      <use x="116.259766" xlink:href="#DejaVuSans-63"/>
      <use x="171.240234" xlink:href="#DejaVuSans-75"/>
      <use x="234.619141" xlink:href="#DejaVuSans-72"/>
      <use x="275.732422" xlink:href="#DejaVuSans-61"/>
      <use x="337.011719" xlink:href="#DejaVuSans-63"/>
      <use x="391.992188" xlink:href="#DejaVuSans-79"/>
     </g>
    </g>
   </g>
   <g id="line2d_14">
    <path clip-path="url(#p3232b42692)" d="M 73.832727 166.176822 
L 77.112066 150.043404 
L 80.391405 141.875099 
L 83.670744 143.134887 
L 86.950083 132.162537 
L 90.229421 138.136372 
L 93.50876 128.342534 
L 96.788099 129.521046 
L 100.067438 125.457212 
L 103.346777 124.928914 
L 106.626116 122.81572 
L 109.905455 117.857844 
L 113.184793 123.831679 
L 116.464132 123.587849 
L 119.743471 120.743165 
L 123.02281 123.54721 
L 126.302149 121.393379 
L 129.581488 124.359977 
L 132.860826 121.677847 
L 136.140165 119.361462 
L 139.419504 120.539974 
L 142.698843 113.915925 
L 145.978182 119.524015 
L 149.257521 120.62125 
L 152.53686 123.262742 
L 155.816198 118.548695 
L 159.095537 118.020397 
L 162.374876 120.458697 
L 165.654215 117.492099 
L 168.933554 118.91444 
L 172.212893 124.847637 
L 175.492231 117.979759 
L 178.77157 117.532737 
L 182.050909 120.37742 
L 185.330248 113.265712 
L 188.609587 119.320824 
L 191.888926 121.027634 
L 195.168264 114.566139 
L 198.447603 111.924647 
L 201.726942 114.76933 
L 205.006281 113.997202 
L 208.28562 113.55018 
L 211.564959 113.30635 
L 214.844298 116.313587 
L 218.123636 111.721455 
L 221.402975 118.995717 
L 224.682314 115.25699 
L 227.961653 121.718485 
L 231.240992 118.508057 
L 234.520331 124.563169 
L 237.799669 117.654652 
L 241.079008 118.264227 
L 244.358347 115.74465 
L 247.637686 113.590819 
L 250.917025 114.606777 
L 254.196364 111.680817 
L 257.475702 122.124869 
L 260.755041 116.151034 
L 264.03438 111.762094 
L 267.313719 114.403585 
L 270.593058 111.680817 
L 273.872397 112.981244 
L 277.151736 115.297629 
L 280.431074 114.03784 
L 283.710413 116.110395 
L 286.989752 111.315072 
L 290.269091 113.753372 
L 293.54843 113.672095 
L 296.827769 112.778052 
L 300.107107 111.436987 
L 303.386446 107.69826 
L 306.665785 111.558902 
L 309.945124 115.338267 
L 313.224463 106.885494 
L 316.503802 110.786774 
L 319.78314 113.143797 
L 323.062479 111.396349 
L 326.341818 106.438472 
L 329.621157 107.535707 
L 332.900496 113.834649 
L 336.179835 112.940605 
L 339.459174 116.923162 
L 342.738512 120.499335 
L 346.017851 111.965285 
L 349.29719 110.095922 
L 352.576529 114.850607 
L 355.855868 117.20763 
L 359.135207 114.03784 
L 362.414545 110.502305 
L 365.693884 118.345504 
L 368.973223 114.931884 
L 372.252562 114.119117 
L 375.531901 119.117632 
L 378.81124 115.01316 
L 382.090579 121.312102 
L 385.369917 116.516779 
L 388.649256 116.557417 
L 391.928595 117.370184 
L 395.207934 121.59657 
L 398.487273 123.628487 
" style="fill:none;stroke:#1f77b4;stroke-linecap:square;stroke-width:1.5;"/>
   </g>
   <g id="line2d_15">
    <path clip-path="url(#p3232b42692)" d="M 73.832727 109.445709 
L 77.112066 89.817394 
L 80.391405 82.055472 
L 83.670744 73.56206 
L 86.950083 70.432908 
L 90.229421 66.612905 
L 93.50876 64.987372 
L 96.788099 62.427157 
L 100.067438 63.483753 
L 103.346777 64.174605 
L 106.626116 65.7595 
L 109.905455 68.360353 
L 113.184793 65.678223 
L 116.464132 63.80886 
L 119.743471 63.890137 
L 123.02281 64.05269 
L 126.302149 64.499712 
L 129.581488 66.287798 
L 132.860826 67.547587 
L 136.140165 69.091843 
L 139.419504 69.41695 
L 142.698843 70.310993 
L 145.978182 70.920568 
L 149.257521 70.026525 
L 152.53686 70.189078 
L 155.816198 71.164398 
L 159.095537 71.12376 
L 162.374876 70.961207 
L 165.654215 72.180357 
L 168.933554 72.34291 
L 172.212893 71.977165 
L 175.492231 72.789932 
L 178.77157 73.602698 
L 182.050909 73.480783 
L 185.330248 73.358868 
L 188.609587 73.480783 
L 191.888926 74.578018 
L 195.168264 75.919083 
L 198.447603 75.837807 
L 201.726942 77.21951 
L 205.006281 78.235469 
L 208.28562 79.373342 
L 211.564959 79.617172 
L 214.844298 80.714407 
L 218.123636 82.421217 
L 221.402975 82.177387 
L 224.682314 83.030792 
L 227.961653 82.908877 
L 231.240992 83.274622 
L 234.520331 83.152707 
L 237.799669 84.209304 
L 241.079008 84.615687 
L 244.358347 85.834837 
L 247.637686 85.550369 
L 250.917025 86.038029 
L 254.196364 86.769519 
L 257.475702 85.834837 
L 260.755041 86.200582 
L 264.03438 86.403774 
L 267.313719 84.77824 
L 270.593058 84.981432 
L 273.872397 85.387815 
L 277.151736 84.453134 
L 280.431074 84.209304 
L 283.710413 83.681005 
L 286.989752 83.843559 
L 290.269091 82.908877 
L 293.54843 81.60845 
L 296.827769 82.014834 
L 300.107107 83.07143 
L 303.386446 82.421217 
L 306.665785 82.746324 
L 309.945124 81.689727 
L 313.224463 83.355899 
L 316.503802 82.136749 
L 319.78314 81.974195 
L 323.062479 82.949515 
L 326.341818 82.949515 
L 329.621157 82.8276 
L 332.900496 83.55909 
L 336.179835 82.624409 
L 339.459174 82.705685 
L 342.738512 83.599729 
L 346.017851 83.924835 
L 349.29719 83.843559 
L 352.576529 86.038029 
L 355.855868 85.550369 
L 359.135207 87.338455 
L 362.414545 86.119305 
L 365.693884 85.50973 
L 368.973223 85.99739 
L 372.252562 85.99739 
L 375.531901 85.956752 
L 378.81124 86.444412 
L 382.090579 85.875475 
L 385.369917 86.281859 
L 388.649256 86.769519 
L 391.928595 87.21654 
L 395.207934 86.038029 
L 398.487273 87.013349 
" style="fill:none;stroke:#ff7f0e;stroke-linecap:square;stroke-width:1.5;"/>
   </g>
   <g id="line2d_16">
    <path clip-path="url(#p3232b42692)" d="M 73.832727 178.205769 
L 77.112066 147.401912 
L 80.391405 136.185732 
L 83.670744 127.529767 
L 86.950083 120.661889 
L 90.229421 113.672095 
L 93.50876 109.201879 
L 96.788099 104.081449 
L 100.067438 98.473359 
L 103.346777 93.840589 
L 106.626116 90.792714 
L 109.905455 87.744839 
L 113.184793 84.900155 
L 116.464132 82.014834 
L 119.743471 80.023555 
L 123.02281 78.43866 
L 126.302149 77.178872 
L 129.581488 75.593977 
L 132.860826 74.009082 
L 136.140165 72.708655 
L 139.419504 71.895888 
L 142.698843 70.473547 
L 145.978182 70.107802 
L 149.257521 69.457588 
L 152.53686 68.360353 
L 155.816198 67.994608 
L 159.095537 67.344395 
L 162.374876 66.369075 
L 165.654215 66.125245 
L 168.933554 65.881415 
L 172.212893 65.434393 
L 175.492231 64.743542 
L 178.77157 64.255882 
L 182.050909 63.849498 
L 185.330248 63.402477 
L 188.609587 62.792902 
L 191.888926 62.10205 
L 195.168264 62.020773 
L 198.447603 61.004815 
L 201.726942 61.167368 
L 205.006281 60.313963 
L 208.28562 60.313963 
L 211.564959 59.948218 
L 214.844298 59.826303 
L 218.123636 59.257367 
L 221.402975 59.094813 
L 224.682314 58.647792 
L 227.961653 58.241408 
L 231.240992 58.20077 
L 234.520331 58.038217 
L 237.799669 57.875663 
L 241.079008 57.306727 
L 244.358347 57.388003 
L 247.637686 56.900343 
L 250.917025 56.534598 
L 254.196364 56.575237 
L 257.475702 56.412683 
L 260.755041 56.25013 
L 264.03438 56.0063 
L 267.313719 55.721832 
L 270.593058 55.51864 
L 273.872397 55.315448 
L 277.151736 55.152895 
L 280.431074 54.990342 
L 283.710413 54.827788 
L 286.989752 54.54332 
L 290.269091 54.827788 
L 293.54843 54.583958 
L 296.827769 54.380767 
L 300.107107 54.340128 
L 303.386446 54.340128 
L 306.665785 54.421405 
L 309.945124 54.218213 
L 313.224463 54.340128 
L 316.503802 54.015022 
L 319.78314 54.380767 
L 323.062479 54.218213 
L 326.341818 54.015022 
L 329.621157 54.015022 
L 332.900496 53.893107 
L 336.179835 53.568 
L 339.459174 53.771192 
L 342.738512 54.096298 
L 346.017851 53.81183 
L 349.29719 53.771192 
L 352.576529 53.81183 
L 355.855868 53.730553 
L 359.135207 53.730553 
L 362.414545 53.81183 
L 365.693884 53.771192 
L 368.973223 53.933745 
L 372.252562 54.177575 
L 375.531901 54.258852 
L 378.81124 54.05566 
L 382.090579 54.29949 
L 385.369917 54.015022 
L 388.649256 53.771192 
L 391.928595 53.852468 
L 395.207934 53.893107 
L 398.487273 53.689915 
" style="fill:none;stroke:#2ca02c;stroke-linecap:square;stroke-width:1.5;"/>
   </g>
   <g id="line2d_17">
    <path clip-path="url(#p3232b42692)" d="M 73.832727 218.437719 
L 77.112066 196.736849 
L 80.391405 173.572999 
L 83.670744 156.504899 
L 86.950083 147.117444 
L 90.229421 139.396161 
L 93.50876 134.072539 
L 96.788099 128.748917 
L 100.067438 124.928914 
L 103.346777 119.88976 
L 106.626116 114.403585 
L 109.905455 109.689539 
L 113.184793 105.341237 
L 116.464132 101.439957 
L 119.743471 98.717189 
L 123.02281 94.490802 
L 126.302149 91.239735 
L 129.581488 88.92335 
L 132.860826 87.663562 
L 136.140165 85.02207 
L 139.419504 83.112069 
L 142.698843 82.055472 
L 145.978182 80.104832 
L 149.257521 78.560575 
L 152.53686 76.894403 
L 155.816198 75.065678 
L 159.095537 73.724613 
L 162.374876 72.668017 
L 165.654215 71.286313 
L 168.933554 70.595462 
L 172.212893 69.782695 
L 175.492231 69.579503 
L 178.77157 68.604183 
L 182.050909 68.157162 
L 185.330248 67.344395 
L 188.609587 66.612905 
L 191.888926 65.637585 
L 195.168264 65.353117 
L 198.447603 64.580988 
L 201.726942 64.418435 
L 205.006281 63.686945 
L 208.28562 63.402477 
L 211.564959 63.3212 
L 214.844298 63.199285 
L 218.123636 62.792902 
L 221.402975 62.142688 
L 224.682314 61.817582 
L 227.961653 61.411198 
L 231.240992 60.923538 
L 234.520331 60.476517 
L 237.799669 60.598432 
L 241.079008 60.110772 
L 244.358347 59.298005 
L 247.637686 58.891622 
L 250.917025 58.68843 
L 254.196364 57.916302 
L 257.475702 57.71311 
L 260.755041 57.144173 
L 264.03438 57.347365 
L 267.313719 57.631833 
L 270.593058 57.388003 
L 273.872397 56.656513 
L 277.151736 56.290768 
L 280.431074 55.925023 
L 283.710413 56.209492 
L 286.989752 55.843747 
L 290.269091 56.046938 
L 293.54843 55.884385 
L 296.827769 56.046938 
L 300.107107 56.25013 
L 303.386446 55.965662 
L 306.665785 55.76247 
L 309.945124 55.599917 
L 313.224463 56.046938 
L 316.503802 56.209492 
L 319.78314 56.25013 
L 323.062479 56.168853 
L 326.341818 56.209492 
L 329.621157 56.372045 
L 332.900496 56.209492 
L 336.179835 56.087577 
L 339.459174 55.925023 
L 342.738512 55.76247 
L 346.017851 55.843747 
L 349.29719 56.0063 
L 352.576529 56.0063 
L 355.855868 55.925023 
L 359.135207 55.884385 
L 362.414545 55.721832 
L 365.693884 55.437363 
L 368.973223 55.315448 
L 372.252562 55.315448 
L 375.531901 55.03098 
L 378.81124 54.949703 
L 382.090579 54.909065 
L 385.369917 55.03098 
L 388.649256 55.193533 
L 391.928595 55.315448 
L 395.207934 55.27481 
L 398.487273 55.396725 
" style="fill:none;stroke:#d62728;stroke-linecap:square;stroke-width:1.5;"/>
   </g>
   <g id="line2d_18">
    <path clip-path="url(#p3232b42692)" d="M 73.832727 262.652226 
L 77.112066 248.957108 
L 80.391405 241.60157 
L 83.670744 238.106673 
L 86.950083 232.0922 
L 90.229421 227.865813 
L 93.50876 224.53347 
L 96.788099 221.729424 
L 100.067438 218.844103 
L 103.346777 216.608994 
L 106.626116 213.804949 
L 109.905455 211.691756 
L 113.184793 209.131541 
L 116.464132 207.424731 
L 119.743471 205.270899 
L 123.02281 202.629408 
L 126.302149 199.866001 
L 129.581488 196.980679 
L 132.860826 194.461103 
L 136.140165 192.104079 
L 139.419504 188.040246 
L 142.698843 185.358116 
L 145.978182 183.366838 
L 149.257521 181.375559 
L 152.53686 179.465558 
L 155.816198 176.742789 
L 159.095537 175.117256 
L 162.374876 173.166616 
L 165.654215 170.809592 
L 168.933554 167.964909 
L 172.212893 165.729801 
L 175.492231 164.388736 
L 178.77157 163.210224 
L 182.050909 161.544052 
L 185.330248 159.796604 
L 188.609587 158.536816 
L 191.888926 156.667452 
L 195.168264 155.488941 
L 198.447603 154.472982 
L 201.726942 153.782131 
L 205.006281 152.847449 
L 208.28562 151.587661 
L 211.564959 150.774894 
L 214.844298 149.433829 
L 218.123636 148.661701 
L 221.402975 147.279997 
L 224.682314 145.979571 
L 227.961653 145.044889 
L 231.240992 143.947654 
L 234.520331 143.094249 
L 237.799669 142.444036 
L 241.079008 142.362759 
L 244.358347 141.915737 
L 247.637686 140.859141 
L 250.917025 140.168289 
L 254.196364 139.843182 
L 257.475702 139.274246 
L 260.755041 138.542756 
L 264.03438 137.648712 
L 267.313719 136.632754 
L 270.593058 135.494881 
L 273.872397 135.007221 
L 277.151736 134.357007 
L 280.431074 134.072539 
L 283.710413 132.934666 
L 286.989752 132.568921 
L 290.269091 131.959346 
L 293.54843 131.146579 
L 296.827769 130.415089 
L 300.107107 129.642961 
L 303.386446 129.317854 
L 306.665785 128.748917 
L 309.945124 128.667641 
L 313.224463 128.139342 
L 316.503802 127.651682 
L 319.78314 126.554447 
L 323.062479 126.148064 
L 326.341818 125.74168 
L 329.621157 125.335297 
L 332.900496 124.685084 
L 336.179835 123.872317 
L 339.459174 123.222104 
L 342.738512 122.81572 
L 346.017851 122.32806 
L 349.29719 122.165507 
L 352.576529 121.637209 
L 355.855868 121.10891 
L 359.135207 120.661889 
L 362.414545 119.971037 
L 365.693884 119.036355 
L 368.973223 118.548695 
L 372.252562 117.898482 
L 375.531901 117.166992 
L 378.81124 116.71997 
L 382.090579 115.74465 
L 385.369917 115.582097 
L 388.649256 114.850607 
L 391.928595 114.200394 
L 395.207934 113.79401 
L 398.487273 113.387627 
" style="fill:none;stroke:#9467bd;stroke-linecap:square;stroke-width:1.5;"/>
   </g>
   <g id="line2d_19">
    <path clip-path="url(#p3232b42692)" d="M 73.832727 295.488 
L 77.112066 294.431403 
L 80.391405 293.0497 
L 83.670744 290.936507 
L 86.950083 290.205017 
L 90.229421 288.701398 
L 93.50876 286.669482 
L 96.788099 283.174585 
L 100.067438 278.785645 
L 103.346777 274.193513 
L 106.626116 269.194998 
L 109.905455 264.03393 
L 113.184793 259.604351 
L 116.464132 255.296688 
L 119.743471 250.907748 
L 123.02281 248.347533 
L 126.302149 246.518808 
L 129.581488 244.933913 
L 132.860826 243.592848 
L 136.140165 242.251783 
L 139.419504 240.951356 
L 142.698843 240.057313 
L 145.978182 239.244546 
L 149.257521 238.797525 
L 152.53686 237.94412 
L 155.816198 238.756886 
L 159.095537 238.43178 
L 162.374876 238.025396 
L 165.654215 237.822205 
L 168.933554 238.309865 
L 172.212893 238.066035 
L 175.492231 238.838163 
L 178.77157 238.797525 
L 182.050909 238.878801 
L 185.330248 238.634971 
L 188.609587 238.472418 
L 191.888926 238.106673 
L 195.168264 238.309865 
L 198.447603 238.391141 
L 201.726942 238.18795 
L 205.006281 238.147311 
L 208.28562 238.18795 
L 211.564959 238.309865 
L 214.844298 238.228588 
L 218.123636 237.659651 
L 221.402975 237.415821 
L 224.682314 236.72497 
L 227.961653 236.277948 
L 231.240992 235.912203 
L 234.520331 234.977521 
L 237.799669 234.327308 
L 241.079008 234.124116 
L 244.358347 233.79901 
L 247.637686 233.148796 
L 250.917025 232.620498 
L 254.196364 231.889008 
L 257.475702 231.60454 
L 260.755041 230.791773 
L 264.03438 230.263475 
L 267.313719 229.41007 
L 270.593058 228.800495 
L 273.872397 228.272196 
L 277.151736 227.621983 
L 280.431074 226.687301 
L 283.710413 226.159003 
L 286.989752 225.711981 
L 290.269091 225.26496 
L 293.54843 224.899215 
L 296.827769 224.249001 
L 300.107107 223.639426 
L 303.386446 223.151766 
L 306.665785 222.786021 
L 309.945124 222.338999 
L 313.224463 222.338999 
L 316.503802 222.013893 
L 319.78314 221.119849 
L 323.062479 220.550913 
L 326.341818 220.022614 
L 329.621157 219.778784 
L 332.900496 219.291124 
L 336.179835 218.518996 
L 339.459174 218.031336 
L 342.738512 217.746868 
L 346.017851 217.259208 
L 349.29719 216.934101 
L 352.576529 216.568356 
L 355.855868 215.918143 
L 359.135207 216.121334 
L 362.414545 216.365164 
L 365.693884 216.283888 
L 368.973223 216.202611 
L 372.252562 215.999419 
L 375.531901 215.877504 
L 378.81124 215.714951 
L 382.090579 215.674313 
L 385.369917 215.714951 
L 388.649256 215.308568 
L 391.928595 215.227291 
L 395.207934 214.983461 
L 398.487273 214.739631 
" style="fill:none;stroke:#8c564b;stroke-linecap:square;stroke-width:1.5;"/>
   </g>
   <g id="patch_3">
    <path d="M 57.6 307.584 
L 57.6 41.472 
" style="fill:none;stroke:#000000;stroke-linecap:square;stroke-linejoin:miter;stroke-width:0.8;"/>
   </g>
   <g id="patch_4">
    <path d="M 414.72 307.584 
L 414.72 41.472 
" style="fill:none;stroke:#000000;stroke-linecap:square;stroke-linejoin:miter;stroke-width:0.8;"/>
   </g>
   <g id="patch_5">
    <path d="M 57.6 307.584 
L 414.72 307.584 
" style="fill:none;stroke:#000000;stroke-linecap:square;stroke-linejoin:miter;stroke-width:0.8;"/>
   </g>
   <g id="patch_6">
    <path d="M 57.6 41.472 
L 414.72 41.472 
" style="fill:none;stroke:#000000;stroke-linecap:square;stroke-linejoin:miter;stroke-width:0.8;"/>
   </g>
   <g id="text_16">
    <!-- MAXpool - CIFAR10 - 3-layer-CNN -->
    <defs>
     <path d="M 9.8125 72.90625 
L 24.515625 72.90625 
L 43.109375 23.296875 
L 61.8125 72.90625 
L 76.515625 72.90625 
L 76.515625 0 
L 66.890625 0 
L 66.890625 64.015625 
L 48.09375 14.015625 
L 38.1875 14.015625 
L 19.390625 64.015625 
L 19.390625 0 
L 9.8125 0 
z
" id="DejaVuSans-4d"/>
     <path d="M 34.1875 63.1875 
L 20.796875 26.90625 
L 47.609375 26.90625 
z
M 28.609375 72.90625 
L 39.796875 72.90625 
L 67.578125 0 
L 57.328125 0 
L 50.6875 18.703125 
L 17.828125 18.703125 
L 11.1875 0 
L 0.78125 0 
z
" id="DejaVuSans-41"/>
     <path d="M 6.296875 72.90625 
L 16.890625 72.90625 
L 35.015625 45.796875 
L 53.21875 72.90625 
L 63.8125 72.90625 
L 40.375 37.890625 
L 65.375 0 
L 54.78125 0 
L 34.28125 31 
L 13.625 0 
L 2.984375 0 
L 29 38.921875 
z
" id="DejaVuSans-58"/>
     <path d="M 9.421875 75.984375 
L 18.40625 75.984375 
L 18.40625 0 
L 9.421875 0 
z
" id="DejaVuSans-6c"/>
     <path id="DejaVuSans-20"/>
     <path d="M 4.890625 31.390625 
L 31.203125 31.390625 
L 31.203125 23.390625 
L 4.890625 23.390625 
z
" id="DejaVuSans-2d"/>
     <path d="M 64.40625 67.28125 
L 64.40625 56.890625 
Q 59.421875 61.53125 53.78125 63.8125 
Q 48.140625 66.109375 41.796875 66.109375 
Q 29.296875 66.109375 22.65625 58.46875 
Q 16.015625 50.828125 16.015625 36.375 
Q 16.015625 21.96875 22.65625 14.328125 
Q 29.296875 6.6875 41.796875 6.6875 
Q 48.140625 6.6875 53.78125 8.984375 
Q 59.421875 11.28125 64.40625 15.921875 
L 64.40625 5.609375 
Q 59.234375 2.09375 53.4375 0.328125 
Q 47.65625 -1.421875 41.21875 -1.421875 
Q 24.65625 -1.421875 15.125 8.703125 
Q 5.609375 18.84375 5.609375 36.375 
Q 5.609375 53.953125 15.125 64.078125 
Q 24.65625 74.21875 41.21875 74.21875 
Q 47.75 74.21875 53.53125 72.484375 
Q 59.328125 70.75 64.40625 67.28125 
z
" id="DejaVuSans-43"/>
     <path d="M 9.8125 72.90625 
L 19.671875 72.90625 
L 19.671875 0 
L 9.8125 0 
z
" id="DejaVuSans-49"/>
     <path d="M 9.8125 72.90625 
L 51.703125 72.90625 
L 51.703125 64.59375 
L 19.671875 64.59375 
L 19.671875 43.109375 
L 48.578125 43.109375 
L 48.578125 34.8125 
L 19.671875 34.8125 
L 19.671875 0 
L 9.8125 0 
z
" id="DejaVuSans-46"/>
     <path d="M 44.390625 34.1875 
Q 47.5625 33.109375 50.5625 29.59375 
Q 53.5625 26.078125 56.59375 19.921875 
L 66.609375 0 
L 56 0 
L 46.6875 18.703125 
Q 43.0625 26.03125 39.671875 28.421875 
Q 36.28125 30.8125 30.421875 30.8125 
L 19.671875 30.8125 
L 19.671875 0 
L 9.8125 0 
L 9.8125 72.90625 
L 32.078125 72.90625 
Q 44.578125 72.90625 50.734375 67.671875 
Q 56.890625 62.453125 56.890625 51.90625 
Q 56.890625 45.015625 53.6875 40.46875 
Q 50.484375 35.9375 44.390625 34.1875 
z
M 19.671875 64.796875 
L 19.671875 38.921875 
L 32.078125 38.921875 
Q 39.203125 38.921875 42.84375 42.21875 
Q 46.484375 45.515625 46.484375 51.90625 
Q 46.484375 58.296875 42.84375 61.546875 
Q 39.203125 64.796875 32.078125 64.796875 
z
" id="DejaVuSans-52"/>
     <path d="M 9.8125 72.90625 
L 23.09375 72.90625 
L 55.421875 11.921875 
L 55.421875 72.90625 
L 64.984375 72.90625 
L 64.984375 0 
L 51.703125 0 
L 19.390625 60.984375 
L 19.390625 0 
L 9.8125 0 
z
" id="DejaVuSans-4e"/>
    </defs>
    <g transform="translate(136.320938 35.472)scale(0.12 -0.12)">
     <use xlink:href="#DejaVuSans-4d"/>
     <use x="86.279297" xlink:href="#DejaVuSans-41"/>
     <use x="154.6875" xlink:href="#DejaVuSans-58"/>
     <use x="223.193359" xlink:href="#DejaVuSans-70"/>
     <use x="286.669922" xlink:href="#DejaVuSans-6f"/>
     <use x="347.851562" xlink:href="#DejaVuSans-6f"/>
     <use x="409.033203" xlink:href="#DejaVuSans-6c"/>
     <use x="436.816406" xlink:href="#DejaVuSans-20"/>
     <use x="468.603516" xlink:href="#DejaVuSans-2d"/>
     <use x="504.6875" xlink:href="#DejaVuSans-20"/>
     <use x="536.474609" xlink:href="#DejaVuSans-43"/>
     <use x="606.298828" xlink:href="#DejaVuSans-49"/>
     <use x="635.791016" xlink:href="#DejaVuSans-46"/>
     <use x="693.169922" xlink:href="#DejaVuSans-41"/>
     <use x="761.578125" xlink:href="#DejaVuSans-52"/>
     <use x="831.060547" xlink:href="#DejaVuSans-31"/>
     <use x="894.683594" xlink:href="#DejaVuSans-30"/>
     <use x="958.306641" xlink:href="#DejaVuSans-20"/>
     <use x="990.09375" xlink:href="#DejaVuSans-2d"/>
     <use x="1026.177734" xlink:href="#DejaVuSans-20"/>
     <use x="1057.964844" xlink:href="#DejaVuSans-33"/>
     <use x="1121.587891" xlink:href="#DejaVuSans-2d"/>
     <use x="1157.671875" xlink:href="#DejaVuSans-6c"/>
     <use x="1185.455078" xlink:href="#DejaVuSans-61"/>
     <use x="1246.734375" xlink:href="#DejaVuSans-79"/>
     <use x="1305.914062" xlink:href="#DejaVuSans-65"/>
     <use x="1367.4375" xlink:href="#DejaVuSans-72"/>
     <use x="1408.457031" xlink:href="#DejaVuSans-2d"/>
     <use x="1444.541016" xlink:href="#DejaVuSans-43"/>
     <use x="1514.365234" xlink:href="#DejaVuSans-4e"/>
     <use x="1589.169922" xlink:href="#DejaVuSans-4e"/>
    </g>
   </g>
   <g id="legend_1">
    <g id="patch_7">
     <path d="M 315.568438 220.062375 
L 407.72 220.062375 
Q 409.72 220.062375 409.72 218.062375 
L 409.72 130.993625 
Q 409.72 128.993625 407.72 128.993625 
L 315.568438 128.993625 
Q 313.568438 128.993625 313.568438 130.993625 
L 313.568438 218.062375 
Q 313.568438 220.062375 315.568438 220.062375 
z
" style="fill:#ffffff;opacity:0.8;stroke:#cccccc;stroke-linejoin:miter;"/>
    </g>
    <g id="line2d_20">
     <path d="M 317.568438 137.092062 
L 337.568438 137.092062 
" style="fill:none;stroke:#1f77b4;stroke-linecap:square;stroke-width:1.5;"/>
    </g>
    <g id="line2d_21"/>
    <g id="text_17">
     <!-- adam .01 -->
     <defs>
      <path d="M 45.40625 46.390625 
L 45.40625 75.984375 
L 54.390625 75.984375 
L 54.390625 0 
L 45.40625 0 
L 45.40625 8.203125 
Q 42.578125 3.328125 38.25 0.953125 
Q 33.9375 -1.421875 27.875 -1.421875 
Q 17.96875 -1.421875 11.734375 6.484375 
Q 5.515625 14.40625 5.515625 27.296875 
Q 5.515625 40.1875 11.734375 48.09375 
Q 17.96875 56 27.875 56 
Q 33.9375 56 38.25 53.625 
Q 42.578125 51.265625 45.40625 46.390625 
z
M 14.796875 27.296875 
Q 14.796875 17.390625 18.875 11.75 
Q 22.953125 6.109375 30.078125 6.109375 
Q 37.203125 6.109375 41.296875 11.75 
Q 45.40625 17.390625 45.40625 27.296875 
Q 45.40625 37.203125 41.296875 42.84375 
Q 37.203125 48.484375 30.078125 48.484375 
Q 22.953125 48.484375 18.875 42.84375 
Q 14.796875 37.203125 14.796875 27.296875 
z
" id="DejaVuSans-64"/>
      <path d="M 52 44.1875 
Q 55.375 50.25 60.0625 53.125 
Q 64.75 56 71.09375 56 
Q 79.640625 56 84.28125 50.015625 
Q 88.921875 44.046875 88.921875 33.015625 
L 88.921875 0 
L 79.890625 0 
L 79.890625 32.71875 
Q 79.890625 40.578125 77.09375 44.375 
Q 74.3125 48.1875 68.609375 48.1875 
Q 61.625 48.1875 57.5625 43.546875 
Q 53.515625 38.921875 53.515625 30.90625 
L 53.515625 0 
L 44.484375 0 
L 44.484375 32.71875 
Q 44.484375 40.625 41.703125 44.40625 
Q 38.921875 48.1875 33.109375 48.1875 
Q 26.21875 48.1875 22.15625 43.53125 
Q 18.109375 38.875 18.109375 30.90625 
L 18.109375 0 
L 9.078125 0 
L 9.078125 54.6875 
L 18.109375 54.6875 
L 18.109375 46.1875 
Q 21.1875 51.21875 25.484375 53.609375 
Q 29.78125 56 35.6875 56 
Q 41.65625 56 45.828125 52.96875 
Q 50 49.953125 52 44.1875 
z
" id="DejaVuSans-6d"/>
      <path d="M 10.6875 12.40625 
L 21 12.40625 
L 21 0 
L 10.6875 0 
z
" id="DejaVuSans-2e"/>
     </defs>
     <g transform="translate(345.568438 140.592062)scale(0.1 -0.1)">
      <use xlink:href="#DejaVuSans-61"/>
      <use x="61.279297" xlink:href="#DejaVuSans-64"/>
      <use x="124.755859" xlink:href="#DejaVuSans-61"/>
      <use x="186.035156" xlink:href="#DejaVuSans-6d"/>
      <use x="283.447266" xlink:href="#DejaVuSans-20"/>
      <use x="315.234375" xlink:href="#DejaVuSans-2e"/>
      <use x="347.021484" xlink:href="#DejaVuSans-30"/>
      <use x="410.644531" xlink:href="#DejaVuSans-31"/>
     </g>
    </g>
    <g id="line2d_22">
     <path d="M 317.568438 151.770187 
L 337.568438 151.770187 
" style="fill:none;stroke:#ff7f0e;stroke-linecap:square;stroke-width:1.5;"/>
    </g>
    <g id="line2d_23"/>
    <g id="text_18">
     <!-- adam .001 -->
     <g transform="translate(345.568438 155.270187)scale(0.1 -0.1)">
      <use xlink:href="#DejaVuSans-61"/>
      <use x="61.279297" xlink:href="#DejaVuSans-64"/>
      <use x="124.755859" xlink:href="#DejaVuSans-61"/>
      <use x="186.035156" xlink:href="#DejaVuSans-6d"/>
      <use x="283.447266" xlink:href="#DejaVuSans-20"/>
      <use x="315.234375" xlink:href="#DejaVuSans-2e"/>
      <use x="347.021484" xlink:href="#DejaVuSans-30"/>
      <use x="410.644531" xlink:href="#DejaVuSans-30"/>
      <use x="474.267578" xlink:href="#DejaVuSans-31"/>
     </g>
    </g>
    <g id="line2d_24">
     <path d="M 317.568438 166.448312 
L 337.568438 166.448312 
" style="fill:none;stroke:#2ca02c;stroke-linecap:square;stroke-width:1.5;"/>
    </g>
    <g id="line2d_25"/>
    <g id="text_19">
     <!-- adam .0001 -->
     <g transform="translate(345.568438 169.948312)scale(0.1 -0.1)">
      <use xlink:href="#DejaVuSans-61"/>
      <use x="61.279297" xlink:href="#DejaVuSans-64"/>
      <use x="124.755859" xlink:href="#DejaVuSans-61"/>
      <use x="186.035156" xlink:href="#DejaVuSans-6d"/>
      <use x="283.447266" xlink:href="#DejaVuSans-20"/>
      <use x="315.234375" xlink:href="#DejaVuSans-2e"/>
      <use x="347.021484" xlink:href="#DejaVuSans-30"/>
      <use x="410.644531" xlink:href="#DejaVuSans-30"/>
      <use x="474.267578" xlink:href="#DejaVuSans-30"/>
      <use x="537.890625" xlink:href="#DejaVuSans-31"/>
     </g>
    </g>
    <g id="line2d_26">
     <path d="M 317.568438 181.126438 
L 337.568438 181.126438 
" style="fill:none;stroke:#d62728;stroke-linecap:square;stroke-width:1.5;"/>
    </g>
    <g id="line2d_27"/>
    <g id="text_20">
     <!-- SGD .01 -->
     <defs>
      <path d="M 53.515625 70.515625 
L 53.515625 60.890625 
Q 47.90625 63.578125 42.921875 64.890625 
Q 37.9375 66.21875 33.296875 66.21875 
Q 25.25 66.21875 20.875 63.09375 
Q 16.5 59.96875 16.5 54.203125 
Q 16.5 49.359375 19.40625 46.890625 
Q 22.3125 44.4375 30.421875 42.921875 
L 36.375 41.703125 
Q 47.40625 39.59375 52.65625 34.296875 
Q 57.90625 29 57.90625 20.125 
Q 57.90625 9.515625 50.796875 4.046875 
Q 43.703125 -1.421875 29.984375 -1.421875 
Q 24.8125 -1.421875 18.96875 -0.25 
Q 13.140625 0.921875 6.890625 3.21875 
L 6.890625 13.375 
Q 12.890625 10.015625 18.65625 8.296875 
Q 24.421875 6.59375 29.984375 6.59375 
Q 38.421875 6.59375 43.015625 9.90625 
Q 47.609375 13.234375 47.609375 19.390625 
Q 47.609375 24.75 44.3125 27.78125 
Q 41.015625 30.8125 33.5 32.328125 
L 27.484375 33.5 
Q 16.453125 35.6875 11.515625 40.375 
Q 6.59375 45.0625 6.59375 53.421875 
Q 6.59375 63.09375 13.40625 68.65625 
Q 20.21875 74.21875 32.171875 74.21875 
Q 37.3125 74.21875 42.625 73.28125 
Q 47.953125 72.359375 53.515625 70.515625 
z
" id="DejaVuSans-53"/>
      <path d="M 59.515625 10.40625 
L 59.515625 29.984375 
L 43.40625 29.984375 
L 43.40625 38.09375 
L 69.28125 38.09375 
L 69.28125 6.78125 
Q 63.578125 2.734375 56.6875 0.65625 
Q 49.8125 -1.421875 42 -1.421875 
Q 24.90625 -1.421875 15.25 8.5625 
Q 5.609375 18.5625 5.609375 36.375 
Q 5.609375 54.25 15.25 64.234375 
Q 24.90625 74.21875 42 74.21875 
Q 49.125 74.21875 55.546875 72.453125 
Q 61.96875 70.703125 67.390625 67.28125 
L 67.390625 56.78125 
Q 61.921875 61.421875 55.765625 63.765625 
Q 49.609375 66.109375 42.828125 66.109375 
Q 29.4375 66.109375 22.71875 58.640625 
Q 16.015625 51.171875 16.015625 36.375 
Q 16.015625 21.625 22.71875 14.15625 
Q 29.4375 6.6875 42.828125 6.6875 
Q 48.046875 6.6875 52.140625 7.59375 
Q 56.25 8.5 59.515625 10.40625 
z
" id="DejaVuSans-47"/>
      <path d="M 19.671875 64.796875 
L 19.671875 8.109375 
L 31.59375 8.109375 
Q 46.6875 8.109375 53.6875 14.9375 
Q 60.6875 21.78125 60.6875 36.53125 
Q 60.6875 51.171875 53.6875 57.984375 
Q 46.6875 64.796875 31.59375 64.796875 
z
M 9.8125 72.90625 
L 30.078125 72.90625 
Q 51.265625 72.90625 61.171875 64.09375 
Q 71.09375 55.28125 71.09375 36.53125 
Q 71.09375 17.671875 61.125 8.828125 
Q 51.171875 0 30.078125 0 
L 9.8125 0 
z
" id="DejaVuSans-44"/>
     </defs>
     <g transform="translate(345.568438 184.626438)scale(0.1 -0.1)">
      <use xlink:href="#DejaVuSans-53"/>
      <use x="63.476562" xlink:href="#DejaVuSans-47"/>
      <use x="140.966797" xlink:href="#DejaVuSans-44"/>
      <use x="217.96875" xlink:href="#DejaVuSans-20"/>
      <use x="249.755859" xlink:href="#DejaVuSans-2e"/>
      <use x="281.542969" xlink:href="#DejaVuSans-30"/>
      <use x="345.166016" xlink:href="#DejaVuSans-31"/>
     </g>
    </g>
    <g id="line2d_28">
     <path d="M 317.568438 195.804563 
L 337.568438 195.804563 
" style="fill:none;stroke:#9467bd;stroke-linecap:square;stroke-width:1.5;"/>
    </g>
    <g id="line2d_29"/>
    <g id="text_21">
     <!-- SGD .001 -->
     <g transform="translate(345.568438 199.304563)scale(0.1 -0.1)">
      <use xlink:href="#DejaVuSans-53"/>
      <use x="63.476562" xlink:href="#DejaVuSans-47"/>
      <use x="140.966797" xlink:href="#DejaVuSans-44"/>
      <use x="217.96875" xlink:href="#DejaVuSans-20"/>
      <use x="249.755859" xlink:href="#DejaVuSans-2e"/>
      <use x="281.542969" xlink:href="#DejaVuSans-30"/>
      <use x="345.166016" xlink:href="#DejaVuSans-30"/>
      <use x="408.789062" xlink:href="#DejaVuSans-31"/>
     </g>
    </g>
    <g id="line2d_30">
     <path d="M 317.568438 210.482687 
L 337.568438 210.482687 
" style="fill:none;stroke:#8c564b;stroke-linecap:square;stroke-width:1.5;"/>
    </g>
    <g id="line2d_31"/>
    <g id="text_22">
     <!-- SGD .0001 -->
     <g transform="translate(345.568438 213.982687)scale(0.1 -0.1)">
      <use xlink:href="#DejaVuSans-53"/>
      <use x="63.476562" xlink:href="#DejaVuSans-47"/>
      <use x="140.966797" xlink:href="#DejaVuSans-44"/>
      <use x="217.96875" xlink:href="#DejaVuSans-20"/>
      <use x="249.755859" xlink:href="#DejaVuSans-2e"/>
      <use x="281.542969" xlink:href="#DejaVuSans-30"/>
      <use x="345.166016" xlink:href="#DejaVuSans-30"/>
      <use x="408.789062" xlink:href="#DejaVuSans-30"/>
      <use x="472.412109" xlink:href="#DejaVuSans-31"/>
     </g>
    </g>
   </g>
  </g>
 </g>
 <defs>
  <clipPath id="p3232b42692">
   <rect height="266.112" width="357.12" x="57.6" y="41.472"/>
  </clipPath>
 </defs>
</svg>
