<?xml version="1.0" encoding="utf-8" standalone="no"?>
<!DOCTYPE svg PUBLIC "-//W3C//DTD SVG 1.1//EN"
  "http://www.w3.org/Graphics/SVG/1.1/DTD/svg11.dtd">
<!-- Created with matplotlib (http://matplotlib.org/) -->
<svg height="345pt" version="1.1" viewBox="0 0 460 345" width="460pt" xmlns="http://www.w3.org/2000/svg" xmlns:xlink="http://www.w3.org/1999/xlink">
 <defs>
  <style type="text/css">
*{stroke-linecap:butt;stroke-linejoin:round;}
  </style>
 </defs>
 <g id="figure_1">
  <g id="patch_1">
   <path d="M 0 345.6 
L 460.8 345.6 
L 460.8 0 
L 0 0 
z
" style="fill:#ffffff;"/>
  </g>
  <g id="axes_1">
   <g id="patch_2">
    <path d="M 57.6 307.584 
L 414.72 307.584 
L 414.72 41.472 
L 57.6 41.472 
z
" style="fill:#ffffff;"/>
   </g>
   <g id="matplotlib.axis_1">
    <g id="xtick_1">
     <g id="line2d_1">
      <defs>
       <path d="M 0 0 
L 0 3.5 
" id="m1a4df309e3" style="stroke:#000000;stroke-width:0.8;"/>
      </defs>
      <g>
       <use style="stroke:#000000;stroke-width:0.8;" x="73.832727" xlink:href="#m1a4df309e3" y="307.584"/>
      </g>
     </g>
     <g id="text_1">
      <!-- 0 -->
      <defs>
       <path d="M 31.78125 66.40625 
Q 24.171875 66.40625 20.328125 58.90625 
Q 16.5 51.421875 16.5 36.375 
Q 16.5 21.390625 20.328125 13.890625 
Q 24.171875 6.390625 31.78125 6.390625 
Q 39.453125 6.390625 43.28125 13.890625 
Q 47.125 21.390625 47.125 36.375 
Q 47.125 51.421875 43.28125 58.90625 
Q 39.453125 66.40625 31.78125 66.40625 
z
M 31.78125 74.21875 
Q 44.046875 74.21875 50.515625 64.515625 
Q 56.984375 54.828125 56.984375 36.375 
Q 56.984375 17.96875 50.515625 8.265625 
Q 44.046875 -1.421875 31.78125 -1.421875 
Q 19.53125 -1.421875 13.0625 8.265625 
Q 6.59375 17.96875 6.59375 36.375 
Q 6.59375 54.828125 13.0625 64.515625 
Q 19.53125 74.21875 31.78125 74.21875 
z
" id="DejaVuSans-30"/>
      </defs>
      <g transform="translate(70.651477 322.182437)scale(0.1 -0.1)">
       <use xlink:href="#DejaVuSans-30"/>
      </g>
     </g>
    </g>
    <g id="xtick_2">
     <g id="line2d_2">
      <g>
       <use style="stroke:#000000;stroke-width:0.8;" x="139.419504" xlink:href="#m1a4df309e3" y="307.584"/>
      </g>
     </g>
     <g id="text_2">
      <!-- 20 -->
      <defs>
       <path d="M 19.1875 8.296875 
L 53.609375 8.296875 
L 53.609375 0 
L 7.328125 0 
L 7.328125 8.296875 
Q 12.9375 14.109375 22.625 23.890625 
Q 32.328125 33.6875 34.8125 36.53125 
Q 39.546875 41.84375 41.421875 45.53125 
Q 43.3125 49.21875 43.3125 52.78125 
Q 43.3125 58.59375 39.234375 62.25 
Q 35.15625 65.921875 28.609375 65.921875 
Q 23.96875 65.921875 18.8125 64.3125 
Q 13.671875 62.703125 7.8125 59.421875 
L 7.8125 69.390625 
Q 13.765625 71.78125 18.9375 73 
Q 24.125 74.21875 28.421875 74.21875 
Q 39.75 74.21875 46.484375 68.546875 
Q 53.21875 62.890625 53.21875 53.421875 
Q 53.21875 48.921875 51.53125 44.890625 
Q 49.859375 40.875 45.40625 35.40625 
Q 44.1875 33.984375 37.640625 27.21875 
Q 31.109375 20.453125 19.1875 8.296875 
z
" id="DejaVuSans-32"/>
      </defs>
      <g transform="translate(133.057004 322.182437)scale(0.1 -0.1)">
       <use xlink:href="#DejaVuSans-32"/>
       <use x="63.623047" xlink:href="#DejaVuSans-30"/>
      </g>
     </g>
    </g>
    <g id="xtick_3">
     <g id="line2d_3">
      <g>
       <use style="stroke:#000000;stroke-width:0.8;" x="205.006281" xlink:href="#m1a4df309e3" y="307.584"/>
      </g>
     </g>
     <g id="text_3">
      <!-- 40 -->
      <defs>
       <path d="M 37.796875 64.3125 
L 12.890625 25.390625 
L 37.796875 25.390625 
z
M 35.203125 72.90625 
L 47.609375 72.90625 
L 47.609375 25.390625 
L 58.015625 25.390625 
L 58.015625 17.1875 
L 47.609375 17.1875 
L 47.609375 0 
L 37.796875 0 
L 37.796875 17.1875 
L 4.890625 17.1875 
L 4.890625 26.703125 
z
" id="DejaVuSans-34"/>
      </defs>
      <g transform="translate(198.643781 322.182437)scale(0.1 -0.1)">
       <use xlink:href="#DejaVuSans-34"/>
       <use x="63.623047" xlink:href="#DejaVuSans-30"/>
      </g>
     </g>
    </g>
    <g id="xtick_4">
     <g id="line2d_4">
      <g>
       <use style="stroke:#000000;stroke-width:0.8;" x="270.593058" xlink:href="#m1a4df309e3" y="307.584"/>
      </g>
     </g>
     <g id="text_4">
      <!-- 60 -->
      <defs>
       <path d="M 33.015625 40.375 
Q 26.375 40.375 22.484375 35.828125 
Q 18.609375 31.296875 18.609375 23.390625 
Q 18.609375 15.53125 22.484375 10.953125 
Q 26.375 6.390625 33.015625 6.390625 
Q 39.65625 6.390625 43.53125 10.953125 
Q 47.40625 15.53125 47.40625 23.390625 
Q 47.40625 31.296875 43.53125 35.828125 
Q 39.65625 40.375 33.015625 40.375 
z
M 52.59375 71.296875 
L 52.59375 62.3125 
Q 48.875 64.0625 45.09375 64.984375 
Q 41.3125 65.921875 37.59375 65.921875 
Q 27.828125 65.921875 22.671875 59.328125 
Q 17.53125 52.734375 16.796875 39.40625 
Q 19.671875 43.65625 24.015625 45.921875 
Q 28.375 48.1875 33.59375 48.1875 
Q 44.578125 48.1875 50.953125 41.515625 
Q 57.328125 34.859375 57.328125 23.390625 
Q 57.328125 12.15625 50.6875 5.359375 
Q 44.046875 -1.421875 33.015625 -1.421875 
Q 20.359375 -1.421875 13.671875 8.265625 
Q 6.984375 17.96875 6.984375 36.375 
Q 6.984375 53.65625 15.1875 63.9375 
Q 23.390625 74.21875 37.203125 74.21875 
Q 40.921875 74.21875 44.703125 73.484375 
Q 48.484375 72.75 52.59375 71.296875 
z
" id="DejaVuSans-36"/>
      </defs>
      <g transform="translate(264.230558 322.182437)scale(0.1 -0.1)">
       <use xlink:href="#DejaVuSans-36"/>
       <use x="63.623047" xlink:href="#DejaVuSans-30"/>
      </g>
     </g>
    </g>
    <g id="xtick_5">
     <g id="line2d_5">
      <g>
       <use style="stroke:#000000;stroke-width:0.8;" x="336.179835" xlink:href="#m1a4df309e3" y="307.584"/>
      </g>
     </g>
     <g id="text_5">
      <!-- 80 -->
      <defs>
       <path d="M 31.78125 34.625 
Q 24.75 34.625 20.71875 30.859375 
Q 16.703125 27.09375 16.703125 20.515625 
Q 16.703125 13.921875 20.71875 10.15625 
Q 24.75 6.390625 31.78125 6.390625 
Q 38.8125 6.390625 42.859375 10.171875 
Q 46.921875 13.96875 46.921875 20.515625 
Q 46.921875 27.09375 42.890625 30.859375 
Q 38.875 34.625 31.78125 34.625 
z
M 21.921875 38.8125 
Q 15.578125 40.375 12.03125 44.71875 
Q 8.5 49.078125 8.5 55.328125 
Q 8.5 64.0625 14.71875 69.140625 
Q 20.953125 74.21875 31.78125 74.21875 
Q 42.671875 74.21875 48.875 69.140625 
Q 55.078125 64.0625 55.078125 55.328125 
Q 55.078125 49.078125 51.53125 44.71875 
Q 48 40.375 41.703125 38.8125 
Q 48.828125 37.15625 52.796875 32.3125 
Q 56.78125 27.484375 56.78125 20.515625 
Q 56.78125 9.90625 50.3125 4.234375 
Q 43.84375 -1.421875 31.78125 -1.421875 
Q 19.734375 -1.421875 13.25 4.234375 
Q 6.78125 9.90625 6.78125 20.515625 
Q 6.78125 27.484375 10.78125 32.3125 
Q 14.796875 37.15625 21.921875 38.8125 
z
M 18.3125 54.390625 
Q 18.3125 48.734375 21.84375 45.5625 
Q 25.390625 42.390625 31.78125 42.390625 
Q 38.140625 42.390625 41.71875 45.5625 
Q 45.3125 48.734375 45.3125 54.390625 
Q 45.3125 60.0625 41.71875 63.234375 
Q 38.140625 66.40625 31.78125 66.40625 
Q 25.390625 66.40625 21.84375 63.234375 
Q 18.3125 60.0625 18.3125 54.390625 
z
" id="DejaVuSans-38"/>
      </defs>
      <g transform="translate(329.817335 322.182437)scale(0.1 -0.1)">
       <use xlink:href="#DejaVuSans-38"/>
       <use x="63.623047" xlink:href="#DejaVuSans-30"/>
      </g>
     </g>
    </g>
    <g id="xtick_6">
     <g id="line2d_6">
      <g>
       <use style="stroke:#000000;stroke-width:0.8;" x="401.766612" xlink:href="#m1a4df309e3" y="307.584"/>
      </g>
     </g>
     <g id="text_6">
      <!-- 100 -->
      <defs>
       <path d="M 12.40625 8.296875 
L 28.515625 8.296875 
L 28.515625 63.921875 
L 10.984375 60.40625 
L 10.984375 69.390625 
L 28.421875 72.90625 
L 38.28125 72.90625 
L 38.28125 8.296875 
L 54.390625 8.296875 
L 54.390625 0 
L 12.40625 0 
z
" id="DejaVuSans-31"/>
      </defs>
      <g transform="translate(392.222862 322.182437)scale(0.1 -0.1)">
       <use xlink:href="#DejaVuSans-31"/>
       <use x="63.623047" xlink:href="#DejaVuSans-30"/>
       <use x="127.246094" xlink:href="#DejaVuSans-30"/>
      </g>
     </g>
    </g>
    <g id="text_7">
     <!-- epoch -->
     <defs>
      <path d="M 56.203125 29.59375 
L 56.203125 25.203125 
L 14.890625 25.203125 
Q 15.484375 15.921875 20.484375 11.0625 
Q 25.484375 6.203125 34.421875 6.203125 
Q 39.59375 6.203125 44.453125 7.46875 
Q 49.3125 8.734375 54.109375 11.28125 
L 54.109375 2.78125 
Q 49.265625 0.734375 44.1875 -0.34375 
Q 39.109375 -1.421875 33.890625 -1.421875 
Q 20.796875 -1.421875 13.15625 6.1875 
Q 5.515625 13.8125 5.515625 26.8125 
Q 5.515625 40.234375 12.765625 48.109375 
Q 20.015625 56 32.328125 56 
Q 43.359375 56 49.78125 48.890625 
Q 56.203125 41.796875 56.203125 29.59375 
z
M 47.21875 32.234375 
Q 47.125 39.59375 43.09375 43.984375 
Q 39.0625 48.390625 32.421875 48.390625 
Q 24.90625 48.390625 20.390625 44.140625 
Q 15.875 39.890625 15.1875 32.171875 
z
" id="DejaVuSans-65"/>
      <path d="M 18.109375 8.203125 
L 18.109375 -20.796875 
L 9.078125 -20.796875 
L 9.078125 54.6875 
L 18.109375 54.6875 
L 18.109375 46.390625 
Q 20.953125 51.265625 25.265625 53.625 
Q 29.59375 56 35.59375 56 
Q 45.5625 56 51.78125 48.09375 
Q 58.015625 40.1875 58.015625 27.296875 
Q 58.015625 14.40625 51.78125 6.484375 
Q 45.5625 -1.421875 35.59375 -1.421875 
Q 29.59375 -1.421875 25.265625 0.953125 
Q 20.953125 3.328125 18.109375 8.203125 
z
M 48.6875 27.296875 
Q 48.6875 37.203125 44.609375 42.84375 
Q 40.53125 48.484375 33.40625 48.484375 
Q 26.265625 48.484375 22.1875 42.84375 
Q 18.109375 37.203125 18.109375 27.296875 
Q 18.109375 17.390625 22.1875 11.75 
Q 26.265625 6.109375 33.40625 6.109375 
Q 40.53125 6.109375 44.609375 11.75 
Q 48.6875 17.390625 48.6875 27.296875 
z
" id="DejaVuSans-70"/>
      <path d="M 30.609375 48.390625 
Q 23.390625 48.390625 19.1875 42.75 
Q 14.984375 37.109375 14.984375 27.296875 
Q 14.984375 17.484375 19.15625 11.84375 
Q 23.34375 6.203125 30.609375 6.203125 
Q 37.796875 6.203125 41.984375 11.859375 
Q 46.1875 17.53125 46.1875 27.296875 
Q 46.1875 37.015625 41.984375 42.703125 
Q 37.796875 48.390625 30.609375 48.390625 
z
M 30.609375 56 
Q 42.328125 56 49.015625 48.375 
Q 55.71875 40.765625 55.71875 27.296875 
Q 55.71875 13.875 49.015625 6.21875 
Q 42.328125 -1.421875 30.609375 -1.421875 
Q 18.84375 -1.421875 12.171875 6.21875 
Q 5.515625 13.875 5.515625 27.296875 
Q 5.515625 40.765625 12.171875 48.375 
Q 18.84375 56 30.609375 56 
z
" id="DejaVuSans-6f"/>
      <path d="M 48.78125 52.59375 
L 48.78125 44.1875 
Q 44.96875 46.296875 41.140625 47.34375 
Q 37.3125 48.390625 33.40625 48.390625 
Q 24.65625 48.390625 19.8125 42.84375 
Q 14.984375 37.3125 14.984375 27.296875 
Q 14.984375 17.28125 19.8125 11.734375 
Q 24.65625 6.203125 33.40625 6.203125 
Q 37.3125 6.203125 41.140625 7.25 
Q 44.96875 8.296875 48.78125 10.40625 
L 48.78125 2.09375 
Q 45.015625 0.34375 40.984375 -0.53125 
Q 36.96875 -1.421875 32.421875 -1.421875 
Q 20.0625 -1.421875 12.78125 6.34375 
Q 5.515625 14.109375 5.515625 27.296875 
Q 5.515625 40.671875 12.859375 48.328125 
Q 20.21875 56 33.015625 56 
Q 37.15625 56 41.109375 55.140625 
Q 45.0625 54.296875 48.78125 52.59375 
z
" id="DejaVuSans-63"/>
      <path d="M 54.890625 33.015625 
L 54.890625 0 
L 45.90625 0 
L 45.90625 32.71875 
Q 45.90625 40.484375 42.875 44.328125 
Q 39.84375 48.1875 33.796875 48.1875 
Q 26.515625 48.1875 22.3125 43.546875 
Q 18.109375 38.921875 18.109375 30.90625 
L 18.109375 0 
L 9.078125 0 
L 9.078125 75.984375 
L 18.109375 75.984375 
L 18.109375 46.1875 
Q 21.34375 51.125 25.703125 53.5625 
Q 30.078125 56 35.796875 56 
Q 45.21875 56 50.046875 50.171875 
Q 54.890625 44.34375 54.890625 33.015625 
z
" id="DejaVuSans-68"/>
     </defs>
     <g transform="translate(220.931875 335.860562)scale(0.1 -0.1)">
      <use xlink:href="#DejaVuSans-65"/>
      <use x="61.523438" xlink:href="#DejaVuSans-70"/>
      <use x="125" xlink:href="#DejaVuSans-6f"/>
      <use x="186.181641" xlink:href="#DejaVuSans-63"/>
      <use x="241.162109" xlink:href="#DejaVuSans-68"/>
     </g>
    </g>
   </g>
   <g id="matplotlib.axis_2">
    <g id="ytick_1">
     <g id="line2d_7">
      <defs>
       <path d="M 0 0 
L -3.5 0 
" id="m8716717cbb" style="stroke:#000000;stroke-width:0.8;"/>
      </defs>
      <g>
       <use style="stroke:#000000;stroke-width:0.8;" x="57.6" xlink:href="#m8716717cbb" y="299.453885"/>
      </g>
     </g>
     <g id="text_8">
      <!-- 0.8 -->
      <defs>
       <path d="M 10.6875 12.40625 
L 21 12.40625 
L 21 0 
L 10.6875 0 
z
" id="DejaVuSans-2e"/>
      </defs>
      <g transform="translate(34.696875 303.253104)scale(0.1 -0.1)">
       <use xlink:href="#DejaVuSans-30"/>
       <use x="63.623047" xlink:href="#DejaVuSans-2e"/>
       <use x="95.410156" xlink:href="#DejaVuSans-38"/>
      </g>
     </g>
    </g>
    <g id="ytick_2">
     <g id="line2d_8">
      <g>
       <use style="stroke:#000000;stroke-width:0.8;" x="57.6" xlink:href="#m8716717cbb" y="266.677977"/>
      </g>
     </g>
     <g id="text_9">
      <!-- 1.0 -->
      <g transform="translate(34.696875 270.477196)scale(0.1 -0.1)">
       <use xlink:href="#DejaVuSans-31"/>
       <use x="63.623047" xlink:href="#DejaVuSans-2e"/>
       <use x="95.410156" xlink:href="#DejaVuSans-30"/>
      </g>
     </g>
    </g>
    <g id="ytick_3">
     <g id="line2d_9">
      <g>
       <use style="stroke:#000000;stroke-width:0.8;" x="57.6" xlink:href="#m8716717cbb" y="233.902069"/>
      </g>
     </g>
     <g id="text_10">
      <!-- 1.2 -->
      <g transform="translate(34.696875 237.701288)scale(0.1 -0.1)">
       <use xlink:href="#DejaVuSans-31"/>
       <use x="63.623047" xlink:href="#DejaVuSans-2e"/>
       <use x="95.410156" xlink:href="#DejaVuSans-32"/>
      </g>
     </g>
    </g>
    <g id="ytick_4">
     <g id="line2d_10">
      <g>
       <use style="stroke:#000000;stroke-width:0.8;" x="57.6" xlink:href="#m8716717cbb" y="201.126161"/>
      </g>
     </g>
     <g id="text_11">
      <!-- 1.4 -->
      <g transform="translate(34.696875 204.92538)scale(0.1 -0.1)">
       <use xlink:href="#DejaVuSans-31"/>
       <use x="63.623047" xlink:href="#DejaVuSans-2e"/>
       <use x="95.410156" xlink:href="#DejaVuSans-34"/>
      </g>
     </g>
    </g>
    <g id="ytick_5">
     <g id="line2d_11">
      <g>
       <use style="stroke:#000000;stroke-width:0.8;" x="57.6" xlink:href="#m8716717cbb" y="168.350253"/>
      </g>
     </g>
     <g id="text_12">
      <!-- 1.6 -->
      <g transform="translate(34.696875 172.149472)scale(0.1 -0.1)">
       <use xlink:href="#DejaVuSans-31"/>
       <use x="63.623047" xlink:href="#DejaVuSans-2e"/>
       <use x="95.410156" xlink:href="#DejaVuSans-36"/>
      </g>
     </g>
    </g>
    <g id="ytick_6">
     <g id="line2d_12">
      <g>
       <use style="stroke:#000000;stroke-width:0.8;" x="57.6" xlink:href="#m8716717cbb" y="135.574346"/>
      </g>
     </g>
     <g id="text_13">
      <!-- 1.8 -->
      <g transform="translate(34.696875 139.373564)scale(0.1 -0.1)">
       <use xlink:href="#DejaVuSans-31"/>
       <use x="63.623047" xlink:href="#DejaVuSans-2e"/>
       <use x="95.410156" xlink:href="#DejaVuSans-38"/>
      </g>
     </g>
    </g>
    <g id="ytick_7">
     <g id="line2d_13">
      <g>
       <use style="stroke:#000000;stroke-width:0.8;" x="57.6" xlink:href="#m8716717cbb" y="102.798438"/>
      </g>
     </g>
     <g id="text_14">
      <!-- 2.0 -->
      <g transform="translate(34.696875 106.597657)scale(0.1 -0.1)">
       <use xlink:href="#DejaVuSans-32"/>
       <use x="63.623047" xlink:href="#DejaVuSans-2e"/>
       <use x="95.410156" xlink:href="#DejaVuSans-30"/>
      </g>
     </g>
    </g>
    <g id="ytick_8">
     <g id="line2d_14">
      <g>
       <use style="stroke:#000000;stroke-width:0.8;" x="57.6" xlink:href="#m8716717cbb" y="70.02253"/>
      </g>
     </g>
     <g id="text_15">
      <!-- 2.2 -->
      <g transform="translate(34.696875 73.821749)scale(0.1 -0.1)">
       <use xlink:href="#DejaVuSans-32"/>
       <use x="63.623047" xlink:href="#DejaVuSans-2e"/>
       <use x="95.410156" xlink:href="#DejaVuSans-32"/>
      </g>
     </g>
    </g>
    <g id="text_16">
     <!-- loss -->
     <defs>
      <path d="M 9.421875 75.984375 
L 18.40625 75.984375 
L 18.40625 0 
L 9.421875 0 
z
" id="DejaVuSans-6c"/>
      <path d="M 44.28125 53.078125 
L 44.28125 44.578125 
Q 40.484375 46.53125 36.375 47.5 
Q 32.28125 48.484375 27.875 48.484375 
Q 21.1875 48.484375 17.84375 46.4375 
Q 14.5 44.390625 14.5 40.28125 
Q 14.5 37.15625 16.890625 35.375 
Q 19.28125 33.59375 26.515625 31.984375 
L 29.59375 31.296875 
Q 39.15625 29.25 43.1875 25.515625 
Q 47.21875 21.78125 47.21875 15.09375 
Q 47.21875 7.46875 41.1875 3.015625 
Q 35.15625 -1.421875 24.609375 -1.421875 
Q 20.21875 -1.421875 15.453125 -0.5625 
Q 10.6875 0.296875 5.421875 2 
L 5.421875 11.28125 
Q 10.40625 8.6875 15.234375 7.390625 
Q 20.0625 6.109375 24.8125 6.109375 
Q 31.15625 6.109375 34.5625 8.28125 
Q 37.984375 10.453125 37.984375 14.40625 
Q 37.984375 18.0625 35.515625 20.015625 
Q 33.0625 21.96875 24.703125 23.78125 
L 21.578125 24.515625 
Q 13.234375 26.265625 9.515625 29.90625 
Q 5.8125 33.546875 5.8125 39.890625 
Q 5.8125 47.609375 11.28125 51.796875 
Q 16.75 56 26.8125 56 
Q 31.78125 56 36.171875 55.265625 
Q 40.578125 54.546875 44.28125 53.078125 
z
" id="DejaVuSans-73"/>
     </defs>
     <g transform="translate(28.617188 184.185812)rotate(-90)scale(0.1 -0.1)">
      <use xlink:href="#DejaVuSans-6c"/>
      <use x="27.783203" xlink:href="#DejaVuSans-6f"/>
      <use x="88.964844" xlink:href="#DejaVuSans-73"/>
      <use x="141.064453" xlink:href="#DejaVuSans-73"/>
     </g>
    </g>
   </g>
   <g id="line2d_15">
    <path clip-path="url(#p2139966103)" d="M 73.832727 177.268373 
L 77.112066 192.623886 
L 80.391405 204.99884 
L 83.670744 207.739725 
L 86.950083 207.527706 
L 90.229421 209.965414 
L 93.50876 221.579352 
L 96.788099 224.806755 
L 100.067438 211.157638 
L 103.346777 230.920486 
L 106.626116 216.436607 
L 109.905455 225.736771 
L 113.184793 229.001047 
L 116.464132 237.96833 
L 119.743471 234.886371 
L 123.02281 235.421028 
L 126.302149 227.633677 
L 129.581488 225.529873 
L 132.860826 236.213795 
L 136.140165 240.317953 
L 139.419504 236.0704 
L 142.698843 230.351004 
L 145.978182 227.826235 
L 149.257521 238.578782 
L 152.53686 232.106564 
L 155.816198 233.435012 
L 159.095537 239.021256 
L 162.374876 237.180684 
L 165.654215 248.754677 
L 168.933554 237.892536 
L 172.212893 237.069041 
L 175.492231 240.586306 
L 178.77157 231.847429 
L 182.050909 239.443246 
L 185.330248 225.600546 
L 188.609587 238.907565 
L 191.888926 222.844297 
L 195.168264 242.945147 
L 198.447603 237.146884 
L 201.726942 235.334991 
L 205.006281 242.127798 
L 208.28562 242.122677 
L 211.564959 236.585597 
L 214.844298 250.057519 
L 218.123636 239.976879 
L 221.402975 247.176312 
L 224.682314 238.014421 
L 227.961653 231.040323 
L 231.240992 234.160179 
L 234.520331 245.268139 
L 237.799669 229.283739 
L 241.079008 236.759719 
L 244.358347 234.709176 
L 247.637686 227.750441 
L 250.917025 227.617289 
L 254.196364 243.186869 
L 257.475702 249.603778 
L 260.755041 238.070755 
L 264.03438 242.765904 
L 267.313719 236.872386 
L 270.593058 234.372199 
L 273.872397 241.705808 
L 277.151736 256.258311 
L 280.431074 234.36298 
L 283.710413 237.382461 
L 286.989752 242.658358 
L 290.269091 243.946861 
L 293.54843 226.893146 
L 296.827769 236.351044 
L 300.107107 232.254056 
L 303.386446 226.967916 
L 306.665785 237.539171 
L 309.945124 243.855703 
L 313.224463 246.533085 
L 316.503802 239.257857 
L 319.78314 237.458255 
L 323.062479 230.377635 
L 326.341818 234.051609 
L 329.621157 227.128723 
L 332.900496 236.185116 
L 336.179835 233.922554 
L 339.459174 247.232645 
L 342.738512 227.385809 
L 346.017851 233.538461 
L 349.29719 243.055766 
L 352.576529 230.008906 
L 355.855868 235.062541 
L 359.135207 232.563378 
L 362.414545 239.576398 
L 365.693884 226.720048 
L 368.973223 226.25504 
L 372.252562 237.929409 
L 375.531901 240.632397 
L 378.81124 234.18681 
L 382.090579 224.575275 
L 385.369917 238.09124 
L 388.649256 216.415098 
L 391.928595 235.164966 
L 395.207934 234.234949 
L 398.487273 222.758261 
" style="fill:none;stroke:#1f77b4;stroke-linecap:square;stroke-width:1.5;"/>
   </g>
   <g id="line2d_16">
    <path clip-path="url(#p2139966103)" d="M 73.832727 206.878333 
L 77.112066 227.069317 
L 80.391405 242.004888 
L 83.670744 251.929843 
L 86.950083 258.803565 
L 90.229421 264.849696 
L 93.50876 270.306885 
L 96.788099 273.7545 
L 100.067438 275.940244 
L 103.346777 277.498124 
L 106.626116 278.462964 
L 109.905455 278.863445 
L 113.184793 278.377952 
L 116.464132 277.97235 
L 119.743471 277.582112 
L 123.02281 277.199043 
L 126.302149 276.739156 
L 129.581488 276.324336 
L 132.860826 275.769194 
L 136.140165 275.324671 
L 139.419504 274.370073 
L 142.698843 273.379626 
L 145.978182 271.55749 
L 149.257521 270.422624 
L 152.53686 269.186358 
L 155.816198 267.487132 
L 159.095537 265.863701 
L 162.374876 263.293865 
L 165.654215 261.347795 
L 168.933554 260.196541 
L 172.212893 258.934669 
L 175.492231 257.789561 
L 178.77157 256.241923 
L 182.050909 255.548508 
L 185.330248 253.679257 
L 188.609587 251.557017 
L 191.888926 250.295144 
L 195.168264 248.880659 
L 198.447603 247.293076 
L 201.726942 245.180054 
L 205.006281 241.881978 
L 208.28562 240.09057 
L 211.564959 237.348661 
L 214.844298 234.767558 
L 218.123636 233.00278 
L 221.402975 230.6296 
L 224.682314 227.646992 
L 227.961653 224.854894 
L 231.240992 222.593357 
L 234.520331 219.172371 
L 237.799669 216.560541 
L 241.079008 213.272708 
L 244.358347 210.749987 
L 247.637686 206.765666 
L 250.917025 202.866357 
L 254.196364 198.944515 
L 257.475702 195.769349 
L 260.755041 193.175955 
L 264.03438 189.35961 
L 267.313719 187.593808 
L 270.593058 185.117179 
L 273.872397 182.569876 
L 277.151736 180.441491 
L 280.431074 177.04099 
L 283.710413 172.156356 
L 286.989752 168.855207 
L 290.269091 167.071993 
L 293.54843 164.995844 
L 296.827769 163.428746 
L 300.107107 161.171305 
L 303.386446 161.34133 
L 306.665785 161.20613 
L 309.945124 161.455022 
L 313.224463 159.019362 
L 316.503802 160.368296 
L 319.78314 157.844551 
L 323.062479 154.895743 
L 326.341818 153.035711 
L 329.621157 151.69702 
L 332.900496 147.81205 
L 336.179835 143.164017 
L 339.459174 135.953317 
L 342.738512 130.565777 
L 346.017851 127.312768 
L 349.29719 127.987747 
L 352.576529 125.946423 
L 355.855868 123.695128 
L 359.135207 124.144772 
L 362.414545 121.346529 
L 365.693884 118.847366 
L 368.973223 113.584784 
L 372.252562 112.364906 
L 375.531901 108.470718 
L 378.81124 105.31911 
L 382.090579 99.725696 
L 385.369917 99.651951 
L 388.649256 98.051052 
L 391.928595 91.653605 
L 395.207934 89.750554 
L 398.487273 84.24625 
" style="fill:none;stroke:#ff7f0e;stroke-linecap:square;stroke-width:1.5;"/>
   </g>
   <g id="line2d_17">
    <path clip-path="url(#p2139966103)" d="M 73.832727 134.423092 
L 77.112066 155.273691 
L 80.391405 172.345842 
L 83.670744 187.024327 
L 86.950083 197.78814 
L 90.229421 204.424237 
L 93.50876 209.237174 
L 96.788099 213.230714 
L 100.067438 216.804312 
L 103.346777 220.10546 
L 106.626116 223.190493 
L 109.905455 226.088088 
L 113.184793 228.843313 
L 116.464132 231.504307 
L 119.743471 234.107943 
L 123.02281 236.636809 
L 126.302149 239.065299 
L 129.581488 241.377025 
L 132.860826 243.571986 
L 136.140165 245.679887 
L 139.419504 247.705848 
L 142.698843 249.642699 
L 145.978182 251.490441 
L 149.257521 253.252146 
L 152.53686 254.938057 
L 155.816198 256.538955 
L 159.095537 258.063034 
L 162.374876 259.519514 
L 165.654215 260.913514 
L 168.933554 262.248108 
L 172.212893 263.52432 
L 175.492231 264.744198 
L 178.77157 265.914913 
L 182.050909 267.053876 
L 185.330248 268.151869 
L 188.609587 269.226304 
L 191.888926 270.26489 
L 195.168264 271.263531 
L 198.447603 272.220178 
L 201.726942 273.138928 
L 205.006281 274.012611 
L 208.28562 274.852493 
L 211.564959 275.654479 
L 214.844298 276.426761 
L 218.123636 277.16934 
L 221.402975 277.89041 
L 224.682314 278.597141 
L 227.961653 279.277241 
L 231.240992 279.933783 
L 234.520331 280.566768 
L 237.799669 281.172098 
L 241.079008 281.758992 
L 244.358347 282.320279 
L 247.637686 282.861082 
L 250.917025 283.391642 
L 254.196364 283.900692 
L 257.475702 284.393355 
L 260.755041 284.86246 
L 264.03438 285.319275 
L 267.313719 285.757652 
L 270.593058 286.177594 
L 273.872397 286.580123 
L 277.151736 286.975482 
L 280.431074 287.353429 
L 283.710413 287.716013 
L 286.989752 288.062208 
L 290.269091 288.401234 
L 293.54843 288.723872 
L 296.827769 289.03934 
L 300.107107 289.341493 
L 303.386446 289.636476 
L 306.665785 289.92429 
L 309.945124 290.202885 
L 313.224463 290.476359 
L 316.503802 290.743687 
L 319.78314 291.001798 
L 323.062479 291.254787 
L 326.341818 291.503679 
L 329.621157 291.746425 
L 332.900496 291.985075 
L 336.179835 292.218603 
L 339.459174 292.445986 
L 342.738512 292.669272 
L 346.017851 292.880267 
L 349.29719 293.087165 
L 352.576529 293.286893 
L 355.855868 293.479451 
L 359.135207 293.66484 
L 362.414545 293.841011 
L 365.693884 294.01923 
L 368.973223 294.187206 
L 372.252562 294.351086 
L 375.531901 294.511892 
L 378.81124 294.667578 
L 382.090579 294.816094 
L 385.369917 294.961537 
L 388.649256 295.101859 
L 391.928595 295.236035 
L 395.207934 295.364066 
L 398.487273 295.488 
" style="fill:none;stroke:#2ca02c;stroke-linecap:square;stroke-width:1.5;"/>
   </g>
   <g id="line2d_18">
    <path clip-path="url(#p2139966103)" d="M 73.832727 107.678975 
L 77.112066 117.255686 
L 80.391405 127.863813 
L 83.670744 136.970394 
L 86.950083 145.875199 
L 90.229421 155.227599 
L 93.50876 163.392897 
L 96.788099 169.70226 
L 100.067438 174.492663 
L 103.346777 178.40836 
L 106.626116 182.16325 
L 109.905455 186.280724 
L 113.184793 191.078297 
L 116.464132 195.602397 
L 119.743471 199.337826 
L 123.02281 202.672774 
L 126.302149 205.885838 
L 129.581488 209.084561 
L 132.860826 212.207491 
L 136.140165 215.248481 
L 139.419504 218.281276 
L 142.698843 221.191162 
L 145.978182 223.941266 
L 149.257521 226.454768 
L 152.53686 228.855604 
L 155.816198 231.228784 
L 159.095537 233.612207 
L 162.374876 235.975145 
L 165.654215 238.398514 
L 168.933554 240.787058 
L 172.212893 243.149996 
L 175.492231 245.493474 
L 178.77157 247.806224 
L 182.050909 250.104634 
L 185.330248 252.351833 
L 188.609587 254.521188 
L 191.888926 256.608604 
L 195.168264 258.625346 
L 198.447603 260.525325 
L 201.726942 262.317757 
L 205.006281 264.010838 
L 208.28562 265.624027 
L 211.564959 267.140937 
L 214.844298 268.535961 
L 218.123636 269.815246 
L 221.402975 270.989033 
L 224.682314 272.082929 
L 227.961653 273.089764 
L 231.240992 274.027974 
L 234.520331 274.889366 
L 237.799669 275.692376 
L 241.079008 276.446222 
L 244.358347 277.157049 
L 247.637686 277.820761 
L 250.917025 278.436334 
L 254.196364 279.018106 
L 257.475702 279.554812 
L 260.755041 280.056693 
L 264.03438 280.533992 
L 267.313719 280.982612 
L 270.593058 281.408699 
L 273.872397 281.813277 
L 277.151736 282.212733 
L 280.431074 282.596826 
L 283.710413 282.966579 
L 286.989752 283.307653 
L 290.269091 283.631315 
L 293.54843 283.928347 
L 296.827769 284.210015 
L 300.107107 284.490659 
L 303.386446 284.752866 
L 306.665785 284.996637 
L 309.945124 285.232214 
L 313.224463 285.456524 
L 316.503802 285.668543 
L 319.78314 285.872368 
L 323.062479 286.054684 
L 326.341818 286.224709 
L 329.621157 286.387564 
L 332.900496 286.546323 
L 336.179835 286.695863 
L 339.459174 286.84233 
L 342.738512 286.988797 
L 346.017851 287.127071 
L 349.29719 287.263296 
L 352.576529 287.398496 
L 355.855868 287.528576 
L 359.135207 287.656607 
L 362.414545 287.782589 
L 365.693884 287.906523 
L 368.973223 288.033529 
L 372.252562 288.156439 
L 375.531901 288.280373 
L 378.81124 288.403283 
L 382.090579 288.520047 
L 385.369917 288.635787 
L 388.649256 288.753575 
L 391.928595 288.874436 
L 395.207934 288.990176 
L 398.487273 289.110013 
" style="fill:none;stroke:#d62728;stroke-linecap:square;stroke-width:1.5;"/>
   </g>
   <g id="line2d_19">
    <path clip-path="url(#p2139966103)" d="M 73.832727 56.753409 
L 77.112066 63.224602 
L 80.391405 72.149891 
L 83.670744 81.012702 
L 86.950083 88.547063 
L 90.229421 94.602412 
L 93.50876 98.889911 
L 96.788099 101.942167 
L 100.067438 104.272329 
L 103.346777 106.126217 
L 106.626116 107.62469 
L 109.905455 108.877344 
L 113.184793 109.960998 
L 116.464132 110.924814 
L 119.743471 111.817958 
L 123.02281 112.662962 
L 126.302149 113.489529 
L 129.581488 114.300733 
L 132.860826 115.112961 
L 136.140165 115.93748 
L 139.419504 116.777363 
L 142.698843 117.643876 
L 145.978182 118.545213 
L 149.257521 119.485472 
L 152.53686 120.476943 
L 155.816198 121.527821 
L 159.095537 122.640153 
L 162.374876 123.81394 
L 165.654215 125.032794 
L 168.933554 126.268036 
L 172.212893 127.499181 
L 175.492231 128.699599 
L 178.77157 129.844707 
L 182.050909 130.926312 
L 185.330248 131.941341 
L 188.609587 132.891842 
L 191.888926 133.78601 
L 195.168264 134.631014 
L 198.447603 135.444266 
L 201.726942 136.218597 
L 205.006281 136.972443 
L 208.28562 137.707852 
L 211.564959 138.429947 
L 214.844298 139.142823 
L 218.123636 139.845456 
L 221.402975 140.54809 
L 224.682314 141.246626 
L 227.961653 141.946187 
L 231.240992 142.645748 
L 234.520331 143.346333 
L 237.799669 144.055112 
L 241.079008 144.766964 
L 244.358347 145.485985 
L 247.637686 146.209104 
L 250.917025 146.942464 
L 254.196364 147.675825 
L 257.475702 148.416356 
L 260.755041 149.163032 
L 264.03438 149.909708 
L 267.313719 150.661506 
L 270.593058 151.416376 
L 273.872397 152.17944 
L 277.151736 152.947625 
L 280.431074 153.727077 
L 283.710413 154.515748 
L 286.989752 155.320806 
L 290.269091 156.140204 
L 293.54843 156.977013 
L 296.827769 157.828163 
L 300.107107 158.700821 
L 303.386446 159.592941 
L 306.665785 160.503496 
L 309.945124 161.434537 
L 313.224463 162.379917 
L 316.503802 163.344758 
L 319.78314 164.318817 
L 323.062479 165.302094 
L 326.341818 166.293565 
L 329.621157 167.289133 
L 332.900496 168.283677 
L 336.179835 169.272076 
L 339.459174 170.251256 
L 342.738512 171.223267 
L 346.017851 172.178889 
L 349.29719 173.121197 
L 352.576529 174.04814 
L 355.855868 174.965866 
L 359.135207 175.869252 
L 362.414545 176.760347 
L 365.693884 177.644272 
L 368.973223 178.517955 
L 372.252562 179.389589 
L 375.531901 180.258151 
L 378.81124 181.125688 
L 382.090579 181.991177 
L 385.369917 182.860762 
L 388.649256 183.727276 
L 391.928595 184.597886 
L 395.207934 185.468496 
L 398.487273 186.337057 
" style="fill:none;stroke:#9467bd;stroke-linecap:square;stroke-width:1.5;"/>
   </g>
   <g id="line2d_20">
    <path clip-path="url(#p2139966103)" d="M 73.832727 53.568 
L 77.112066 53.972578 
L 80.391405 54.384325 
L 83.670744 54.808363 
L 86.950083 55.239571 
L 90.229421 55.692289 
L 93.50876 56.168563 
L 96.788099 56.660202 
L 100.067438 57.182568 
L 103.346777 57.736686 
L 106.626116 58.322555 
L 109.905455 58.947346 
L 113.184793 59.611058 
L 116.464132 60.314716 
L 119.743471 61.062416 
L 123.02281 61.853135 
L 126.302149 62.687896 
L 129.581488 63.567725 
L 132.860826 64.488523 
L 136.140165 65.452339 
L 139.419504 66.453029 
L 142.698843 67.491615 
L 145.978182 68.554784 
L 149.257521 69.64868 
L 152.53686 70.762036 
L 155.816198 71.889732 
L 159.095537 73.020501 
L 162.374876 74.157416 
L 165.654215 75.291257 
L 168.933554 76.414856 
L 172.212893 77.526164 
L 175.492231 78.621085 
L 178.77157 79.693471 
L 182.050909 80.741276 
L 185.330248 81.761426 
L 188.609587 82.756994 
L 191.888926 83.718762 
L 195.168264 84.650827 
L 198.447603 85.550116 
L 201.726942 86.417654 
L 205.006281 87.250367 
L 208.28562 88.047231 
L 211.564959 88.812343 
L 214.844298 89.541607 
L 218.123636 90.237071 
L 221.402975 90.898735 
L 224.682314 91.529671 
L 227.961653 92.126807 
L 231.240992 92.696288 
L 234.520331 93.232994 
L 237.799669 93.745118 
L 241.079008 94.233683 
L 244.358347 94.694595 
L 247.637686 95.137069 
L 250.917025 95.560083 
L 254.196364 95.962613 
L 257.475702 96.349778 
L 260.755041 96.720555 
L 264.03438 97.079042 
L 267.313719 97.422165 
L 270.593058 97.757093 
L 273.872397 98.079731 
L 277.151736 98.392127 
L 280.431074 98.699401 
L 283.710413 98.996433 
L 286.989752 99.286294 
L 290.269091 99.570011 
L 293.54843 99.845533 
L 296.827769 100.117983 
L 300.107107 100.382239 
L 303.386446 100.644446 
L 306.665785 100.900508 
L 309.945124 101.1494 
L 313.224463 101.396244 
L 316.503802 101.644111 
L 319.78314 101.883785 
L 323.062479 102.118338 
L 326.341818 102.349818 
L 329.621157 102.579249 
L 332.900496 102.805608 
L 336.179835 103.030942 
L 339.459174 103.249107 
L 342.738512 103.466247 
L 346.017851 103.680315 
L 349.29719 103.889261 
L 352.576529 104.096159 
L 355.855868 104.304081 
L 359.135207 104.505858 
L 362.414545 104.705586 
L 365.693884 104.903266 
L 368.973223 105.0948 
L 372.252562 105.286334 
L 375.531901 105.476844 
L 378.81124 105.65916 
L 382.090579 105.843525 
L 385.369917 106.024816 
L 388.649256 106.202011 
L 391.928595 106.376133 
L 395.207934 106.549231 
L 398.487273 106.721304 
" style="fill:none;stroke:#8c564b;stroke-linecap:square;stroke-width:1.5;"/>
   </g>
   <g id="patch_3">
    <path d="M 57.6 307.584 
L 57.6 41.472 
" style="fill:none;stroke:#000000;stroke-linecap:square;stroke-linejoin:miter;stroke-width:0.8;"/>
   </g>
   <g id="patch_4">
    <path d="M 414.72 307.584 
L 414.72 41.472 
" style="fill:none;stroke:#000000;stroke-linecap:square;stroke-linejoin:miter;stroke-width:0.8;"/>
   </g>
   <g id="patch_5">
    <path d="M 57.6 307.584 
L 414.72 307.584 
" style="fill:none;stroke:#000000;stroke-linecap:square;stroke-linejoin:miter;stroke-width:0.8;"/>
   </g>
   <g id="patch_6">
    <path d="M 57.6 41.472 
L 414.72 41.472 
" style="fill:none;stroke:#000000;stroke-linecap:square;stroke-linejoin:miter;stroke-width:0.8;"/>
   </g>
   <g id="text_17">
    <!-- SExpLog - CIFAR10 - 3-layer-CNN -->
    <defs>
     <path d="M 53.515625 70.515625 
L 53.515625 60.890625 
Q 47.90625 63.578125 42.921875 64.890625 
Q 37.9375 66.21875 33.296875 66.21875 
Q 25.25 66.21875 20.875 63.09375 
Q 16.5 59.96875 16.5 54.203125 
Q 16.5 49.359375 19.40625 46.890625 
Q 22.3125 44.4375 30.421875 42.921875 
L 36.375 41.703125 
Q 47.40625 39.59375 52.65625 34.296875 
Q 57.90625 29 57.90625 20.125 
Q 57.90625 9.515625 50.796875 4.046875 
Q 43.703125 -1.421875 29.984375 -1.421875 
Q 24.8125 -1.421875 18.96875 -0.25 
Q 13.140625 0.921875 6.890625 3.21875 
L 6.890625 13.375 
Q 12.890625 10.015625 18.65625 8.296875 
Q 24.421875 6.59375 29.984375 6.59375 
Q 38.421875 6.59375 43.015625 9.90625 
Q 47.609375 13.234375 47.609375 19.390625 
Q 47.609375 24.75 44.3125 27.78125 
Q 41.015625 30.8125 33.5 32.328125 
L 27.484375 33.5 
Q 16.453125 35.6875 11.515625 40.375 
Q 6.59375 45.0625 6.59375 53.421875 
Q 6.59375 63.09375 13.40625 68.65625 
Q 20.21875 74.21875 32.171875 74.21875 
Q 37.3125 74.21875 42.625 73.28125 
Q 47.953125 72.359375 53.515625 70.515625 
z
" id="DejaVuSans-53"/>
     <path d="M 9.8125 72.90625 
L 55.90625 72.90625 
L 55.90625 64.59375 
L 19.671875 64.59375 
L 19.671875 43.015625 
L 54.390625 43.015625 
L 54.390625 34.71875 
L 19.671875 34.71875 
L 19.671875 8.296875 
L 56.78125 8.296875 
L 56.78125 0 
L 9.8125 0 
z
" id="DejaVuSans-45"/>
     <path d="M 54.890625 54.6875 
L 35.109375 28.078125 
L 55.90625 0 
L 45.3125 0 
L 29.390625 21.484375 
L 13.484375 0 
L 2.875 0 
L 24.125 28.609375 
L 4.6875 54.6875 
L 15.28125 54.6875 
L 29.78125 35.203125 
L 44.28125 54.6875 
z
" id="DejaVuSans-78"/>
     <path d="M 9.8125 72.90625 
L 19.671875 72.90625 
L 19.671875 8.296875 
L 55.171875 8.296875 
L 55.171875 0 
L 9.8125 0 
z
" id="DejaVuSans-4c"/>
     <path d="M 45.40625 27.984375 
Q 45.40625 37.75 41.375 43.109375 
Q 37.359375 48.484375 30.078125 48.484375 
Q 22.859375 48.484375 18.828125 43.109375 
Q 14.796875 37.75 14.796875 27.984375 
Q 14.796875 18.265625 18.828125 12.890625 
Q 22.859375 7.515625 30.078125 7.515625 
Q 37.359375 7.515625 41.375 12.890625 
Q 45.40625 18.265625 45.40625 27.984375 
z
M 54.390625 6.78125 
Q 54.390625 -7.171875 48.1875 -13.984375 
Q 42 -20.796875 29.203125 -20.796875 
Q 24.46875 -20.796875 20.265625 -20.09375 
Q 16.0625 -19.390625 12.109375 -17.921875 
L 12.109375 -9.1875 
Q 16.0625 -11.328125 19.921875 -12.34375 
Q 23.78125 -13.375 27.78125 -13.375 
Q 36.625 -13.375 41.015625 -8.765625 
Q 45.40625 -4.15625 45.40625 5.171875 
L 45.40625 9.625 
Q 42.625 4.78125 38.28125 2.390625 
Q 33.9375 0 27.875 0 
Q 17.828125 0 11.671875 7.65625 
Q 5.515625 15.328125 5.515625 27.984375 
Q 5.515625 40.671875 11.671875 48.328125 
Q 17.828125 56 27.875 56 
Q 33.9375 56 38.28125 53.609375 
Q 42.625 51.21875 45.40625 46.390625 
L 45.40625 54.6875 
L 54.390625 54.6875 
z
" id="DejaVuSans-67"/>
     <path id="DejaVuSans-20"/>
     <path d="M 4.890625 31.390625 
L 31.203125 31.390625 
L 31.203125 23.390625 
L 4.890625 23.390625 
z
" id="DejaVuSans-2d"/>
     <path d="M 64.40625 67.28125 
L 64.40625 56.890625 
Q 59.421875 61.53125 53.78125 63.8125 
Q 48.140625 66.109375 41.796875 66.109375 
Q 29.296875 66.109375 22.65625 58.46875 
Q 16.015625 50.828125 16.015625 36.375 
Q 16.015625 21.96875 22.65625 14.328125 
Q 29.296875 6.6875 41.796875 6.6875 
Q 48.140625 6.6875 53.78125 8.984375 
Q 59.421875 11.28125 64.40625 15.921875 
L 64.40625 5.609375 
Q 59.234375 2.09375 53.4375 0.328125 
Q 47.65625 -1.421875 41.21875 -1.421875 
Q 24.65625 -1.421875 15.125 8.703125 
Q 5.609375 18.84375 5.609375 36.375 
Q 5.609375 53.953125 15.125 64.078125 
Q 24.65625 74.21875 41.21875 74.21875 
Q 47.75 74.21875 53.53125 72.484375 
Q 59.328125 70.75 64.40625 67.28125 
z
" id="DejaVuSans-43"/>
     <path d="M 9.8125 72.90625 
L 19.671875 72.90625 
L 19.671875 0 
L 9.8125 0 
z
" id="DejaVuSans-49"/>
     <path d="M 9.8125 72.90625 
L 51.703125 72.90625 
L 51.703125 64.59375 
L 19.671875 64.59375 
L 19.671875 43.109375 
L 48.578125 43.109375 
L 48.578125 34.8125 
L 19.671875 34.8125 
L 19.671875 0 
L 9.8125 0 
z
" id="DejaVuSans-46"/>
     <path d="M 34.1875 63.1875 
L 20.796875 26.90625 
L 47.609375 26.90625 
z
M 28.609375 72.90625 
L 39.796875 72.90625 
L 67.578125 0 
L 57.328125 0 
L 50.6875 18.703125 
L 17.828125 18.703125 
L 11.1875 0 
L 0.78125 0 
z
" id="DejaVuSans-41"/>
     <path d="M 44.390625 34.1875 
Q 47.5625 33.109375 50.5625 29.59375 
Q 53.5625 26.078125 56.59375 19.921875 
L 66.609375 0 
L 56 0 
L 46.6875 18.703125 
Q 43.0625 26.03125 39.671875 28.421875 
Q 36.28125 30.8125 30.421875 30.8125 
L 19.671875 30.8125 
L 19.671875 0 
L 9.8125 0 
L 9.8125 72.90625 
L 32.078125 72.90625 
Q 44.578125 72.90625 50.734375 67.671875 
Q 56.890625 62.453125 56.890625 51.90625 
Q 56.890625 45.015625 53.6875 40.46875 
Q 50.484375 35.9375 44.390625 34.1875 
z
M 19.671875 64.796875 
L 19.671875 38.921875 
L 32.078125 38.921875 
Q 39.203125 38.921875 42.84375 42.21875 
Q 46.484375 45.515625 46.484375 51.90625 
Q 46.484375 58.296875 42.84375 61.546875 
Q 39.203125 64.796875 32.078125 64.796875 
z
" id="DejaVuSans-52"/>
     <path d="M 40.578125 39.3125 
Q 47.65625 37.796875 51.625 33 
Q 55.609375 28.21875 55.609375 21.1875 
Q 55.609375 10.40625 48.1875 4.484375 
Q 40.765625 -1.421875 27.09375 -1.421875 
Q 22.515625 -1.421875 17.65625 -0.515625 
Q 12.796875 0.390625 7.625 2.203125 
L 7.625 11.71875 
Q 11.71875 9.328125 16.59375 8.109375 
Q 21.484375 6.890625 26.8125 6.890625 
Q 36.078125 6.890625 40.9375 10.546875 
Q 45.796875 14.203125 45.796875 21.1875 
Q 45.796875 27.640625 41.28125 31.265625 
Q 36.765625 34.90625 28.71875 34.90625 
L 20.21875 34.90625 
L 20.21875 43.015625 
L 29.109375 43.015625 
Q 36.375 43.015625 40.234375 45.921875 
Q 44.09375 48.828125 44.09375 54.296875 
Q 44.09375 59.90625 40.109375 62.90625 
Q 36.140625 65.921875 28.71875 65.921875 
Q 24.65625 65.921875 20.015625 65.03125 
Q 15.375 64.15625 9.8125 62.3125 
L 9.8125 71.09375 
Q 15.4375 72.65625 20.34375 73.4375 
Q 25.25 74.21875 29.59375 74.21875 
Q 40.828125 74.21875 47.359375 69.109375 
Q 53.90625 64.015625 53.90625 55.328125 
Q 53.90625 49.265625 50.4375 45.09375 
Q 46.96875 40.921875 40.578125 39.3125 
z
" id="DejaVuSans-33"/>
     <path d="M 34.28125 27.484375 
Q 23.390625 27.484375 19.1875 25 
Q 14.984375 22.515625 14.984375 16.5 
Q 14.984375 11.71875 18.140625 8.90625 
Q 21.296875 6.109375 26.703125 6.109375 
Q 34.1875 6.109375 38.703125 11.40625 
Q 43.21875 16.703125 43.21875 25.484375 
L 43.21875 27.484375 
z
M 52.203125 31.203125 
L 52.203125 0 
L 43.21875 0 
L 43.21875 8.296875 
Q 40.140625 3.328125 35.546875 0.953125 
Q 30.953125 -1.421875 24.3125 -1.421875 
Q 15.921875 -1.421875 10.953125 3.296875 
Q 6 8.015625 6 15.921875 
Q 6 25.140625 12.171875 29.828125 
Q 18.359375 34.515625 30.609375 34.515625 
L 43.21875 34.515625 
L 43.21875 35.40625 
Q 43.21875 41.609375 39.140625 45 
Q 35.0625 48.390625 27.6875 48.390625 
Q 23 48.390625 18.546875 47.265625 
Q 14.109375 46.140625 10.015625 43.890625 
L 10.015625 52.203125 
Q 14.9375 54.109375 19.578125 55.046875 
Q 24.21875 56 28.609375 56 
Q 40.484375 56 46.34375 49.84375 
Q 52.203125 43.703125 52.203125 31.203125 
z
" id="DejaVuSans-61"/>
     <path d="M 32.171875 -5.078125 
Q 28.375 -14.84375 24.75 -17.8125 
Q 21.140625 -20.796875 15.09375 -20.796875 
L 7.90625 -20.796875 
L 7.90625 -13.28125 
L 13.1875 -13.28125 
Q 16.890625 -13.28125 18.9375 -11.515625 
Q 21 -9.765625 23.484375 -3.21875 
L 25.09375 0.875 
L 2.984375 54.6875 
L 12.5 54.6875 
L 29.59375 11.921875 
L 46.6875 54.6875 
L 56.203125 54.6875 
z
" id="DejaVuSans-79"/>
     <path d="M 41.109375 46.296875 
Q 39.59375 47.171875 37.8125 47.578125 
Q 36.03125 48 33.890625 48 
Q 26.265625 48 22.1875 43.046875 
Q 18.109375 38.09375 18.109375 28.8125 
L 18.109375 0 
L 9.078125 0 
L 9.078125 54.6875 
L 18.109375 54.6875 
L 18.109375 46.1875 
Q 20.953125 51.171875 25.484375 53.578125 
Q 30.03125 56 36.53125 56 
Q 37.453125 56 38.578125 55.875 
Q 39.703125 55.765625 41.0625 55.515625 
z
" id="DejaVuSans-72"/>
     <path d="M 9.8125 72.90625 
L 23.09375 72.90625 
L 55.421875 11.921875 
L 55.421875 72.90625 
L 64.984375 72.90625 
L 64.984375 0 
L 51.703125 0 
L 19.390625 60.984375 
L 19.390625 0 
L 9.8125 0 
z
" id="DejaVuSans-4e"/>
    </defs>
    <g transform="translate(136.7475 35.472)scale(0.12 -0.12)">
     <use xlink:href="#DejaVuSans-53"/>
     <use x="63.476562" xlink:href="#DejaVuSans-45"/>
     <use x="126.660156" xlink:href="#DejaVuSans-78"/>
     <use x="185.839844" xlink:href="#DejaVuSans-70"/>
     <use x="249.316406" xlink:href="#DejaVuSans-4c"/>
     <use x="305.013672" xlink:href="#DejaVuSans-6f"/>
     <use x="366.195312" xlink:href="#DejaVuSans-67"/>
     <use x="429.671875" xlink:href="#DejaVuSans-20"/>
     <use x="461.458984" xlink:href="#DejaVuSans-2d"/>
     <use x="497.542969" xlink:href="#DejaVuSans-20"/>
     <use x="529.330078" xlink:href="#DejaVuSans-43"/>
     <use x="599.154297" xlink:href="#DejaVuSans-49"/>
     <use x="628.646484" xlink:href="#DejaVuSans-46"/>
     <use x="686.025391" xlink:href="#DejaVuSans-41"/>
     <use x="754.433594" xlink:href="#DejaVuSans-52"/>
     <use x="823.916016" xlink:href="#DejaVuSans-31"/>
     <use x="887.539062" xlink:href="#DejaVuSans-30"/>
     <use x="951.162109" xlink:href="#DejaVuSans-20"/>
     <use x="982.949219" xlink:href="#DejaVuSans-2d"/>
     <use x="1019.033203" xlink:href="#DejaVuSans-20"/>
     <use x="1050.820312" xlink:href="#DejaVuSans-33"/>
     <use x="1114.443359" xlink:href="#DejaVuSans-2d"/>
     <use x="1150.527344" xlink:href="#DejaVuSans-6c"/>
     <use x="1178.310547" xlink:href="#DejaVuSans-61"/>
     <use x="1239.589844" xlink:href="#DejaVuSans-79"/>
     <use x="1298.769531" xlink:href="#DejaVuSans-65"/>
     <use x="1360.292969" xlink:href="#DejaVuSans-72"/>
     <use x="1401.3125" xlink:href="#DejaVuSans-2d"/>
     <use x="1437.396484" xlink:href="#DejaVuSans-43"/>
     <use x="1507.220703" xlink:href="#DejaVuSans-4e"/>
     <use x="1582.025391" xlink:href="#DejaVuSans-4e"/>
    </g>
   </g>
   <g id="legend_1">
    <g id="patch_7">
     <path d="M 190.084219 137.54075 
L 282.235781 137.54075 
Q 284.235781 137.54075 284.235781 135.54075 
L 284.235781 48.472 
Q 284.235781 46.472 282.235781 46.472 
L 190.084219 46.472 
Q 188.084219 46.472 188.084219 48.472 
L 188.084219 135.54075 
Q 188.084219 137.54075 190.084219 137.54075 
z
" style="fill:#ffffff;opacity:0.8;stroke:#cccccc;stroke-linejoin:miter;"/>
    </g>
    <g id="line2d_21">
     <path d="M 192.084219 54.570438 
L 212.084219 54.570438 
" style="fill:none;stroke:#1f77b4;stroke-linecap:square;stroke-width:1.5;"/>
    </g>
    <g id="line2d_22"/>
    <g id="text_18">
     <!-- adam .01 -->
     <defs>
      <path d="M 45.40625 46.390625 
L 45.40625 75.984375 
L 54.390625 75.984375 
L 54.390625 0 
L 45.40625 0 
L 45.40625 8.203125 
Q 42.578125 3.328125 38.25 0.953125 
Q 33.9375 -1.421875 27.875 -1.421875 
Q 17.96875 -1.421875 11.734375 6.484375 
Q 5.515625 14.40625 5.515625 27.296875 
Q 5.515625 40.1875 11.734375 48.09375 
Q 17.96875 56 27.875 56 
Q 33.9375 56 38.25 53.625 
Q 42.578125 51.265625 45.40625 46.390625 
z
M 14.796875 27.296875 
Q 14.796875 17.390625 18.875 11.75 
Q 22.953125 6.109375 30.078125 6.109375 
Q 37.203125 6.109375 41.296875 11.75 
Q 45.40625 17.390625 45.40625 27.296875 
Q 45.40625 37.203125 41.296875 42.84375 
Q 37.203125 48.484375 30.078125 48.484375 
Q 22.953125 48.484375 18.875 42.84375 
Q 14.796875 37.203125 14.796875 27.296875 
z
" id="DejaVuSans-64"/>
      <path d="M 52 44.1875 
Q 55.375 50.25 60.0625 53.125 
Q 64.75 56 71.09375 56 
Q 79.640625 56 84.28125 50.015625 
Q 88.921875 44.046875 88.921875 33.015625 
L 88.921875 0 
L 79.890625 0 
L 79.890625 32.71875 
Q 79.890625 40.578125 77.09375 44.375 
Q 74.3125 48.1875 68.609375 48.1875 
Q 61.625 48.1875 57.5625 43.546875 
Q 53.515625 38.921875 53.515625 30.90625 
L 53.515625 0 
L 44.484375 0 
L 44.484375 32.71875 
Q 44.484375 40.625 41.703125 44.40625 
Q 38.921875 48.1875 33.109375 48.1875 
Q 26.21875 48.1875 22.15625 43.53125 
Q 18.109375 38.875 18.109375 30.90625 
L 18.109375 0 
L 9.078125 0 
L 9.078125 54.6875 
L 18.109375 54.6875 
L 18.109375 46.1875 
Q 21.1875 51.21875 25.484375 53.609375 
Q 29.78125 56 35.6875 56 
Q 41.65625 56 45.828125 52.96875 
Q 50 49.953125 52 44.1875 
z
" id="DejaVuSans-6d"/>
     </defs>
     <g transform="translate(220.084219 58.070438)scale(0.1 -0.1)">
      <use xlink:href="#DejaVuSans-61"/>
      <use x="61.279297" xlink:href="#DejaVuSans-64"/>
      <use x="124.755859" xlink:href="#DejaVuSans-61"/>
      <use x="186.035156" xlink:href="#DejaVuSans-6d"/>
      <use x="283.447266" xlink:href="#DejaVuSans-20"/>
      <use x="315.234375" xlink:href="#DejaVuSans-2e"/>
      <use x="347.021484" xlink:href="#DejaVuSans-30"/>
      <use x="410.644531" xlink:href="#DejaVuSans-31"/>
     </g>
    </g>
    <g id="line2d_23">
     <path d="M 192.084219 69.248563 
L 212.084219 69.248563 
" style="fill:none;stroke:#ff7f0e;stroke-linecap:square;stroke-width:1.5;"/>
    </g>
    <g id="line2d_24"/>
    <g id="text_19">
     <!-- adam .001 -->
     <g transform="translate(220.084219 72.748563)scale(0.1 -0.1)">
      <use xlink:href="#DejaVuSans-61"/>
      <use x="61.279297" xlink:href="#DejaVuSans-64"/>
      <use x="124.755859" xlink:href="#DejaVuSans-61"/>
      <use x="186.035156" xlink:href="#DejaVuSans-6d"/>
      <use x="283.447266" xlink:href="#DejaVuSans-20"/>
      <use x="315.234375" xlink:href="#DejaVuSans-2e"/>
      <use x="347.021484" xlink:href="#DejaVuSans-30"/>
      <use x="410.644531" xlink:href="#DejaVuSans-30"/>
      <use x="474.267578" xlink:href="#DejaVuSans-31"/>
     </g>
    </g>
    <g id="line2d_25">
     <path d="M 192.084219 83.926688 
L 212.084219 83.926688 
" style="fill:none;stroke:#2ca02c;stroke-linecap:square;stroke-width:1.5;"/>
    </g>
    <g id="line2d_26"/>
    <g id="text_20">
     <!-- adam .0001 -->
     <g transform="translate(220.084219 87.426688)scale(0.1 -0.1)">
      <use xlink:href="#DejaVuSans-61"/>
      <use x="61.279297" xlink:href="#DejaVuSans-64"/>
      <use x="124.755859" xlink:href="#DejaVuSans-61"/>
      <use x="186.035156" xlink:href="#DejaVuSans-6d"/>
      <use x="283.447266" xlink:href="#DejaVuSans-20"/>
      <use x="315.234375" xlink:href="#DejaVuSans-2e"/>
      <use x="347.021484" xlink:href="#DejaVuSans-30"/>
      <use x="410.644531" xlink:href="#DejaVuSans-30"/>
      <use x="474.267578" xlink:href="#DejaVuSans-30"/>
      <use x="537.890625" xlink:href="#DejaVuSans-31"/>
     </g>
    </g>
    <g id="line2d_27">
     <path d="M 192.084219 98.604813 
L 212.084219 98.604813 
" style="fill:none;stroke:#d62728;stroke-linecap:square;stroke-width:1.5;"/>
    </g>
    <g id="line2d_28"/>
    <g id="text_21">
     <!-- SGD .01 -->
     <defs>
      <path d="M 59.515625 10.40625 
L 59.515625 29.984375 
L 43.40625 29.984375 
L 43.40625 38.09375 
L 69.28125 38.09375 
L 69.28125 6.78125 
Q 63.578125 2.734375 56.6875 0.65625 
Q 49.8125 -1.421875 42 -1.421875 
Q 24.90625 -1.421875 15.25 8.5625 
Q 5.609375 18.5625 5.609375 36.375 
Q 5.609375 54.25 15.25 64.234375 
Q 24.90625 74.21875 42 74.21875 
Q 49.125 74.21875 55.546875 72.453125 
Q 61.96875 70.703125 67.390625 67.28125 
L 67.390625 56.78125 
Q 61.921875 61.421875 55.765625 63.765625 
Q 49.609375 66.109375 42.828125 66.109375 
Q 29.4375 66.109375 22.71875 58.640625 
Q 16.015625 51.171875 16.015625 36.375 
Q 16.015625 21.625 22.71875 14.15625 
Q 29.4375 6.6875 42.828125 6.6875 
Q 48.046875 6.6875 52.140625 7.59375 
Q 56.25 8.5 59.515625 10.40625 
z
" id="DejaVuSans-47"/>
      <path d="M 19.671875 64.796875 
L 19.671875 8.109375 
L 31.59375 8.109375 
Q 46.6875 8.109375 53.6875 14.9375 
Q 60.6875 21.78125 60.6875 36.53125 
Q 60.6875 51.171875 53.6875 57.984375 
Q 46.6875 64.796875 31.59375 64.796875 
z
M 9.8125 72.90625 
L 30.078125 72.90625 
Q 51.265625 72.90625 61.171875 64.09375 
Q 71.09375 55.28125 71.09375 36.53125 
Q 71.09375 17.671875 61.125 8.828125 
Q 51.171875 0 30.078125 0 
L 9.8125 0 
z
" id="DejaVuSans-44"/>
     </defs>
     <g transform="translate(220.084219 102.104813)scale(0.1 -0.1)">
      <use xlink:href="#DejaVuSans-53"/>
      <use x="63.476562" xlink:href="#DejaVuSans-47"/>
      <use x="140.966797" xlink:href="#DejaVuSans-44"/>
      <use x="217.96875" xlink:href="#DejaVuSans-20"/>
      <use x="249.755859" xlink:href="#DejaVuSans-2e"/>
      <use x="281.542969" xlink:href="#DejaVuSans-30"/>
      <use x="345.166016" xlink:href="#DejaVuSans-31"/>
     </g>
    </g>
    <g id="line2d_29">
     <path d="M 192.084219 113.282938 
L 212.084219 113.282938 
" style="fill:none;stroke:#9467bd;stroke-linecap:square;stroke-width:1.5;"/>
    </g>
    <g id="line2d_30"/>
    <g id="text_22">
     <!-- SGD .001 -->
     <g transform="translate(220.084219 116.782938)scale(0.1 -0.1)">
      <use xlink:href="#DejaVuSans-53"/>
      <use x="63.476562" xlink:href="#DejaVuSans-47"/>
      <use x="140.966797" xlink:href="#DejaVuSans-44"/>
      <use x="217.96875" xlink:href="#DejaVuSans-20"/>
      <use x="249.755859" xlink:href="#DejaVuSans-2e"/>
      <use x="281.542969" xlink:href="#DejaVuSans-30"/>
      <use x="345.166016" xlink:href="#DejaVuSans-30"/>
      <use x="408.789062" xlink:href="#DejaVuSans-31"/>
     </g>
    </g>
    <g id="line2d_31">
     <path d="M 192.084219 127.961063 
L 212.084219 127.961063 
" style="fill:none;stroke:#8c564b;stroke-linecap:square;stroke-width:1.5;"/>
    </g>
    <g id="line2d_32"/>
    <g id="text_23">
     <!-- SGD .0001 -->
     <g transform="translate(220.084219 131.461063)scale(0.1 -0.1)">
      <use xlink:href="#DejaVuSans-53"/>
      <use x="63.476562" xlink:href="#DejaVuSans-47"/>
      <use x="140.966797" xlink:href="#DejaVuSans-44"/>
      <use x="217.96875" xlink:href="#DejaVuSans-20"/>
      <use x="249.755859" xlink:href="#DejaVuSans-2e"/>
      <use x="281.542969" xlink:href="#DejaVuSans-30"/>
      <use x="345.166016" xlink:href="#DejaVuSans-30"/>
      <use x="408.789062" xlink:href="#DejaVuSans-30"/>
      <use x="472.412109" xlink:href="#DejaVuSans-31"/>
     </g>
    </g>
   </g>
  </g>
 </g>
 <defs>
  <clipPath id="p2139966103">
   <rect height="266.112" width="357.12" x="57.6" y="41.472"/>
  </clipPath>
 </defs>
</svg>
