<?xml version="1.0" encoding="utf-8" standalone="no"?>
<!DOCTYPE svg PUBLIC "-//W3C//DTD SVG 1.1//EN"
  "http://www.w3.org/Graphics/SVG/1.1/DTD/svg11.dtd">
<!-- Created with matplotlib (http://matplotlib.org/) -->
<svg height="345pt" version="1.1" viewBox="0 0 460 345" width="460pt" xmlns="http://www.w3.org/2000/svg" xmlns:xlink="http://www.w3.org/1999/xlink">
 <defs>
  <style type="text/css">
*{stroke-linecap:butt;stroke-linejoin:round;}
  </style>
 </defs>
 <g id="figure_1">
  <g id="patch_1">
   <path d="M 0 345.6 
L 460.8 345.6 
L 460.8 0 
L 0 0 
z
" style="fill:#ffffff;"/>
  </g>
  <g id="axes_1">
   <g id="patch_2">
    <path d="M 57.6 307.584 
L 414.72 307.584 
L 414.72 41.472 
L 57.6 41.472 
z
" style="fill:#ffffff;"/>
   </g>
   <g id="matplotlib.axis_1">
    <g id="xtick_1">
     <g id="line2d_1">
      <defs>
       <path d="M 0 0 
L 0 3.5 
" id="m975634b962" style="stroke:#000000;stroke-width:0.8;"/>
      </defs>
      <g>
       <use style="stroke:#000000;stroke-width:0.8;" x="73.832727" xlink:href="#m975634b962" y="307.584"/>
      </g>
     </g>
     <g id="text_1">
      <!-- 0 -->
      <defs>
       <path d="M 31.78125 66.40625 
Q 24.171875 66.40625 20.328125 58.90625 
Q 16.5 51.421875 16.5 36.375 
Q 16.5 21.390625 20.328125 13.890625 
Q 24.171875 6.390625 31.78125 6.390625 
Q 39.453125 6.390625 43.28125 13.890625 
Q 47.125 21.390625 47.125 36.375 
Q 47.125 51.421875 43.28125 58.90625 
Q 39.453125 66.40625 31.78125 66.40625 
z
M 31.78125 74.21875 
Q 44.046875 74.21875 50.515625 64.515625 
Q 56.984375 54.828125 56.984375 36.375 
Q 56.984375 17.96875 50.515625 8.265625 
Q 44.046875 -1.421875 31.78125 -1.421875 
Q 19.53125 -1.421875 13.0625 8.265625 
Q 6.59375 17.96875 6.59375 36.375 
Q 6.59375 54.828125 13.0625 64.515625 
Q 19.53125 74.21875 31.78125 74.21875 
z
" id="DejaVuSans-30"/>
      </defs>
      <g transform="translate(70.651477 322.182437)scale(0.1 -0.1)">
       <use xlink:href="#DejaVuSans-30"/>
      </g>
     </g>
    </g>
    <g id="xtick_2">
     <g id="line2d_2">
      <g>
       <use style="stroke:#000000;stroke-width:0.8;" x="139.419504" xlink:href="#m975634b962" y="307.584"/>
      </g>
     </g>
     <g id="text_2">
      <!-- 20 -->
      <defs>
       <path d="M 19.1875 8.296875 
L 53.609375 8.296875 
L 53.609375 0 
L 7.328125 0 
L 7.328125 8.296875 
Q 12.9375 14.109375 22.625 23.890625 
Q 32.328125 33.6875 34.8125 36.53125 
Q 39.546875 41.84375 41.421875 45.53125 
Q 43.3125 49.21875 43.3125 52.78125 
Q 43.3125 58.59375 39.234375 62.25 
Q 35.15625 65.921875 28.609375 65.921875 
Q 23.96875 65.921875 18.8125 64.3125 
Q 13.671875 62.703125 7.8125 59.421875 
L 7.8125 69.390625 
Q 13.765625 71.78125 18.9375 73 
Q 24.125 74.21875 28.421875 74.21875 
Q 39.75 74.21875 46.484375 68.546875 
Q 53.21875 62.890625 53.21875 53.421875 
Q 53.21875 48.921875 51.53125 44.890625 
Q 49.859375 40.875 45.40625 35.40625 
Q 44.1875 33.984375 37.640625 27.21875 
Q 31.109375 20.453125 19.1875 8.296875 
z
" id="DejaVuSans-32"/>
      </defs>
      <g transform="translate(133.057004 322.182437)scale(0.1 -0.1)">
       <use xlink:href="#DejaVuSans-32"/>
       <use x="63.623047" xlink:href="#DejaVuSans-30"/>
      </g>
     </g>
    </g>
    <g id="xtick_3">
     <g id="line2d_3">
      <g>
       <use style="stroke:#000000;stroke-width:0.8;" x="205.006281" xlink:href="#m975634b962" y="307.584"/>
      </g>
     </g>
     <g id="text_3">
      <!-- 40 -->
      <defs>
       <path d="M 37.796875 64.3125 
L 12.890625 25.390625 
L 37.796875 25.390625 
z
M 35.203125 72.90625 
L 47.609375 72.90625 
L 47.609375 25.390625 
L 58.015625 25.390625 
L 58.015625 17.1875 
L 47.609375 17.1875 
L 47.609375 0 
L 37.796875 0 
L 37.796875 17.1875 
L 4.890625 17.1875 
L 4.890625 26.703125 
z
" id="DejaVuSans-34"/>
      </defs>
      <g transform="translate(198.643781 322.182437)scale(0.1 -0.1)">
       <use xlink:href="#DejaVuSans-34"/>
       <use x="63.623047" xlink:href="#DejaVuSans-30"/>
      </g>
     </g>
    </g>
    <g id="xtick_4">
     <g id="line2d_4">
      <g>
       <use style="stroke:#000000;stroke-width:0.8;" x="270.593058" xlink:href="#m975634b962" y="307.584"/>
      </g>
     </g>
     <g id="text_4">
      <!-- 60 -->
      <defs>
       <path d="M 33.015625 40.375 
Q 26.375 40.375 22.484375 35.828125 
Q 18.609375 31.296875 18.609375 23.390625 
Q 18.609375 15.53125 22.484375 10.953125 
Q 26.375 6.390625 33.015625 6.390625 
Q 39.65625 6.390625 43.53125 10.953125 
Q 47.40625 15.53125 47.40625 23.390625 
Q 47.40625 31.296875 43.53125 35.828125 
Q 39.65625 40.375 33.015625 40.375 
z
M 52.59375 71.296875 
L 52.59375 62.3125 
Q 48.875 64.0625 45.09375 64.984375 
Q 41.3125 65.921875 37.59375 65.921875 
Q 27.828125 65.921875 22.671875 59.328125 
Q 17.53125 52.734375 16.796875 39.40625 
Q 19.671875 43.65625 24.015625 45.921875 
Q 28.375 48.1875 33.59375 48.1875 
Q 44.578125 48.1875 50.953125 41.515625 
Q 57.328125 34.859375 57.328125 23.390625 
Q 57.328125 12.15625 50.6875 5.359375 
Q 44.046875 -1.421875 33.015625 -1.421875 
Q 20.359375 -1.421875 13.671875 8.265625 
Q 6.984375 17.96875 6.984375 36.375 
Q 6.984375 53.65625 15.1875 63.9375 
Q 23.390625 74.21875 37.203125 74.21875 
Q 40.921875 74.21875 44.703125 73.484375 
Q 48.484375 72.75 52.59375 71.296875 
z
" id="DejaVuSans-36"/>
      </defs>
      <g transform="translate(264.230558 322.182437)scale(0.1 -0.1)">
       <use xlink:href="#DejaVuSans-36"/>
       <use x="63.623047" xlink:href="#DejaVuSans-30"/>
      </g>
     </g>
    </g>
    <g id="xtick_5">
     <g id="line2d_5">
      <g>
       <use style="stroke:#000000;stroke-width:0.8;" x="336.179835" xlink:href="#m975634b962" y="307.584"/>
      </g>
     </g>
     <g id="text_5">
      <!-- 80 -->
      <defs>
       <path d="M 31.78125 34.625 
Q 24.75 34.625 20.71875 30.859375 
Q 16.703125 27.09375 16.703125 20.515625 
Q 16.703125 13.921875 20.71875 10.15625 
Q 24.75 6.390625 31.78125 6.390625 
Q 38.8125 6.390625 42.859375 10.171875 
Q 46.921875 13.96875 46.921875 20.515625 
Q 46.921875 27.09375 42.890625 30.859375 
Q 38.875 34.625 31.78125 34.625 
z
M 21.921875 38.8125 
Q 15.578125 40.375 12.03125 44.71875 
Q 8.5 49.078125 8.5 55.328125 
Q 8.5 64.0625 14.71875 69.140625 
Q 20.953125 74.21875 31.78125 74.21875 
Q 42.671875 74.21875 48.875 69.140625 
Q 55.078125 64.0625 55.078125 55.328125 
Q 55.078125 49.078125 51.53125 44.71875 
Q 48 40.375 41.703125 38.8125 
Q 48.828125 37.15625 52.796875 32.3125 
Q 56.78125 27.484375 56.78125 20.515625 
Q 56.78125 9.90625 50.3125 4.234375 
Q 43.84375 -1.421875 31.78125 -1.421875 
Q 19.734375 -1.421875 13.25 4.234375 
Q 6.78125 9.90625 6.78125 20.515625 
Q 6.78125 27.484375 10.78125 32.3125 
Q 14.796875 37.15625 21.921875 38.8125 
z
M 18.3125 54.390625 
Q 18.3125 48.734375 21.84375 45.5625 
Q 25.390625 42.390625 31.78125 42.390625 
Q 38.140625 42.390625 41.71875 45.5625 
Q 45.3125 48.734375 45.3125 54.390625 
Q 45.3125 60.0625 41.71875 63.234375 
Q 38.140625 66.40625 31.78125 66.40625 
Q 25.390625 66.40625 21.84375 63.234375 
Q 18.3125 60.0625 18.3125 54.390625 
z
" id="DejaVuSans-38"/>
      </defs>
      <g transform="translate(329.817335 322.182437)scale(0.1 -0.1)">
       <use xlink:href="#DejaVuSans-38"/>
       <use x="63.623047" xlink:href="#DejaVuSans-30"/>
      </g>
     </g>
    </g>
    <g id="xtick_6">
     <g id="line2d_6">
      <g>
       <use style="stroke:#000000;stroke-width:0.8;" x="401.766612" xlink:href="#m975634b962" y="307.584"/>
      </g>
     </g>
     <g id="text_6">
      <!-- 100 -->
      <defs>
       <path d="M 12.40625 8.296875 
L 28.515625 8.296875 
L 28.515625 63.921875 
L 10.984375 60.40625 
L 10.984375 69.390625 
L 28.421875 72.90625 
L 38.28125 72.90625 
L 38.28125 8.296875 
L 54.390625 8.296875 
L 54.390625 0 
L 12.40625 0 
z
" id="DejaVuSans-31"/>
      </defs>
      <g transform="translate(392.222862 322.182437)scale(0.1 -0.1)">
       <use xlink:href="#DejaVuSans-31"/>
       <use x="63.623047" xlink:href="#DejaVuSans-30"/>
       <use x="127.246094" xlink:href="#DejaVuSans-30"/>
      </g>
     </g>
    </g>
    <g id="text_7">
     <!-- epoch -->
     <defs>
      <path d="M 56.203125 29.59375 
L 56.203125 25.203125 
L 14.890625 25.203125 
Q 15.484375 15.921875 20.484375 11.0625 
Q 25.484375 6.203125 34.421875 6.203125 
Q 39.59375 6.203125 44.453125 7.46875 
Q 49.3125 8.734375 54.109375 11.28125 
L 54.109375 2.78125 
Q 49.265625 0.734375 44.1875 -0.34375 
Q 39.109375 -1.421875 33.890625 -1.421875 
Q 20.796875 -1.421875 13.15625 6.1875 
Q 5.515625 13.8125 5.515625 26.8125 
Q 5.515625 40.234375 12.765625 48.109375 
Q 20.015625 56 32.328125 56 
Q 43.359375 56 49.78125 48.890625 
Q 56.203125 41.796875 56.203125 29.59375 
z
M 47.21875 32.234375 
Q 47.125 39.59375 43.09375 43.984375 
Q 39.0625 48.390625 32.421875 48.390625 
Q 24.90625 48.390625 20.390625 44.140625 
Q 15.875 39.890625 15.1875 32.171875 
z
" id="DejaVuSans-65"/>
      <path d="M 18.109375 8.203125 
L 18.109375 -20.796875 
L 9.078125 -20.796875 
L 9.078125 54.6875 
L 18.109375 54.6875 
L 18.109375 46.390625 
Q 20.953125 51.265625 25.265625 53.625 
Q 29.59375 56 35.59375 56 
Q 45.5625 56 51.78125 48.09375 
Q 58.015625 40.1875 58.015625 27.296875 
Q 58.015625 14.40625 51.78125 6.484375 
Q 45.5625 -1.421875 35.59375 -1.421875 
Q 29.59375 -1.421875 25.265625 0.953125 
Q 20.953125 3.328125 18.109375 8.203125 
z
M 48.6875 27.296875 
Q 48.6875 37.203125 44.609375 42.84375 
Q 40.53125 48.484375 33.40625 48.484375 
Q 26.265625 48.484375 22.1875 42.84375 
Q 18.109375 37.203125 18.109375 27.296875 
Q 18.109375 17.390625 22.1875 11.75 
Q 26.265625 6.109375 33.40625 6.109375 
Q 40.53125 6.109375 44.609375 11.75 
Q 48.6875 17.390625 48.6875 27.296875 
z
" id="DejaVuSans-70"/>
      <path d="M 30.609375 48.390625 
Q 23.390625 48.390625 19.1875 42.75 
Q 14.984375 37.109375 14.984375 27.296875 
Q 14.984375 17.484375 19.15625 11.84375 
Q 23.34375 6.203125 30.609375 6.203125 
Q 37.796875 6.203125 41.984375 11.859375 
Q 46.1875 17.53125 46.1875 27.296875 
Q 46.1875 37.015625 41.984375 42.703125 
Q 37.796875 48.390625 30.609375 48.390625 
z
M 30.609375 56 
Q 42.328125 56 49.015625 48.375 
Q 55.71875 40.765625 55.71875 27.296875 
Q 55.71875 13.875 49.015625 6.21875 
Q 42.328125 -1.421875 30.609375 -1.421875 
Q 18.84375 -1.421875 12.171875 6.21875 
Q 5.515625 13.875 5.515625 27.296875 
Q 5.515625 40.765625 12.171875 48.375 
Q 18.84375 56 30.609375 56 
z
" id="DejaVuSans-6f"/>
      <path d="M 48.78125 52.59375 
L 48.78125 44.1875 
Q 44.96875 46.296875 41.140625 47.34375 
Q 37.3125 48.390625 33.40625 48.390625 
Q 24.65625 48.390625 19.8125 42.84375 
Q 14.984375 37.3125 14.984375 27.296875 
Q 14.984375 17.28125 19.8125 11.734375 
Q 24.65625 6.203125 33.40625 6.203125 
Q 37.3125 6.203125 41.140625 7.25 
Q 44.96875 8.296875 48.78125 10.40625 
L 48.78125 2.09375 
Q 45.015625 0.34375 40.984375 -0.53125 
Q 36.96875 -1.421875 32.421875 -1.421875 
Q 20.0625 -1.421875 12.78125 6.34375 
Q 5.515625 14.109375 5.515625 27.296875 
Q 5.515625 40.671875 12.859375 48.328125 
Q 20.21875 56 33.015625 56 
Q 37.15625 56 41.109375 55.140625 
Q 45.0625 54.296875 48.78125 52.59375 
z
" id="DejaVuSans-63"/>
      <path d="M 54.890625 33.015625 
L 54.890625 0 
L 45.90625 0 
L 45.90625 32.71875 
Q 45.90625 40.484375 42.875 44.328125 
Q 39.84375 48.1875 33.796875 48.1875 
Q 26.515625 48.1875 22.3125 43.546875 
Q 18.109375 38.921875 18.109375 30.90625 
L 18.109375 0 
L 9.078125 0 
L 9.078125 75.984375 
L 18.109375 75.984375 
L 18.109375 46.1875 
Q 21.34375 51.125 25.703125 53.5625 
Q 30.078125 56 35.796875 56 
Q 45.21875 56 50.046875 50.171875 
Q 54.890625 44.34375 54.890625 33.015625 
z
" id="DejaVuSans-68"/>
     </defs>
     <g transform="translate(220.931875 335.860562)scale(0.1 -0.1)">
      <use xlink:href="#DejaVuSans-65"/>
      <use x="61.523438" xlink:href="#DejaVuSans-70"/>
      <use x="125" xlink:href="#DejaVuSans-6f"/>
      <use x="186.181641" xlink:href="#DejaVuSans-63"/>
      <use x="241.162109" xlink:href="#DejaVuSans-68"/>
     </g>
    </g>
   </g>
   <g id="matplotlib.axis_2">
    <g id="ytick_1">
     <g id="line2d_7">
      <defs>
       <path d="M 0 0 
L -3.5 0 
" id="m4efbea66bb" style="stroke:#000000;stroke-width:0.8;"/>
      </defs>
      <g>
       <use style="stroke:#000000;stroke-width:0.8;" x="57.6" xlink:href="#m4efbea66bb" y="293.643425"/>
      </g>
     </g>
     <g id="text_8">
      <!-- 10 -->
      <g transform="translate(37.875 297.442644)scale(0.1 -0.1)">
       <use xlink:href="#DejaVuSans-31"/>
       <use x="63.623047" xlink:href="#DejaVuSans-30"/>
      </g>
     </g>
    </g>
    <g id="ytick_2">
     <g id="line2d_8">
      <g>
       <use style="stroke:#000000;stroke-width:0.8;" x="57.6" xlink:href="#m4efbea66bb" y="253.543972"/>
      </g>
     </g>
     <g id="text_9">
      <!-- 20 -->
      <g transform="translate(37.875 257.343191)scale(0.1 -0.1)">
       <use xlink:href="#DejaVuSans-32"/>
       <use x="63.623047" xlink:href="#DejaVuSans-30"/>
      </g>
     </g>
    </g>
    <g id="ytick_3">
     <g id="line2d_9">
      <g>
       <use style="stroke:#000000;stroke-width:0.8;" x="57.6" xlink:href="#m4efbea66bb" y="213.444519"/>
      </g>
     </g>
     <g id="text_10">
      <!-- 30 -->
      <defs>
       <path d="M 40.578125 39.3125 
Q 47.65625 37.796875 51.625 33 
Q 55.609375 28.21875 55.609375 21.1875 
Q 55.609375 10.40625 48.1875 4.484375 
Q 40.765625 -1.421875 27.09375 -1.421875 
Q 22.515625 -1.421875 17.65625 -0.515625 
Q 12.796875 0.390625 7.625 2.203125 
L 7.625 11.71875 
Q 11.71875 9.328125 16.59375 8.109375 
Q 21.484375 6.890625 26.8125 6.890625 
Q 36.078125 6.890625 40.9375 10.546875 
Q 45.796875 14.203125 45.796875 21.1875 
Q 45.796875 27.640625 41.28125 31.265625 
Q 36.765625 34.90625 28.71875 34.90625 
L 20.21875 34.90625 
L 20.21875 43.015625 
L 29.109375 43.015625 
Q 36.375 43.015625 40.234375 45.921875 
Q 44.09375 48.828125 44.09375 54.296875 
Q 44.09375 59.90625 40.109375 62.90625 
Q 36.140625 65.921875 28.71875 65.921875 
Q 24.65625 65.921875 20.015625 65.03125 
Q 15.375 64.15625 9.8125 62.3125 
L 9.8125 71.09375 
Q 15.4375 72.65625 20.34375 73.4375 
Q 25.25 74.21875 29.59375 74.21875 
Q 40.828125 74.21875 47.359375 69.109375 
Q 53.90625 64.015625 53.90625 55.328125 
Q 53.90625 49.265625 50.4375 45.09375 
Q 46.96875 40.921875 40.578125 39.3125 
z
" id="DejaVuSans-33"/>
      </defs>
      <g transform="translate(37.875 217.243738)scale(0.1 -0.1)">
       <use xlink:href="#DejaVuSans-33"/>
       <use x="63.623047" xlink:href="#DejaVuSans-30"/>
      </g>
     </g>
    </g>
    <g id="ytick_4">
     <g id="line2d_10">
      <g>
       <use style="stroke:#000000;stroke-width:0.8;" x="57.6" xlink:href="#m4efbea66bb" y="173.345066"/>
      </g>
     </g>
     <g id="text_11">
      <!-- 40 -->
      <g transform="translate(37.875 177.144285)scale(0.1 -0.1)">
       <use xlink:href="#DejaVuSans-34"/>
       <use x="63.623047" xlink:href="#DejaVuSans-30"/>
      </g>
     </g>
    </g>
    <g id="ytick_5">
     <g id="line2d_11">
      <g>
       <use style="stroke:#000000;stroke-width:0.8;" x="57.6" xlink:href="#m4efbea66bb" y="133.245613"/>
      </g>
     </g>
     <g id="text_12">
      <!-- 50 -->
      <defs>
       <path d="M 10.796875 72.90625 
L 49.515625 72.90625 
L 49.515625 64.59375 
L 19.828125 64.59375 
L 19.828125 46.734375 
Q 21.96875 47.46875 24.109375 47.828125 
Q 26.265625 48.1875 28.421875 48.1875 
Q 40.625 48.1875 47.75 41.5 
Q 54.890625 34.8125 54.890625 23.390625 
Q 54.890625 11.625 47.5625 5.09375 
Q 40.234375 -1.421875 26.90625 -1.421875 
Q 22.3125 -1.421875 17.546875 -0.640625 
Q 12.796875 0.140625 7.71875 1.703125 
L 7.71875 11.625 
Q 12.109375 9.234375 16.796875 8.0625 
Q 21.484375 6.890625 26.703125 6.890625 
Q 35.15625 6.890625 40.078125 11.328125 
Q 45.015625 15.765625 45.015625 23.390625 
Q 45.015625 31 40.078125 35.4375 
Q 35.15625 39.890625 26.703125 39.890625 
Q 22.75 39.890625 18.8125 39.015625 
Q 14.890625 38.140625 10.796875 36.28125 
z
" id="DejaVuSans-35"/>
      </defs>
      <g transform="translate(37.875 137.044832)scale(0.1 -0.1)">
       <use xlink:href="#DejaVuSans-35"/>
       <use x="63.623047" xlink:href="#DejaVuSans-30"/>
      </g>
     </g>
    </g>
    <g id="ytick_6">
     <g id="line2d_12">
      <g>
       <use style="stroke:#000000;stroke-width:0.8;" x="57.6" xlink:href="#m4efbea66bb" y="93.14616"/>
      </g>
     </g>
     <g id="text_13">
      <!-- 60 -->
      <g transform="translate(37.875 96.945379)scale(0.1 -0.1)">
       <use xlink:href="#DejaVuSans-36"/>
       <use x="63.623047" xlink:href="#DejaVuSans-30"/>
      </g>
     </g>
    </g>
    <g id="ytick_7">
     <g id="line2d_13">
      <g>
       <use style="stroke:#000000;stroke-width:0.8;" x="57.6" xlink:href="#m4efbea66bb" y="53.046707"/>
      </g>
     </g>
     <g id="text_14">
      <!-- 70 -->
      <defs>
       <path d="M 8.203125 72.90625 
L 55.078125 72.90625 
L 55.078125 68.703125 
L 28.609375 0 
L 18.3125 0 
L 43.21875 64.59375 
L 8.203125 64.59375 
z
" id="DejaVuSans-37"/>
      </defs>
      <g transform="translate(37.875 56.845926)scale(0.1 -0.1)">
       <use xlink:href="#DejaVuSans-37"/>
       <use x="63.623047" xlink:href="#DejaVuSans-30"/>
      </g>
     </g>
    </g>
    <g id="text_15">
     <!-- accuracy -->
     <defs>
      <path d="M 34.28125 27.484375 
Q 23.390625 27.484375 19.1875 25 
Q 14.984375 22.515625 14.984375 16.5 
Q 14.984375 11.71875 18.140625 8.90625 
Q 21.296875 6.109375 26.703125 6.109375 
Q 34.1875 6.109375 38.703125 11.40625 
Q 43.21875 16.703125 43.21875 25.484375 
L 43.21875 27.484375 
z
M 52.203125 31.203125 
L 52.203125 0 
L 43.21875 0 
L 43.21875 8.296875 
Q 40.140625 3.328125 35.546875 0.953125 
Q 30.953125 -1.421875 24.3125 -1.421875 
Q 15.921875 -1.421875 10.953125 3.296875 
Q 6 8.015625 6 15.921875 
Q 6 25.140625 12.171875 29.828125 
Q 18.359375 34.515625 30.609375 34.515625 
L 43.21875 34.515625 
L 43.21875 35.40625 
Q 43.21875 41.609375 39.140625 45 
Q 35.0625 48.390625 27.6875 48.390625 
Q 23 48.390625 18.546875 47.265625 
Q 14.109375 46.140625 10.015625 43.890625 
L 10.015625 52.203125 
Q 14.9375 54.109375 19.578125 55.046875 
Q 24.21875 56 28.609375 56 
Q 40.484375 56 46.34375 49.84375 
Q 52.203125 43.703125 52.203125 31.203125 
z
" id="DejaVuSans-61"/>
      <path d="M 8.5 21.578125 
L 8.5 54.6875 
L 17.484375 54.6875 
L 17.484375 21.921875 
Q 17.484375 14.15625 20.5 10.265625 
Q 23.53125 6.390625 29.59375 6.390625 
Q 36.859375 6.390625 41.078125 11.03125 
Q 45.3125 15.671875 45.3125 23.6875 
L 45.3125 54.6875 
L 54.296875 54.6875 
L 54.296875 0 
L 45.3125 0 
L 45.3125 8.40625 
Q 42.046875 3.421875 37.71875 1 
Q 33.40625 -1.421875 27.6875 -1.421875 
Q 18.265625 -1.421875 13.375 4.4375 
Q 8.5 10.296875 8.5 21.578125 
z
M 31.109375 56 
z
" id="DejaVuSans-75"/>
      <path d="M 41.109375 46.296875 
Q 39.59375 47.171875 37.8125 47.578125 
Q 36.03125 48 33.890625 48 
Q 26.265625 48 22.1875 43.046875 
Q 18.109375 38.09375 18.109375 28.8125 
L 18.109375 0 
L 9.078125 0 
L 9.078125 54.6875 
L 18.109375 54.6875 
L 18.109375 46.1875 
Q 20.953125 51.171875 25.484375 53.578125 
Q 30.03125 56 36.53125 56 
Q 37.453125 56 38.578125 55.875 
Q 39.703125 55.765625 41.0625 55.515625 
z
" id="DejaVuSans-72"/>
      <path d="M 32.171875 -5.078125 
Q 28.375 -14.84375 24.75 -17.8125 
Q 21.140625 -20.796875 15.09375 -20.796875 
L 7.90625 -20.796875 
L 7.90625 -13.28125 
L 13.1875 -13.28125 
Q 16.890625 -13.28125 18.9375 -11.515625 
Q 21 -9.765625 23.484375 -3.21875 
L 25.09375 0.875 
L 2.984375 54.6875 
L 12.5 54.6875 
L 29.59375 11.921875 
L 46.6875 54.6875 
L 56.203125 54.6875 
z
" id="DejaVuSans-79"/>
     </defs>
     <g transform="translate(31.795312 197.087375)rotate(-90)scale(0.1 -0.1)">
      <use xlink:href="#DejaVuSans-61"/>
      <use x="61.279297" xlink:href="#DejaVuSans-63"/>
      <use x="116.259766" xlink:href="#DejaVuSans-63"/>
      <use x="171.240234" xlink:href="#DejaVuSans-75"/>
      <use x="234.619141" xlink:href="#DejaVuSans-72"/>
      <use x="275.732422" xlink:href="#DejaVuSans-61"/>
      <use x="337.011719" xlink:href="#DejaVuSans-63"/>
      <use x="391.992188" xlink:href="#DejaVuSans-79"/>
     </g>
    </g>
   </g>
   <g id="line2d_14">
    <path clip-path="url(#p67faca21e2)" d="M 73.832727 155.661207 
L 77.112066 139.300631 
L 80.391405 127.511391 
L 83.670744 124.463833 
L 86.950083 120.854882 
L 90.229421 112.91519 
L 93.50876 110.629522 
L 96.788099 108.424052 
L 100.067438 112.714693 
L 103.346777 105.937886 
L 106.626116 109.907731 
L 109.905455 107.261168 
L 113.184793 102.729929 
L 116.464132 100.404161 
L 119.743471 102.008139 
L 123.02281 96.915509 
L 126.302149 108.865146 
L 129.581488 100.003167 
L 132.860826 100.003167 
L 136.140165 103.331421 
L 139.419504 95.752625 
L 142.698843 100.283863 
L 145.978182 102.850228 
L 149.257521 97.116006 
L 152.53686 98.719984 
L 155.816198 97.917995 
L 159.095537 92.705066 
L 162.374876 92.865464 
L 165.654215 86.930745 
L 168.933554 92.705066 
L 172.212893 93.386757 
L 175.492231 92.143674 
L 178.77157 93.266458 
L 182.050909 95.030834 
L 185.330248 96.11352 
L 188.609587 90.820392 
L 191.888926 93.507055 
L 195.168264 86.249054 
L 198.447603 88.815419 
L 201.726942 92.985762 
L 205.006281 86.289154 
L 208.28562 90.499596 
L 211.564959 94.268945 
L 214.844298 86.730248 
L 218.123636 86.409452 
L 221.402975 88.695121 
L 224.682314 89.015916 
L 227.961653 89.777806 
L 231.240992 89.978303 
L 234.520331 87.171342 
L 237.799669 89.577309 
L 241.079008 88.254027 
L 244.358347 90.619895 
L 247.637686 97.316503 
L 250.917025 93.988249 
L 254.196364 90.018403 
L 257.475702 85.046071 
L 260.755041 89.777806 
L 264.03438 86.329253 
L 267.313719 88.494624 
L 270.593058 88.614922 
L 273.872397 92.825364 
L 277.151736 84.404479 
L 280.431074 87.331739 
L 283.710413 95.030834 
L 286.989752 88.935718 
L 290.269091 88.133728 
L 293.54843 94.429343 
L 296.827769 88.815419 
L 300.107107 89.136215 
L 303.386446 94.349144 
L 306.665785 88.494624 
L 309.945124 90.178801 
L 313.224463 88.815419 
L 316.503802 91.221386 
L 319.78314 91.341685 
L 323.062479 96.755111 
L 326.341818 90.539696 
L 329.621157 92.504569 
L 332.900496 87.492137 
L 336.179835 91.862978 
L 339.459174 86.088656 
L 342.738512 89.697607 
L 346.017851 90.499596 
L 349.29719 86.730248 
L 352.576529 93.025862 
L 355.855868 89.617408 
L 359.135207 91.101088 
L 362.414545 89.537209 
L 365.693884 91.461983 
L 368.973223 92.023375 
L 372.252562 88.655021 
L 375.531901 86.730248 
L 378.81124 87.331739 
L 382.090579 95.552127 
L 385.369917 86.409452 
L 388.649256 92.544668 
L 391.928595 86.930745 
L 395.207934 88.374325 
L 398.487273 92.584768 
" style="fill:none;stroke:#1f77b4;stroke-linecap:square;stroke-width:1.5;"/>
   </g>
   <g id="line2d_15">
    <path clip-path="url(#p67faca21e2)" d="M 73.832727 131.120342 
L 77.112066 111.632008 
L 80.391405 99.562073 
L 83.670744 88.855519 
L 86.950083 82.319308 
L 90.229421 77.066279 
L 93.50876 73.497428 
L 96.788099 70.971163 
L 100.067438 69.206787 
L 103.346777 67.48251 
L 106.626116 65.99883 
L 109.905455 65.397339 
L 113.184793 65.116642 
L 116.464132 64.876046 
L 119.743471 65.477538 
L 123.02281 65.758234 
L 126.302149 65.477538 
L 129.581488 65.99883 
L 132.860826 67.081516 
L 136.140165 67.442411 
L 139.419504 67.52261 
L 142.698843 68.525096 
L 145.978182 69.367184 
L 149.257521 69.086488 
L 152.53686 69.086488 
L 155.816198 70.931063 
L 159.095537 71.572654 
L 162.374876 72.414743 
L 165.654215 72.855837 
L 168.933554 73.056334 
L 172.212893 72.735539 
L 175.492231 73.858323 
L 178.77157 74.139019 
L 182.050909 73.33703 
L 185.330248 73.096434 
L 188.609587 73.016235 
L 191.888926 72.65534 
L 195.168264 73.657826 
L 198.447603 74.780611 
L 201.726942 75.863296 
L 205.006281 76.585086 
L 208.28562 76.865782 
L 211.564959 78.148965 
L 214.844298 79.071252 
L 218.123636 78.630158 
L 221.402975 78.790556 
L 224.682314 79.392048 
L 227.961653 79.512346 
L 231.240992 79.873241 
L 234.520331 81.356921 
L 237.799669 81.757915 
L 241.079008 81.798015 
L 244.358347 82.279208 
L 247.637686 82.760402 
L 250.917025 82.078711 
L 254.196364 82.680203 
L 257.475702 82.199009 
L 260.755041 82.078711 
L 264.03438 82.279208 
L 267.313719 82.760402 
L 270.593058 82.800501 
L 273.872397 83.843087 
L 277.151736 84.244082 
L 280.431074 84.484678 
L 283.710413 85.005971 
L 286.989752 85.727761 
L 290.269091 86.930745 
L 293.54843 87.171342 
L 296.827769 86.770347 
L 300.107107 85.888159 
L 303.386446 85.447065 
L 306.665785 85.727761 
L 309.945124 85.487165 
L 313.224463 86.168855 
L 316.503802 86.890645 
L 319.78314 86.770347 
L 323.062479 86.890645 
L 326.341818 86.730248 
L 329.621157 87.532237 
L 332.900496 86.609949 
L 336.179835 86.609949 
L 339.459174 88.133728 
L 342.738512 87.411938 
L 346.017851 87.612436 
L 349.29719 88.254027 
L 352.576529 87.131242 
L 355.855868 87.572336 
L 359.135207 86.409452 
L 362.414545 86.850546 
L 365.693884 87.933231 
L 368.973223 88.414425 
L 372.252562 88.534723 
L 375.531901 89.577309 
L 378.81124 88.254027 
L 382.090579 89.577309 
L 385.369917 89.296613 
L 388.649256 90.058502 
L 391.928595 90.299099 
L 395.207934 90.619895 
L 398.487273 90.138701 
" style="fill:none;stroke:#ff7f0e;stroke-linecap:square;stroke-width:1.5;"/>
   </g>
   <g id="line2d_16">
    <path clip-path="url(#p67faca21e2)" d="M 73.832727 189.625444 
L 77.112066 173.264867 
L 80.391405 159.951849 
L 83.670744 150.568577 
L 86.950083 141.5061 
L 90.229421 136.814464 
L 93.50876 133.48621 
L 96.788099 130.077756 
L 100.067438 126.388607 
L 103.346777 123.461347 
L 106.626116 119.972694 
L 109.905455 117.606826 
L 113.184793 114.639467 
L 116.464132 111.832505 
L 119.743471 110.108229 
L 123.02281 107.341366 
L 126.302149 104.614604 
L 129.581488 102.609631 
L 132.860826 101.125951 
L 136.140165 99.080879 
L 139.419504 97.116006 
L 142.698843 95.632326 
L 145.978182 93.707552 
L 149.257521 92.063475 
L 152.53686 89.817906 
L 155.816198 87.933231 
L 159.095537 86.609949 
L 162.374876 85.005971 
L 165.654215 83.843087 
L 168.933554 82.439606 
L 172.212893 81.116324 
L 175.492231 79.99354 
L 178.77157 78.910854 
L 182.050909 78.46976 
L 185.330248 77.828169 
L 188.609587 76.384589 
L 191.888926 75.502401 
L 195.168264 74.700412 
L 198.447603 73.738025 
L 201.726942 72.695439 
L 205.006281 71.853351 
L 208.28562 71.412257 
L 211.564959 70.570168 
L 214.844298 69.607781 
L 218.123636 68.605295 
L 221.402975 67.602809 
L 224.682314 67.282013 
L 227.961653 66.76072 
L 231.240992 66.199328 
L 234.520331 65.597836 
L 237.799669 64.956245 
L 241.079008 64.675548 
L 244.358347 64.314653 
L 247.637686 64.274554 
L 250.917025 63.793361 
L 254.196364 63.472565 
L 257.475702 62.951272 
L 260.755041 62.149283 
L 264.03438 61.788388 
L 267.313719 61.507692 
L 270.593058 61.387393 
L 273.872397 61.387393 
L 277.151736 60.785902 
L 280.431074 60.625504 
L 283.710413 60.264609 
L 286.989752 59.502719 
L 290.269091 59.302222 
L 293.54843 58.901227 
L 296.827769 58.620531 
L 300.107107 58.500233 
L 303.386446 57.898741 
L 306.665785 57.658144 
L 309.945124 57.377448 
L 313.224463 57.417547 
L 316.503802 57.297249 
L 319.78314 57.176951 
L 323.062479 57.297249 
L 326.341818 57.176951 
L 329.621157 56.615558 
L 332.900496 56.53536 
L 336.179835 56.214564 
L 339.459174 56.134365 
L 342.738512 55.813569 
L 346.017851 55.572973 
L 349.29719 55.252177 
L 352.576529 54.891282 
L 355.855868 54.931381 
L 359.135207 54.891282 
L 362.414545 54.770984 
L 365.693884 54.690785 
L 368.973223 54.490287 
L 372.252562 54.530387 
L 375.531901 54.570486 
L 378.81124 54.610586 
L 382.090579 54.32989 
L 385.369917 54.049193 
L 388.649256 54.089293 
L 391.928595 53.928895 
L 395.207934 53.648199 
L 398.487273 53.568 
" style="fill:none;stroke:#2ca02c;stroke-linecap:square;stroke-width:1.5;"/>
   </g>
   <g id="line2d_17">
    <path clip-path="url(#p67faca21e2)" d="M 73.832727 221.063415 
L 77.112066 208.592485 
L 80.391405 194.958671 
L 83.670744 186.216991 
L 86.950083 179.119387 
L 90.229421 171.380193 
L 93.50876 164.924181 
L 96.788099 161.876623 
L 100.067438 159.10976 
L 103.346777 155.099815 
L 106.626116 153.014643 
L 109.905455 148.202709 
L 113.184793 144.353162 
L 116.464132 140.142719 
L 119.743471 137.295658 
L 123.02281 134.568895 
L 126.302149 131.882232 
L 129.581488 129.115369 
L 132.860826 127.751988 
L 136.140165 125.38612 
L 139.419504 123.140551 
L 142.698843 121.01528 
L 145.978182 118.609313 
L 149.257521 116.403843 
L 152.53686 113.837478 
L 155.816198 111.872605 
L 159.095537 109.867632 
L 162.374876 107.261168 
L 165.654215 105.015598 
L 168.933554 102.810128 
L 172.212893 100.404161 
L 175.492231 98.439288 
L 178.77157 96.474415 
L 182.050909 93.466956 
L 185.330248 91.742679 
L 188.609587 89.697607 
L 191.888926 88.093629 
L 195.168264 86.249054 
L 198.447603 84.404479 
L 201.726942 82.640103 
L 205.006281 81.316821 
L 208.28562 79.913341 
L 211.564959 79.111352 
L 214.844298 77.547473 
L 218.123636 76.063793 
L 221.402975 74.86081 
L 224.682314 74.05882 
L 227.961653 73.978622 
L 231.240992 72.976135 
L 234.520331 72.053848 
L 237.799669 71.17166 
L 241.079008 70.129074 
L 244.358347 69.327085 
L 247.637686 68.685494 
L 250.917025 68.404798 
L 254.196364 68.164201 
L 257.475702 67.52261 
L 260.755041 67.001317 
L 264.03438 66.159228 
L 267.313719 65.637935 
L 270.593058 65.597836 
L 273.872397 65.798333 
L 277.151736 65.557736 
L 280.431074 65.116642 
L 283.710413 64.635449 
L 286.989752 64.194355 
L 290.269091 64.475051 
L 293.54843 64.033957 
L 296.827769 63.713162 
L 300.107107 63.713162 
L 303.386446 63.632963 
L 306.665785 63.11167 
L 309.945124 62.830974 
L 313.224463 62.38988 
L 316.503802 62.229482 
L 319.78314 62.34978 
L 323.062479 62.109183 
L 326.341818 62.109183 
L 329.621157 61.708189 
L 332.900496 61.62799 
L 336.179835 61.267095 
L 339.459174 61.226996 
L 342.738512 60.946299 
L 346.017851 60.224509 
L 349.29719 60.064111 
L 352.576529 59.903714 
L 355.855868 59.863614 
L 359.135207 60.18441 
L 362.414545 60.224509 
L 365.693884 59.983912 
L 368.973223 59.703216 
L 372.252562 60.064111 
L 375.531901 60.104211 
L 378.81124 60.024012 
L 382.090579 59.783415 
L 385.369917 59.663117 
L 388.649256 59.342321 
L 391.928595 59.222023 
L 395.207934 59.021526 
L 398.487273 58.861128 
" style="fill:none;stroke:#d62728;stroke-linecap:square;stroke-width:1.5;"/>
   </g>
   <g id="line2d_18">
    <path clip-path="url(#p67faca21e2)" d="M 73.832727 263.608935 
L 77.112066 255.90984 
L 80.391405 249.092933 
L 83.670744 242.797319 
L 86.950083 239.188368 
L 90.229421 235.980412 
L 93.50876 231.569472 
L 96.788099 229.444201 
L 100.067438 226.035747 
L 103.346777 223.188686 
L 106.626116 220.822818 
L 109.905455 218.978244 
L 113.184793 217.574763 
L 116.464132 215.970785 
L 119.743471 214.727702 
L 123.02281 213.725215 
L 126.302149 212.762828 
L 129.581488 211.840541 
L 132.860826 210.958353 
L 136.140165 209.354375 
L 139.419504 207.389502 
L 142.698843 206.146419 
L 145.978182 204.863236 
L 149.257521 203.058761 
L 152.53686 201.454783 
L 155.816198 199.810705 
L 159.095537 198.848318 
L 162.374876 197.96613 
L 165.654215 196.562649 
L 168.933554 195.199268 
L 172.212893 193.274494 
L 175.492231 192.472505 
L 178.77157 191.951212 
L 182.050909 191.38982 
L 185.330248 190.427433 
L 188.609587 189.90614 
L 191.888926 188.46256 
L 195.168264 188.542759 
L 198.447603 187.861068 
L 201.726942 187.299676 
L 205.006281 186.698184 
L 208.28562 186.457587 
L 211.564959 185.856095 
L 214.844298 185.094206 
L 218.123636 184.252117 
L 221.402975 183.410029 
L 224.682314 182.728338 
L 227.961653 182.247145 
L 231.240992 181.605553 
L 234.520331 181.284758 
L 237.799669 180.562968 
L 241.079008 179.881277 
L 244.358347 179.279785 
L 247.637686 178.678293 
L 250.917025 177.836205 
L 254.196364 176.913917 
L 257.475702 176.793619 
L 260.755041 175.911431 
L 264.03438 175.630735 
L 267.313719 175.430238 
L 270.593058 174.788646 
L 273.872397 174.949044 
L 277.151736 174.788646 
L 280.431074 174.147055 
L 283.710413 173.78616 
L 286.989752 173.144569 
L 290.269091 172.182182 
L 293.54843 171.741088 
L 296.827769 170.939099 
L 300.107107 170.09701 
L 303.386446 169.214822 
L 306.665785 168.613331 
L 309.945124 167.330148 
L 313.224463 166.407861 
L 316.503802 165.485573 
L 319.78314 164.442988 
L 323.062479 164.082092 
L 326.341818 163.5207 
L 329.621157 163.159805 
L 332.900496 161.756324 
L 336.179835 161.194932 
L 339.459174 160.473142 
L 342.738512 159.671153 
L 346.017851 159.069661 
L 349.29719 158.668666 
L 352.576529 158.628567 
L 355.855868 158.307771 
L 359.135207 157.545882 
L 362.414545 156.90429 
L 365.693884 156.262699 
L 368.973223 155.540909 
L 372.252562 155.260213 
L 375.531901 154.257727 
L 378.81124 153.375539 
L 382.090579 152.934445 
L 385.369917 152.493351 
L 388.649256 152.132455 
L 391.928595 151.170069 
L 395.207934 150.167582 
L 398.487273 149.245295 
" style="fill:none;stroke:#9467bd;stroke-linecap:square;stroke-width:1.5;"/>
   </g>
   <g id="line2d_19">
    <path clip-path="url(#p67faca21e2)" d="M 73.832727 295.488 
L 77.112066 291.237458 
L 80.391405 287.949303 
L 83.670744 284.139855 
L 86.950083 279.969512 
L 90.229421 276.801655 
L 93.50876 274.034793 
L 96.788099 270.947135 
L 100.067438 268.541168 
L 103.346777 267.257985 
L 106.626116 266.1753 
L 109.905455 264.451023 
L 113.184793 262.847045 
L 116.464132 261.122769 
L 119.743471 260.28068 
L 123.02281 259.398492 
L 126.302149 258.355907 
L 129.581488 257.233122 
L 132.860826 255.508845 
L 136.140165 255.18805 
L 139.419504 254.305862 
L 142.698843 253.664271 
L 145.978182 253.624171 
L 149.257521 253.463773 
L 152.53686 252.661784 
L 155.816198 252.140491 
L 159.095537 252.381088 
L 162.374876 252.300889 
L 165.654215 252.140491 
L 168.933554 251.539 
L 172.212893 250.73701 
L 175.492231 249.694425 
L 178.77157 249.092933 
L 182.050909 248.531541 
L 185.330248 247.930049 
L 188.609587 247.84985 
L 191.888926 247.569154 
L 195.168264 247.168159 
L 198.447603 247.12806 
L 201.726942 246.646866 
L 205.006281 245.965176 
L 208.28562 245.243385 
L 211.564959 244.521595 
L 214.844298 244.040402 
L 218.123636 243.679507 
L 221.402975 243.759706 
L 224.682314 242.877518 
L 227.961653 242.636921 
L 231.240992 242.316125 
L 234.520331 241.794832 
L 237.799669 241.554236 
L 241.079008 241.193341 
L 244.358347 240.872545 
L 247.637686 240.271053 
L 250.917025 239.74976 
L 254.196364 239.308666 
L 257.475702 238.827473 
L 260.755041 237.945285 
L 264.03438 237.664589 
L 267.313719 237.103196 
L 270.593058 236.381406 
L 273.872397 235.779914 
L 277.151736 235.619517 
L 280.431074 235.218522 
L 283.710413 234.61703 
L 286.989752 234.296235 
L 290.269091 233.815041 
L 293.54843 232.892754 
L 296.827769 232.45166 
L 300.107107 231.769969 
L 303.386446 231.328875 
L 306.665785 230.767483 
L 309.945124 230.566986 
L 313.224463 229.925394 
L 316.503802 229.644698 
L 319.78314 229.4843 
L 323.062479 228.882809 
L 326.341818 228.80261 
L 329.621157 227.920422 
L 332.900496 227.679825 
L 336.179835 227.27883 
L 339.459174 226.59714 
L 342.738512 225.995648 
L 346.017851 225.87535 
L 349.29719 225.755051 
L 352.576529 225.153559 
L 355.855868 224.672366 
L 359.135207 224.231272 
L 362.414545 223.990675 
L 365.693884 223.830277 
L 368.973223 223.148587 
L 372.252562 222.747592 
L 375.531901 222.587194 
L 378.81124 222.065902 
L 382.090579 221.905504 
L 385.369917 221.46441 
L 388.649256 221.304012 
L 391.928595 221.103515 
L 395.207934 220.822818 
L 398.487273 220.662421 
" style="fill:none;stroke:#8c564b;stroke-linecap:square;stroke-width:1.5;"/>
   </g>
   <g id="patch_3">
    <path d="M 57.6 307.584 
L 57.6 41.472 
" style="fill:none;stroke:#000000;stroke-linecap:square;stroke-linejoin:miter;stroke-width:0.8;"/>
   </g>
   <g id="patch_4">
    <path d="M 414.72 307.584 
L 414.72 41.472 
" style="fill:none;stroke:#000000;stroke-linecap:square;stroke-linejoin:miter;stroke-width:0.8;"/>
   </g>
   <g id="patch_5">
    <path d="M 57.6 307.584 
L 414.72 307.584 
" style="fill:none;stroke:#000000;stroke-linecap:square;stroke-linejoin:miter;stroke-width:0.8;"/>
   </g>
   <g id="patch_6">
    <path d="M 57.6 41.472 
L 414.72 41.472 
" style="fill:none;stroke:#000000;stroke-linecap:square;stroke-linejoin:miter;stroke-width:0.8;"/>
   </g>
   <g id="text_16">
    <!-- SExpLog - CIFAR10 - 3-layer-CNN -->
    <defs>
     <path d="M 53.515625 70.515625 
L 53.515625 60.890625 
Q 47.90625 63.578125 42.921875 64.890625 
Q 37.9375 66.21875 33.296875 66.21875 
Q 25.25 66.21875 20.875 63.09375 
Q 16.5 59.96875 16.5 54.203125 
Q 16.5 49.359375 19.40625 46.890625 
Q 22.3125 44.4375 30.421875 42.921875 
L 36.375 41.703125 
Q 47.40625 39.59375 52.65625 34.296875 
Q 57.90625 29 57.90625 20.125 
Q 57.90625 9.515625 50.796875 4.046875 
Q 43.703125 -1.421875 29.984375 -1.421875 
Q 24.8125 -1.421875 18.96875 -0.25 
Q 13.140625 0.921875 6.890625 3.21875 
L 6.890625 13.375 
Q 12.890625 10.015625 18.65625 8.296875 
Q 24.421875 6.59375 29.984375 6.59375 
Q 38.421875 6.59375 43.015625 9.90625 
Q 47.609375 13.234375 47.609375 19.390625 
Q 47.609375 24.75 44.3125 27.78125 
Q 41.015625 30.8125 33.5 32.328125 
L 27.484375 33.5 
Q 16.453125 35.6875 11.515625 40.375 
Q 6.59375 45.0625 6.59375 53.421875 
Q 6.59375 63.09375 13.40625 68.65625 
Q 20.21875 74.21875 32.171875 74.21875 
Q 37.3125 74.21875 42.625 73.28125 
Q 47.953125 72.359375 53.515625 70.515625 
z
" id="DejaVuSans-53"/>
     <path d="M 9.8125 72.90625 
L 55.90625 72.90625 
L 55.90625 64.59375 
L 19.671875 64.59375 
L 19.671875 43.015625 
L 54.390625 43.015625 
L 54.390625 34.71875 
L 19.671875 34.71875 
L 19.671875 8.296875 
L 56.78125 8.296875 
L 56.78125 0 
L 9.8125 0 
z
" id="DejaVuSans-45"/>
     <path d="M 54.890625 54.6875 
L 35.109375 28.078125 
L 55.90625 0 
L 45.3125 0 
L 29.390625 21.484375 
L 13.484375 0 
L 2.875 0 
L 24.125 28.609375 
L 4.6875 54.6875 
L 15.28125 54.6875 
L 29.78125 35.203125 
L 44.28125 54.6875 
z
" id="DejaVuSans-78"/>
     <path d="M 9.8125 72.90625 
L 19.671875 72.90625 
L 19.671875 8.296875 
L 55.171875 8.296875 
L 55.171875 0 
L 9.8125 0 
z
" id="DejaVuSans-4c"/>
     <path d="M 45.40625 27.984375 
Q 45.40625 37.75 41.375 43.109375 
Q 37.359375 48.484375 30.078125 48.484375 
Q 22.859375 48.484375 18.828125 43.109375 
Q 14.796875 37.75 14.796875 27.984375 
Q 14.796875 18.265625 18.828125 12.890625 
Q 22.859375 7.515625 30.078125 7.515625 
Q 37.359375 7.515625 41.375 12.890625 
Q 45.40625 18.265625 45.40625 27.984375 
z
M 54.390625 6.78125 
Q 54.390625 -7.171875 48.1875 -13.984375 
Q 42 -20.796875 29.203125 -20.796875 
Q 24.46875 -20.796875 20.265625 -20.09375 
Q 16.0625 -19.390625 12.109375 -17.921875 
L 12.109375 -9.1875 
Q 16.0625 -11.328125 19.921875 -12.34375 
Q 23.78125 -13.375 27.78125 -13.375 
Q 36.625 -13.375 41.015625 -8.765625 
Q 45.40625 -4.15625 45.40625 5.171875 
L 45.40625 9.625 
Q 42.625 4.78125 38.28125 2.390625 
Q 33.9375 0 27.875 0 
Q 17.828125 0 11.671875 7.65625 
Q 5.515625 15.328125 5.515625 27.984375 
Q 5.515625 40.671875 11.671875 48.328125 
Q 17.828125 56 27.875 56 
Q 33.9375 56 38.28125 53.609375 
Q 42.625 51.21875 45.40625 46.390625 
L 45.40625 54.6875 
L 54.390625 54.6875 
z
" id="DejaVuSans-67"/>
     <path id="DejaVuSans-20"/>
     <path d="M 4.890625 31.390625 
L 31.203125 31.390625 
L 31.203125 23.390625 
L 4.890625 23.390625 
z
" id="DejaVuSans-2d"/>
     <path d="M 64.40625 67.28125 
L 64.40625 56.890625 
Q 59.421875 61.53125 53.78125 63.8125 
Q 48.140625 66.109375 41.796875 66.109375 
Q 29.296875 66.109375 22.65625 58.46875 
Q 16.015625 50.828125 16.015625 36.375 
Q 16.015625 21.96875 22.65625 14.328125 
Q 29.296875 6.6875 41.796875 6.6875 
Q 48.140625 6.6875 53.78125 8.984375 
Q 59.421875 11.28125 64.40625 15.921875 
L 64.40625 5.609375 
Q 59.234375 2.09375 53.4375 0.328125 
Q 47.65625 -1.421875 41.21875 -1.421875 
Q 24.65625 -1.421875 15.125 8.703125 
Q 5.609375 18.84375 5.609375 36.375 
Q 5.609375 53.953125 15.125 64.078125 
Q 24.65625 74.21875 41.21875 74.21875 
Q 47.75 74.21875 53.53125 72.484375 
Q 59.328125 70.75 64.40625 67.28125 
z
" id="DejaVuSans-43"/>
     <path d="M 9.8125 72.90625 
L 19.671875 72.90625 
L 19.671875 0 
L 9.8125 0 
z
" id="DejaVuSans-49"/>
     <path d="M 9.8125 72.90625 
L 51.703125 72.90625 
L 51.703125 64.59375 
L 19.671875 64.59375 
L 19.671875 43.109375 
L 48.578125 43.109375 
L 48.578125 34.8125 
L 19.671875 34.8125 
L 19.671875 0 
L 9.8125 0 
z
" id="DejaVuSans-46"/>
     <path d="M 34.1875 63.1875 
L 20.796875 26.90625 
L 47.609375 26.90625 
z
M 28.609375 72.90625 
L 39.796875 72.90625 
L 67.578125 0 
L 57.328125 0 
L 50.6875 18.703125 
L 17.828125 18.703125 
L 11.1875 0 
L 0.78125 0 
z
" id="DejaVuSans-41"/>
     <path d="M 44.390625 34.1875 
Q 47.5625 33.109375 50.5625 29.59375 
Q 53.5625 26.078125 56.59375 19.921875 
L 66.609375 0 
L 56 0 
L 46.6875 18.703125 
Q 43.0625 26.03125 39.671875 28.421875 
Q 36.28125 30.8125 30.421875 30.8125 
L 19.671875 30.8125 
L 19.671875 0 
L 9.8125 0 
L 9.8125 72.90625 
L 32.078125 72.90625 
Q 44.578125 72.90625 50.734375 67.671875 
Q 56.890625 62.453125 56.890625 51.90625 
Q 56.890625 45.015625 53.6875 40.46875 
Q 50.484375 35.9375 44.390625 34.1875 
z
M 19.671875 64.796875 
L 19.671875 38.921875 
L 32.078125 38.921875 
Q 39.203125 38.921875 42.84375 42.21875 
Q 46.484375 45.515625 46.484375 51.90625 
Q 46.484375 58.296875 42.84375 61.546875 
Q 39.203125 64.796875 32.078125 64.796875 
z
" id="DejaVuSans-52"/>
     <path d="M 9.421875 75.984375 
L 18.40625 75.984375 
L 18.40625 0 
L 9.421875 0 
z
" id="DejaVuSans-6c"/>
     <path d="M 9.8125 72.90625 
L 23.09375 72.90625 
L 55.421875 11.921875 
L 55.421875 72.90625 
L 64.984375 72.90625 
L 64.984375 0 
L 51.703125 0 
L 19.390625 60.984375 
L 19.390625 0 
L 9.8125 0 
z
" id="DejaVuSans-4e"/>
    </defs>
    <g transform="translate(136.7475 35.472)scale(0.12 -0.12)">
     <use xlink:href="#DejaVuSans-53"/>
     <use x="63.476562" xlink:href="#DejaVuSans-45"/>
     <use x="126.660156" xlink:href="#DejaVuSans-78"/>
     <use x="185.839844" xlink:href="#DejaVuSans-70"/>
     <use x="249.316406" xlink:href="#DejaVuSans-4c"/>
     <use x="305.013672" xlink:href="#DejaVuSans-6f"/>
     <use x="366.195312" xlink:href="#DejaVuSans-67"/>
     <use x="429.671875" xlink:href="#DejaVuSans-20"/>
     <use x="461.458984" xlink:href="#DejaVuSans-2d"/>
     <use x="497.542969" xlink:href="#DejaVuSans-20"/>
     <use x="529.330078" xlink:href="#DejaVuSans-43"/>
     <use x="599.154297" xlink:href="#DejaVuSans-49"/>
     <use x="628.646484" xlink:href="#DejaVuSans-46"/>
     <use x="686.025391" xlink:href="#DejaVuSans-41"/>
     <use x="754.433594" xlink:href="#DejaVuSans-52"/>
     <use x="823.916016" xlink:href="#DejaVuSans-31"/>
     <use x="887.539062" xlink:href="#DejaVuSans-30"/>
     <use x="951.162109" xlink:href="#DejaVuSans-20"/>
     <use x="982.949219" xlink:href="#DejaVuSans-2d"/>
     <use x="1019.033203" xlink:href="#DejaVuSans-20"/>
     <use x="1050.820312" xlink:href="#DejaVuSans-33"/>
     <use x="1114.443359" xlink:href="#DejaVuSans-2d"/>
     <use x="1150.527344" xlink:href="#DejaVuSans-6c"/>
     <use x="1178.310547" xlink:href="#DejaVuSans-61"/>
     <use x="1239.589844" xlink:href="#DejaVuSans-79"/>
     <use x="1298.769531" xlink:href="#DejaVuSans-65"/>
     <use x="1360.292969" xlink:href="#DejaVuSans-72"/>
     <use x="1401.3125" xlink:href="#DejaVuSans-2d"/>
     <use x="1437.396484" xlink:href="#DejaVuSans-43"/>
     <use x="1507.220703" xlink:href="#DejaVuSans-4e"/>
     <use x="1582.025391" xlink:href="#DejaVuSans-4e"/>
    </g>
   </g>
   <g id="legend_1">
    <g id="patch_7">
     <path d="M 315.568438 302.584 
L 407.72 302.584 
Q 409.72 302.584 409.72 300.584 
L 409.72 213.51525 
Q 409.72 211.51525 407.72 211.51525 
L 315.568438 211.51525 
Q 313.568438 211.51525 313.568438 213.51525 
L 313.568438 300.584 
Q 313.568438 302.584 315.568438 302.584 
z
" style="fill:#ffffff;opacity:0.8;stroke:#cccccc;stroke-linejoin:miter;"/>
    </g>
    <g id="line2d_20">
     <path d="M 317.568438 219.613687 
L 337.568438 219.613687 
" style="fill:none;stroke:#1f77b4;stroke-linecap:square;stroke-width:1.5;"/>
    </g>
    <g id="line2d_21"/>
    <g id="text_17">
     <!-- adam .01 -->
     <defs>
      <path d="M 45.40625 46.390625 
L 45.40625 75.984375 
L 54.390625 75.984375 
L 54.390625 0 
L 45.40625 0 
L 45.40625 8.203125 
Q 42.578125 3.328125 38.25 0.953125 
Q 33.9375 -1.421875 27.875 -1.421875 
Q 17.96875 -1.421875 11.734375 6.484375 
Q 5.515625 14.40625 5.515625 27.296875 
Q 5.515625 40.1875 11.734375 48.09375 
Q 17.96875 56 27.875 56 
Q 33.9375 56 38.25 53.625 
Q 42.578125 51.265625 45.40625 46.390625 
z
M 14.796875 27.296875 
Q 14.796875 17.390625 18.875 11.75 
Q 22.953125 6.109375 30.078125 6.109375 
Q 37.203125 6.109375 41.296875 11.75 
Q 45.40625 17.390625 45.40625 27.296875 
Q 45.40625 37.203125 41.296875 42.84375 
Q 37.203125 48.484375 30.078125 48.484375 
Q 22.953125 48.484375 18.875 42.84375 
Q 14.796875 37.203125 14.796875 27.296875 
z
" id="DejaVuSans-64"/>
      <path d="M 52 44.1875 
Q 55.375 50.25 60.0625 53.125 
Q 64.75 56 71.09375 56 
Q 79.640625 56 84.28125 50.015625 
Q 88.921875 44.046875 88.921875 33.015625 
L 88.921875 0 
L 79.890625 0 
L 79.890625 32.71875 
Q 79.890625 40.578125 77.09375 44.375 
Q 74.3125 48.1875 68.609375 48.1875 
Q 61.625 48.1875 57.5625 43.546875 
Q 53.515625 38.921875 53.515625 30.90625 
L 53.515625 0 
L 44.484375 0 
L 44.484375 32.71875 
Q 44.484375 40.625 41.703125 44.40625 
Q 38.921875 48.1875 33.109375 48.1875 
Q 26.21875 48.1875 22.15625 43.53125 
Q 18.109375 38.875 18.109375 30.90625 
L 18.109375 0 
L 9.078125 0 
L 9.078125 54.6875 
L 18.109375 54.6875 
L 18.109375 46.1875 
Q 21.1875 51.21875 25.484375 53.609375 
Q 29.78125 56 35.6875 56 
Q 41.65625 56 45.828125 52.96875 
Q 50 49.953125 52 44.1875 
z
" id="DejaVuSans-6d"/>
      <path d="M 10.6875 12.40625 
L 21 12.40625 
L 21 0 
L 10.6875 0 
z
" id="DejaVuSans-2e"/>
     </defs>
     <g transform="translate(345.568438 223.113687)scale(0.1 -0.1)">
      <use xlink:href="#DejaVuSans-61"/>
      <use x="61.279297" xlink:href="#DejaVuSans-64"/>
      <use x="124.755859" xlink:href="#DejaVuSans-61"/>
      <use x="186.035156" xlink:href="#DejaVuSans-6d"/>
      <use x="283.447266" xlink:href="#DejaVuSans-20"/>
      <use x="315.234375" xlink:href="#DejaVuSans-2e"/>
      <use x="347.021484" xlink:href="#DejaVuSans-30"/>
      <use x="410.644531" xlink:href="#DejaVuSans-31"/>
     </g>
    </g>
    <g id="line2d_22">
     <path d="M 317.568438 234.291812 
L 337.568438 234.291812 
" style="fill:none;stroke:#ff7f0e;stroke-linecap:square;stroke-width:1.5;"/>
    </g>
    <g id="line2d_23"/>
    <g id="text_18">
     <!-- adam .001 -->
     <g transform="translate(345.568438 237.791812)scale(0.1 -0.1)">
      <use xlink:href="#DejaVuSans-61"/>
      <use x="61.279297" xlink:href="#DejaVuSans-64"/>
      <use x="124.755859" xlink:href="#DejaVuSans-61"/>
      <use x="186.035156" xlink:href="#DejaVuSans-6d"/>
      <use x="283.447266" xlink:href="#DejaVuSans-20"/>
      <use x="315.234375" xlink:href="#DejaVuSans-2e"/>
      <use x="347.021484" xlink:href="#DejaVuSans-30"/>
      <use x="410.644531" xlink:href="#DejaVuSans-30"/>
      <use x="474.267578" xlink:href="#DejaVuSans-31"/>
     </g>
    </g>
    <g id="line2d_24">
     <path d="M 317.568438 248.969937 
L 337.568438 248.969937 
" style="fill:none;stroke:#2ca02c;stroke-linecap:square;stroke-width:1.5;"/>
    </g>
    <g id="line2d_25"/>
    <g id="text_19">
     <!-- adam .0001 -->
     <g transform="translate(345.568438 252.469937)scale(0.1 -0.1)">
      <use xlink:href="#DejaVuSans-61"/>
      <use x="61.279297" xlink:href="#DejaVuSans-64"/>
      <use x="124.755859" xlink:href="#DejaVuSans-61"/>
      <use x="186.035156" xlink:href="#DejaVuSans-6d"/>
      <use x="283.447266" xlink:href="#DejaVuSans-20"/>
      <use x="315.234375" xlink:href="#DejaVuSans-2e"/>
      <use x="347.021484" xlink:href="#DejaVuSans-30"/>
      <use x="410.644531" xlink:href="#DejaVuSans-30"/>
      <use x="474.267578" xlink:href="#DejaVuSans-30"/>
      <use x="537.890625" xlink:href="#DejaVuSans-31"/>
     </g>
    </g>
    <g id="line2d_26">
     <path d="M 317.568438 263.648062 
L 337.568438 263.648062 
" style="fill:none;stroke:#d62728;stroke-linecap:square;stroke-width:1.5;"/>
    </g>
    <g id="line2d_27"/>
    <g id="text_20">
     <!-- SGD .01 -->
     <defs>
      <path d="M 59.515625 10.40625 
L 59.515625 29.984375 
L 43.40625 29.984375 
L 43.40625 38.09375 
L 69.28125 38.09375 
L 69.28125 6.78125 
Q 63.578125 2.734375 56.6875 0.65625 
Q 49.8125 -1.421875 42 -1.421875 
Q 24.90625 -1.421875 15.25 8.5625 
Q 5.609375 18.5625 5.609375 36.375 
Q 5.609375 54.25 15.25 64.234375 
Q 24.90625 74.21875 42 74.21875 
Q 49.125 74.21875 55.546875 72.453125 
Q 61.96875 70.703125 67.390625 67.28125 
L 67.390625 56.78125 
Q 61.921875 61.421875 55.765625 63.765625 
Q 49.609375 66.109375 42.828125 66.109375 
Q 29.4375 66.109375 22.71875 58.640625 
Q 16.015625 51.171875 16.015625 36.375 
Q 16.015625 21.625 22.71875 14.15625 
Q 29.4375 6.6875 42.828125 6.6875 
Q 48.046875 6.6875 52.140625 7.59375 
Q 56.25 8.5 59.515625 10.40625 
z
" id="DejaVuSans-47"/>
      <path d="M 19.671875 64.796875 
L 19.671875 8.109375 
L 31.59375 8.109375 
Q 46.6875 8.109375 53.6875 14.9375 
Q 60.6875 21.78125 60.6875 36.53125 
Q 60.6875 51.171875 53.6875 57.984375 
Q 46.6875 64.796875 31.59375 64.796875 
z
M 9.8125 72.90625 
L 30.078125 72.90625 
Q 51.265625 72.90625 61.171875 64.09375 
Q 71.09375 55.28125 71.09375 36.53125 
Q 71.09375 17.671875 61.125 8.828125 
Q 51.171875 0 30.078125 0 
L 9.8125 0 
z
" id="DejaVuSans-44"/>
     </defs>
     <g transform="translate(345.568438 267.148062)scale(0.1 -0.1)">
      <use xlink:href="#DejaVuSans-53"/>
      <use x="63.476562" xlink:href="#DejaVuSans-47"/>
      <use x="140.966797" xlink:href="#DejaVuSans-44"/>
      <use x="217.96875" xlink:href="#DejaVuSans-20"/>
      <use x="249.755859" xlink:href="#DejaVuSans-2e"/>
      <use x="281.542969" xlink:href="#DejaVuSans-30"/>
      <use x="345.166016" xlink:href="#DejaVuSans-31"/>
     </g>
    </g>
    <g id="line2d_28">
     <path d="M 317.568438 278.326188 
L 337.568438 278.326188 
" style="fill:none;stroke:#9467bd;stroke-linecap:square;stroke-width:1.5;"/>
    </g>
    <g id="line2d_29"/>
    <g id="text_21">
     <!-- SGD .001 -->
     <g transform="translate(345.568438 281.826188)scale(0.1 -0.1)">
      <use xlink:href="#DejaVuSans-53"/>
      <use x="63.476562" xlink:href="#DejaVuSans-47"/>
      <use x="140.966797" xlink:href="#DejaVuSans-44"/>
      <use x="217.96875" xlink:href="#DejaVuSans-20"/>
      <use x="249.755859" xlink:href="#DejaVuSans-2e"/>
      <use x="281.542969" xlink:href="#DejaVuSans-30"/>
      <use x="345.166016" xlink:href="#DejaVuSans-30"/>
      <use x="408.789062" xlink:href="#DejaVuSans-31"/>
     </g>
    </g>
    <g id="line2d_30">
     <path d="M 317.568438 293.004312 
L 337.568438 293.004312 
" style="fill:none;stroke:#8c564b;stroke-linecap:square;stroke-width:1.5;"/>
    </g>
    <g id="line2d_31"/>
    <g id="text_22">
     <!-- SGD .0001 -->
     <g transform="translate(345.568438 296.504312)scale(0.1 -0.1)">
      <use xlink:href="#DejaVuSans-53"/>
      <use x="63.476562" xlink:href="#DejaVuSans-47"/>
      <use x="140.966797" xlink:href="#DejaVuSans-44"/>
      <use x="217.96875" xlink:href="#DejaVuSans-20"/>
      <use x="249.755859" xlink:href="#DejaVuSans-2e"/>
      <use x="281.542969" xlink:href="#DejaVuSans-30"/>
      <use x="345.166016" xlink:href="#DejaVuSans-30"/>
      <use x="408.789062" xlink:href="#DejaVuSans-30"/>
      <use x="472.412109" xlink:href="#DejaVuSans-31"/>
     </g>
    </g>
   </g>
  </g>
 </g>
 <defs>
  <clipPath id="p67faca21e2">
   <rect height="266.112" width="357.12" x="57.6" y="41.472"/>
  </clipPath>
 </defs>
</svg>
