<?xml version="1.0" encoding="utf-8" standalone="no"?>
<!DOCTYPE svg PUBLIC "-//W3C//DTD SVG 1.1//EN"
  "http://www.w3.org/Graphics/SVG/1.1/DTD/svg11.dtd">
<!-- Created with matplotlib (http://matplotlib.org/) -->
<svg height="345pt" version="1.1" viewBox="0 0 460 345" width="460pt" xmlns="http://www.w3.org/2000/svg" xmlns:xlink="http://www.w3.org/1999/xlink">
 <defs>
  <style type="text/css">
*{stroke-linecap:butt;stroke-linejoin:round;}
  </style>
 </defs>
 <g id="figure_1">
  <g id="patch_1">
   <path d="M 0 345.6 
L 460.8 345.6 
L 460.8 0 
L 0 0 
z
" style="fill:#ffffff;"/>
  </g>
  <g id="axes_1">
   <g id="patch_2">
    <path d="M 57.6 307.584 
L 414.72 307.584 
L 414.72 41.472 
L 57.6 41.472 
z
" style="fill:#ffffff;"/>
   </g>
   <g id="matplotlib.axis_1">
    <g id="xtick_1">
     <g id="line2d_1">
      <defs>
       <path d="M 0 0 
L 0 3.5 
" id="m5f8992d3d1" style="stroke:#000000;stroke-width:0.8;"/>
      </defs>
      <g>
       <use style="stroke:#000000;stroke-width:0.8;" x="73.832727" xlink:href="#m5f8992d3d1" y="307.584"/>
      </g>
     </g>
     <g id="text_1">
      <!-- 0 -->
      <defs>
       <path d="M 31.78125 66.40625 
Q 24.171875 66.40625 20.328125 58.90625 
Q 16.5 51.421875 16.5 36.375 
Q 16.5 21.390625 20.328125 13.890625 
Q 24.171875 6.390625 31.78125 6.390625 
Q 39.453125 6.390625 43.28125 13.890625 
Q 47.125 21.390625 47.125 36.375 
Q 47.125 51.421875 43.28125 58.90625 
Q 39.453125 66.40625 31.78125 66.40625 
z
M 31.78125 74.21875 
Q 44.046875 74.21875 50.515625 64.515625 
Q 56.984375 54.828125 56.984375 36.375 
Q 56.984375 17.96875 50.515625 8.265625 
Q 44.046875 -1.421875 31.78125 -1.421875 
Q 19.53125 -1.421875 13.0625 8.265625 
Q 6.59375 17.96875 6.59375 36.375 
Q 6.59375 54.828125 13.0625 64.515625 
Q 19.53125 74.21875 31.78125 74.21875 
z
" id="DejaVuSans-30"/>
      </defs>
      <g transform="translate(70.651477 322.182437)scale(0.1 -0.1)">
       <use xlink:href="#DejaVuSans-30"/>
      </g>
     </g>
    </g>
    <g id="xtick_2">
     <g id="line2d_2">
      <g>
       <use style="stroke:#000000;stroke-width:0.8;" x="139.419504" xlink:href="#m5f8992d3d1" y="307.584"/>
      </g>
     </g>
     <g id="text_2">
      <!-- 20 -->
      <defs>
       <path d="M 19.1875 8.296875 
L 53.609375 8.296875 
L 53.609375 0 
L 7.328125 0 
L 7.328125 8.296875 
Q 12.9375 14.109375 22.625 23.890625 
Q 32.328125 33.6875 34.8125 36.53125 
Q 39.546875 41.84375 41.421875 45.53125 
Q 43.3125 49.21875 43.3125 52.78125 
Q 43.3125 58.59375 39.234375 62.25 
Q 35.15625 65.921875 28.609375 65.921875 
Q 23.96875 65.921875 18.8125 64.3125 
Q 13.671875 62.703125 7.8125 59.421875 
L 7.8125 69.390625 
Q 13.765625 71.78125 18.9375 73 
Q 24.125 74.21875 28.421875 74.21875 
Q 39.75 74.21875 46.484375 68.546875 
Q 53.21875 62.890625 53.21875 53.421875 
Q 53.21875 48.921875 51.53125 44.890625 
Q 49.859375 40.875 45.40625 35.40625 
Q 44.1875 33.984375 37.640625 27.21875 
Q 31.109375 20.453125 19.1875 8.296875 
z
" id="DejaVuSans-32"/>
      </defs>
      <g transform="translate(133.057004 322.182437)scale(0.1 -0.1)">
       <use xlink:href="#DejaVuSans-32"/>
       <use x="63.623047" xlink:href="#DejaVuSans-30"/>
      </g>
     </g>
    </g>
    <g id="xtick_3">
     <g id="line2d_3">
      <g>
       <use style="stroke:#000000;stroke-width:0.8;" x="205.006281" xlink:href="#m5f8992d3d1" y="307.584"/>
      </g>
     </g>
     <g id="text_3">
      <!-- 40 -->
      <defs>
       <path d="M 37.796875 64.3125 
L 12.890625 25.390625 
L 37.796875 25.390625 
z
M 35.203125 72.90625 
L 47.609375 72.90625 
L 47.609375 25.390625 
L 58.015625 25.390625 
L 58.015625 17.1875 
L 47.609375 17.1875 
L 47.609375 0 
L 37.796875 0 
L 37.796875 17.1875 
L 4.890625 17.1875 
L 4.890625 26.703125 
z
" id="DejaVuSans-34"/>
      </defs>
      <g transform="translate(198.643781 322.182437)scale(0.1 -0.1)">
       <use xlink:href="#DejaVuSans-34"/>
       <use x="63.623047" xlink:href="#DejaVuSans-30"/>
      </g>
     </g>
    </g>
    <g id="xtick_4">
     <g id="line2d_4">
      <g>
       <use style="stroke:#000000;stroke-width:0.8;" x="270.593058" xlink:href="#m5f8992d3d1" y="307.584"/>
      </g>
     </g>
     <g id="text_4">
      <!-- 60 -->
      <defs>
       <path d="M 33.015625 40.375 
Q 26.375 40.375 22.484375 35.828125 
Q 18.609375 31.296875 18.609375 23.390625 
Q 18.609375 15.53125 22.484375 10.953125 
Q 26.375 6.390625 33.015625 6.390625 
Q 39.65625 6.390625 43.53125 10.953125 
Q 47.40625 15.53125 47.40625 23.390625 
Q 47.40625 31.296875 43.53125 35.828125 
Q 39.65625 40.375 33.015625 40.375 
z
M 52.59375 71.296875 
L 52.59375 62.3125 
Q 48.875 64.0625 45.09375 64.984375 
Q 41.3125 65.921875 37.59375 65.921875 
Q 27.828125 65.921875 22.671875 59.328125 
Q 17.53125 52.734375 16.796875 39.40625 
Q 19.671875 43.65625 24.015625 45.921875 
Q 28.375 48.1875 33.59375 48.1875 
Q 44.578125 48.1875 50.953125 41.515625 
Q 57.328125 34.859375 57.328125 23.390625 
Q 57.328125 12.15625 50.6875 5.359375 
Q 44.046875 -1.421875 33.015625 -1.421875 
Q 20.359375 -1.421875 13.671875 8.265625 
Q 6.984375 17.96875 6.984375 36.375 
Q 6.984375 53.65625 15.1875 63.9375 
Q 23.390625 74.21875 37.203125 74.21875 
Q 40.921875 74.21875 44.703125 73.484375 
Q 48.484375 72.75 52.59375 71.296875 
z
" id="DejaVuSans-36"/>
      </defs>
      <g transform="translate(264.230558 322.182437)scale(0.1 -0.1)">
       <use xlink:href="#DejaVuSans-36"/>
       <use x="63.623047" xlink:href="#DejaVuSans-30"/>
      </g>
     </g>
    </g>
    <g id="xtick_5">
     <g id="line2d_5">
      <g>
       <use style="stroke:#000000;stroke-width:0.8;" x="336.179835" xlink:href="#m5f8992d3d1" y="307.584"/>
      </g>
     </g>
     <g id="text_5">
      <!-- 80 -->
      <defs>
       <path d="M 31.78125 34.625 
Q 24.75 34.625 20.71875 30.859375 
Q 16.703125 27.09375 16.703125 20.515625 
Q 16.703125 13.921875 20.71875 10.15625 
Q 24.75 6.390625 31.78125 6.390625 
Q 38.8125 6.390625 42.859375 10.171875 
Q 46.921875 13.96875 46.921875 20.515625 
Q 46.921875 27.09375 42.890625 30.859375 
Q 38.875 34.625 31.78125 34.625 
z
M 21.921875 38.8125 
Q 15.578125 40.375 12.03125 44.71875 
Q 8.5 49.078125 8.5 55.328125 
Q 8.5 64.0625 14.71875 69.140625 
Q 20.953125 74.21875 31.78125 74.21875 
Q 42.671875 74.21875 48.875 69.140625 
Q 55.078125 64.0625 55.078125 55.328125 
Q 55.078125 49.078125 51.53125 44.71875 
Q 48 40.375 41.703125 38.8125 
Q 48.828125 37.15625 52.796875 32.3125 
Q 56.78125 27.484375 56.78125 20.515625 
Q 56.78125 9.90625 50.3125 4.234375 
Q 43.84375 -1.421875 31.78125 -1.421875 
Q 19.734375 -1.421875 13.25 4.234375 
Q 6.78125 9.90625 6.78125 20.515625 
Q 6.78125 27.484375 10.78125 32.3125 
Q 14.796875 37.15625 21.921875 38.8125 
z
M 18.3125 54.390625 
Q 18.3125 48.734375 21.84375 45.5625 
Q 25.390625 42.390625 31.78125 42.390625 
Q 38.140625 42.390625 41.71875 45.5625 
Q 45.3125 48.734375 45.3125 54.390625 
Q 45.3125 60.0625 41.71875 63.234375 
Q 38.140625 66.40625 31.78125 66.40625 
Q 25.390625 66.40625 21.84375 63.234375 
Q 18.3125 60.0625 18.3125 54.390625 
z
" id="DejaVuSans-38"/>
      </defs>
      <g transform="translate(329.817335 322.182437)scale(0.1 -0.1)">
       <use xlink:href="#DejaVuSans-38"/>
       <use x="63.623047" xlink:href="#DejaVuSans-30"/>
      </g>
     </g>
    </g>
    <g id="xtick_6">
     <g id="line2d_6">
      <g>
       <use style="stroke:#000000;stroke-width:0.8;" x="401.766612" xlink:href="#m5f8992d3d1" y="307.584"/>
      </g>
     </g>
     <g id="text_6">
      <!-- 100 -->
      <defs>
       <path d="M 12.40625 8.296875 
L 28.515625 8.296875 
L 28.515625 63.921875 
L 10.984375 60.40625 
L 10.984375 69.390625 
L 28.421875 72.90625 
L 38.28125 72.90625 
L 38.28125 8.296875 
L 54.390625 8.296875 
L 54.390625 0 
L 12.40625 0 
z
" id="DejaVuSans-31"/>
      </defs>
      <g transform="translate(392.222862 322.182437)scale(0.1 -0.1)">
       <use xlink:href="#DejaVuSans-31"/>
       <use x="63.623047" xlink:href="#DejaVuSans-30"/>
       <use x="127.246094" xlink:href="#DejaVuSans-30"/>
      </g>
     </g>
    </g>
    <g id="text_7">
     <!-- epoch -->
     <defs>
      <path d="M 56.203125 29.59375 
L 56.203125 25.203125 
L 14.890625 25.203125 
Q 15.484375 15.921875 20.484375 11.0625 
Q 25.484375 6.203125 34.421875 6.203125 
Q 39.59375 6.203125 44.453125 7.46875 
Q 49.3125 8.734375 54.109375 11.28125 
L 54.109375 2.78125 
Q 49.265625 0.734375 44.1875 -0.34375 
Q 39.109375 -1.421875 33.890625 -1.421875 
Q 20.796875 -1.421875 13.15625 6.1875 
Q 5.515625 13.8125 5.515625 26.8125 
Q 5.515625 40.234375 12.765625 48.109375 
Q 20.015625 56 32.328125 56 
Q 43.359375 56 49.78125 48.890625 
Q 56.203125 41.796875 56.203125 29.59375 
z
M 47.21875 32.234375 
Q 47.125 39.59375 43.09375 43.984375 
Q 39.0625 48.390625 32.421875 48.390625 
Q 24.90625 48.390625 20.390625 44.140625 
Q 15.875 39.890625 15.1875 32.171875 
z
" id="DejaVuSans-65"/>
      <path d="M 18.109375 8.203125 
L 18.109375 -20.796875 
L 9.078125 -20.796875 
L 9.078125 54.6875 
L 18.109375 54.6875 
L 18.109375 46.390625 
Q 20.953125 51.265625 25.265625 53.625 
Q 29.59375 56 35.59375 56 
Q 45.5625 56 51.78125 48.09375 
Q 58.015625 40.1875 58.015625 27.296875 
Q 58.015625 14.40625 51.78125 6.484375 
Q 45.5625 -1.421875 35.59375 -1.421875 
Q 29.59375 -1.421875 25.265625 0.953125 
Q 20.953125 3.328125 18.109375 8.203125 
z
M 48.6875 27.296875 
Q 48.6875 37.203125 44.609375 42.84375 
Q 40.53125 48.484375 33.40625 48.484375 
Q 26.265625 48.484375 22.1875 42.84375 
Q 18.109375 37.203125 18.109375 27.296875 
Q 18.109375 17.390625 22.1875 11.75 
Q 26.265625 6.109375 33.40625 6.109375 
Q 40.53125 6.109375 44.609375 11.75 
Q 48.6875 17.390625 48.6875 27.296875 
z
" id="DejaVuSans-70"/>
      <path d="M 30.609375 48.390625 
Q 23.390625 48.390625 19.1875 42.75 
Q 14.984375 37.109375 14.984375 27.296875 
Q 14.984375 17.484375 19.15625 11.84375 
Q 23.34375 6.203125 30.609375 6.203125 
Q 37.796875 6.203125 41.984375 11.859375 
Q 46.1875 17.53125 46.1875 27.296875 
Q 46.1875 37.015625 41.984375 42.703125 
Q 37.796875 48.390625 30.609375 48.390625 
z
M 30.609375 56 
Q 42.328125 56 49.015625 48.375 
Q 55.71875 40.765625 55.71875 27.296875 
Q 55.71875 13.875 49.015625 6.21875 
Q 42.328125 -1.421875 30.609375 -1.421875 
Q 18.84375 -1.421875 12.171875 6.21875 
Q 5.515625 13.875 5.515625 27.296875 
Q 5.515625 40.765625 12.171875 48.375 
Q 18.84375 56 30.609375 56 
z
" id="DejaVuSans-6f"/>
      <path d="M 48.78125 52.59375 
L 48.78125 44.1875 
Q 44.96875 46.296875 41.140625 47.34375 
Q 37.3125 48.390625 33.40625 48.390625 
Q 24.65625 48.390625 19.8125 42.84375 
Q 14.984375 37.3125 14.984375 27.296875 
Q 14.984375 17.28125 19.8125 11.734375 
Q 24.65625 6.203125 33.40625 6.203125 
Q 37.3125 6.203125 41.140625 7.25 
Q 44.96875 8.296875 48.78125 10.40625 
L 48.78125 2.09375 
Q 45.015625 0.34375 40.984375 -0.53125 
Q 36.96875 -1.421875 32.421875 -1.421875 
Q 20.0625 -1.421875 12.78125 6.34375 
Q 5.515625 14.109375 5.515625 27.296875 
Q 5.515625 40.671875 12.859375 48.328125 
Q 20.21875 56 33.015625 56 
Q 37.15625 56 41.109375 55.140625 
Q 45.0625 54.296875 48.78125 52.59375 
z
" id="DejaVuSans-63"/>
      <path d="M 54.890625 33.015625 
L 54.890625 0 
L 45.90625 0 
L 45.90625 32.71875 
Q 45.90625 40.484375 42.875 44.328125 
Q 39.84375 48.1875 33.796875 48.1875 
Q 26.515625 48.1875 22.3125 43.546875 
Q 18.109375 38.921875 18.109375 30.90625 
L 18.109375 0 
L 9.078125 0 
L 9.078125 75.984375 
L 18.109375 75.984375 
L 18.109375 46.1875 
Q 21.34375 51.125 25.703125 53.5625 
Q 30.078125 56 35.796875 56 
Q 45.21875 56 50.046875 50.171875 
Q 54.890625 44.34375 54.890625 33.015625 
z
" id="DejaVuSans-68"/>
     </defs>
     <g transform="translate(220.931875 335.860562)scale(0.1 -0.1)">
      <use xlink:href="#DejaVuSans-65"/>
      <use x="61.523438" xlink:href="#DejaVuSans-70"/>
      <use x="125" xlink:href="#DejaVuSans-6f"/>
      <use x="186.181641" xlink:href="#DejaVuSans-63"/>
      <use x="241.162109" xlink:href="#DejaVuSans-68"/>
     </g>
    </g>
   </g>
   <g id="matplotlib.axis_2">
    <g id="ytick_1">
     <g id="line2d_7">
      <defs>
       <path d="M 0 0 
L -3.5 0 
" id="m6493599e9a" style="stroke:#000000;stroke-width:0.8;"/>
      </defs>
      <g>
       <use style="stroke:#000000;stroke-width:0.8;" x="57.6" xlink:href="#m6493599e9a" y="306.886749"/>
      </g>
     </g>
     <g id="text_8">
      <!-- 0.8 -->
      <defs>
       <path d="M 10.6875 12.40625 
L 21 12.40625 
L 21 0 
L 10.6875 0 
z
" id="DejaVuSans-2e"/>
      </defs>
      <g transform="translate(34.696875 310.685968)scale(0.1 -0.1)">
       <use xlink:href="#DejaVuSans-30"/>
       <use x="63.623047" xlink:href="#DejaVuSans-2e"/>
       <use x="95.410156" xlink:href="#DejaVuSans-38"/>
      </g>
     </g>
    </g>
    <g id="ytick_2">
     <g id="line2d_8">
      <g>
       <use style="stroke:#000000;stroke-width:0.8;" x="57.6" xlink:href="#m6493599e9a" y="274.359554"/>
      </g>
     </g>
     <g id="text_9">
      <!-- 1.0 -->
      <g transform="translate(34.696875 278.158772)scale(0.1 -0.1)">
       <use xlink:href="#DejaVuSans-31"/>
       <use x="63.623047" xlink:href="#DejaVuSans-2e"/>
       <use x="95.410156" xlink:href="#DejaVuSans-30"/>
      </g>
     </g>
    </g>
    <g id="ytick_3">
     <g id="line2d_9">
      <g>
       <use style="stroke:#000000;stroke-width:0.8;" x="57.6" xlink:href="#m6493599e9a" y="241.832358"/>
      </g>
     </g>
     <g id="text_10">
      <!-- 1.2 -->
      <g transform="translate(34.696875 245.631577)scale(0.1 -0.1)">
       <use xlink:href="#DejaVuSans-31"/>
       <use x="63.623047" xlink:href="#DejaVuSans-2e"/>
       <use x="95.410156" xlink:href="#DejaVuSans-32"/>
      </g>
     </g>
    </g>
    <g id="ytick_4">
     <g id="line2d_10">
      <g>
       <use style="stroke:#000000;stroke-width:0.8;" x="57.6" xlink:href="#m6493599e9a" y="209.305163"/>
      </g>
     </g>
     <g id="text_11">
      <!-- 1.4 -->
      <g transform="translate(34.696875 213.104381)scale(0.1 -0.1)">
       <use xlink:href="#DejaVuSans-31"/>
       <use x="63.623047" xlink:href="#DejaVuSans-2e"/>
       <use x="95.410156" xlink:href="#DejaVuSans-34"/>
      </g>
     </g>
    </g>
    <g id="ytick_5">
     <g id="line2d_11">
      <g>
       <use style="stroke:#000000;stroke-width:0.8;" x="57.6" xlink:href="#m6493599e9a" y="176.777967"/>
      </g>
     </g>
     <g id="text_12">
      <!-- 1.6 -->
      <g transform="translate(34.696875 180.577186)scale(0.1 -0.1)">
       <use xlink:href="#DejaVuSans-31"/>
       <use x="63.623047" xlink:href="#DejaVuSans-2e"/>
       <use x="95.410156" xlink:href="#DejaVuSans-36"/>
      </g>
     </g>
    </g>
    <g id="ytick_6">
     <g id="line2d_12">
      <g>
       <use style="stroke:#000000;stroke-width:0.8;" x="57.6" xlink:href="#m6493599e9a" y="144.250772"/>
      </g>
     </g>
     <g id="text_13">
      <!-- 1.8 -->
      <g transform="translate(34.696875 148.04999)scale(0.1 -0.1)">
       <use xlink:href="#DejaVuSans-31"/>
       <use x="63.623047" xlink:href="#DejaVuSans-2e"/>
       <use x="95.410156" xlink:href="#DejaVuSans-38"/>
      </g>
     </g>
    </g>
    <g id="ytick_7">
     <g id="line2d_13">
      <g>
       <use style="stroke:#000000;stroke-width:0.8;" x="57.6" xlink:href="#m6493599e9a" y="111.723576"/>
      </g>
     </g>
     <g id="text_14">
      <!-- 2.0 -->
      <g transform="translate(34.696875 115.522795)scale(0.1 -0.1)">
       <use xlink:href="#DejaVuSans-32"/>
       <use x="63.623047" xlink:href="#DejaVuSans-2e"/>
       <use x="95.410156" xlink:href="#DejaVuSans-30"/>
      </g>
     </g>
    </g>
    <g id="ytick_8">
     <g id="line2d_14">
      <g>
       <use style="stroke:#000000;stroke-width:0.8;" x="57.6" xlink:href="#m6493599e9a" y="79.196381"/>
      </g>
     </g>
     <g id="text_15">
      <!-- 2.2 -->
      <g transform="translate(34.696875 82.995599)scale(0.1 -0.1)">
       <use xlink:href="#DejaVuSans-32"/>
       <use x="63.623047" xlink:href="#DejaVuSans-2e"/>
       <use x="95.410156" xlink:href="#DejaVuSans-32"/>
      </g>
     </g>
    </g>
    <g id="ytick_9">
     <g id="line2d_15">
      <g>
       <use style="stroke:#000000;stroke-width:0.8;" x="57.6" xlink:href="#m6493599e9a" y="46.669185"/>
      </g>
     </g>
     <g id="text_16">
      <!-- 2.4 -->
      <g transform="translate(34.696875 50.468404)scale(0.1 -0.1)">
       <use xlink:href="#DejaVuSans-32"/>
       <use x="63.623047" xlink:href="#DejaVuSans-2e"/>
       <use x="95.410156" xlink:href="#DejaVuSans-34"/>
      </g>
     </g>
    </g>
    <g id="text_17">
     <!-- loss -->
     <defs>
      <path d="M 9.421875 75.984375 
L 18.40625 75.984375 
L 18.40625 0 
L 9.421875 0 
z
" id="DejaVuSans-6c"/>
      <path d="M 44.28125 53.078125 
L 44.28125 44.578125 
Q 40.484375 46.53125 36.375 47.5 
Q 32.28125 48.484375 27.875 48.484375 
Q 21.1875 48.484375 17.84375 46.4375 
Q 14.5 44.390625 14.5 40.28125 
Q 14.5 37.15625 16.890625 35.375 
Q 19.28125 33.59375 26.515625 31.984375 
L 29.59375 31.296875 
Q 39.15625 29.25 43.1875 25.515625 
Q 47.21875 21.78125 47.21875 15.09375 
Q 47.21875 7.46875 41.1875 3.015625 
Q 35.15625 -1.421875 24.609375 -1.421875 
Q 20.21875 -1.421875 15.453125 -0.5625 
Q 10.6875 0.296875 5.421875 2 
L 5.421875 11.28125 
Q 10.40625 8.6875 15.234375 7.390625 
Q 20.0625 6.109375 24.8125 6.109375 
Q 31.15625 6.109375 34.5625 8.28125 
Q 37.984375 10.453125 37.984375 14.40625 
Q 37.984375 18.0625 35.515625 20.015625 
Q 33.0625 21.96875 24.703125 23.78125 
L 21.578125 24.515625 
Q 13.234375 26.265625 9.515625 29.90625 
Q 5.8125 33.546875 5.8125 39.890625 
Q 5.8125 47.609375 11.28125 51.796875 
Q 16.75 56 26.8125 56 
Q 31.78125 56 36.171875 55.265625 
Q 40.578125 54.546875 44.28125 53.078125 
z
" id="DejaVuSans-73"/>
     </defs>
     <g transform="translate(28.617188 184.185812)rotate(-90)scale(0.1 -0.1)">
      <use xlink:href="#DejaVuSans-6c"/>
      <use x="27.783203" xlink:href="#DejaVuSans-6f"/>
      <use x="88.964844" xlink:href="#DejaVuSans-73"/>
      <use x="141.064453" xlink:href="#DejaVuSans-73"/>
     </g>
    </g>
   </g>
   <g id="line2d_16">
    <path clip-path="url(#p0fa9e85e90)" d="M 73.832727 180.668016 
L 77.112066 180.89774 
L 80.391405 203.468564 
L 83.670744 197.12881 
L 86.950083 192.261929 
L 90.229421 206.538318 
L 93.50876 221.24061 
L 96.788099 210.703832 
L 100.067438 217.10864 
L 103.346777 226.466308 
L 106.626116 221.48863 
L 109.905455 217.466439 
L 113.184793 214.935417 
L 116.464132 213.191146 
L 119.743471 219.337769 
L 123.02281 230.775145 
L 126.302149 217.013091 
L 129.581488 218.386349 
L 132.860826 221.548602 
L 136.140165 217.846601 
L 139.419504 223.685232 
L 142.698843 220.135702 
L 145.978182 235.092113 
L 149.257521 227.637287 
L 152.53686 230.178474 
L 155.816198 222.008049 
L 159.095537 236.405399 
L 162.374876 232.782682 
L 165.654215 224.56245 
L 168.933554 232.857902 
L 172.212893 214.15883 
L 175.492231 222.363815 
L 178.77157 223.126171 
L 182.050909 223.546992 
L 185.330248 227.773494 
L 188.609587 229.664138 
L 191.888926 228.815381 
L 195.168264 225.541316 
L 198.447603 215.725218 
L 201.726942 221.855578 
L 205.006281 238.599968 
L 208.28562 229.4212 
L 211.564959 241.313956 
L 214.844298 237.147425 
L 218.123636 224.445556 
L 221.402975 223.560206 
L 224.682314 230.379736 
L 227.961653 221.130831 
L 231.240992 228.8906 
L 234.520331 231.500908 
L 237.799669 233.896739 
L 241.079008 224.858244 
L 244.358347 203.603755 
L 247.637686 232.593618 
L 250.917025 231.810932 
L 254.196364 234.08682 
L 257.475702 217.151332 
L 260.755041 214.538992 
L 264.03438 232.168732 
L 267.313719 221.927747 
L 270.593058 214.922203 
L 273.872397 213.715647 
L 277.151736 226.553724 
L 280.431074 231.112614 
L 283.710413 242.08546 
L 286.989752 224.599043 
L 290.269091 232.204308 
L 293.54843 231.227476 
L 296.827769 223.013343 
L 300.107107 233.371221 
L 303.386446 229.505567 
L 306.665785 228.367116 
L 309.945124 230.934731 
L 313.224463 232.770485 
L 316.503802 219.185298 
L 319.78314 227.892422 
L 323.062479 232.104694 
L 326.341818 237.401544 
L 329.621157 246.532538 
L 332.900496 232.697299 
L 336.179835 238.160851 
L 339.459174 239.261693 
L 342.738512 245.005793 
L 346.017851 240.395063 
L 349.29719 227.58443 
L 352.576529 232.128073 
L 355.855868 230.700942 
L 359.135207 238.966915 
L 362.414545 233.173009 
L 365.693884 231.15124 
L 368.973223 229.918256 
L 372.252562 237.758327 
L 375.531901 231.645247 
L 378.81124 217.700228 
L 382.090579 234.788187 
L 385.369917 223.638475 
L 388.649256 225.121511 
L 391.928595 233.36309 
L 395.207934 239.521911 
L 398.487273 233.107954 
" style="fill:none;stroke:#1f77b4;stroke-linecap:square;stroke-width:1.5;"/>
   </g>
   <g id="line2d_17">
    <path clip-path="url(#p0fa9e85e90)" d="M 73.832727 214.462756 
L 77.112066 237.728849 
L 80.391405 250.33822 
L 83.670744 260.097395 
L 86.950083 266.283661 
L 90.229421 271.32131 
L 93.50876 274.861692 
L 96.788099 277.905018 
L 100.067438 279.461241 
L 103.346777 279.929836 
L 106.626116 279.165447 
L 109.905455 278.8849 
L 113.184793 278.326855 
L 116.464132 278.142873 
L 119.743471 277.612273 
L 123.02281 277.205683 
L 126.302149 276.988158 
L 129.581488 275.601686 
L 132.860826 274.122715 
L 136.140165 272.86127 
L 139.419504 271.666912 
L 142.698843 269.648193 
L 145.978182 267.709775 
L 149.257521 266.967748 
L 152.53686 266.052921 
L 155.816198 263.484289 
L 159.095537 260.165499 
L 162.374876 258.556419 
L 165.654215 256.665776 
L 168.933554 253.698686 
L 172.212893 251.283541 
L 175.492231 249.357321 
L 178.77157 247.056022 
L 182.050909 245.494717 
L 185.330248 243.310313 
L 188.609587 242.074279 
L 191.888926 240.387947 
L 195.168264 238.882548 
L 198.447603 236.620891 
L 201.726942 233.710724 
L 205.006281 231.662527 
L 208.28562 229.691582 
L 211.564959 225.059506 
L 214.844298 221.0302 
L 218.123636 217.928935 
L 221.402975 215.769943 
L 224.682314 212.85266 
L 227.961653 209.879471 
L 231.240992 209.606039 
L 234.520331 207.060786 
L 237.799669 202.533407 
L 241.079008 202.291486 
L 244.358347 200.509606 
L 247.637686 197.475428 
L 250.917025 190.771776 
L 254.196364 186.242365 
L 257.475702 181.002437 
L 260.755041 176.962966 
L 264.03438 172.863522 
L 267.313719 170.898677 
L 270.593058 167.855351 
L 273.872397 163.682721 
L 277.151736 162.289134 
L 280.431074 157.220991 
L 283.710413 154.552744 
L 286.989752 152.512679 
L 290.269091 153.961156 
L 293.54843 151.098763 
L 296.827769 149.185757 
L 300.107107 147.223961 
L 303.386446 144.137943 
L 306.665785 141.016349 
L 309.945124 141.033629 
L 313.224463 139.89721 
L 316.503802 137.6508 
L 319.78314 135.296645 
L 323.062479 134.499728 
L 326.341818 130.763167 
L 329.621157 128.103052 
L 332.900496 124.224184 
L 336.179835 120.352431 
L 339.459174 114.451795 
L 342.738512 110.28933 
L 346.017851 106.618839 
L 349.29719 106.420627 
L 352.576529 103.032716 
L 355.855868 102.051818 
L 359.135207 96.195906 
L 362.414545 94.19955 
L 365.693884 88.8102 
L 368.973223 87.309883 
L 372.252562 77.589334 
L 375.531901 71.916388 
L 378.81124 66.502643 
L 382.090579 63.922829 
L 385.369917 61.265764 
L 388.649256 57.973402 
L 391.928595 53.568 
L 395.207934 54.052859 
L 398.487273 55.163866 
" style="fill:none;stroke:#ff7f0e;stroke-linecap:square;stroke-width:1.5;"/>
   </g>
   <g id="line2d_18">
    <path clip-path="url(#p0fa9e85e90)" d="M 73.832727 141.601838 
L 77.112066 161.009393 
L 80.391405 176.344949 
L 83.670744 187.160241 
L 86.950083 196.716121 
L 90.229421 205.873543 
L 93.50876 212.716452 
L 96.788099 217.650421 
L 100.067438 221.639069 
L 103.346777 225.101182 
L 106.626116 228.216677 
L 109.905455 231.078054 
L 113.184793 233.758498 
L 116.464132 236.263092 
L 119.743471 238.59082 
L 123.02281 240.773191 
L 126.302149 242.831553 
L 129.581488 244.763872 
L 132.860826 246.595559 
L 136.140165 248.312385 
L 139.419504 249.922481 
L 142.698843 251.436013 
L 145.978182 252.880423 
L 149.257521 254.25978 
L 152.53686 255.591362 
L 155.816198 256.87212 
L 159.095537 258.106121 
L 162.374876 259.30861 
L 165.654215 260.489754 
L 168.933554 261.625157 
L 172.212893 262.718883 
L 175.492231 263.762803 
L 178.77157 264.760981 
L 182.050909 265.715451 
L 185.330248 266.627229 
L 188.609587 267.513595 
L 191.888926 268.369467 
L 195.168264 269.196878 
L 198.447603 270.008025 
L 201.726942 270.786644 
L 205.006281 271.533753 
L 208.28562 272.261549 
L 211.564959 272.967999 
L 214.844298 273.653104 
L 218.123636 274.316862 
L 221.402975 274.973504 
L 224.682314 275.609818 
L 227.961653 276.245114 
L 231.240992 276.870246 
L 234.520331 277.483181 
L 237.799669 278.092049 
L 241.079008 278.682621 
L 244.358347 279.260995 
L 247.637686 279.827172 
L 250.917025 280.375052 
L 254.196364 280.909718 
L 257.475702 281.438284 
L 260.755041 281.956687 
L 264.03438 282.463908 
L 267.313719 282.958931 
L 270.593058 283.446839 
L 273.872397 283.9195 
L 277.151736 284.385045 
L 280.431074 284.83636 
L 283.710413 285.284625 
L 286.989752 285.725775 
L 290.269091 286.156761 
L 293.54843 286.578598 
L 296.827769 286.994336 
L 300.107107 287.394827 
L 303.386446 287.78617 
L 306.665785 288.167348 
L 309.945124 288.541411 
L 313.224463 288.89921 
L 316.503802 289.249894 
L 319.78314 289.590413 
L 323.062479 289.924833 
L 326.341818 290.241973 
L 329.621157 290.55708 
L 332.900496 290.865072 
L 336.179835 291.163916 
L 339.459174 291.455644 
L 342.738512 291.739241 
L 346.017851 292.018771 
L 349.29719 292.286104 
L 352.576529 292.545305 
L 355.855868 292.80044 
L 359.135207 293.045411 
L 362.414545 293.28225 
L 365.693884 293.512989 
L 368.973223 293.739663 
L 372.252562 293.957189 
L 375.531901 294.169632 
L 378.81124 294.378009 
L 382.090579 294.581304 
L 385.369917 294.779517 
L 388.649256 294.967565 
L 391.928595 295.143415 
L 395.207934 295.318249 
L 398.487273 295.488 
" style="fill:none;stroke:#2ca02c;stroke-linecap:square;stroke-width:1.5;"/>
   </g>
   <g id="line2d_19">
    <path clip-path="url(#p0fa9e85e90)" d="M 73.832727 117.047871 
L 77.112066 129.016863 
L 80.391405 141.313159 
L 83.670744 150.411626 
L 86.950083 158.476337 
L 90.229421 166.407891 
L 93.50876 173.442913 
L 96.788099 179.478741 
L 100.067438 185.999427 
L 103.346777 192.658354 
L 106.626116 198.071082 
L 109.905455 202.351458 
L 113.184793 205.94368 
L 116.464132 209.16184 
L 119.743471 212.24989 
L 123.02281 215.262722 
L 126.302149 218.194235 
L 129.581488 220.962096 
L 132.860826 223.59375 
L 136.140165 226.144085 
L 139.419504 228.575493 
L 142.698843 230.908303 
L 145.978182 233.20147 
L 149.257521 235.458044 
L 152.53686 237.624152 
L 155.816198 239.682514 
L 159.095537 241.649393 
L 162.374876 243.533937 
L 165.654215 245.321916 
L 168.933554 247.030611 
L 172.212893 248.65697 
L 175.492231 250.223358 
L 178.77157 251.759252 
L 182.050909 253.271766 
L 185.330248 254.729391 
L 188.609587 256.120945 
L 191.888926 257.497252 
L 195.168264 258.85018 
L 198.447603 260.1594 
L 201.726942 261.437109 
L 205.006281 262.708719 
L 208.28562 263.911209 
L 211.564959 265.078122 
L 214.844298 266.235887 
L 218.123636 267.357058 
L 221.402975 268.436555 
L 224.682314 269.481491 
L 227.961653 270.474587 
L 231.240992 271.400595 
L 234.520331 272.277813 
L 237.799669 273.124537 
L 241.079008 273.934667 
L 244.358347 274.738699 
L 247.637686 275.530533 
L 250.917025 276.303054 
L 254.196364 277.037965 
L 257.475702 277.749497 
L 260.755041 278.438667 
L 264.03438 279.113606 
L 267.313719 279.771266 
L 270.593058 280.407579 
L 273.872397 281.02153 
L 277.151736 281.606003 
L 280.431074 282.16608 
L 283.710413 282.69973 
L 286.989752 283.205934 
L 290.269091 283.705023 
L 293.54843 284.1848 
L 296.827769 284.655427 
L 300.107107 285.111825 
L 303.386446 285.562123 
L 306.665785 286.000224 
L 309.945124 286.414945 
L 313.224463 286.813404 
L 316.503802 287.195598 
L 319.78314 287.569661 
L 323.062479 287.931526 
L 326.341818 288.284243 
L 329.621157 288.626795 
L 332.900496 288.965281 
L 336.179835 289.295635 
L 339.459174 289.614808 
L 342.738512 289.926866 
L 346.017851 290.229776 
L 349.29719 290.529636 
L 352.576529 290.820347 
L 355.855868 291.103944 
L 359.135207 291.377376 
L 362.414545 291.648774 
L 365.693884 291.910008 
L 368.973223 292.172259 
L 372.252562 292.43451 
L 375.531901 292.681513 
L 378.81124 292.930549 
L 382.090579 293.174503 
L 385.369917 293.411342 
L 388.649256 293.646148 
L 391.928595 293.875871 
L 395.207934 294.103561 
L 398.487273 294.325153 
" style="fill:none;stroke:#d62728;stroke-linecap:square;stroke-width:1.5;"/>
   </g>
   <g id="line2d_20">
    <path clip-path="url(#p0fa9e85e90)" d="M 73.832727 68.975726 
L 77.112066 78.588529 
L 80.391405 90.748617 
L 83.670744 100.659247 
L 86.950083 106.554801 
L 90.229421 110.245622 
L 93.50876 112.95656 
L 96.788099 115.103355 
L 100.067438 116.890318 
L 103.346777 118.436376 
L 106.626116 119.828947 
L 109.905455 121.122919 
L 113.184793 122.357936 
L 116.464132 123.57364 
L 119.743471 124.785278 
L 123.02281 126.020295 
L 126.302149 127.289872 
L 129.581488 128.605191 
L 132.860826 129.962185 
L 136.140165 131.354755 
L 139.419504 132.772737 
L 142.698843 134.205967 
L 145.978182 135.624966 
L 149.257521 137.017537 
L 152.53686 138.3603 
L 155.816198 139.657322 
L 159.095537 140.897421 
L 162.374876 142.097878 
L 165.654215 143.255643 
L 168.933554 144.377831 
L 172.212893 145.477657 
L 175.492231 146.553087 
L 178.77157 147.612254 
L 182.050909 148.656174 
L 185.330248 149.681797 
L 188.609587 150.696239 
L 191.888926 151.691368 
L 195.168264 152.670233 
L 198.447603 153.637917 
L 201.726942 154.590354 
L 205.006281 155.530593 
L 208.28562 156.456602 
L 211.564959 157.370413 
L 214.844298 158.277108 
L 218.123636 159.177705 
L 221.402975 160.065087 
L 224.682314 160.944338 
L 227.961653 161.818507 
L 231.240992 162.688609 
L 234.520331 163.548547 
L 237.799669 164.402386 
L 241.079008 165.249109 
L 244.358347 166.089734 
L 247.637686 166.925276 
L 250.917025 167.755736 
L 254.196364 168.573999 
L 257.475702 169.384129 
L 260.755041 170.184095 
L 264.03438 170.971863 
L 267.313719 171.747433 
L 270.593058 172.511822 
L 273.872397 173.261981 
L 277.151736 173.996892 
L 280.431074 174.717573 
L 283.710413 175.424023 
L 286.989752 176.121324 
L 290.269091 176.803379 
L 293.54843 177.474252 
L 296.827769 178.134961 
L 300.107107 178.783472 
L 303.386446 179.424868 
L 306.665785 180.062197 
L 309.945124 180.688346 
L 313.224463 181.308396 
L 316.503802 181.917264 
L 319.78314 182.525116 
L 323.062479 183.122803 
L 326.341818 183.719474 
L 329.621157 184.308013 
L 332.900496 184.892486 
L 336.179835 185.476959 
L 339.459174 186.060416 
L 342.738512 186.640823 
L 346.017851 187.220213 
L 349.29719 187.797571 
L 352.576529 188.374929 
L 355.855868 188.958385 
L 359.135207 189.538792 
L 362.414545 190.125298 
L 365.693884 190.712821 
L 368.973223 191.302376 
L 372.252562 191.895998 
L 375.531901 192.491652 
L 378.81124 193.092389 
L 382.090579 193.692109 
L 385.369917 194.295895 
L 388.649256 194.90273 
L 391.928595 195.513632 
L 395.207934 196.119451 
L 398.487273 196.731369 
" style="fill:none;stroke:#9467bd;stroke-linecap:square;stroke-width:1.5;"/>
   </g>
   <g id="line2d_21">
    <path clip-path="url(#p0fa9e85e90)" d="M 73.832727 63.500992 
L 77.112066 63.932994 
L 80.391405 64.376177 
L 83.670744 64.841723 
L 86.950083 65.328614 
L 90.229421 65.840917 
L 93.50876 66.386764 
L 96.788099 66.968188 
L 100.067438 67.591287 
L 103.346777 68.251996 
L 106.626116 68.963528 
L 109.905455 69.722835 
L 113.184793 70.538048 
L 116.464132 71.406117 
L 119.743471 72.326027 
L 123.02281 73.301843 
L 126.302149 74.334581 
L 129.581488 75.415094 
L 132.860826 76.542365 
L 136.140165 77.712327 
L 139.419504 78.917867 
L 142.698843 80.1539 
L 145.978182 81.406197 
L 149.257521 82.674758 
L 152.53686 83.944335 
L 155.816198 85.209846 
L 159.095537 86.463159 
L 162.374876 87.69716 
L 165.654215 88.901683 
L 168.933554 90.080793 
L 172.212893 91.222295 
L 175.492231 92.32517 
L 178.77157 93.387386 
L 182.050909 94.405894 
L 185.330248 95.379677 
L 188.609587 96.308735 
L 191.888926 97.192052 
L 195.168264 98.025561 
L 198.447603 98.813329 
L 201.726942 99.558405 
L 205.006281 100.25774 
L 208.28562 100.919465 
L 211.564959 101.540531 
L 214.844298 102.122971 
L 218.123636 102.675933 
L 221.402975 103.199418 
L 224.682314 103.692408 
L 227.961653 104.161003 
L 231.240992 104.607236 
L 234.520331 105.038221 
L 237.799669 105.445827 
L 241.079008 105.844286 
L 244.358347 106.221398 
L 247.637686 106.592411 
L 250.917025 106.945128 
L 254.196364 107.290729 
L 257.475702 107.627182 
L 260.755041 107.955504 
L 264.03438 108.272644 
L 267.313719 108.580636 
L 270.593058 108.885578 
L 273.872397 109.180356 
L 277.151736 109.472084 
L 280.431074 109.754664 
L 283.710413 110.034195 
L 286.989752 110.302544 
L 290.269091 110.568861 
L 293.54843 110.828062 
L 296.827769 111.083197 
L 300.107107 111.331217 
L 303.386446 111.575171 
L 306.665785 111.813026 
L 309.945124 112.048848 
L 313.224463 112.276538 
L 316.503802 112.501179 
L 319.78314 112.719721 
L 323.062479 112.935214 
L 326.341818 113.145624 
L 329.621157 113.352985 
L 332.900496 113.553231 
L 336.179835 113.75246 
L 339.459174 113.949656 
L 342.738512 114.13872 
L 346.017851 114.326768 
L 349.29719 114.51075 
L 352.576529 114.690666 
L 355.855868 114.868549 
L 359.135207 115.047449 
L 362.414545 115.216184 
L 365.693884 115.388984 
L 368.973223 115.552637 
L 372.252562 115.719339 
L 375.531901 115.880958 
L 378.81124 116.041561 
L 382.090579 116.197082 
L 385.369917 116.352603 
L 388.649256 116.508123 
L 391.928595 116.658562 
L 395.207934 116.809 
L 398.487273 116.959438 
" style="fill:none;stroke:#8c564b;stroke-linecap:square;stroke-width:1.5;"/>
   </g>
   <g id="patch_3">
    <path d="M 57.6 307.584 
L 57.6 41.472 
" style="fill:none;stroke:#000000;stroke-linecap:square;stroke-linejoin:miter;stroke-width:0.8;"/>
   </g>
   <g id="patch_4">
    <path d="M 414.72 307.584 
L 414.72 41.472 
" style="fill:none;stroke:#000000;stroke-linecap:square;stroke-linejoin:miter;stroke-width:0.8;"/>
   </g>
   <g id="patch_5">
    <path d="M 57.6 307.584 
L 414.72 307.584 
" style="fill:none;stroke:#000000;stroke-linecap:square;stroke-linejoin:miter;stroke-width:0.8;"/>
   </g>
   <g id="patch_6">
    <path d="M 57.6 41.472 
L 414.72 41.472 
" style="fill:none;stroke:#000000;stroke-linecap:square;stroke-linejoin:miter;stroke-width:0.8;"/>
   </g>
   <g id="text_18">
    <!-- spatialSExpLog - CIFAR10 - 3-layer-CNN -->
    <defs>
     <path d="M 34.28125 27.484375 
Q 23.390625 27.484375 19.1875 25 
Q 14.984375 22.515625 14.984375 16.5 
Q 14.984375 11.71875 18.140625 8.90625 
Q 21.296875 6.109375 26.703125 6.109375 
Q 34.1875 6.109375 38.703125 11.40625 
Q 43.21875 16.703125 43.21875 25.484375 
L 43.21875 27.484375 
z
M 52.203125 31.203125 
L 52.203125 0 
L 43.21875 0 
L 43.21875 8.296875 
Q 40.140625 3.328125 35.546875 0.953125 
Q 30.953125 -1.421875 24.3125 -1.421875 
Q 15.921875 -1.421875 10.953125 3.296875 
Q 6 8.015625 6 15.921875 
Q 6 25.140625 12.171875 29.828125 
Q 18.359375 34.515625 30.609375 34.515625 
L 43.21875 34.515625 
L 43.21875 35.40625 
Q 43.21875 41.609375 39.140625 45 
Q 35.0625 48.390625 27.6875 48.390625 
Q 23 48.390625 18.546875 47.265625 
Q 14.109375 46.140625 10.015625 43.890625 
L 10.015625 52.203125 
Q 14.9375 54.109375 19.578125 55.046875 
Q 24.21875 56 28.609375 56 
Q 40.484375 56 46.34375 49.84375 
Q 52.203125 43.703125 52.203125 31.203125 
z
" id="DejaVuSans-61"/>
     <path d="M 18.3125 70.21875 
L 18.3125 54.6875 
L 36.8125 54.6875 
L 36.8125 47.703125 
L 18.3125 47.703125 
L 18.3125 18.015625 
Q 18.3125 11.328125 20.140625 9.421875 
Q 21.96875 7.515625 27.59375 7.515625 
L 36.8125 7.515625 
L 36.8125 0 
L 27.59375 0 
Q 17.1875 0 13.234375 3.875 
Q 9.28125 7.765625 9.28125 18.015625 
L 9.28125 47.703125 
L 2.6875 47.703125 
L 2.6875 54.6875 
L 9.28125 54.6875 
L 9.28125 70.21875 
z
" id="DejaVuSans-74"/>
     <path d="M 9.421875 54.6875 
L 18.40625 54.6875 
L 18.40625 0 
L 9.421875 0 
z
M 9.421875 75.984375 
L 18.40625 75.984375 
L 18.40625 64.59375 
L 9.421875 64.59375 
z
" id="DejaVuSans-69"/>
     <path d="M 53.515625 70.515625 
L 53.515625 60.890625 
Q 47.90625 63.578125 42.921875 64.890625 
Q 37.9375 66.21875 33.296875 66.21875 
Q 25.25 66.21875 20.875 63.09375 
Q 16.5 59.96875 16.5 54.203125 
Q 16.5 49.359375 19.40625 46.890625 
Q 22.3125 44.4375 30.421875 42.921875 
L 36.375 41.703125 
Q 47.40625 39.59375 52.65625 34.296875 
Q 57.90625 29 57.90625 20.125 
Q 57.90625 9.515625 50.796875 4.046875 
Q 43.703125 -1.421875 29.984375 -1.421875 
Q 24.8125 -1.421875 18.96875 -0.25 
Q 13.140625 0.921875 6.890625 3.21875 
L 6.890625 13.375 
Q 12.890625 10.015625 18.65625 8.296875 
Q 24.421875 6.59375 29.984375 6.59375 
Q 38.421875 6.59375 43.015625 9.90625 
Q 47.609375 13.234375 47.609375 19.390625 
Q 47.609375 24.75 44.3125 27.78125 
Q 41.015625 30.8125 33.5 32.328125 
L 27.484375 33.5 
Q 16.453125 35.6875 11.515625 40.375 
Q 6.59375 45.0625 6.59375 53.421875 
Q 6.59375 63.09375 13.40625 68.65625 
Q 20.21875 74.21875 32.171875 74.21875 
Q 37.3125 74.21875 42.625 73.28125 
Q 47.953125 72.359375 53.515625 70.515625 
z
" id="DejaVuSans-53"/>
     <path d="M 9.8125 72.90625 
L 55.90625 72.90625 
L 55.90625 64.59375 
L 19.671875 64.59375 
L 19.671875 43.015625 
L 54.390625 43.015625 
L 54.390625 34.71875 
L 19.671875 34.71875 
L 19.671875 8.296875 
L 56.78125 8.296875 
L 56.78125 0 
L 9.8125 0 
z
" id="DejaVuSans-45"/>
     <path d="M 54.890625 54.6875 
L 35.109375 28.078125 
L 55.90625 0 
L 45.3125 0 
L 29.390625 21.484375 
L 13.484375 0 
L 2.875 0 
L 24.125 28.609375 
L 4.6875 54.6875 
L 15.28125 54.6875 
L 29.78125 35.203125 
L 44.28125 54.6875 
z
" id="DejaVuSans-78"/>
     <path d="M 9.8125 72.90625 
L 19.671875 72.90625 
L 19.671875 8.296875 
L 55.171875 8.296875 
L 55.171875 0 
L 9.8125 0 
z
" id="DejaVuSans-4c"/>
     <path d="M 45.40625 27.984375 
Q 45.40625 37.75 41.375 43.109375 
Q 37.359375 48.484375 30.078125 48.484375 
Q 22.859375 48.484375 18.828125 43.109375 
Q 14.796875 37.75 14.796875 27.984375 
Q 14.796875 18.265625 18.828125 12.890625 
Q 22.859375 7.515625 30.078125 7.515625 
Q 37.359375 7.515625 41.375 12.890625 
Q 45.40625 18.265625 45.40625 27.984375 
z
M 54.390625 6.78125 
Q 54.390625 -7.171875 48.1875 -13.984375 
Q 42 -20.796875 29.203125 -20.796875 
Q 24.46875 -20.796875 20.265625 -20.09375 
Q 16.0625 -19.390625 12.109375 -17.921875 
L 12.109375 -9.1875 
Q 16.0625 -11.328125 19.921875 -12.34375 
Q 23.78125 -13.375 27.78125 -13.375 
Q 36.625 -13.375 41.015625 -8.765625 
Q 45.40625 -4.15625 45.40625 5.171875 
L 45.40625 9.625 
Q 42.625 4.78125 38.28125 2.390625 
Q 33.9375 0 27.875 0 
Q 17.828125 0 11.671875 7.65625 
Q 5.515625 15.328125 5.515625 27.984375 
Q 5.515625 40.671875 11.671875 48.328125 
Q 17.828125 56 27.875 56 
Q 33.9375 56 38.28125 53.609375 
Q 42.625 51.21875 45.40625 46.390625 
L 45.40625 54.6875 
L 54.390625 54.6875 
z
" id="DejaVuSans-67"/>
     <path id="DejaVuSans-20"/>
     <path d="M 4.890625 31.390625 
L 31.203125 31.390625 
L 31.203125 23.390625 
L 4.890625 23.390625 
z
" id="DejaVuSans-2d"/>
     <path d="M 64.40625 67.28125 
L 64.40625 56.890625 
Q 59.421875 61.53125 53.78125 63.8125 
Q 48.140625 66.109375 41.796875 66.109375 
Q 29.296875 66.109375 22.65625 58.46875 
Q 16.015625 50.828125 16.015625 36.375 
Q 16.015625 21.96875 22.65625 14.328125 
Q 29.296875 6.6875 41.796875 6.6875 
Q 48.140625 6.6875 53.78125 8.984375 
Q 59.421875 11.28125 64.40625 15.921875 
L 64.40625 5.609375 
Q 59.234375 2.09375 53.4375 0.328125 
Q 47.65625 -1.421875 41.21875 -1.421875 
Q 24.65625 -1.421875 15.125 8.703125 
Q 5.609375 18.84375 5.609375 36.375 
Q 5.609375 53.953125 15.125 64.078125 
Q 24.65625 74.21875 41.21875 74.21875 
Q 47.75 74.21875 53.53125 72.484375 
Q 59.328125 70.75 64.40625 67.28125 
z
" id="DejaVuSans-43"/>
     <path d="M 9.8125 72.90625 
L 19.671875 72.90625 
L 19.671875 0 
L 9.8125 0 
z
" id="DejaVuSans-49"/>
     <path d="M 9.8125 72.90625 
L 51.703125 72.90625 
L 51.703125 64.59375 
L 19.671875 64.59375 
L 19.671875 43.109375 
L 48.578125 43.109375 
L 48.578125 34.8125 
L 19.671875 34.8125 
L 19.671875 0 
L 9.8125 0 
z
" id="DejaVuSans-46"/>
     <path d="M 34.1875 63.1875 
L 20.796875 26.90625 
L 47.609375 26.90625 
z
M 28.609375 72.90625 
L 39.796875 72.90625 
L 67.578125 0 
L 57.328125 0 
L 50.6875 18.703125 
L 17.828125 18.703125 
L 11.1875 0 
L 0.78125 0 
z
" id="DejaVuSans-41"/>
     <path d="M 44.390625 34.1875 
Q 47.5625 33.109375 50.5625 29.59375 
Q 53.5625 26.078125 56.59375 19.921875 
L 66.609375 0 
L 56 0 
L 46.6875 18.703125 
Q 43.0625 26.03125 39.671875 28.421875 
Q 36.28125 30.8125 30.421875 30.8125 
L 19.671875 30.8125 
L 19.671875 0 
L 9.8125 0 
L 9.8125 72.90625 
L 32.078125 72.90625 
Q 44.578125 72.90625 50.734375 67.671875 
Q 56.890625 62.453125 56.890625 51.90625 
Q 56.890625 45.015625 53.6875 40.46875 
Q 50.484375 35.9375 44.390625 34.1875 
z
M 19.671875 64.796875 
L 19.671875 38.921875 
L 32.078125 38.921875 
Q 39.203125 38.921875 42.84375 42.21875 
Q 46.484375 45.515625 46.484375 51.90625 
Q 46.484375 58.296875 42.84375 61.546875 
Q 39.203125 64.796875 32.078125 64.796875 
z
" id="DejaVuSans-52"/>
     <path d="M 40.578125 39.3125 
Q 47.65625 37.796875 51.625 33 
Q 55.609375 28.21875 55.609375 21.1875 
Q 55.609375 10.40625 48.1875 4.484375 
Q 40.765625 -1.421875 27.09375 -1.421875 
Q 22.515625 -1.421875 17.65625 -0.515625 
Q 12.796875 0.390625 7.625 2.203125 
L 7.625 11.71875 
Q 11.71875 9.328125 16.59375 8.109375 
Q 21.484375 6.890625 26.8125 6.890625 
Q 36.078125 6.890625 40.9375 10.546875 
Q 45.796875 14.203125 45.796875 21.1875 
Q 45.796875 27.640625 41.28125 31.265625 
Q 36.765625 34.90625 28.71875 34.90625 
L 20.21875 34.90625 
L 20.21875 43.015625 
L 29.109375 43.015625 
Q 36.375 43.015625 40.234375 45.921875 
Q 44.09375 48.828125 44.09375 54.296875 
Q 44.09375 59.90625 40.109375 62.90625 
Q 36.140625 65.921875 28.71875 65.921875 
Q 24.65625 65.921875 20.015625 65.03125 
Q 15.375 64.15625 9.8125 62.3125 
L 9.8125 71.09375 
Q 15.4375 72.65625 20.34375 73.4375 
Q 25.25 74.21875 29.59375 74.21875 
Q 40.828125 74.21875 47.359375 69.109375 
Q 53.90625 64.015625 53.90625 55.328125 
Q 53.90625 49.265625 50.4375 45.09375 
Q 46.96875 40.921875 40.578125 39.3125 
z
" id="DejaVuSans-33"/>
     <path d="M 32.171875 -5.078125 
Q 28.375 -14.84375 24.75 -17.8125 
Q 21.140625 -20.796875 15.09375 -20.796875 
L 7.90625 -20.796875 
L 7.90625 -13.28125 
L 13.1875 -13.28125 
Q 16.890625 -13.28125 18.9375 -11.515625 
Q 21 -9.765625 23.484375 -3.21875 
L 25.09375 0.875 
L 2.984375 54.6875 
L 12.5 54.6875 
L 29.59375 11.921875 
L 46.6875 54.6875 
L 56.203125 54.6875 
z
" id="DejaVuSans-79"/>
     <path d="M 41.109375 46.296875 
Q 39.59375 47.171875 37.8125 47.578125 
Q 36.03125 48 33.890625 48 
Q 26.265625 48 22.1875 43.046875 
Q 18.109375 38.09375 18.109375 28.8125 
L 18.109375 0 
L 9.078125 0 
L 9.078125 54.6875 
L 18.109375 54.6875 
L 18.109375 46.1875 
Q 20.953125 51.171875 25.484375 53.578125 
Q 30.03125 56 36.53125 56 
Q 37.453125 56 38.578125 55.875 
Q 39.703125 55.765625 41.0625 55.515625 
z
" id="DejaVuSans-72"/>
     <path d="M 9.8125 72.90625 
L 23.09375 72.90625 
L 55.421875 11.921875 
L 55.421875 72.90625 
L 64.984375 72.90625 
L 64.984375 0 
L 51.703125 0 
L 19.390625 60.984375 
L 19.390625 0 
L 9.8125 0 
z
" id="DejaVuSans-4e"/>
    </defs>
    <g transform="translate(116.773125 35.472)scale(0.12 -0.12)">
     <use xlink:href="#DejaVuSans-73"/>
     <use x="52.099609" xlink:href="#DejaVuSans-70"/>
     <use x="115.576172" xlink:href="#DejaVuSans-61"/>
     <use x="176.855469" xlink:href="#DejaVuSans-74"/>
     <use x="216.064453" xlink:href="#DejaVuSans-69"/>
     <use x="243.847656" xlink:href="#DejaVuSans-61"/>
     <use x="305.126953" xlink:href="#DejaVuSans-6c"/>
     <use x="332.910156" xlink:href="#DejaVuSans-53"/>
     <use x="396.386719" xlink:href="#DejaVuSans-45"/>
     <use x="459.570312" xlink:href="#DejaVuSans-78"/>
     <use x="518.75" xlink:href="#DejaVuSans-70"/>
     <use x="582.226562" xlink:href="#DejaVuSans-4c"/>
     <use x="637.923828" xlink:href="#DejaVuSans-6f"/>
     <use x="699.105469" xlink:href="#DejaVuSans-67"/>
     <use x="762.582031" xlink:href="#DejaVuSans-20"/>
     <use x="794.369141" xlink:href="#DejaVuSans-2d"/>
     <use x="830.453125" xlink:href="#DejaVuSans-20"/>
     <use x="862.240234" xlink:href="#DejaVuSans-43"/>
     <use x="932.064453" xlink:href="#DejaVuSans-49"/>
     <use x="961.556641" xlink:href="#DejaVuSans-46"/>
     <use x="1018.935547" xlink:href="#DejaVuSans-41"/>
     <use x="1087.34375" xlink:href="#DejaVuSans-52"/>
     <use x="1156.826172" xlink:href="#DejaVuSans-31"/>
     <use x="1220.449219" xlink:href="#DejaVuSans-30"/>
     <use x="1284.072266" xlink:href="#DejaVuSans-20"/>
     <use x="1315.859375" xlink:href="#DejaVuSans-2d"/>
     <use x="1351.943359" xlink:href="#DejaVuSans-20"/>
     <use x="1383.730469" xlink:href="#DejaVuSans-33"/>
     <use x="1447.353516" xlink:href="#DejaVuSans-2d"/>
     <use x="1483.4375" xlink:href="#DejaVuSans-6c"/>
     <use x="1511.220703" xlink:href="#DejaVuSans-61"/>
     <use x="1572.5" xlink:href="#DejaVuSans-79"/>
     <use x="1631.679688" xlink:href="#DejaVuSans-65"/>
     <use x="1693.203125" xlink:href="#DejaVuSans-72"/>
     <use x="1734.222656" xlink:href="#DejaVuSans-2d"/>
     <use x="1770.306641" xlink:href="#DejaVuSans-43"/>
     <use x="1840.130859" xlink:href="#DejaVuSans-4e"/>
     <use x="1914.935547" xlink:href="#DejaVuSans-4e"/>
    </g>
   </g>
   <g id="legend_1">
    <g id="patch_7">
     <path d="M 190.084219 137.54075 
L 282.235781 137.54075 
Q 284.235781 137.54075 284.235781 135.54075 
L 284.235781 48.472 
Q 284.235781 46.472 282.235781 46.472 
L 190.084219 46.472 
Q 188.084219 46.472 188.084219 48.472 
L 188.084219 135.54075 
Q 188.084219 137.54075 190.084219 137.54075 
z
" style="fill:#ffffff;opacity:0.8;stroke:#cccccc;stroke-linejoin:miter;"/>
    </g>
    <g id="line2d_22">
     <path d="M 192.084219 54.570438 
L 212.084219 54.570438 
" style="fill:none;stroke:#1f77b4;stroke-linecap:square;stroke-width:1.5;"/>
    </g>
    <g id="line2d_23"/>
    <g id="text_19">
     <!-- adam .01 -->
     <defs>
      <path d="M 45.40625 46.390625 
L 45.40625 75.984375 
L 54.390625 75.984375 
L 54.390625 0 
L 45.40625 0 
L 45.40625 8.203125 
Q 42.578125 3.328125 38.25 0.953125 
Q 33.9375 -1.421875 27.875 -1.421875 
Q 17.96875 -1.421875 11.734375 6.484375 
Q 5.515625 14.40625 5.515625 27.296875 
Q 5.515625 40.1875 11.734375 48.09375 
Q 17.96875 56 27.875 56 
Q 33.9375 56 38.25 53.625 
Q 42.578125 51.265625 45.40625 46.390625 
z
M 14.796875 27.296875 
Q 14.796875 17.390625 18.875 11.75 
Q 22.953125 6.109375 30.078125 6.109375 
Q 37.203125 6.109375 41.296875 11.75 
Q 45.40625 17.390625 45.40625 27.296875 
Q 45.40625 37.203125 41.296875 42.84375 
Q 37.203125 48.484375 30.078125 48.484375 
Q 22.953125 48.484375 18.875 42.84375 
Q 14.796875 37.203125 14.796875 27.296875 
z
" id="DejaVuSans-64"/>
      <path d="M 52 44.1875 
Q 55.375 50.25 60.0625 53.125 
Q 64.75 56 71.09375 56 
Q 79.640625 56 84.28125 50.015625 
Q 88.921875 44.046875 88.921875 33.015625 
L 88.921875 0 
L 79.890625 0 
L 79.890625 32.71875 
Q 79.890625 40.578125 77.09375 44.375 
Q 74.3125 48.1875 68.609375 48.1875 
Q 61.625 48.1875 57.5625 43.546875 
Q 53.515625 38.921875 53.515625 30.90625 
L 53.515625 0 
L 44.484375 0 
L 44.484375 32.71875 
Q 44.484375 40.625 41.703125 44.40625 
Q 38.921875 48.1875 33.109375 48.1875 
Q 26.21875 48.1875 22.15625 43.53125 
Q 18.109375 38.875 18.109375 30.90625 
L 18.109375 0 
L 9.078125 0 
L 9.078125 54.6875 
L 18.109375 54.6875 
L 18.109375 46.1875 
Q 21.1875 51.21875 25.484375 53.609375 
Q 29.78125 56 35.6875 56 
Q 41.65625 56 45.828125 52.96875 
Q 50 49.953125 52 44.1875 
z
" id="DejaVuSans-6d"/>
     </defs>
     <g transform="translate(220.084219 58.070438)scale(0.1 -0.1)">
      <use xlink:href="#DejaVuSans-61"/>
      <use x="61.279297" xlink:href="#DejaVuSans-64"/>
      <use x="124.755859" xlink:href="#DejaVuSans-61"/>
      <use x="186.035156" xlink:href="#DejaVuSans-6d"/>
      <use x="283.447266" xlink:href="#DejaVuSans-20"/>
      <use x="315.234375" xlink:href="#DejaVuSans-2e"/>
      <use x="347.021484" xlink:href="#DejaVuSans-30"/>
      <use x="410.644531" xlink:href="#DejaVuSans-31"/>
     </g>
    </g>
    <g id="line2d_24">
     <path d="M 192.084219 69.248563 
L 212.084219 69.248563 
" style="fill:none;stroke:#ff7f0e;stroke-linecap:square;stroke-width:1.5;"/>
    </g>
    <g id="line2d_25"/>
    <g id="text_20">
     <!-- adam .001 -->
     <g transform="translate(220.084219 72.748563)scale(0.1 -0.1)">
      <use xlink:href="#DejaVuSans-61"/>
      <use x="61.279297" xlink:href="#DejaVuSans-64"/>
      <use x="124.755859" xlink:href="#DejaVuSans-61"/>
      <use x="186.035156" xlink:href="#DejaVuSans-6d"/>
      <use x="283.447266" xlink:href="#DejaVuSans-20"/>
      <use x="315.234375" xlink:href="#DejaVuSans-2e"/>
      <use x="347.021484" xlink:href="#DejaVuSans-30"/>
      <use x="410.644531" xlink:href="#DejaVuSans-30"/>
      <use x="474.267578" xlink:href="#DejaVuSans-31"/>
     </g>
    </g>
    <g id="line2d_26">
     <path d="M 192.084219 83.926688 
L 212.084219 83.926688 
" style="fill:none;stroke:#2ca02c;stroke-linecap:square;stroke-width:1.5;"/>
    </g>
    <g id="line2d_27"/>
    <g id="text_21">
     <!-- adam .0001 -->
     <g transform="translate(220.084219 87.426688)scale(0.1 -0.1)">
      <use xlink:href="#DejaVuSans-61"/>
      <use x="61.279297" xlink:href="#DejaVuSans-64"/>
      <use x="124.755859" xlink:href="#DejaVuSans-61"/>
      <use x="186.035156" xlink:href="#DejaVuSans-6d"/>
      <use x="283.447266" xlink:href="#DejaVuSans-20"/>
      <use x="315.234375" xlink:href="#DejaVuSans-2e"/>
      <use x="347.021484" xlink:href="#DejaVuSans-30"/>
      <use x="410.644531" xlink:href="#DejaVuSans-30"/>
      <use x="474.267578" xlink:href="#DejaVuSans-30"/>
      <use x="537.890625" xlink:href="#DejaVuSans-31"/>
     </g>
    </g>
    <g id="line2d_28">
     <path d="M 192.084219 98.604813 
L 212.084219 98.604813 
" style="fill:none;stroke:#d62728;stroke-linecap:square;stroke-width:1.5;"/>
    </g>
    <g id="line2d_29"/>
    <g id="text_22">
     <!-- SGD .01 -->
     <defs>
      <path d="M 59.515625 10.40625 
L 59.515625 29.984375 
L 43.40625 29.984375 
L 43.40625 38.09375 
L 69.28125 38.09375 
L 69.28125 6.78125 
Q 63.578125 2.734375 56.6875 0.65625 
Q 49.8125 -1.421875 42 -1.421875 
Q 24.90625 -1.421875 15.25 8.5625 
Q 5.609375 18.5625 5.609375 36.375 
Q 5.609375 54.25 15.25 64.234375 
Q 24.90625 74.21875 42 74.21875 
Q 49.125 74.21875 55.546875 72.453125 
Q 61.96875 70.703125 67.390625 67.28125 
L 67.390625 56.78125 
Q 61.921875 61.421875 55.765625 63.765625 
Q 49.609375 66.109375 42.828125 66.109375 
Q 29.4375 66.109375 22.71875 58.640625 
Q 16.015625 51.171875 16.015625 36.375 
Q 16.015625 21.625 22.71875 14.15625 
Q 29.4375 6.6875 42.828125 6.6875 
Q 48.046875 6.6875 52.140625 7.59375 
Q 56.25 8.5 59.515625 10.40625 
z
" id="DejaVuSans-47"/>
      <path d="M 19.671875 64.796875 
L 19.671875 8.109375 
L 31.59375 8.109375 
Q 46.6875 8.109375 53.6875 14.9375 
Q 60.6875 21.78125 60.6875 36.53125 
Q 60.6875 51.171875 53.6875 57.984375 
Q 46.6875 64.796875 31.59375 64.796875 
z
M 9.8125 72.90625 
L 30.078125 72.90625 
Q 51.265625 72.90625 61.171875 64.09375 
Q 71.09375 55.28125 71.09375 36.53125 
Q 71.09375 17.671875 61.125 8.828125 
Q 51.171875 0 30.078125 0 
L 9.8125 0 
z
" id="DejaVuSans-44"/>
     </defs>
     <g transform="translate(220.084219 102.104813)scale(0.1 -0.1)">
      <use xlink:href="#DejaVuSans-53"/>
      <use x="63.476562" xlink:href="#DejaVuSans-47"/>
      <use x="140.966797" xlink:href="#DejaVuSans-44"/>
      <use x="217.96875" xlink:href="#DejaVuSans-20"/>
      <use x="249.755859" xlink:href="#DejaVuSans-2e"/>
      <use x="281.542969" xlink:href="#DejaVuSans-30"/>
      <use x="345.166016" xlink:href="#DejaVuSans-31"/>
     </g>
    </g>
    <g id="line2d_30">
     <path d="M 192.084219 113.282938 
L 212.084219 113.282938 
" style="fill:none;stroke:#9467bd;stroke-linecap:square;stroke-width:1.5;"/>
    </g>
    <g id="line2d_31"/>
    <g id="text_23">
     <!-- SGD .001 -->
     <g transform="translate(220.084219 116.782938)scale(0.1 -0.1)">
      <use xlink:href="#DejaVuSans-53"/>
      <use x="63.476562" xlink:href="#DejaVuSans-47"/>
      <use x="140.966797" xlink:href="#DejaVuSans-44"/>
      <use x="217.96875" xlink:href="#DejaVuSans-20"/>
      <use x="249.755859" xlink:href="#DejaVuSans-2e"/>
      <use x="281.542969" xlink:href="#DejaVuSans-30"/>
      <use x="345.166016" xlink:href="#DejaVuSans-30"/>
      <use x="408.789062" xlink:href="#DejaVuSans-31"/>
     </g>
    </g>
    <g id="line2d_32">
     <path d="M 192.084219 127.961063 
L 212.084219 127.961063 
" style="fill:none;stroke:#8c564b;stroke-linecap:square;stroke-width:1.5;"/>
    </g>
    <g id="line2d_33"/>
    <g id="text_24">
     <!-- SGD .0001 -->
     <g transform="translate(220.084219 131.461063)scale(0.1 -0.1)">
      <use xlink:href="#DejaVuSans-53"/>
      <use x="63.476562" xlink:href="#DejaVuSans-47"/>
      <use x="140.966797" xlink:href="#DejaVuSans-44"/>
      <use x="217.96875" xlink:href="#DejaVuSans-20"/>
      <use x="249.755859" xlink:href="#DejaVuSans-2e"/>
      <use x="281.542969" xlink:href="#DejaVuSans-30"/>
      <use x="345.166016" xlink:href="#DejaVuSans-30"/>
      <use x="408.789062" xlink:href="#DejaVuSans-30"/>
      <use x="472.412109" xlink:href="#DejaVuSans-31"/>
     </g>
    </g>
   </g>
  </g>
 </g>
 <defs>
  <clipPath id="p0fa9e85e90">
   <rect height="266.112" width="357.12" x="57.6" y="41.472"/>
  </clipPath>
 </defs>
</svg>
