<?xml version="1.0" encoding="utf-8" standalone="no"?>
<!DOCTYPE svg PUBLIC "-//W3C//DTD SVG 1.1//EN"
  "http://www.w3.org/Graphics/SVG/1.1/DTD/svg11.dtd">
<!-- Created with matplotlib (http://matplotlib.org/) -->
<svg height="345pt" version="1.1" viewBox="0 0 460 345" width="460pt" xmlns="http://www.w3.org/2000/svg" xmlns:xlink="http://www.w3.org/1999/xlink">
 <defs>
  <style type="text/css">
*{stroke-linecap:butt;stroke-linejoin:round;}
  </style>
 </defs>
 <g id="figure_1">
  <g id="patch_1">
   <path d="M 0 345.6 
L 460.8 345.6 
L 460.8 0 
L 0 0 
z
" style="fill:#ffffff;"/>
  </g>
  <g id="axes_1">
   <g id="patch_2">
    <path d="M 57.6 307.584 
L 414.72 307.584 
L 414.72 41.472 
L 57.6 41.472 
z
" style="fill:#ffffff;"/>
   </g>
   <g id="matplotlib.axis_1">
    <g id="xtick_1">
     <g id="line2d_1">
      <defs>
       <path d="M 0 0 
L 0 3.5 
" id="m15b026acf9" style="stroke:#000000;stroke-width:0.8;"/>
      </defs>
      <g>
       <use style="stroke:#000000;stroke-width:0.8;" x="73.832727" xlink:href="#m15b026acf9" y="307.584"/>
      </g>
     </g>
     <g id="text_1">
      <!-- 0 -->
      <defs>
       <path d="M 31.78125 66.40625 
Q 24.171875 66.40625 20.328125 58.90625 
Q 16.5 51.421875 16.5 36.375 
Q 16.5 21.390625 20.328125 13.890625 
Q 24.171875 6.390625 31.78125 6.390625 
Q 39.453125 6.390625 43.28125 13.890625 
Q 47.125 21.390625 47.125 36.375 
Q 47.125 51.421875 43.28125 58.90625 
Q 39.453125 66.40625 31.78125 66.40625 
z
M 31.78125 74.21875 
Q 44.046875 74.21875 50.515625 64.515625 
Q 56.984375 54.828125 56.984375 36.375 
Q 56.984375 17.96875 50.515625 8.265625 
Q 44.046875 -1.421875 31.78125 -1.421875 
Q 19.53125 -1.421875 13.0625 8.265625 
Q 6.59375 17.96875 6.59375 36.375 
Q 6.59375 54.828125 13.0625 64.515625 
Q 19.53125 74.21875 31.78125 74.21875 
z
" id="DejaVuSans-30"/>
      </defs>
      <g transform="translate(70.651477 322.182437)scale(0.1 -0.1)">
       <use xlink:href="#DejaVuSans-30"/>
      </g>
     </g>
    </g>
    <g id="xtick_2">
     <g id="line2d_2">
      <g>
       <use style="stroke:#000000;stroke-width:0.8;" x="139.419504" xlink:href="#m15b026acf9" y="307.584"/>
      </g>
     </g>
     <g id="text_2">
      <!-- 20 -->
      <defs>
       <path d="M 19.1875 8.296875 
L 53.609375 8.296875 
L 53.609375 0 
L 7.328125 0 
L 7.328125 8.296875 
Q 12.9375 14.109375 22.625 23.890625 
Q 32.328125 33.6875 34.8125 36.53125 
Q 39.546875 41.84375 41.421875 45.53125 
Q 43.3125 49.21875 43.3125 52.78125 
Q 43.3125 58.59375 39.234375 62.25 
Q 35.15625 65.921875 28.609375 65.921875 
Q 23.96875 65.921875 18.8125 64.3125 
Q 13.671875 62.703125 7.8125 59.421875 
L 7.8125 69.390625 
Q 13.765625 71.78125 18.9375 73 
Q 24.125 74.21875 28.421875 74.21875 
Q 39.75 74.21875 46.484375 68.546875 
Q 53.21875 62.890625 53.21875 53.421875 
Q 53.21875 48.921875 51.53125 44.890625 
Q 49.859375 40.875 45.40625 35.40625 
Q 44.1875 33.984375 37.640625 27.21875 
Q 31.109375 20.453125 19.1875 8.296875 
z
" id="DejaVuSans-32"/>
      </defs>
      <g transform="translate(133.057004 322.182437)scale(0.1 -0.1)">
       <use xlink:href="#DejaVuSans-32"/>
       <use x="63.623047" xlink:href="#DejaVuSans-30"/>
      </g>
     </g>
    </g>
    <g id="xtick_3">
     <g id="line2d_3">
      <g>
       <use style="stroke:#000000;stroke-width:0.8;" x="205.006281" xlink:href="#m15b026acf9" y="307.584"/>
      </g>
     </g>
     <g id="text_3">
      <!-- 40 -->
      <defs>
       <path d="M 37.796875 64.3125 
L 12.890625 25.390625 
L 37.796875 25.390625 
z
M 35.203125 72.90625 
L 47.609375 72.90625 
L 47.609375 25.390625 
L 58.015625 25.390625 
L 58.015625 17.1875 
L 47.609375 17.1875 
L 47.609375 0 
L 37.796875 0 
L 37.796875 17.1875 
L 4.890625 17.1875 
L 4.890625 26.703125 
z
" id="DejaVuSans-34"/>
      </defs>
      <g transform="translate(198.643781 322.182437)scale(0.1 -0.1)">
       <use xlink:href="#DejaVuSans-34"/>
       <use x="63.623047" xlink:href="#DejaVuSans-30"/>
      </g>
     </g>
    </g>
    <g id="xtick_4">
     <g id="line2d_4">
      <g>
       <use style="stroke:#000000;stroke-width:0.8;" x="270.593058" xlink:href="#m15b026acf9" y="307.584"/>
      </g>
     </g>
     <g id="text_4">
      <!-- 60 -->
      <defs>
       <path d="M 33.015625 40.375 
Q 26.375 40.375 22.484375 35.828125 
Q 18.609375 31.296875 18.609375 23.390625 
Q 18.609375 15.53125 22.484375 10.953125 
Q 26.375 6.390625 33.015625 6.390625 
Q 39.65625 6.390625 43.53125 10.953125 
Q 47.40625 15.53125 47.40625 23.390625 
Q 47.40625 31.296875 43.53125 35.828125 
Q 39.65625 40.375 33.015625 40.375 
z
M 52.59375 71.296875 
L 52.59375 62.3125 
Q 48.875 64.0625 45.09375 64.984375 
Q 41.3125 65.921875 37.59375 65.921875 
Q 27.828125 65.921875 22.671875 59.328125 
Q 17.53125 52.734375 16.796875 39.40625 
Q 19.671875 43.65625 24.015625 45.921875 
Q 28.375 48.1875 33.59375 48.1875 
Q 44.578125 48.1875 50.953125 41.515625 
Q 57.328125 34.859375 57.328125 23.390625 
Q 57.328125 12.15625 50.6875 5.359375 
Q 44.046875 -1.421875 33.015625 -1.421875 
Q 20.359375 -1.421875 13.671875 8.265625 
Q 6.984375 17.96875 6.984375 36.375 
Q 6.984375 53.65625 15.1875 63.9375 
Q 23.390625 74.21875 37.203125 74.21875 
Q 40.921875 74.21875 44.703125 73.484375 
Q 48.484375 72.75 52.59375 71.296875 
z
" id="DejaVuSans-36"/>
      </defs>
      <g transform="translate(264.230558 322.182437)scale(0.1 -0.1)">
       <use xlink:href="#DejaVuSans-36"/>
       <use x="63.623047" xlink:href="#DejaVuSans-30"/>
      </g>
     </g>
    </g>
    <g id="xtick_5">
     <g id="line2d_5">
      <g>
       <use style="stroke:#000000;stroke-width:0.8;" x="336.179835" xlink:href="#m15b026acf9" y="307.584"/>
      </g>
     </g>
     <g id="text_5">
      <!-- 80 -->
      <defs>
       <path d="M 31.78125 34.625 
Q 24.75 34.625 20.71875 30.859375 
Q 16.703125 27.09375 16.703125 20.515625 
Q 16.703125 13.921875 20.71875 10.15625 
Q 24.75 6.390625 31.78125 6.390625 
Q 38.8125 6.390625 42.859375 10.171875 
Q 46.921875 13.96875 46.921875 20.515625 
Q 46.921875 27.09375 42.890625 30.859375 
Q 38.875 34.625 31.78125 34.625 
z
M 21.921875 38.8125 
Q 15.578125 40.375 12.03125 44.71875 
Q 8.5 49.078125 8.5 55.328125 
Q 8.5 64.0625 14.71875 69.140625 
Q 20.953125 74.21875 31.78125 74.21875 
Q 42.671875 74.21875 48.875 69.140625 
Q 55.078125 64.0625 55.078125 55.328125 
Q 55.078125 49.078125 51.53125 44.71875 
Q 48 40.375 41.703125 38.8125 
Q 48.828125 37.15625 52.796875 32.3125 
Q 56.78125 27.484375 56.78125 20.515625 
Q 56.78125 9.90625 50.3125 4.234375 
Q 43.84375 -1.421875 31.78125 -1.421875 
Q 19.734375 -1.421875 13.25 4.234375 
Q 6.78125 9.90625 6.78125 20.515625 
Q 6.78125 27.484375 10.78125 32.3125 
Q 14.796875 37.15625 21.921875 38.8125 
z
M 18.3125 54.390625 
Q 18.3125 48.734375 21.84375 45.5625 
Q 25.390625 42.390625 31.78125 42.390625 
Q 38.140625 42.390625 41.71875 45.5625 
Q 45.3125 48.734375 45.3125 54.390625 
Q 45.3125 60.0625 41.71875 63.234375 
Q 38.140625 66.40625 31.78125 66.40625 
Q 25.390625 66.40625 21.84375 63.234375 
Q 18.3125 60.0625 18.3125 54.390625 
z
" id="DejaVuSans-38"/>
      </defs>
      <g transform="translate(329.817335 322.182437)scale(0.1 -0.1)">
       <use xlink:href="#DejaVuSans-38"/>
       <use x="63.623047" xlink:href="#DejaVuSans-30"/>
      </g>
     </g>
    </g>
    <g id="xtick_6">
     <g id="line2d_6">
      <g>
       <use style="stroke:#000000;stroke-width:0.8;" x="401.766612" xlink:href="#m15b026acf9" y="307.584"/>
      </g>
     </g>
     <g id="text_6">
      <!-- 100 -->
      <defs>
       <path d="M 12.40625 8.296875 
L 28.515625 8.296875 
L 28.515625 63.921875 
L 10.984375 60.40625 
L 10.984375 69.390625 
L 28.421875 72.90625 
L 38.28125 72.90625 
L 38.28125 8.296875 
L 54.390625 8.296875 
L 54.390625 0 
L 12.40625 0 
z
" id="DejaVuSans-31"/>
      </defs>
      <g transform="translate(392.222862 322.182437)scale(0.1 -0.1)">
       <use xlink:href="#DejaVuSans-31"/>
       <use x="63.623047" xlink:href="#DejaVuSans-30"/>
       <use x="127.246094" xlink:href="#DejaVuSans-30"/>
      </g>
     </g>
    </g>
    <g id="text_7">
     <!-- epoch -->
     <defs>
      <path d="M 56.203125 29.59375 
L 56.203125 25.203125 
L 14.890625 25.203125 
Q 15.484375 15.921875 20.484375 11.0625 
Q 25.484375 6.203125 34.421875 6.203125 
Q 39.59375 6.203125 44.453125 7.46875 
Q 49.3125 8.734375 54.109375 11.28125 
L 54.109375 2.78125 
Q 49.265625 0.734375 44.1875 -0.34375 
Q 39.109375 -1.421875 33.890625 -1.421875 
Q 20.796875 -1.421875 13.15625 6.1875 
Q 5.515625 13.8125 5.515625 26.8125 
Q 5.515625 40.234375 12.765625 48.109375 
Q 20.015625 56 32.328125 56 
Q 43.359375 56 49.78125 48.890625 
Q 56.203125 41.796875 56.203125 29.59375 
z
M 47.21875 32.234375 
Q 47.125 39.59375 43.09375 43.984375 
Q 39.0625 48.390625 32.421875 48.390625 
Q 24.90625 48.390625 20.390625 44.140625 
Q 15.875 39.890625 15.1875 32.171875 
z
" id="DejaVuSans-65"/>
      <path d="M 18.109375 8.203125 
L 18.109375 -20.796875 
L 9.078125 -20.796875 
L 9.078125 54.6875 
L 18.109375 54.6875 
L 18.109375 46.390625 
Q 20.953125 51.265625 25.265625 53.625 
Q 29.59375 56 35.59375 56 
Q 45.5625 56 51.78125 48.09375 
Q 58.015625 40.1875 58.015625 27.296875 
Q 58.015625 14.40625 51.78125 6.484375 
Q 45.5625 -1.421875 35.59375 -1.421875 
Q 29.59375 -1.421875 25.265625 0.953125 
Q 20.953125 3.328125 18.109375 8.203125 
z
M 48.6875 27.296875 
Q 48.6875 37.203125 44.609375 42.84375 
Q 40.53125 48.484375 33.40625 48.484375 
Q 26.265625 48.484375 22.1875 42.84375 
Q 18.109375 37.203125 18.109375 27.296875 
Q 18.109375 17.390625 22.1875 11.75 
Q 26.265625 6.109375 33.40625 6.109375 
Q 40.53125 6.109375 44.609375 11.75 
Q 48.6875 17.390625 48.6875 27.296875 
z
" id="DejaVuSans-70"/>
      <path d="M 30.609375 48.390625 
Q 23.390625 48.390625 19.1875 42.75 
Q 14.984375 37.109375 14.984375 27.296875 
Q 14.984375 17.484375 19.15625 11.84375 
Q 23.34375 6.203125 30.609375 6.203125 
Q 37.796875 6.203125 41.984375 11.859375 
Q 46.1875 17.53125 46.1875 27.296875 
Q 46.1875 37.015625 41.984375 42.703125 
Q 37.796875 48.390625 30.609375 48.390625 
z
M 30.609375 56 
Q 42.328125 56 49.015625 48.375 
Q 55.71875 40.765625 55.71875 27.296875 
Q 55.71875 13.875 49.015625 6.21875 
Q 42.328125 -1.421875 30.609375 -1.421875 
Q 18.84375 -1.421875 12.171875 6.21875 
Q 5.515625 13.875 5.515625 27.296875 
Q 5.515625 40.765625 12.171875 48.375 
Q 18.84375 56 30.609375 56 
z
" id="DejaVuSans-6f"/>
      <path d="M 48.78125 52.59375 
L 48.78125 44.1875 
Q 44.96875 46.296875 41.140625 47.34375 
Q 37.3125 48.390625 33.40625 48.390625 
Q 24.65625 48.390625 19.8125 42.84375 
Q 14.984375 37.3125 14.984375 27.296875 
Q 14.984375 17.28125 19.8125 11.734375 
Q 24.65625 6.203125 33.40625 6.203125 
Q 37.3125 6.203125 41.140625 7.25 
Q 44.96875 8.296875 48.78125 10.40625 
L 48.78125 2.09375 
Q 45.015625 0.34375 40.984375 -0.53125 
Q 36.96875 -1.421875 32.421875 -1.421875 
Q 20.0625 -1.421875 12.78125 6.34375 
Q 5.515625 14.109375 5.515625 27.296875 
Q 5.515625 40.671875 12.859375 48.328125 
Q 20.21875 56 33.015625 56 
Q 37.15625 56 41.109375 55.140625 
Q 45.0625 54.296875 48.78125 52.59375 
z
" id="DejaVuSans-63"/>
      <path d="M 54.890625 33.015625 
L 54.890625 0 
L 45.90625 0 
L 45.90625 32.71875 
Q 45.90625 40.484375 42.875 44.328125 
Q 39.84375 48.1875 33.796875 48.1875 
Q 26.515625 48.1875 22.3125 43.546875 
Q 18.109375 38.921875 18.109375 30.90625 
L 18.109375 0 
L 9.078125 0 
L 9.078125 75.984375 
L 18.109375 75.984375 
L 18.109375 46.1875 
Q 21.34375 51.125 25.703125 53.5625 
Q 30.078125 56 35.796875 56 
Q 45.21875 56 50.046875 50.171875 
Q 54.890625 44.34375 54.890625 33.015625 
z
" id="DejaVuSans-68"/>
     </defs>
     <g transform="translate(220.931875 335.860562)scale(0.1 -0.1)">
      <use xlink:href="#DejaVuSans-65"/>
      <use x="61.523438" xlink:href="#DejaVuSans-70"/>
      <use x="125" xlink:href="#DejaVuSans-6f"/>
      <use x="186.181641" xlink:href="#DejaVuSans-63"/>
      <use x="241.162109" xlink:href="#DejaVuSans-68"/>
     </g>
    </g>
   </g>
   <g id="matplotlib.axis_2">
    <g id="ytick_1">
     <g id="line2d_7">
      <defs>
       <path d="M 0 0 
L -3.5 0 
" id="mbe38ba97fa" style="stroke:#000000;stroke-width:0.8;"/>
      </defs>
      <g>
       <use style="stroke:#000000;stroke-width:0.8;" x="57.6" xlink:href="#mbe38ba97fa" y="270.611569"/>
      </g>
     </g>
     <g id="text_8">
      <!-- 20 -->
      <g transform="translate(37.875 274.410788)scale(0.1 -0.1)">
       <use xlink:href="#DejaVuSans-32"/>
       <use x="63.623047" xlink:href="#DejaVuSans-30"/>
      </g>
     </g>
    </g>
    <g id="ytick_2">
     <g id="line2d_8">
      <g>
       <use style="stroke:#000000;stroke-width:0.8;" x="57.6" xlink:href="#mbe38ba97fa" y="226.737793"/>
      </g>
     </g>
     <g id="text_9">
      <!-- 30 -->
      <defs>
       <path d="M 40.578125 39.3125 
Q 47.65625 37.796875 51.625 33 
Q 55.609375 28.21875 55.609375 21.1875 
Q 55.609375 10.40625 48.1875 4.484375 
Q 40.765625 -1.421875 27.09375 -1.421875 
Q 22.515625 -1.421875 17.65625 -0.515625 
Q 12.796875 0.390625 7.625 2.203125 
L 7.625 11.71875 
Q 11.71875 9.328125 16.59375 8.109375 
Q 21.484375 6.890625 26.8125 6.890625 
Q 36.078125 6.890625 40.9375 10.546875 
Q 45.796875 14.203125 45.796875 21.1875 
Q 45.796875 27.640625 41.28125 31.265625 
Q 36.765625 34.90625 28.71875 34.90625 
L 20.21875 34.90625 
L 20.21875 43.015625 
L 29.109375 43.015625 
Q 36.375 43.015625 40.234375 45.921875 
Q 44.09375 48.828125 44.09375 54.296875 
Q 44.09375 59.90625 40.109375 62.90625 
Q 36.140625 65.921875 28.71875 65.921875 
Q 24.65625 65.921875 20.015625 65.03125 
Q 15.375 64.15625 9.8125 62.3125 
L 9.8125 71.09375 
Q 15.4375 72.65625 20.34375 73.4375 
Q 25.25 74.21875 29.59375 74.21875 
Q 40.828125 74.21875 47.359375 69.109375 
Q 53.90625 64.015625 53.90625 55.328125 
Q 53.90625 49.265625 50.4375 45.09375 
Q 46.96875 40.921875 40.578125 39.3125 
z
" id="DejaVuSans-33"/>
      </defs>
      <g transform="translate(37.875 230.537012)scale(0.1 -0.1)">
       <use xlink:href="#DejaVuSans-33"/>
       <use x="63.623047" xlink:href="#DejaVuSans-30"/>
      </g>
     </g>
    </g>
    <g id="ytick_3">
     <g id="line2d_9">
      <g>
       <use style="stroke:#000000;stroke-width:0.8;" x="57.6" xlink:href="#mbe38ba97fa" y="182.864017"/>
      </g>
     </g>
     <g id="text_10">
      <!-- 40 -->
      <g transform="translate(37.875 186.663236)scale(0.1 -0.1)">
       <use xlink:href="#DejaVuSans-34"/>
       <use x="63.623047" xlink:href="#DejaVuSans-30"/>
      </g>
     </g>
    </g>
    <g id="ytick_4">
     <g id="line2d_10">
      <g>
       <use style="stroke:#000000;stroke-width:0.8;" x="57.6" xlink:href="#mbe38ba97fa" y="138.990242"/>
      </g>
     </g>
     <g id="text_11">
      <!-- 50 -->
      <defs>
       <path d="M 10.796875 72.90625 
L 49.515625 72.90625 
L 49.515625 64.59375 
L 19.828125 64.59375 
L 19.828125 46.734375 
Q 21.96875 47.46875 24.109375 47.828125 
Q 26.265625 48.1875 28.421875 48.1875 
Q 40.625 48.1875 47.75 41.5 
Q 54.890625 34.8125 54.890625 23.390625 
Q 54.890625 11.625 47.5625 5.09375 
Q 40.234375 -1.421875 26.90625 -1.421875 
Q 22.3125 -1.421875 17.546875 -0.640625 
Q 12.796875 0.140625 7.71875 1.703125 
L 7.71875 11.625 
Q 12.109375 9.234375 16.796875 8.0625 
Q 21.484375 6.890625 26.703125 6.890625 
Q 35.15625 6.890625 40.078125 11.328125 
Q 45.015625 15.765625 45.015625 23.390625 
Q 45.015625 31 40.078125 35.4375 
Q 35.15625 39.890625 26.703125 39.890625 
Q 22.75 39.890625 18.8125 39.015625 
Q 14.890625 38.140625 10.796875 36.28125 
z
" id="DejaVuSans-35"/>
      </defs>
      <g transform="translate(37.875 142.78946)scale(0.1 -0.1)">
       <use xlink:href="#DejaVuSans-35"/>
       <use x="63.623047" xlink:href="#DejaVuSans-30"/>
      </g>
     </g>
    </g>
    <g id="ytick_5">
     <g id="line2d_11">
      <g>
       <use style="stroke:#000000;stroke-width:0.8;" x="57.6" xlink:href="#mbe38ba97fa" y="95.116466"/>
      </g>
     </g>
     <g id="text_12">
      <!-- 60 -->
      <g transform="translate(37.875 98.915684)scale(0.1 -0.1)">
       <use xlink:href="#DejaVuSans-36"/>
       <use x="63.623047" xlink:href="#DejaVuSans-30"/>
      </g>
     </g>
    </g>
    <g id="ytick_6">
     <g id="line2d_12">
      <g>
       <use style="stroke:#000000;stroke-width:0.8;" x="57.6" xlink:href="#mbe38ba97fa" y="51.24269"/>
      </g>
     </g>
     <g id="text_13">
      <!-- 70 -->
      <defs>
       <path d="M 8.203125 72.90625 
L 55.078125 72.90625 
L 55.078125 68.703125 
L 28.609375 0 
L 18.3125 0 
L 43.21875 64.59375 
L 8.203125 64.59375 
z
" id="DejaVuSans-37"/>
      </defs>
      <g transform="translate(37.875 55.041909)scale(0.1 -0.1)">
       <use xlink:href="#DejaVuSans-37"/>
       <use x="63.623047" xlink:href="#DejaVuSans-30"/>
      </g>
     </g>
    </g>
    <g id="text_14">
     <!-- accuracy -->
     <defs>
      <path d="M 34.28125 27.484375 
Q 23.390625 27.484375 19.1875 25 
Q 14.984375 22.515625 14.984375 16.5 
Q 14.984375 11.71875 18.140625 8.90625 
Q 21.296875 6.109375 26.703125 6.109375 
Q 34.1875 6.109375 38.703125 11.40625 
Q 43.21875 16.703125 43.21875 25.484375 
L 43.21875 27.484375 
z
M 52.203125 31.203125 
L 52.203125 0 
L 43.21875 0 
L 43.21875 8.296875 
Q 40.140625 3.328125 35.546875 0.953125 
Q 30.953125 -1.421875 24.3125 -1.421875 
Q 15.921875 -1.421875 10.953125 3.296875 
Q 6 8.015625 6 15.921875 
Q 6 25.140625 12.171875 29.828125 
Q 18.359375 34.515625 30.609375 34.515625 
L 43.21875 34.515625 
L 43.21875 35.40625 
Q 43.21875 41.609375 39.140625 45 
Q 35.0625 48.390625 27.6875 48.390625 
Q 23 48.390625 18.546875 47.265625 
Q 14.109375 46.140625 10.015625 43.890625 
L 10.015625 52.203125 
Q 14.9375 54.109375 19.578125 55.046875 
Q 24.21875 56 28.609375 56 
Q 40.484375 56 46.34375 49.84375 
Q 52.203125 43.703125 52.203125 31.203125 
z
" id="DejaVuSans-61"/>
      <path d="M 8.5 21.578125 
L 8.5 54.6875 
L 17.484375 54.6875 
L 17.484375 21.921875 
Q 17.484375 14.15625 20.5 10.265625 
Q 23.53125 6.390625 29.59375 6.390625 
Q 36.859375 6.390625 41.078125 11.03125 
Q 45.3125 15.671875 45.3125 23.6875 
L 45.3125 54.6875 
L 54.296875 54.6875 
L 54.296875 0 
L 45.3125 0 
L 45.3125 8.40625 
Q 42.046875 3.421875 37.71875 1 
Q 33.40625 -1.421875 27.6875 -1.421875 
Q 18.265625 -1.421875 13.375 4.4375 
Q 8.5 10.296875 8.5 21.578125 
z
M 31.109375 56 
z
" id="DejaVuSans-75"/>
      <path d="M 41.109375 46.296875 
Q 39.59375 47.171875 37.8125 47.578125 
Q 36.03125 48 33.890625 48 
Q 26.265625 48 22.1875 43.046875 
Q 18.109375 38.09375 18.109375 28.8125 
L 18.109375 0 
L 9.078125 0 
L 9.078125 54.6875 
L 18.109375 54.6875 
L 18.109375 46.1875 
Q 20.953125 51.171875 25.484375 53.578125 
Q 30.03125 56 36.53125 56 
Q 37.453125 56 38.578125 55.875 
Q 39.703125 55.765625 41.0625 55.515625 
z
" id="DejaVuSans-72"/>
      <path d="M 32.171875 -5.078125 
Q 28.375 -14.84375 24.75 -17.8125 
Q 21.140625 -20.796875 15.09375 -20.796875 
L 7.90625 -20.796875 
L 7.90625 -13.28125 
L 13.1875 -13.28125 
Q 16.890625 -13.28125 18.9375 -11.515625 
Q 21 -9.765625 23.484375 -3.21875 
L 25.09375 0.875 
L 2.984375 54.6875 
L 12.5 54.6875 
L 29.59375 11.921875 
L 46.6875 54.6875 
L 56.203125 54.6875 
z
" id="DejaVuSans-79"/>
     </defs>
     <g transform="translate(31.795312 197.087375)rotate(-90)scale(0.1 -0.1)">
      <use xlink:href="#DejaVuSans-61"/>
      <use x="61.279297" xlink:href="#DejaVuSans-63"/>
      <use x="116.259766" xlink:href="#DejaVuSans-63"/>
      <use x="171.240234" xlink:href="#DejaVuSans-75"/>
      <use x="234.619141" xlink:href="#DejaVuSans-72"/>
      <use x="275.732422" xlink:href="#DejaVuSans-61"/>
      <use x="337.011719" xlink:href="#DejaVuSans-63"/>
      <use x="391.992188" xlink:href="#DejaVuSans-79"/>
     </g>
    </g>
   </g>
   <g id="line2d_13">
    <path clip-path="url(#p4637e3791d)" d="M 73.832727 165.621624 
L 77.112066 160.488392 
L 80.391405 145.220318 
L 83.670744 143.15825 
L 86.950083 140.13096 
L 90.229421 131.575573 
L 93.50876 127.275943 
L 96.788099 128.28504 
L 100.067438 128.153419 
L 103.346777 119.905149 
L 106.626116 121.572353 
L 109.905455 121.6601 
L 113.184793 120.475508 
L 116.464132 120.168392 
L 119.743471 119.027674 
L 123.02281 113.631199 
L 126.302149 115.122908 
L 129.581488 115.956509 
L 132.860826 114.859665 
L 136.140165 117.886955 
L 139.419504 118.018577 
L 142.698843 117.36047 
L 145.978182 111.349763 
L 149.257521 110.03355 
L 152.53686 108.454094 
L 155.816198 111.963996 
L 159.095537 107.927608 
L 162.374876 111.393637 
L 165.654215 109.901928 
L 168.933554 102.399513 
L 172.212893 116.307499 
L 175.492231 111.700753 
L 178.77157 110.560035 
L 182.050909 105.295182 
L 185.330248 107.094007 
L 188.609587 108.497967 
L 191.888926 107.532744 
L 195.168264 106.874638 
L 198.447603 112.578229 
L 201.726942 111.656879 
L 205.006281 105.690046 
L 208.28562 106.304279 
L 211.564959 103.540231 
L 214.844298 105.690046 
L 218.123636 106.4359 
L 221.402975 109.375443 
L 224.682314 107.269502 
L 227.961653 105.602298 
L 231.240992 104.900318 
L 234.520331 105.426803 
L 237.799669 102.180144 
L 241.079008 108.497967 
L 244.358347 118.896052 
L 247.637686 102.83825 
L 250.917025 106.4359 
L 254.196364 102.794376 
L 257.475702 105.426803 
L 260.755041 107.357249 
L 264.03438 101.78528 
L 267.313719 105.470677 
L 270.593058 107.532744 
L 273.872397 114.289306 
L 277.151736 105.382929 
L 280.431074 102.969872 
L 283.710413 98.231504 
L 286.989752 107.401123 
L 290.269091 99.679338 
L 293.54843 102.575008 
L 296.827769 103.145367 
L 300.107107 97.661145 
L 303.386446 103.18924 
L 306.665785 104.549328 
L 309.945124 100.030329 
L 313.224463 101.039425 
L 316.503802 110.603909 
L 319.78314 107.13788 
L 323.062479 107.050133 
L 326.341818 99.854834 
L 329.621157 99.196727 
L 332.900496 102.311765 
L 336.179835 102.662755 
L 339.459174 97.441776 
L 342.738512 96.695922 
L 346.017851 104.549328 
L 349.29719 103.364736 
L 352.576529 104.154464 
L 355.855868 105.777793 
L 359.135207 105.602298 
L 362.414545 103.18924 
L 365.693884 105.865541 
L 368.973223 102.706629 
L 372.252562 98.056009 
L 375.531901 100.907804 
L 378.81124 109.507064 
L 382.090579 97.748892 
L 385.369917 102.48726 
L 388.649256 104.549328 
L 391.928595 105.690046 
L 395.207934 100.776183 
L 398.487273 107.269502 
" style="fill:none;stroke:#1f77b4;stroke-linecap:square;stroke-width:1.5;"/>
   </g>
   <g id="line2d_14">
    <path clip-path="url(#p4637e3791d)" d="M 73.832727 137.80565 
L 77.112066 115.517771 
L 80.391405 100.469066 
L 83.670744 87.61405 
L 86.950083 82.042081 
L 90.229421 76.33849 
L 93.50876 73.969306 
L 96.788099 71.643996 
L 100.067438 69.932918 
L 103.346777 69.230938 
L 106.626116 68.704453 
L 109.905455 68.265715 
L 113.184793 68.485084 
L 116.464132 68.002472 
L 119.743471 69.011569 
L 123.02281 68.221841 
L 126.302149 68.660579 
L 129.581488 68.44121 
L 132.860826 71.073637 
L 136.140165 70.547151 
L 139.419504 70.76652 
L 142.698843 71.907238 
L 145.978182 72.960209 
L 149.257521 72.345976 
L 152.53686 72.170481 
L 155.816198 73.267325 
L 159.095537 74.671286 
L 162.374876 74.890655 
L 165.654215 73.925432 
L 168.933554 74.408044 
L 172.212893 75.153898 
L 175.492231 76.470111 
L 178.77157 76.206868 
L 182.050909 74.934529 
L 185.330248 75.329393 
L 188.609587 76.557859 
L 191.888926 75.724257 
L 195.168264 75.592635 
L 198.447603 77.128218 
L 201.726942 76.996596 
L 205.006281 77.786324 
L 208.28562 78.400557 
L 211.564959 80.374877 
L 214.844298 81.164605 
L 218.123636 81.647217 
L 221.402975 81.734964 
L 224.682314 83.226672 
L 227.961653 83.884779 
L 231.240992 83.095051 
L 234.520331 84.542886 
L 237.799669 85.99072 
L 241.079008 86.780448 
L 244.358347 85.551983 
L 247.637686 84.718381 
L 250.917025 85.859099 
L 254.196364 84.279643 
L 257.475702 84.279643 
L 260.755041 85.069371 
L 264.03438 84.411264 
L 267.313719 84.279643 
L 270.593058 85.508109 
L 273.872397 86.604953 
L 277.151736 86.341711 
L 280.431074 86.166215 
L 283.710413 85.683604 
L 286.989752 85.771351 
L 290.269091 85.420361 
L 293.54843 86.297837 
L 296.827769 86.473332 
L 300.107107 86.561079 
L 303.386446 86.604953 
L 306.665785 86.868196 
L 309.945124 86.91207 
L 313.224463 87.394681 
L 316.503802 86.999817 
L 319.78314 87.482429 
L 323.062479 89.105758 
L 326.341818 88.184409 
L 329.621157 88.31603 
L 332.900496 89.544496 
L 336.179835 89.58837 
L 339.459174 88.930263 
L 342.738512 89.149632 
L 346.017851 91.036205 
L 349.29719 89.456749 
L 352.576529 89.281254 
L 355.855868 88.974137 
L 359.135207 88.974137 
L 362.414545 88.096662 
L 365.693884 89.149632 
L 368.973223 87.921166 
L 372.252562 89.281254 
L 375.531901 89.93936 
L 378.81124 89.93936 
L 382.090579 90.772962 
L 385.369917 91.2117 
L 388.649256 92.089175 
L 391.928595 92.835029 
L 395.207934 91.56269 
L 398.487273 92.133049 
" style="fill:none;stroke:#ff7f0e;stroke-linecap:square;stroke-width:1.5;"/>
   </g>
   <g id="line2d_15">
    <path clip-path="url(#p4637e3791d)" d="M 73.832727 202.256226 
L 77.112066 181.50393 
L 80.391405 169.921254 
L 83.670744 161.365867 
L 86.950083 153.556335 
L 90.229421 147.45788 
L 93.50876 141.929785 
L 96.788099 137.586281 
L 100.067438 133.900884 
L 103.346777 129.952244 
L 106.626116 126.749458 
L 109.905455 124.555769 
L 113.184793 122.186585 
L 116.464132 120.475508 
L 119.743471 117.579839 
L 123.02281 115.473898 
L 126.302149 113.367956 
L 129.581488 112.534355 
L 132.860826 110.428413 
L 136.140165 108.629589 
L 139.419504 105.119687 
L 142.698843 103.540231 
L 145.978182 102.13627 
L 149.257521 100.293571 
L 152.53686 98.714115 
L 155.816198 97.046912 
L 159.095537 96.257184 
L 162.374876 94.721602 
L 165.654215 93.975748 
L 168.933554 93.054398 
L 172.212893 91.694311 
L 175.492231 90.992331 
L 178.77157 89.369001 
L 182.050909 88.31603 
L 185.330248 87.306934 
L 188.609587 86.122342 
L 191.888926 84.367391 
L 195.168264 83.489915 
L 198.447603 82.61244 
L 201.726942 81.69109 
L 205.006281 81.076857 
L 208.28562 80.243256 
L 211.564959 79.760644 
L 214.844298 79.058664 
L 218.123636 78.751547 
L 221.402975 78.181188 
L 224.682314 77.874072 
L 227.961653 76.733354 
L 231.240992 75.943626 
L 234.520331 74.890655 
L 237.799669 73.837684 
L 241.079008 73.311199 
L 244.358347 73.135704 
L 247.637686 72.609219 
L 250.917025 72.126607 
L 254.196364 71.600122 
L 257.475702 70.240035 
L 260.755041 69.625802 
L 264.03438 69.274812 
L 267.313719 68.879948 
L 270.593058 68.221841 
L 273.872397 67.826977 
L 277.151736 67.73923 
L 280.431074 67.519861 
L 283.710413 67.695356 
L 286.989752 66.905628 
L 290.269091 66.203647 
L 293.54843 65.76491 
L 296.827769 65.501667 
L 300.107107 65.106803 
L 303.386446 64.536444 
L 306.665785 64.053832 
L 309.945124 63.746716 
L 313.224463 63.176357 
L 316.503802 63.044736 
L 319.78314 62.737619 
L 323.062479 62.16726 
L 326.341818 62.211134 
L 329.621157 62.255008 
L 332.900496 62.079513 
L 336.179835 61.81627 
L 339.459174 61.289785 
L 342.738512 61.158163 
L 346.017851 60.719425 
L 349.29719 60.851047 
L 352.576529 60.587804 
L 355.855868 60.719425 
L 359.135207 60.456183 
L 362.414545 60.236814 
L 365.693884 59.973571 
L 368.973223 60.061319 
L 372.252562 59.929697 
L 375.531901 59.578707 
L 378.81124 59.315465 
L 382.090579 59.008348 
L 385.369917 58.920601 
L 388.649256 58.964474 
L 391.928595 58.657358 
L 395.207934 58.437989 
L 398.487273 58.306368 
" style="fill:none;stroke:#2ca02c;stroke-linecap:square;stroke-width:1.5;"/>
   </g>
   <g id="line2d_16">
    <path clip-path="url(#p4637e3791d)" d="M 73.832727 234.459578 
L 77.112066 215.462233 
L 80.391405 201.59812 
L 83.670744 191.37553 
L 86.950083 185.628065 
L 90.229421 179.222494 
L 93.50876 173.738272 
L 96.788099 169.482516 
L 100.067438 163.25244 
L 103.346777 157.153985 
L 106.626116 152.283996 
L 109.905455 147.414007 
L 113.184793 144.474464 
L 116.464132 141.227804 
L 119.743471 137.893397 
L 123.02281 135.480339 
L 126.302149 132.891787 
L 129.581488 129.074768 
L 132.860826 126.398468 
L 136.140165 124.3364 
L 139.419504 122.054964 
L 142.698843 119.203169 
L 145.978182 116.877859 
L 149.257521 114.552548 
L 152.53686 112.314986 
L 155.816198 109.814181 
L 159.095537 107.752113 
L 162.374876 105.558424 
L 165.654215 104.505454 
L 168.933554 102.311765 
L 172.212893 100.644561 
L 175.492231 99.503843 
L 178.77157 97.880514 
L 182.050909 96.739795 
L 185.330248 95.423582 
L 188.609587 93.931874 
L 191.888926 93.229893 
L 195.168264 92.220797 
L 198.447603 91.694311 
L 201.726942 90.334224 
L 205.006281 89.281254 
L 208.28562 87.570176 
L 211.564959 86.429458 
L 214.844298 85.069371 
L 218.123636 84.060274 
L 221.402975 82.700187 
L 224.682314 81.559469 
L 227.961653 80.901362 
L 231.240992 80.374877 
L 234.520331 78.619926 
L 237.799669 77.435334 
L 241.079008 76.557859 
L 244.358347 75.943626 
L 247.637686 74.978403 
L 250.917025 74.057053 
L 254.196364 73.662189 
L 257.475702 73.09183 
L 260.755041 72.170481 
L 264.03438 71.600122 
L 267.313719 70.371656 
L 270.593058 69.581928 
L 273.872397 68.748326 
L 277.151736 67.870851 
L 280.431074 67.300492 
L 283.710413 66.379143 
L 286.989752 66.1159 
L 290.269091 65.370046 
L 293.54843 64.84356 
L 296.827769 63.966085 
L 300.107107 63.4396 
L 303.386446 62.649872 
L 306.665785 61.81627 
L 309.945124 61.333658 
L 313.224463 60.982668 
L 316.503802 60.412309 
L 319.78314 60.061319 
L 323.062479 59.929697 
L 326.341818 59.754202 
L 329.621157 59.49096 
L 332.900496 59.227717 
L 336.179835 58.832853 
L 339.459174 58.701232 
L 342.738512 58.086999 
L 346.017851 57.51664 
L 349.29719 57.253397 
L 352.576529 56.990155 
L 355.855868 56.990155 
L 359.135207 56.639164 
L 362.414545 56.551417 
L 365.693884 56.200427 
L 368.973223 55.805563 
L 372.252562 55.366825 
L 375.531901 54.840339 
L 378.81124 54.752592 
L 382.090579 54.664844 
L 385.369917 54.445476 
L 388.649256 54.313854 
L 391.928595 54.226107 
L 395.207934 53.831243 
L 398.487273 53.568 
" style="fill:none;stroke:#d62728;stroke-linecap:square;stroke-width:1.5;"/>
   </g>
   <g id="line2d_17">
    <path clip-path="url(#p4637e3791d)" d="M 73.832727 277.850742 
L 77.112066 267.321036 
L 80.391405 258.063669 
L 83.670744 256.264844 
L 86.950083 252.403952 
L 90.229421 246.831983 
L 93.50876 241.742625 
L 96.788099 238.364344 
L 100.067438 235.337053 
L 103.346777 232.39751 
L 106.626116 229.852831 
L 109.905455 227.352026 
L 113.184793 224.456357 
L 116.464132 222.174921 
L 119.743471 219.937358 
L 123.02281 217.963038 
L 126.302149 215.681602 
L 129.581488 215.19899 
L 132.860826 213.531787 
L 136.140165 212.127826 
L 139.419504 210.592244 
L 142.698843 208.749545 
L 145.978182 206.424235 
L 149.257521 205.064148 
L 152.53686 203.484692 
L 155.816198 201.94911 
L 159.095537 201.641993 
L 162.374876 200.545149 
L 165.654215 200.018664 
L 168.933554 198.526955 
L 172.212893 198.00047 
L 175.492231 197.29849 
L 178.77157 195.631286 
L 182.050909 194.05183 
L 185.330248 193.262102 
L 188.609587 192.867238 
L 191.888926 192.340753 
L 195.168264 191.463277 
L 198.447603 190.980666 
L 201.726942 190.278686 
L 205.006281 189.05022 
L 208.28562 187.514638 
L 211.564959 186.417793 
L 214.844298 186.022929 
L 218.123636 185.759687 
L 221.402975 184.662842 
L 224.682314 183.960862 
L 227.961653 183.47825 
L 231.240992 182.600775 
L 234.520331 181.854921 
L 237.799669 181.416183 
L 241.079008 180.758076 
L 244.358347 179.836727 
L 247.637686 179.266368 
L 250.917025 178.301145 
L 254.196364 177.555291 
L 257.475702 176.809436 
L 260.755041 176.326825 
L 264.03438 175.712592 
L 267.313719 175.054485 
L 270.593058 174.659621 
L 273.872397 173.957641 
L 277.151736 172.992418 
L 280.431074 172.290437 
L 283.710413 172.071069 
L 286.989752 171.588457 
L 290.269091 170.57936 
L 293.54843 170.140622 
L 296.827769 169.570263 
L 300.107107 169.131526 
L 303.386446 168.25405 
L 306.665785 167.55207 
L 309.945124 166.806215 
L 313.224463 166.499099 
L 316.503802 166.191983 
L 319.78314 165.840992 
L 323.062479 165.797119 
L 326.341818 165.446128 
L 329.621157 165.139012 
L 332.900496 164.700274 
L 336.179835 163.998294 
L 339.459174 163.778925 
L 342.738512 163.208566 
L 346.017851 162.594333 
L 349.29719 161.585236 
L 352.576529 161.321993 
L 355.855868 160.532266 
L 359.135207 159.961906 
L 362.414545 159.216052 
L 365.693884 158.777314 
L 368.973223 158.514072 
L 372.252562 157.987587 
L 375.531901 157.022363 
L 378.81124 156.232635 
L 382.090579 155.750024 
L 385.369917 154.960296 
L 388.649256 154.477684 
L 391.928595 154.214442 
L 395.207934 153.995073 
L 398.487273 153.161471 
" style="fill:none;stroke:#9467bd;stroke-linecap:square;stroke-width:1.5;"/>
   </g>
   <g id="line2d_18">
    <path clip-path="url(#p4637e3791d)" d="M 73.832727 295.488 
L 77.112066 293.51368 
L 80.391405 291.846477 
L 83.670744 290.267021 
L 86.950083 289.170176 
L 90.229421 287.722342 
L 93.50876 286.625497 
L 96.788099 284.607304 
L 100.067438 281.272897 
L 103.346777 278.464975 
L 106.626116 275.788675 
L 109.905455 272.980753 
L 113.184793 271.269676 
L 116.464132 269.075987 
L 119.743471 267.452657 
L 123.02281 265.653832 
L 126.302149 263.41627 
L 129.581488 261.749066 
L 132.860826 260.783843 
L 136.140165 259.81862 
L 139.419504 259.46763 
L 142.698843 259.81862 
L 145.978182 260.696096 
L 149.257521 260.432853 
L 152.53686 260.257358 
L 155.816198 259.774746 
L 159.095537 260.257358 
L 162.374876 260.476727 
L 165.654215 259.774746 
L 168.933554 260.125737 
L 172.212893 260.125737 
L 175.492231 259.599251 
L 178.77157 259.204387 
L 182.050909 259.204387 
L 185.330248 258.941145 
L 188.609587 258.502407 
L 191.888926 258.195291 
L 195.168264 257.800427 
L 198.447603 257.405563 
L 201.726942 257.49331 
L 205.006281 257.230067 
L 208.28562 256.528087 
L 211.564959 256.001602 
L 214.844298 255.782233 
L 218.123636 254.597641 
L 221.402975 254.071156 
L 224.682314 253.456923 
L 227.961653 253.018185 
L 231.240992 252.711069 
L 234.520331 252.360078 
L 237.799669 251.789719 
L 241.079008 251.175486 
L 244.358347 250.736749 
L 247.637686 250.473506 
L 250.917025 249.771526 
L 254.196364 249.59603 
L 257.475702 249.157293 
L 260.755041 248.586934 
L 264.03438 247.753332 
L 267.313719 247.182973 
L 270.593058 246.305497 
L 273.872397 245.691264 
L 277.151736 245.252527 
L 280.431074 244.506672 
L 283.710413 243.89244 
L 286.989752 243.278207 
L 290.269091 242.400731 
L 293.54843 242.26911 
L 296.827769 241.567129 
L 300.107107 241.523256 
L 303.386446 241.391634 
L 306.665785 240.733528 
L 309.945124 240.733528 
L 313.224463 240.64578 
L 316.503802 239.987674 
L 319.78314 239.505062 
L 323.062479 239.066324 
L 326.341818 238.67146 
L 329.621157 238.32047 
L 332.900496 237.96948 
L 336.179835 237.662363 
L 339.459174 237.61849 
L 342.738512 236.916509 
L 346.017851 236.521645 
L 349.29719 236.082908 
L 352.576529 235.556422 
L 355.855868 235.117684 
L 359.135207 234.503452 
L 362.414545 234.591199 
L 365.693884 234.284083 
L 368.973223 233.933092 
L 372.252562 233.450481 
L 375.531901 233.055617 
L 378.81124 232.660753 
L 382.090579 232.485258 
L 385.369917 232.39751 
L 388.649256 232.090394 
L 391.928595 232.134268 
L 395.207934 232.04652 
L 398.487273 231.871025 
" style="fill:none;stroke:#8c564b;stroke-linecap:square;stroke-width:1.5;"/>
   </g>
   <g id="patch_3">
    <path d="M 57.6 307.584 
L 57.6 41.472 
" style="fill:none;stroke:#000000;stroke-linecap:square;stroke-linejoin:miter;stroke-width:0.8;"/>
   </g>
   <g id="patch_4">
    <path d="M 414.72 307.584 
L 414.72 41.472 
" style="fill:none;stroke:#000000;stroke-linecap:square;stroke-linejoin:miter;stroke-width:0.8;"/>
   </g>
   <g id="patch_5">
    <path d="M 57.6 307.584 
L 414.72 307.584 
" style="fill:none;stroke:#000000;stroke-linecap:square;stroke-linejoin:miter;stroke-width:0.8;"/>
   </g>
   <g id="patch_6">
    <path d="M 57.6 41.472 
L 414.72 41.472 
" style="fill:none;stroke:#000000;stroke-linecap:square;stroke-linejoin:miter;stroke-width:0.8;"/>
   </g>
   <g id="text_15">
    <!-- spatialSExpLog - CIFAR10 - 3-layer-CNN -->
    <defs>
     <path d="M 44.28125 53.078125 
L 44.28125 44.578125 
Q 40.484375 46.53125 36.375 47.5 
Q 32.28125 48.484375 27.875 48.484375 
Q 21.1875 48.484375 17.84375 46.4375 
Q 14.5 44.390625 14.5 40.28125 
Q 14.5 37.15625 16.890625 35.375 
Q 19.28125 33.59375 26.515625 31.984375 
L 29.59375 31.296875 
Q 39.15625 29.25 43.1875 25.515625 
Q 47.21875 21.78125 47.21875 15.09375 
Q 47.21875 7.46875 41.1875 3.015625 
Q 35.15625 -1.421875 24.609375 -1.421875 
Q 20.21875 -1.421875 15.453125 -0.5625 
Q 10.6875 0.296875 5.421875 2 
L 5.421875 11.28125 
Q 10.40625 8.6875 15.234375 7.390625 
Q 20.0625 6.109375 24.8125 6.109375 
Q 31.15625 6.109375 34.5625 8.28125 
Q 37.984375 10.453125 37.984375 14.40625 
Q 37.984375 18.0625 35.515625 20.015625 
Q 33.0625 21.96875 24.703125 23.78125 
L 21.578125 24.515625 
Q 13.234375 26.265625 9.515625 29.90625 
Q 5.8125 33.546875 5.8125 39.890625 
Q 5.8125 47.609375 11.28125 51.796875 
Q 16.75 56 26.8125 56 
Q 31.78125 56 36.171875 55.265625 
Q 40.578125 54.546875 44.28125 53.078125 
z
" id="DejaVuSans-73"/>
     <path d="M 18.3125 70.21875 
L 18.3125 54.6875 
L 36.8125 54.6875 
L 36.8125 47.703125 
L 18.3125 47.703125 
L 18.3125 18.015625 
Q 18.3125 11.328125 20.140625 9.421875 
Q 21.96875 7.515625 27.59375 7.515625 
L 36.8125 7.515625 
L 36.8125 0 
L 27.59375 0 
Q 17.1875 0 13.234375 3.875 
Q 9.28125 7.765625 9.28125 18.015625 
L 9.28125 47.703125 
L 2.6875 47.703125 
L 2.6875 54.6875 
L 9.28125 54.6875 
L 9.28125 70.21875 
z
" id="DejaVuSans-74"/>
     <path d="M 9.421875 54.6875 
L 18.40625 54.6875 
L 18.40625 0 
L 9.421875 0 
z
M 9.421875 75.984375 
L 18.40625 75.984375 
L 18.40625 64.59375 
L 9.421875 64.59375 
z
" id="DejaVuSans-69"/>
     <path d="M 9.421875 75.984375 
L 18.40625 75.984375 
L 18.40625 0 
L 9.421875 0 
z
" id="DejaVuSans-6c"/>
     <path d="M 53.515625 70.515625 
L 53.515625 60.890625 
Q 47.90625 63.578125 42.921875 64.890625 
Q 37.9375 66.21875 33.296875 66.21875 
Q 25.25 66.21875 20.875 63.09375 
Q 16.5 59.96875 16.5 54.203125 
Q 16.5 49.359375 19.40625 46.890625 
Q 22.3125 44.4375 30.421875 42.921875 
L 36.375 41.703125 
Q 47.40625 39.59375 52.65625 34.296875 
Q 57.90625 29 57.90625 20.125 
Q 57.90625 9.515625 50.796875 4.046875 
Q 43.703125 -1.421875 29.984375 -1.421875 
Q 24.8125 -1.421875 18.96875 -0.25 
Q 13.140625 0.921875 6.890625 3.21875 
L 6.890625 13.375 
Q 12.890625 10.015625 18.65625 8.296875 
Q 24.421875 6.59375 29.984375 6.59375 
Q 38.421875 6.59375 43.015625 9.90625 
Q 47.609375 13.234375 47.609375 19.390625 
Q 47.609375 24.75 44.3125 27.78125 
Q 41.015625 30.8125 33.5 32.328125 
L 27.484375 33.5 
Q 16.453125 35.6875 11.515625 40.375 
Q 6.59375 45.0625 6.59375 53.421875 
Q 6.59375 63.09375 13.40625 68.65625 
Q 20.21875 74.21875 32.171875 74.21875 
Q 37.3125 74.21875 42.625 73.28125 
Q 47.953125 72.359375 53.515625 70.515625 
z
" id="DejaVuSans-53"/>
     <path d="M 9.8125 72.90625 
L 55.90625 72.90625 
L 55.90625 64.59375 
L 19.671875 64.59375 
L 19.671875 43.015625 
L 54.390625 43.015625 
L 54.390625 34.71875 
L 19.671875 34.71875 
L 19.671875 8.296875 
L 56.78125 8.296875 
L 56.78125 0 
L 9.8125 0 
z
" id="DejaVuSans-45"/>
     <path d="M 54.890625 54.6875 
L 35.109375 28.078125 
L 55.90625 0 
L 45.3125 0 
L 29.390625 21.484375 
L 13.484375 0 
L 2.875 0 
L 24.125 28.609375 
L 4.6875 54.6875 
L 15.28125 54.6875 
L 29.78125 35.203125 
L 44.28125 54.6875 
z
" id="DejaVuSans-78"/>
     <path d="M 9.8125 72.90625 
L 19.671875 72.90625 
L 19.671875 8.296875 
L 55.171875 8.296875 
L 55.171875 0 
L 9.8125 0 
z
" id="DejaVuSans-4c"/>
     <path d="M 45.40625 27.984375 
Q 45.40625 37.75 41.375 43.109375 
Q 37.359375 48.484375 30.078125 48.484375 
Q 22.859375 48.484375 18.828125 43.109375 
Q 14.796875 37.75 14.796875 27.984375 
Q 14.796875 18.265625 18.828125 12.890625 
Q 22.859375 7.515625 30.078125 7.515625 
Q 37.359375 7.515625 41.375 12.890625 
Q 45.40625 18.265625 45.40625 27.984375 
z
M 54.390625 6.78125 
Q 54.390625 -7.171875 48.1875 -13.984375 
Q 42 -20.796875 29.203125 -20.796875 
Q 24.46875 -20.796875 20.265625 -20.09375 
Q 16.0625 -19.390625 12.109375 -17.921875 
L 12.109375 -9.1875 
Q 16.0625 -11.328125 19.921875 -12.34375 
Q 23.78125 -13.375 27.78125 -13.375 
Q 36.625 -13.375 41.015625 -8.765625 
Q 45.40625 -4.15625 45.40625 5.171875 
L 45.40625 9.625 
Q 42.625 4.78125 38.28125 2.390625 
Q 33.9375 0 27.875 0 
Q 17.828125 0 11.671875 7.65625 
Q 5.515625 15.328125 5.515625 27.984375 
Q 5.515625 40.671875 11.671875 48.328125 
Q 17.828125 56 27.875 56 
Q 33.9375 56 38.28125 53.609375 
Q 42.625 51.21875 45.40625 46.390625 
L 45.40625 54.6875 
L 54.390625 54.6875 
z
" id="DejaVuSans-67"/>
     <path id="DejaVuSans-20"/>
     <path d="M 4.890625 31.390625 
L 31.203125 31.390625 
L 31.203125 23.390625 
L 4.890625 23.390625 
z
" id="DejaVuSans-2d"/>
     <path d="M 64.40625 67.28125 
L 64.40625 56.890625 
Q 59.421875 61.53125 53.78125 63.8125 
Q 48.140625 66.109375 41.796875 66.109375 
Q 29.296875 66.109375 22.65625 58.46875 
Q 16.015625 50.828125 16.015625 36.375 
Q 16.015625 21.96875 22.65625 14.328125 
Q 29.296875 6.6875 41.796875 6.6875 
Q 48.140625 6.6875 53.78125 8.984375 
Q 59.421875 11.28125 64.40625 15.921875 
L 64.40625 5.609375 
Q 59.234375 2.09375 53.4375 0.328125 
Q 47.65625 -1.421875 41.21875 -1.421875 
Q 24.65625 -1.421875 15.125 8.703125 
Q 5.609375 18.84375 5.609375 36.375 
Q 5.609375 53.953125 15.125 64.078125 
Q 24.65625 74.21875 41.21875 74.21875 
Q 47.75 74.21875 53.53125 72.484375 
Q 59.328125 70.75 64.40625 67.28125 
z
" id="DejaVuSans-43"/>
     <path d="M 9.8125 72.90625 
L 19.671875 72.90625 
L 19.671875 0 
L 9.8125 0 
z
" id="DejaVuSans-49"/>
     <path d="M 9.8125 72.90625 
L 51.703125 72.90625 
L 51.703125 64.59375 
L 19.671875 64.59375 
L 19.671875 43.109375 
L 48.578125 43.109375 
L 48.578125 34.8125 
L 19.671875 34.8125 
L 19.671875 0 
L 9.8125 0 
z
" id="DejaVuSans-46"/>
     <path d="M 34.1875 63.1875 
L 20.796875 26.90625 
L 47.609375 26.90625 
z
M 28.609375 72.90625 
L 39.796875 72.90625 
L 67.578125 0 
L 57.328125 0 
L 50.6875 18.703125 
L 17.828125 18.703125 
L 11.1875 0 
L 0.78125 0 
z
" id="DejaVuSans-41"/>
     <path d="M 44.390625 34.1875 
Q 47.5625 33.109375 50.5625 29.59375 
Q 53.5625 26.078125 56.59375 19.921875 
L 66.609375 0 
L 56 0 
L 46.6875 18.703125 
Q 43.0625 26.03125 39.671875 28.421875 
Q 36.28125 30.8125 30.421875 30.8125 
L 19.671875 30.8125 
L 19.671875 0 
L 9.8125 0 
L 9.8125 72.90625 
L 32.078125 72.90625 
Q 44.578125 72.90625 50.734375 67.671875 
Q 56.890625 62.453125 56.890625 51.90625 
Q 56.890625 45.015625 53.6875 40.46875 
Q 50.484375 35.9375 44.390625 34.1875 
z
M 19.671875 64.796875 
L 19.671875 38.921875 
L 32.078125 38.921875 
Q 39.203125 38.921875 42.84375 42.21875 
Q 46.484375 45.515625 46.484375 51.90625 
Q 46.484375 58.296875 42.84375 61.546875 
Q 39.203125 64.796875 32.078125 64.796875 
z
" id="DejaVuSans-52"/>
     <path d="M 9.8125 72.90625 
L 23.09375 72.90625 
L 55.421875 11.921875 
L 55.421875 72.90625 
L 64.984375 72.90625 
L 64.984375 0 
L 51.703125 0 
L 19.390625 60.984375 
L 19.390625 0 
L 9.8125 0 
z
" id="DejaVuSans-4e"/>
    </defs>
    <g transform="translate(116.773125 35.472)scale(0.12 -0.12)">
     <use xlink:href="#DejaVuSans-73"/>
     <use x="52.099609" xlink:href="#DejaVuSans-70"/>
     <use x="115.576172" xlink:href="#DejaVuSans-61"/>
     <use x="176.855469" xlink:href="#DejaVuSans-74"/>
     <use x="216.064453" xlink:href="#DejaVuSans-69"/>
     <use x="243.847656" xlink:href="#DejaVuSans-61"/>
     <use x="305.126953" xlink:href="#DejaVuSans-6c"/>
     <use x="332.910156" xlink:href="#DejaVuSans-53"/>
     <use x="396.386719" xlink:href="#DejaVuSans-45"/>
     <use x="459.570312" xlink:href="#DejaVuSans-78"/>
     <use x="518.75" xlink:href="#DejaVuSans-70"/>
     <use x="582.226562" xlink:href="#DejaVuSans-4c"/>
     <use x="637.923828" xlink:href="#DejaVuSans-6f"/>
     <use x="699.105469" xlink:href="#DejaVuSans-67"/>
     <use x="762.582031" xlink:href="#DejaVuSans-20"/>
     <use x="794.369141" xlink:href="#DejaVuSans-2d"/>
     <use x="830.453125" xlink:href="#DejaVuSans-20"/>
     <use x="862.240234" xlink:href="#DejaVuSans-43"/>
     <use x="932.064453" xlink:href="#DejaVuSans-49"/>
     <use x="961.556641" xlink:href="#DejaVuSans-46"/>
     <use x="1018.935547" xlink:href="#DejaVuSans-41"/>
     <use x="1087.34375" xlink:href="#DejaVuSans-52"/>
     <use x="1156.826172" xlink:href="#DejaVuSans-31"/>
     <use x="1220.449219" xlink:href="#DejaVuSans-30"/>
     <use x="1284.072266" xlink:href="#DejaVuSans-20"/>
     <use x="1315.859375" xlink:href="#DejaVuSans-2d"/>
     <use x="1351.943359" xlink:href="#DejaVuSans-20"/>
     <use x="1383.730469" xlink:href="#DejaVuSans-33"/>
     <use x="1447.353516" xlink:href="#DejaVuSans-2d"/>
     <use x="1483.4375" xlink:href="#DejaVuSans-6c"/>
     <use x="1511.220703" xlink:href="#DejaVuSans-61"/>
     <use x="1572.5" xlink:href="#DejaVuSans-79"/>
     <use x="1631.679688" xlink:href="#DejaVuSans-65"/>
     <use x="1693.203125" xlink:href="#DejaVuSans-72"/>
     <use x="1734.222656" xlink:href="#DejaVuSans-2d"/>
     <use x="1770.306641" xlink:href="#DejaVuSans-43"/>
     <use x="1840.130859" xlink:href="#DejaVuSans-4e"/>
     <use x="1914.935547" xlink:href="#DejaVuSans-4e"/>
    </g>
   </g>
   <g id="legend_1">
    <g id="patch_7">
     <path d="M 315.568438 302.584 
L 407.72 302.584 
Q 409.72 302.584 409.72 300.584 
L 409.72 213.51525 
Q 409.72 211.51525 407.72 211.51525 
L 315.568438 211.51525 
Q 313.568438 211.51525 313.568438 213.51525 
L 313.568438 300.584 
Q 313.568438 302.584 315.568438 302.584 
z
" style="fill:#ffffff;opacity:0.8;stroke:#cccccc;stroke-linejoin:miter;"/>
    </g>
    <g id="line2d_19">
     <path d="M 317.568438 219.613687 
L 337.568438 219.613687 
" style="fill:none;stroke:#1f77b4;stroke-linecap:square;stroke-width:1.5;"/>
    </g>
    <g id="line2d_20"/>
    <g id="text_16">
     <!-- adam .01 -->
     <defs>
      <path d="M 45.40625 46.390625 
L 45.40625 75.984375 
L 54.390625 75.984375 
L 54.390625 0 
L 45.40625 0 
L 45.40625 8.203125 
Q 42.578125 3.328125 38.25 0.953125 
Q 33.9375 -1.421875 27.875 -1.421875 
Q 17.96875 -1.421875 11.734375 6.484375 
Q 5.515625 14.40625 5.515625 27.296875 
Q 5.515625 40.1875 11.734375 48.09375 
Q 17.96875 56 27.875 56 
Q 33.9375 56 38.25 53.625 
Q 42.578125 51.265625 45.40625 46.390625 
z
M 14.796875 27.296875 
Q 14.796875 17.390625 18.875 11.75 
Q 22.953125 6.109375 30.078125 6.109375 
Q 37.203125 6.109375 41.296875 11.75 
Q 45.40625 17.390625 45.40625 27.296875 
Q 45.40625 37.203125 41.296875 42.84375 
Q 37.203125 48.484375 30.078125 48.484375 
Q 22.953125 48.484375 18.875 42.84375 
Q 14.796875 37.203125 14.796875 27.296875 
z
" id="DejaVuSans-64"/>
      <path d="M 52 44.1875 
Q 55.375 50.25 60.0625 53.125 
Q 64.75 56 71.09375 56 
Q 79.640625 56 84.28125 50.015625 
Q 88.921875 44.046875 88.921875 33.015625 
L 88.921875 0 
L 79.890625 0 
L 79.890625 32.71875 
Q 79.890625 40.578125 77.09375 44.375 
Q 74.3125 48.1875 68.609375 48.1875 
Q 61.625 48.1875 57.5625 43.546875 
Q 53.515625 38.921875 53.515625 30.90625 
L 53.515625 0 
L 44.484375 0 
L 44.484375 32.71875 
Q 44.484375 40.625 41.703125 44.40625 
Q 38.921875 48.1875 33.109375 48.1875 
Q 26.21875 48.1875 22.15625 43.53125 
Q 18.109375 38.875 18.109375 30.90625 
L 18.109375 0 
L 9.078125 0 
L 9.078125 54.6875 
L 18.109375 54.6875 
L 18.109375 46.1875 
Q 21.1875 51.21875 25.484375 53.609375 
Q 29.78125 56 35.6875 56 
Q 41.65625 56 45.828125 52.96875 
Q 50 49.953125 52 44.1875 
z
" id="DejaVuSans-6d"/>
      <path d="M 10.6875 12.40625 
L 21 12.40625 
L 21 0 
L 10.6875 0 
z
" id="DejaVuSans-2e"/>
     </defs>
     <g transform="translate(345.568438 223.113687)scale(0.1 -0.1)">
      <use xlink:href="#DejaVuSans-61"/>
      <use x="61.279297" xlink:href="#DejaVuSans-64"/>
      <use x="124.755859" xlink:href="#DejaVuSans-61"/>
      <use x="186.035156" xlink:href="#DejaVuSans-6d"/>
      <use x="283.447266" xlink:href="#DejaVuSans-20"/>
      <use x="315.234375" xlink:href="#DejaVuSans-2e"/>
      <use x="347.021484" xlink:href="#DejaVuSans-30"/>
      <use x="410.644531" xlink:href="#DejaVuSans-31"/>
     </g>
    </g>
    <g id="line2d_21">
     <path d="M 317.568438 234.291812 
L 337.568438 234.291812 
" style="fill:none;stroke:#ff7f0e;stroke-linecap:square;stroke-width:1.5;"/>
    </g>
    <g id="line2d_22"/>
    <g id="text_17">
     <!-- adam .001 -->
     <g transform="translate(345.568438 237.791812)scale(0.1 -0.1)">
      <use xlink:href="#DejaVuSans-61"/>
      <use x="61.279297" xlink:href="#DejaVuSans-64"/>
      <use x="124.755859" xlink:href="#DejaVuSans-61"/>
      <use x="186.035156" xlink:href="#DejaVuSans-6d"/>
      <use x="283.447266" xlink:href="#DejaVuSans-20"/>
      <use x="315.234375" xlink:href="#DejaVuSans-2e"/>
      <use x="347.021484" xlink:href="#DejaVuSans-30"/>
      <use x="410.644531" xlink:href="#DejaVuSans-30"/>
      <use x="474.267578" xlink:href="#DejaVuSans-31"/>
     </g>
    </g>
    <g id="line2d_23">
     <path d="M 317.568438 248.969937 
L 337.568438 248.969937 
" style="fill:none;stroke:#2ca02c;stroke-linecap:square;stroke-width:1.5;"/>
    </g>
    <g id="line2d_24"/>
    <g id="text_18">
     <!-- adam .0001 -->
     <g transform="translate(345.568438 252.469937)scale(0.1 -0.1)">
      <use xlink:href="#DejaVuSans-61"/>
      <use x="61.279297" xlink:href="#DejaVuSans-64"/>
      <use x="124.755859" xlink:href="#DejaVuSans-61"/>
      <use x="186.035156" xlink:href="#DejaVuSans-6d"/>
      <use x="283.447266" xlink:href="#DejaVuSans-20"/>
      <use x="315.234375" xlink:href="#DejaVuSans-2e"/>
      <use x="347.021484" xlink:href="#DejaVuSans-30"/>
      <use x="410.644531" xlink:href="#DejaVuSans-30"/>
      <use x="474.267578" xlink:href="#DejaVuSans-30"/>
      <use x="537.890625" xlink:href="#DejaVuSans-31"/>
     </g>
    </g>
    <g id="line2d_25">
     <path d="M 317.568438 263.648062 
L 337.568438 263.648062 
" style="fill:none;stroke:#d62728;stroke-linecap:square;stroke-width:1.5;"/>
    </g>
    <g id="line2d_26"/>
    <g id="text_19">
     <!-- SGD .01 -->
     <defs>
      <path d="M 59.515625 10.40625 
L 59.515625 29.984375 
L 43.40625 29.984375 
L 43.40625 38.09375 
L 69.28125 38.09375 
L 69.28125 6.78125 
Q 63.578125 2.734375 56.6875 0.65625 
Q 49.8125 -1.421875 42 -1.421875 
Q 24.90625 -1.421875 15.25 8.5625 
Q 5.609375 18.5625 5.609375 36.375 
Q 5.609375 54.25 15.25 64.234375 
Q 24.90625 74.21875 42 74.21875 
Q 49.125 74.21875 55.546875 72.453125 
Q 61.96875 70.703125 67.390625 67.28125 
L 67.390625 56.78125 
Q 61.921875 61.421875 55.765625 63.765625 
Q 49.609375 66.109375 42.828125 66.109375 
Q 29.4375 66.109375 22.71875 58.640625 
Q 16.015625 51.171875 16.015625 36.375 
Q 16.015625 21.625 22.71875 14.15625 
Q 29.4375 6.6875 42.828125 6.6875 
Q 48.046875 6.6875 52.140625 7.59375 
Q 56.25 8.5 59.515625 10.40625 
z
" id="DejaVuSans-47"/>
      <path d="M 19.671875 64.796875 
L 19.671875 8.109375 
L 31.59375 8.109375 
Q 46.6875 8.109375 53.6875 14.9375 
Q 60.6875 21.78125 60.6875 36.53125 
Q 60.6875 51.171875 53.6875 57.984375 
Q 46.6875 64.796875 31.59375 64.796875 
z
M 9.8125 72.90625 
L 30.078125 72.90625 
Q 51.265625 72.90625 61.171875 64.09375 
Q 71.09375 55.28125 71.09375 36.53125 
Q 71.09375 17.671875 61.125 8.828125 
Q 51.171875 0 30.078125 0 
L 9.8125 0 
z
" id="DejaVuSans-44"/>
     </defs>
     <g transform="translate(345.568438 267.148062)scale(0.1 -0.1)">
      <use xlink:href="#DejaVuSans-53"/>
      <use x="63.476562" xlink:href="#DejaVuSans-47"/>
      <use x="140.966797" xlink:href="#DejaVuSans-44"/>
      <use x="217.96875" xlink:href="#DejaVuSans-20"/>
      <use x="249.755859" xlink:href="#DejaVuSans-2e"/>
      <use x="281.542969" xlink:href="#DejaVuSans-30"/>
      <use x="345.166016" xlink:href="#DejaVuSans-31"/>
     </g>
    </g>
    <g id="line2d_27">
     <path d="M 317.568438 278.326188 
L 337.568438 278.326188 
" style="fill:none;stroke:#9467bd;stroke-linecap:square;stroke-width:1.5;"/>
    </g>
    <g id="line2d_28"/>
    <g id="text_20">
     <!-- SGD .001 -->
     <g transform="translate(345.568438 281.826188)scale(0.1 -0.1)">
      <use xlink:href="#DejaVuSans-53"/>
      <use x="63.476562" xlink:href="#DejaVuSans-47"/>
      <use x="140.966797" xlink:href="#DejaVuSans-44"/>
      <use x="217.96875" xlink:href="#DejaVuSans-20"/>
      <use x="249.755859" xlink:href="#DejaVuSans-2e"/>
      <use x="281.542969" xlink:href="#DejaVuSans-30"/>
      <use x="345.166016" xlink:href="#DejaVuSans-30"/>
      <use x="408.789062" xlink:href="#DejaVuSans-31"/>
     </g>
    </g>
    <g id="line2d_29">
     <path d="M 317.568438 293.004312 
L 337.568438 293.004312 
" style="fill:none;stroke:#8c564b;stroke-linecap:square;stroke-width:1.5;"/>
    </g>
    <g id="line2d_30"/>
    <g id="text_21">
     <!-- SGD .0001 -->
     <g transform="translate(345.568438 296.504312)scale(0.1 -0.1)">
      <use xlink:href="#DejaVuSans-53"/>
      <use x="63.476562" xlink:href="#DejaVuSans-47"/>
      <use x="140.966797" xlink:href="#DejaVuSans-44"/>
      <use x="217.96875" xlink:href="#DejaVuSans-20"/>
      <use x="249.755859" xlink:href="#DejaVuSans-2e"/>
      <use x="281.542969" xlink:href="#DejaVuSans-30"/>
      <use x="345.166016" xlink:href="#DejaVuSans-30"/>
      <use x="408.789062" xlink:href="#DejaVuSans-30"/>
      <use x="472.412109" xlink:href="#DejaVuSans-31"/>
     </g>
    </g>
   </g>
  </g>
 </g>
 <defs>
  <clipPath id="p4637e3791d">
   <rect height="266.112" width="357.12" x="57.6" y="41.472"/>
  </clipPath>
 </defs>
</svg>
